<svg width="732" height="1139" viewBox="0 0 732 1139" xmlns="http://www.w3.org/2000/svg" xmlns:xlink="http://www.w3.org/1999/xlink"><title>indiana_map</title><defs><path d="M136.1748 8h582c1.9 0 3.5 1.6 3.5 3.5v745.8c0 1.1-.5 2.1-1.4 2.8l-17.1 13c-1.4 1.1-1.8 3.1-.8 4.7l11.1 17.5c.7 1.1.7 2.5 0 3.7l-6.1 10.2c-1 1.7-.5 3.8 1.2 4.8l13.7 8.2c1.8 1.1 2.2 3.4 1 5.1l-8.6 11.5c-.7.9-.9 2.1-.5 3.1l1.6 5.2c.8 2.6-1.6 5.1-4.3 4.4l-20.3-5.8c-.9-.3-2-.1-2.8.4l-27.7 16.9-19.5 12.1c-.9.6-2.1.7-3.1.3l-7.5-3c-.6-.2-1.1-.6-1.4-1.1l-6.3-7.9c-.7-.9-1.8-1.4-2.9-1.3l-30.6 1.8c-1 .1-1.9.5-2.5 1.3l-6 7.5c-.7.8-.9 1.9-.7 2.9l9 40.4c.4 1.7-.5 3.4-2.2 4l-9 3.5c-.8.3-1.4.8-1.8 1.5l-7.5 13.3c-.6 1-1.6 1.6-2.7 1.8l-15.1 1.6c-1.3.1-2.4 1-2.9 2.2l-11.1 27.9c0 .1-.1.2-.2.3l-7.1 13.4c-.5.9-1.4 1.6-2.4 1.8l-14 2.6c-.2 0-.4.1-.6.1h-10.2c-1.5 0-2.8 1-3.3 2.4l-4 12.1c-.1.3-.3.6-.5.9l-11.1 15.7c-.4.6-.6 1.2-.6 1.9l-.9 29.8c0 .7-.3 1.4-.7 2l-7.8 10.5c-.3.4-.7.8-1.2 1l-18.5 9.3c-1.6.8-3.5.3-4.4-1.1l-8.3-12.1c-.6-.9-1.6-1.5-2.7-1.5l-16.1-.8c-.8 0-1.5-.3-2.1-.9l-15.3-13.2c-.8-.7-1.2-1.6-1.2-2.6v-19.6c0-1.1-.6-2.2-1.5-2.9l-10.2-7.1c-.8-.6-1.8-.8-2.8-.5l-7.9 1.8c-1.9.4-3.1 2.4-2.6 4.4l.3.9c.4 1.5 1.8 2.5 3.4 2.5h4.9c1.9 0 3.5 1.6 3.5 3.5v2c0 1.9-1.6 3.5-3.5 3.5h-19.8c-1.6 0-3 1.1-3.4 2.6l-1.2 4.4c-.6 2.1.9 4.2 3 4.4 2.6.3 4 3.3 2.5 5.5l-4.6 6.6c-.7.9-1.7 1.5-2.9 1.5h-9.2c-2.1 0-3.7 1.8-3.5 3.9l3.1 26.2c.2 2.1-1.4 3.9-3.5 3.9h-10.6c-1.9 0-3.5 1.6-3.5 3.5v9.1c0 1.4-.9 2.7-2.2 3.3l-5.5 2.1c-2.4.9-5-1-4.7-3.6l.9-9.4c.2-2.4-2-4.3-4.3-3.7l-12.7 3.2c-1.5.4-3-.3-3.8-1.6l-14.4-23.9c-1.2-1.9-3.9-2.3-5.5-.7l-14.3 14.3c-.3.3-.7.6-1.2.8l-27.6 11c-1.1.4-1.9 1.4-2.1 2.5l-3.4 15.4c-.1.5-.4 1-.7 1.4l-9.2 11.3c-1.6 1.9-4.6 1.7-5.8-.5l-8.1-14.6c-.3-.5-.7-1-1.2-1.3l-48.5-29.5c-1.1-.6-2.4-.7-3.5-.1l-17.7 9.6c-1.5.8-3.3.4-4.4-.9l-10.8-13.6c-1.6-2-4.6-1.7-5.8.5l-5.5 10.4c-.6 1.2-.5 2.6.2 3.7l7.2 10.1c.9 1.3.9 2.9-.1 4.2l-6.8 8.8c-1 1.3-2.6 1.7-4.1 1.1l-6.8-2.8c-1.6-.7-2.4-2.4-2.1-4l2.1-8.8c.6-2.5-1.6-4.7-4.1-4.2l-25.8 5.5c-1.1.2-2.3-.1-3.1-.9l-13.1-12.3c-1.4-1.3-3.7-1.2-5 .2l-6.2 6.8c-.9 1-1.2 2.4-.7 3.6l7.5 19.1c.5 1.2.3 2.5-.5 3.4l-7.9 10.1c-1.1 1.4-3 1.7-4.5.9l-19.4-10.9c-.7-.4-1.2-1-1.5-1.7l-8.7-20.5c-.9-2.2.5-4.6 2.9-4.8l12.1-1.2c1.8-.2 3.1-1.7 3.1-3.5v-27c0-.6-.1-1.2-.4-1.7l-4.3-7.8c-.8-1.4-.5-3.1.7-4.2l13.5-12.6c.4-.3.6-.7.8-1.2l7-16.7c.4-1 .4-2.1-.2-3.1l-9.6-16.7c-.9-1.6-.4-3.6 1-4.6l18.2-12.7c1.3-.9 3-.8 4.2.2l2.7 2.2c2.4 1.9 5.9.1 5.7-2.9l-.4-5.5c-.1-.9.3-1.9.9-2.6l16.4-18.1c1-1.1 1.2-2.7.5-4l-4.1-7.7c-.9-1.7-.2-3.9 1.5-4.8l21.9-11c1.6-.8 2.3-2.7 1.7-4.4l-3.3-8.7c-.3-.9-.3-1.8.1-2.7l11.8-26.4c.4-.8 1-1.4 1.8-1.8l18.1-7.8c1-.4 1.8-1.3 2-2.4l4.3-18.2c.2-.7.1-1.4-.2-2.1l-11.1-27.7c-.3-.8-.3-1.8 0-2.6l6.6-16.4c.5-1.4.2-2.9-.9-3.9l-14.4-13.2c-.7-.7-1.2-1.6-1.2-2.6v-9.3c0-.7-.2-1.5-.7-2.1l-11.9-16.2c-.8-1.1-.9-2.6-.2-3.9l16.7-28.1c.7-1.1.6-2.6-.1-3.7l-10.3-15.8c-.9-1.4-.7-3.2.5-4.4l7-7c.7-.7 1.5-1 2.5-1h4.1c1.9 0 3.5-1.6 3.5-3.5l4-678.1c-.1-1.7 1.5-3.3 3.4-3.3z" id="b"/><filter x="-3.1%" y="-2%" width="106.3%" height="104%" filterUnits="objectBoundingBox" id="a"><feOffset in="SourceAlpha" result="shadowOffsetOuter1"/><feGaussianBlur stdDeviation="7.5" in="shadowOffsetOuter1" result="shadowBlurOuter1"/><feColorMatrix values="0 0 0 0 0 0 0 0 0 0 0 0 0 0 0 0 0 0 0.1 0" in="shadowBlurOuter1"/></filter><path d="M136.1748 8h582c1.9 0 3.5 1.6 3.5 3.5v745.8c0 1.1-.5 2.1-1.4 2.8l-17.1 13c-1.4 1.1-1.8 3.1-.8 4.7l11.1 17.5c.7 1.1.7 2.5 0 3.7l-6.1 10.2c-1 1.7-.5 3.8 1.2 4.8l13.7 8.2c1.8 1.1 2.2 3.4 1 5.1l-8.6 11.5c-.7.9-.9 2.1-.5 3.1l1.6 5.2c.8 2.6-1.6 5.1-4.3 4.4l-20.3-5.8c-.9-.3-2-.1-2.8.4l-27.7 16.9-19.5 12.1c-.9.6-2.1.7-3.1.3l-7.5-3c-.6-.2-1.1-.6-1.4-1.1l-6.3-7.9c-.7-.9-1.8-1.4-2.9-1.3l-30.6 1.8c-1 .1-1.9.5-2.5 1.3l-6 7.5c-.7.8-.9 1.9-.7 2.9l9 40.4c.4 1.7-.5 3.4-2.2 4l-9 3.5c-.8.3-1.4.8-1.8 1.5l-7.5 13.3c-.6 1-1.6 1.6-2.7 1.8l-15.1 1.6c-1.3.1-2.4 1-2.9 2.2l-11.1 27.9c0 .1-.1.2-.2.3l-7.1 13.4c-.5.9-1.4 1.6-2.4 1.8l-14 2.6c-.2 0-.4.1-.6.1h-10.2c-1.5 0-2.8 1-3.3 2.4l-4 12.1c-.1.3-.3.6-.5.9l-11.1 15.7c-.4.6-.6 1.2-.6 1.9l-.9 29.8c0 .7-.3 1.4-.7 2l-7.8 10.5c-.3.4-.7.8-1.2 1l-18.5 9.3c-1.6.8-3.5.3-4.4-1.1l-8.3-12.1c-.6-.9-1.6-1.5-2.7-1.5l-16.1-.8c-.8 0-1.5-.3-2.1-.9l-15.3-13.2c-.8-.7-1.2-1.6-1.2-2.6v-19.6c0-1.1-.6-2.2-1.5-2.9l-10.2-7.1c-.8-.6-1.8-.8-2.8-.5l-7.9 1.8c-1.9.4-3.1 2.4-2.6 4.4l.3.9c.4 1.5 1.8 2.5 3.4 2.5h4.9c1.9 0 3.5 1.6 3.5 3.5v2c0 1.9-1.6 3.5-3.5 3.5h-19.8c-1.6 0-3 1.1-3.4 2.6l-1.2 4.4c-.6 2.1.9 4.2 3 4.4 2.6.3 4 3.3 2.5 5.5l-4.6 6.6c-.7.9-1.7 1.5-2.9 1.5h-9.2c-2.1 0-3.7 1.8-3.5 3.9l3.1 26.2c.2 2.1-1.4 3.9-3.5 3.9h-10.6c-1.9 0-3.5 1.6-3.5 3.5v9.1c0 1.4-.9 2.7-2.2 3.3l-5.5 2.1c-2.4.9-5-1-4.7-3.6l.9-9.4c.2-2.4-2-4.3-4.3-3.7l-12.7 3.2c-1.5.4-3-.3-3.8-1.6l-14.4-23.9c-1.2-1.9-3.9-2.3-5.5-.7l-14.3 14.3c-.3.3-.7.6-1.2.8l-27.6 11c-1.1.4-1.9 1.4-2.1 2.5l-3.4 15.4c-.1.5-.4 1-.7 1.4l-9.2 11.3c-1.6 1.9-4.6 1.7-5.8-.5l-8.1-14.6c-.3-.5-.7-1-1.2-1.3l-48.5-29.5c-1.1-.6-2.4-.7-3.5-.1l-17.7 9.6c-1.5.8-3.3.4-4.4-.9l-10.8-13.6c-1.6-2-4.6-1.7-5.8.5l-5.5 10.4c-.6 1.2-.5 2.6.2 3.7l7.2 10.1c.9 1.3.9 2.9-.1 4.2l-6.8 8.8c-1 1.3-2.6 1.7-4.1 1.1l-6.8-2.8c-1.6-.7-2.4-2.4-2.1-4l2.1-8.8c.6-2.5-1.6-4.7-4.1-4.2l-25.8 5.5c-1.1.2-2.3-.1-3.1-.9l-13.1-12.3c-1.4-1.3-3.7-1.2-5 .2l-6.2 6.8c-.9 1-1.2 2.4-.7 3.6l7.5 19.1c.5 1.2.3 2.5-.5 3.4l-7.9 10.1c-1.1 1.4-3 1.7-4.5.9l-19.4-10.9c-.7-.4-1.2-1-1.5-1.7l-8.7-20.5c-.9-2.2.5-4.6 2.9-4.8l12.1-1.2c1.8-.2 3.1-1.7 3.1-3.5v-27c0-.6-.1-1.2-.4-1.7l-4.3-7.8c-.8-1.4-.5-3.1.7-4.2l13.5-12.6c.4-.3.6-.7.8-1.2l7-16.7c.4-1 .4-2.1-.2-3.1l-9.6-16.7c-.9-1.6-.4-3.6 1-4.6l18.2-12.7c1.3-.9 3-.8 4.2.2l2.7 2.2c2.4 1.9 5.9.1 5.7-2.9l-.4-5.5c-.1-.9.3-1.9.9-2.6l16.4-18.1c1-1.1 1.2-2.7.5-4l-4.1-7.7c-.9-1.7-.2-3.9 1.5-4.8l21.9-11c1.6-.8 2.3-2.7 1.7-4.4l-3.3-8.7c-.3-.9-.3-1.8.1-2.7l11.8-26.4c.4-.8 1-1.4 1.8-1.8l18.1-7.8c1-.4 1.8-1.3 2-2.4l4.3-18.2c.2-.7.1-1.4-.2-2.1l-11.1-27.7c-.3-.8-.3-1.8 0-2.6l6.6-16.4c.5-1.4.2-2.9-.9-3.9l-14.4-13.2c-.7-.7-1.2-1.6-1.2-2.6v-9.3c0-.7-.2-1.5-.7-2.1l-11.9-16.2c-.8-1.1-.9-2.6-.2-3.9l16.7-28.1c.7-1.1.6-2.6-.1-3.7l-10.3-15.8c-.9-1.4-.7-3.2.5-4.4l7-7c.7-.7 1.5-1 2.5-1h4.1c1.9 0 3.5-1.6 3.5-3.5l4-678.1c-.1-1.7 1.5-3.3 3.4-3.3z" id="c"/></defs><g fill="none" fill-rule="evenodd"><g fill-rule="nonzero"><use fill="black" filter="url(#a)" xlink:href="#b"/><use fill="#FFFFFF" fill-rule="evenodd" xlink:href="#b"/></g><mask id="d" fill="white"><use xlink:href="#c"/></mask><use fill="#FFFFFF" fill-rule="nonzero" xlink:href="#c"/><g fill-rule="nonzero" mask="url(#d)"><g fill="#D1D1D1"><path d="M417.8 604.5c-.5 0-1 0-1.5-.1l-9.3-1.8c-3.5-.7-6.2-3.7-6.5-7.3l-2.4-32.4v-1.5l2.9-23.5c.4-3.3 2.7-5.9 5.9-6.8l13.2-3.4c1.6-.4 3.3-.3 4.9.3l13.8 5.4L450 538c3.4 1.4 5.4 4.9 4.9 8.5v.7l3.7 19.1c.1.8.2 1.5.1 2.3l-1.2 13c0 .3-.1.7-.2 1l-2.1 9.4c-.5 2.4-2.1 4.3-4.2 5.4l-2.6 1.3c-.7.3-1.4.6-2.1.7l-27.1 5c-.4.1-.9.1-1.4.1zm4.4-71c-.2 0-.3 0-.5.1l-13.2 3.4c-.8.2-1.4.9-1.5 1.7l-2.9 23.5v.4l2.4 32.4c.1.9.7 1.6 1.6 1.8l9.3 1.8h.7l27.1-5c.2 0 .4-.1.5-.2l2.6-1.3c.5-.3.9-.8 1-1.3l2.1-9.4v-.2l1.2-13v-.6l-3.7-19.1c-.2-.9-.2-1.8-.1-2.6.1-.9-.4-1.8-1.2-2.1l-11.1-4.5-13.8-5.4c0-.3-.3-.4-.5-.4z"/><path d="M451.3 544.6h-.4c-1.6-.2-2.8-1.8-2.5-3.4l.4-2.7c.6-4.1 2.4-7.9 5.2-10.9l5.2-5.7c3.8-4.2 9.2-6.6 14.8-6.8l18.7-.5c.8 0 1.7 0 2.5.1l4.6.4c4.4.4 8.7-1.1 11.8-4.3l6.8-6.8c3.5-3.5 8.1-5.6 12.9-6l6.6-.5c5.6-.5 10.4-4 12.5-9.2l1.4-3.5c.7-1.7 1-3.4 1.1-5.2l2.5-127.7c.1-3.3 1-6.7 2.6-9.6l11.4-20.8c.9-1.6 1.9-3.1 3.2-4.4l12.4-13c.7-.8 1.4-1.6 1.9-2.5l12.4-20.1c1.4-2.3 2.2-5 2.2-7.7v-12.5c0-4.5 1.4-8.7 4-12.3l10.3-14c1.6-2.2 2.6-4.8 2.8-7.5l.5-5.8c.3-3.5 1.5-6.8 3.4-9.7l10.5-15.8c1.2-1.9 2.8-3.5 4.5-4.9l9.6-7.5c3.2-2.5 5.3-6.3 5.6-10.4l3.8-44.7c.2-2.2.7-4.4 1.6-6.5l6-13.9c.8-1.9 1.2-3.9 1.2-6l-.5-48.8c-.1-6 2.5-11.7 7-15.7 3.1-2.8 4.9-6.8 4.9-11v-47.2c0-1.7 1.3-3 3-3s3 1.3 3 3V27c0 5.9-2.5 11.6-7 15.5-3.2 2.8-5 6.9-4.9 11.2l.5 48.8c0 2.9-.5 5.8-1.7 8.5l-6 13.9c-.6 1.5-1 3-1.2 4.6l-3.8 44.7c-.5 5.8-3.4 11.1-7.9 14.6l-9.6 7.5c-1.3 1-2.3 2.1-3.2 3.5l-10.5 15.8c-1.4 2.1-2.2 4.4-2.4 6.9l-.5 5.8c-.3 3.8-1.7 7.4-4 10.5l-10.3 14c-1.9 2.5-2.9 5.6-2.9 8.7V274c0 3.8-1.1 7.6-3.1 10.9l-12.2 20c-.8 1.2-1.7 2.4-2.7 3.5l-12.4 13c-.9.9-1.7 2-2.3 3.1l-11.4 20.8c-1.1 2.1-1.8 4.4-1.8 6.8l-2.5 127.7c0 2.5-.5 5-1.5 7.3l-1.4 3.5c-2.9 7.3-9.7 12.3-17.5 13l-6.6.5c-3.5.3-6.7 1.8-9.2 4.3l-6.8 6.8c-4.4 4.4-10.5 6.6-16.6 6l-4.6-.4c-.6-.1-1.2-.1-1.8-.1l-18.7.5c-4 .1-7.8 1.8-10.5 4.8l-5.2 5.7c-2 2.2-3.3 4.9-3.7 7.8l-.4 2.7c-.4 1.4-1.6 2.4-3.1 2.4zM18.5 716.6c-1.1 0-2.1-.6-2.6-1.6-.8-1.5-.2-3.3 1.2-4.1l66.6-35.5c2.6-1.4 5.6-2.2 8.5-2.2l27.3-.5c1.5 0 3-.3 4.5-.9l8.6-3.4c5.6-2.2 11.9-1.6 16.9 1.6 2.1 1.3 4.4 2 6.8 2h4.8c.7 0 1.4-.1 2-.2l26.8-4.3c1-.2 2-.2 3-.2h20.5c1.9 0 3.8-.4 5.5-1.2l58.2-27.6c2.5-1.2 5.3-1.8 8.1-1.8h27.5c1.6 0 3.1-.3 4.6-.8l45.5-17.2c.6-.2 1.2-.5 1.8-.9l36.4-20.7 1.8-1.2 25.4-20.7c1.7-1.4 3.7-2.5 5.8-3.2l17.7-6.1c2.3-.8 4.8-1.1 7.2-1l7.1.4h1.8l114.2-9.2 116.1-8.8c5-.4 10 1.3 13.8 4.5l4.9 4.3c2.5 2.1 5.7 3.2 8.9 3.1l66.5-2.3c1.7-.1 3.4-.5 5-1.2l4.1-1.9c2.3-1.1 4.8-1.7 7.3-1.8l86.1-3.2c1.7-.1 3 1.2 3.1 2.9.1 1.7-1.2 3-2.9 3.1l-86.1 3.2c-1.7.1-3.4.5-5 1.2l-4.1 1.9c-2.3 1.1-4.8 1.7-7.3 1.8l-66.5 2.3c-4.8.2-9.4-1.5-13-4.6l-4.9-4.3c-2.6-2.2-6-3.4-9.4-3.1L582.5 562l-114.2 9.2c-.9.1-1.8.1-2.6 0l-7.1-.4c-1.7-.1-3.3.1-4.9.7l-17.7 6.1c-1.4.5-2.8 1.2-4 2.2l-25.4 20.7c-.8.7-1.7 1.3-2.6 1.8L367.6 623c-.8.5-1.7.9-2.7 1.2l-45.5 17.2c-2.1.8-4.4 1.2-6.7 1.2h-27.5c-1.9 0-3.8.4-5.5 1.2l-58.2 27.6c-2.5 1.2-5.3 1.8-8.1 1.8h-20.5c-.7 0-1.4.1-2 .2l-26.8 4.3c-1 .2-2 .2-3 .2h-4.8c-3.5 0-7-1-10-2.9-3.5-2.2-7.8-2.6-11.6-1.1l-8.6 3.4c-2.1.8-4.3 1.3-6.5 1.3l-27.3.5c-2 0-4 .6-5.8 1.5l-66.6 35.5c-.5.4-.9.5-1.4.5zM422.3 533.5c-1.3 0-2.6-.9-2.9-2.3l-.7-2.6c-1.1-4.5.6-9.1 4.3-11.8l2.1-1.5c1.4-1 2.2-2.6 2.1-4.3l-1.9-82.6v-1.2l1.8-20.6c.2-2.1.9-4 2.1-5.7l6.3-8.6c.7-.9 1-2 1-3.1v-6c0-.6-.1-1.1-.3-1.7l-2.4-7.2c-.2-.6-.5-1.2-1-1.7l-4.3-5.1c-1.8-2.1-2.7-4.8-2.7-7.5l1.9-83.8c0-.8-.1-1.5-.4-2.2l-6.8-15.9c-.4-1-.7-2-.8-3.1l-3.5-28.5c-.1-1.2-.7-2.3-1.6-3.2l-6.9-6.5c-2-1.9-3.2-4.4-3.5-7.1l-7-73.6c0-.3-.1-.6-.2-.9l-6.6-24.7c-.5-1.8-.5-3.6-.1-5.4l2.4-10.5c.4-1.9 1.4-3.7 2.7-5.1l3.7-4c.9-1 1.4-2.2 1.4-3.5V69.4c0-.9-.2-1.8-.7-2.6-1.4-2.4-1.8-5.3-1.2-8l.7-3.3c.5-2.1-.4-4.4-2.3-5.5l-10.3-6.6c-3-2-5-5.3-5.1-8.9l-.4-8.5v-1.6l3.3-34.1c.2-1.6 1.6-2.9 3.3-2.7 1.6.2 2.9 1.6 2.7 3.3L387.2 25v.8l.4 8.5c.1 1.7 1 3.2 2.4 4.1l10.3 6.6c3.9 2.5 5.9 7.3 4.9 11.9l-.7 3.3c-.3 1.3-.1 2.6.6 3.7 1 1.7 1.5 3.6 1.5 5.6V82c0 2.8-1 5.5-3 7.6l-3.7 4c-.6.7-1 1.5-1.2 2.4l-2.4 10.5c-.2.8-.2 1.7 0 2.5l6.6 24.7c.2.6.3 1.2.3 1.9l7 73.6c.1 1.3.7 2.4 1.6 3.3l6.9 6.5c1.9 1.8 3.1 4.2 3.5 6.8l3.5 28.5c.1.5.2 1 .4 1.4l6.8 15.9c.6 1.5.9 3.1.9 4.7l-1.9 83.8c0 1.3.4 2.5 1.2 3.5l4.3 5.1c.9 1.1 1.6 2.3 2.1 3.7l2.4 7.2c.4 1.1.6 2.3.6 3.6v6c0 2.4-.8 4.7-2.2 6.7l-6.3 8.6c-.6.8-.9 1.7-1 2.7l-1.8 20.6v.6l1.9 82.6c.1 3.7-1.6 7.2-4.6 9.3l-2.1 1.5c-1.7 1.3-2.5 3.4-2 5.5l.7 2.6c.4 1.6-.6 3.2-2.2 3.6h-.6z"/><path d="M639.6 257.3c-.4 0-.8 0-1.2-.1l-27.4-2.5c-1.6-.2-2.9-1.6-2.7-3.3.2-1.7 1.6-2.9 3.3-2.7l27.4 2.5c2 .2 4-.7 5.1-2.4 1.3-2 3.2-3.5 5.5-4.4l12.5-4.7c1-.4 1.8-1 2.4-1.8l11.6-15.4c.9-1.1 1.2-2.6 1-4l-2.4-17.4c-.3-2-1.7-3.7-3.6-4.4l-18.8-6.3c-1.6-.5-2.4-2.2-1.9-3.8.5-1.6 2.2-2.4 3.8-1.9L673 191c4.1 1.4 7.1 4.9 7.7 9.2l2.4 17.4c.4 3-.4 6-2.2 8.4l-11.6 15.5c-1.3 1.7-3.1 3.1-5.1 3.8l-12.5 4.7c-1.1.4-2 1.1-2.6 2.1-2.2 3.3-5.8 5.2-9.5 5.2zM515.7 1000.4c-.2 0-.5 0-.7-.1-1.6-.4-2.6-2-2.2-3.6 0 0 1.1-4.6 2.3-9.3.7-2.7 1.3-4.8 1.7-6.4.2-.9.5-1.7.7-2.4-.1-.4-.1-.8-.2-1.2-.2-1.4-.5-3.4-.8-5.8-.6-4.8-1.5-11.1-2.3-17.5l-3.2-25.4v-.2l-3.3-49.5-4.5-10.2c0-.1 0-.1-.1-.2l-6.7-18c-.3-.7-.2-1.5 0-2.1l5.7-14.6-1.9-11.9-4-27.4v-.3l-1.3-38.7-8.6-17.9-9.1-4.9c-.8-.4-1.3-1.1-1.5-2l-5.3-23.3-5.8-22-15.6-19.1c-.2-.3-.4-.7-.5-1l-18-62.7c-.5-1.6.5-3.3 2.1-3.7 1.6-.5 3.3.5 3.7 2.1l17.8 62.1 15.6 19.5c.3.3.5.7.6 1.1l6 22.7v.1l5 22 8.8 4.7c.6.3 1 .8 1.3 1.3l9.3 19.3c.2.4.3.8.3 1.2l1.3 39.2 4 27.2 2 12.6c.1.5 0 1.1-.2 1.6l-5.6 14.3 6.2 16.8 4.6 10.6c.1.3.2.7.2 1l3.3 49.9c2.3 18.3 5.8 45.8 6.5 49.9.1.3.2.7.2 1.1 0 .7-.2 1.3-.6 1.8-.7 2.4-2.8 10.2-4.5 17.2-.2 1.2-1.4 2.1-2.7 2.1zm2-20.9c0 .2.1.5.2.7-.1-.2-.1-.4-.2-.7z"/></g><g transform="translate(474 209)" fill="#033762"><path d="M4 7.2v3.2h6.3v2.8H4v5.2H.4v-14h10.4v2.8M26.7 11.4c0 4.1-3.2 7.2-7.6 7.2-4.3 0-7.6-3.1-7.6-7.2s3.2-7.1 7.6-7.1c4.4 0 7.6 3.1 7.6 7.1zm-11.5 0c0 2.4 1.8 4.2 4 4.2s3.9-1.8 3.9-4.2c0-2.4-1.7-4.1-3.9-4.1s-4 1.8-4 4.1zM35 14.5h-2.8v3.9h-3.6v-14h6.3c3.7 0 5.8 1.8 5.8 4.9 0 2.1-.9 3.7-2.5 4.5l2.9 4.6h-4L35 14.5zm-.1-2.8c1.5 0 2.4-.8 2.4-2.3 0-1.5-.9-2.2-2.4-2.2h-2.7v4.5h2.7zM49.5 7.3v11.1H46V7.3h-4.2V4.4h12v2.9h-4.3M72 18.4l-2.6-9.7-2.6 9.7h-3.7l-4.6-14h3.8L65 14.7l2.7-10.3h3.5l2.7 10.3 2.7-10.3h3.6l-4.6 14M83.6 15.9l-1 2.6H79l6-14h3.7l5.9 14h-3.8l-1-2.6h-6.2zM86.7 8l-2 5.2h4l-2-5.2zM102 18.4h-3.5V14l-5.2-9.6h3.6l3.4 6.1 3.3-6.1h3.6l-5.1 9.5v4.5M118.2 18.4l-6.4-8.6v8.6h-3.3v-14h3.1l6.5 8.6V4.4h3.3v14M127.7 7.2V10h6.7v2.8h-6.7v2.8h7.6v2.8h-11.2v-14h11v2.8h-7.4"/><circle cx="175.4" cy="12.5" r="12"/></g><g transform="translate(240 553)"><path fill="#033762" d="M.4 24.4v-14H4v14M16.6 24.4l-6.4-8.6v8.6H6.9v-14H10l6.5 8.6v-8.6h3.3v14M28.5 10.4c4.4 0 7.4 2.8 7.4 7 0 4.1-3.1 7-7.6 7h-5.9v-14h6.1zm-2.4 11.2h2.5c2.2 0 3.7-1.7 3.7-4.1 0-2.5-1.6-4.2-3.9-4.2H26v8.3h.1zM37.8 24.4v-14h3.6v14M47.4 21.9l-1 2.6h-3.7l6-14h3.7l5.9 14h-3.8l-1-2.6h-6.1zm3.1-7.9l-2 5.2h4l-2-5.2zM69.4 24.4L63 15.8v8.6h-3.3v-14h3.1l6.5 8.6v-8.6h3.3v14M78.5 21.9l-1 2.6h-3.7l6-14h3.7l5.9 14h-3.8l-1-2.6h-6.1zm3.1-7.9l-2 5.2h4l-2-5.2zM96.8 10.4c3.6 0 5.6 1.8 5.6 4.9 0 3.3-2.1 5.2-5.6 5.2h-2.5v3.9h-3.6v-14h6.1zm-2.5 7.3h2.4c1.6 0 2.5-.8 2.5-2.3 0-1.5-.9-2.2-2.5-2.2h-2.4v4.5zM118.5 17.4c0 4.1-3.2 7.2-7.6 7.2-4.3 0-7.6-3.1-7.6-7.2s3.2-7.1 7.6-7.1c4.4 0 7.6 3.1 7.6 7.1zm-11.5 0c0 2.4 1.8 4.2 4 4.2s3.9-1.8 3.9-4.2c0-2.4-1.7-4.1-3.9-4.1s-4 1.8-4 4.1zM129.9 21.5v3h-9.5v-14h3.6v11M131.6 24.4v-14h3.6v14M148.9 11.8l-1.3 2.8c-1.5-.9-3.3-1.5-4.5-1.5-.9 0-1.5.3-1.5 1 0 2.4 7.4 1 7.4 6.1 0 2.8-2.5 4.3-5.6 4.3-2.3 0-4.7-.9-6.4-2.2l1.4-2.7c1.4 1.3 3.6 2.1 5.1 2.1 1.1 0 1.8-.4 1.8-1.2 0-2.5-7.4-1-7.4-6 0-2.6 2.2-4.2 5.6-4.2 1.9 0 3.9.6 5.4 1.5z"/><path d="M188.4 32.5c-8.8 0-16-7.2-16-16s7.2-16 16-16 16 7.2 16 16-7.2 16-16 16zm0-24c-4.4 0-8 3.6-8 8s3.6 8 8 8 8-3.6 8-8-3.6-8-8-8z" fill="#FFFFFF"/><circle fill="#033762" cx="188.4" cy="16.5" r="12"/></g><path d="M423.4 149c-.3-.4-.3-.5-1-1.2-.8-1.3-1.3-2.8-1.3-4.4 0-.9.2-1.8.4-2.6.6-1.7 1.7-3.1 3.1-4.1l-6-7.5c-2 1-4.2 1.5-6.6 1.5-4.2 0-8.1-1.7-10.8-4.5-2.8 2.8-6.6 4.5-10.8 4.5-2.4 0-4.6-.6-6.6-1.5l-6 7.5c1.5 1 2.6 2.4 3.1 4.1.3.8.4 1.7.4 2.6 0 1.6-.5 3.1-1.3 4.4-.5.5-.7.8-1 1.2-1.5 2.1-2.5 4.7-2.5 7.5 0 7.1 5.7 12.8 12.8 12.8.5 0 2.7-.2 3-.2 4 0 7.4 2.6 8.6 6.1h.5c1.3-3.6 4.6-6.1 8.6-6.1.3 0 2.4.2 3 .2 7.1 0 12.8-5.7 12.8-12.8 0-2.8-.9-5.4-2.4-7.5z" fill="#FFFFFF"/><path d="M402.3 176.4h-2.2l-.3-.8c-1.1-3.2-4.1-5.3-7.5-5.3-.1 0-.6 0-1 .1-.9.1-1.6.1-2 .1-7.8 0-14.1-6.3-14.1-14.1 0-3 .9-5.8 2.7-8.2.1-.1.1-.2.2-.2.2-.3.5-.6.8-1 .7-1.1 1.1-2.3 1.1-3.6 0-.7-.1-1.5-.4-2.2-.5-1.4-1.4-2.6-2.7-3.4l-1.1-.7 7.4-9.3.9.4c1.9.9 4 1.4 6.1 1.4 3.8 0 7.3-1.5 10-4.1l.9-.9.9.9c2.7 2.7 6.2 4.1 10 4.1 2.1 0 4.2-.5 6.1-1.4l.9-.4 7.4 9.3-1.1.7c-1.2.8-2.2 2-2.7 3.4-.3.7-.4 1.5-.4 2.2 0 1.3.4 2.5 1.1 3.6.5.6.7.8 1 1.2 0 0 .1.1.1.2 1.8 2.4 2.7 5.3 2.7 8.2 0 7.8-6.3 14.1-14.1 14.1-.3 0-1-.1-2-.1-.4 0-.9-.1-1-.1-3.3 0-6.3 2.1-7.4 5.3l-.3.6zm-10-8.5c3.7 0 7 1.9 8.9 5 1.9-3.1 5.2-5 8.9-5 .2 0 .4 0 1.2.1.6.1 1.5.1 1.8.1 6.4 0 11.6-5.2 11.6-11.6 0-2.5-.8-4.8-2.2-6.8 0-.1-.1-.1-.1-.2-.2-.2-.3-.4-.8-.9l-.1-.1-.1-.1c-1-1.5-1.5-3.3-1.5-5.1 0-1 .2-2 .5-3 .5-1.5 1.4-2.8 2.6-3.9l-4.6-5.7c-2 .8-4.1 1.2-6.3 1.2-4 0-7.8-1.4-10.8-4-3 2.6-6.8 4-10.8 4-2.2 0-4.3-.4-6.3-1.2l-4.6 5.7c1.2 1 2.1 2.4 2.6 3.9.3 1 .5 2 .5 3 0 1.8-.5 3.6-1.5 5.1l-.1.1-.1.1c-.4.4-.5.6-.8.9-.1.1-.1.2-.2.2-1.4 2-2.2 4.3-2.2 6.8 0 6.4 5.2 11.6 11.6 11.6.2 0 1.2-.1 1.7-.1.8-.1 1.1-.1 1.2-.1z" fill="#033762"/><path d="M402.7 176.9h-2.9l-.4-1.2c-1-3-3.9-5-7-5-.1 0-.5 0-.9.1-1 .1-1.7.1-2.1.1-8 0-14.6-6.5-14.6-14.6 0-3.1 1-6 2.8-8.5l.2-.2c.3-.3.5-.7.9-1.1.6-.9.9-2.1.9-3.3 0-.7-.1-1.4-.4-2-.5-1.3-1.3-2.4-2.5-3.2l-1.6-1 8-10 1.2.6c1.9.9 3.8 1.3 5.9 1.3 3.6 0 7-1.4 9.6-4l1.2-1.2 1.2 1.2c2.6 2.6 6 4 9.6 4 2 0 4-.5 5.9-1.3l1.2-.6 8 10-1.6 1c-1.1.7-2 1.9-2.5 3.2-.2.7-.4 1.4-.4 2 0 1.2.3 2.3 1 3.3.5.6.8.8 1 1.2l.1.1c1.8 2.5 2.8 5.5 2.8 8.5 0 8-6.5 14.6-14.6 14.6-.4 0-1-.1-2-.1-.4 0-.9-.1-1-.1-3.1 0-5.9 2-7 5v1.2zm-2.3-1h1.5l.2-.5c1.2-3.4 4.4-5.6 7.9-5.6.1 0 .6 0 1 .1.9.1 1.6.1 1.9.1 7.5 0 13.6-6.1 13.6-13.6 0-2.9-.9-5.6-2.6-7.9l-.1-.1c-.2-.3-.4-.6-.9-1.1l-.1-.1c-.8-1.2-1.1-2.5-1.1-3.9 0-.8.1-1.6.4-2.4.5-1.5 1.5-2.8 2.9-3.7l.7-.4-6.8-8.5-.5.2c-2 1-4.1 1.4-6.3 1.4-3.9 0-7.6-1.5-10.3-4.3l-.5-.5-.5.5c-2.8 2.7-6.4 4.3-10.3 4.3-2.2 0-4.3-.5-6.3-1.4l-.5-.2-6.8 8.5.7.4c1.3.9 2.3 2.2 2.9 3.7.3.8.4 1.6.4 2.4 0 1.4-.4 2.7-1.2 3.9-.4.5-.7.8-.9 1l-.2.2c-1.7 2.4-2.6 5.1-2.6 8 0 7.5 6.1 13.6 13.6 13.6.3 0 1-.1 1.9-.1.5 0 .9-.1 1-.1 3.6 0 6.8 2.3 7.9 5.6v.5zm.8-2l-.4-.7c-1.8-2.9-5-4.8-8.4-4.8-.2 0-.4 0-1.2.1-.8.1-1.5.1-1.8.1-6.7 0-12.1-5.4-12.1-12.1 0-2.6.8-5 2.3-7.1l.2-.3c.2-.3.4-.6.8-.9l.1-.1c1-1.4 1.5-3.1 1.5-4.8 0-.9-.2-1.9-.5-2.8-.5-1.4-1.3-2.7-2.4-3.6l-.4-.3 5.1-6.4.3.1c1.9.8 4 1.2 6.1 1.2 3.9 0 7.6-1.4 10.5-3.9l.3-.3.3.3c2.9 2.5 6.6 3.9 10.5 3.9 2.1 0 4.1-.4 6.1-1.2l.3-.1 5.1 6.4-.4.3c-1.1 1-1.9 2.3-2.4 3.6-.3.9-.5 1.9-.5 2.8 0 1.7.5 3.4 1.5 4.8l.1.1c.5.5.6.7.8 1l.1.2c1.5 2.1 2.3 4.6 2.3 7.1 0 6.7-5.4 12.1-12.1 12.1-.2 0-.9-.1-1.8-.1-.8-.1-1-.1-1.2-.1-3.4 0-6.7 1.8-8.4 4.8l-.3.7zm-8.9-6.5c3.5 0 6.8 1.7 8.9 4.6 2-2.9 5.4-4.6 8.9-4.6.2 0 .5 0 1.2.1.6.1 1.5.1 1.7.1 6.1 0 11.1-5 11.1-11.1 0-2.3-.7-4.6-2.1-6.5l-.1-.2c-.2-.2-.3-.4-.7-.8l-.2-.3c-1.1-1.6-1.6-3.4-1.6-5.4 0-1.1.2-2.1.5-3.2.5-1.4 1.3-2.7 2.4-3.7l-4.1-5.1c-2 .8-4 1.1-6.1 1.1-4 0-7.8-1.4-10.8-3.9-3 2.5-6.9 3.9-10.8 3.9-2.1 0-4.1-.4-6.1-1.1l-4.1 5.1c1.1 1 1.9 2.3 2.4 3.7.4 1 .5 2.1.5 3.2 0 1.9-.6 3.8-1.6 5.4l-.2.2c-.3.4-.5.6-.7.9l-.2.2c-1.4 1.9-2.1 4.1-2.1 6.5 0 6.1 5 11.1 11.1 11.1.2 0 1.2-.1 1.7-.1.7-.1.9-.1 1.1-.1z" fill="#033762"/><g fill="#033762"><path d="M397.1 149.1c2.7.2 4.6 1.8 4.6 4.4 0 3-2.3 5.2-5.9 5.2-2 0-4.1-.7-5.5-1.8l1.1-2.2c1.2 1.1 2.7 1.7 4.2 1.7 2.2 0 3.4-1.1 3.4-2.8 0-1.8-1.3-2.7-3.4-2.7h-2.3v-1.6l4.2-4.6H391v-2.4h9.9v1.7l-4.7 5 .9.1zM406.2 158.5v-13.8H403v-2.4h5.9v16.3h-2.7"/></g><path d="M527.2 855.8c-.3-.4-.3-.5-1-1.2-.8-1.3-1.3-2.8-1.3-4.4 0-.9.2-1.8.4-2.6.6-1.7 1.7-3.1 3.1-4.1l-6-7.5c-2 1-4.2 1.5-6.6 1.5-4.2 0-8.1-1.7-10.8-4.5-2.8 2.8-6.6 4.5-10.8 4.5-2.4 0-4.6-.6-6.6-1.5l-6 7.5c1.5 1 2.6 2.4 3.1 4.1.3.8.4 1.7.4 2.6 0 1.6-.5 3.1-1.3 4.4-.5.5-.7.8-1 1.2-1.5 2.1-2.5 4.7-2.5 7.5 0 7.1 5.7 12.8 12.8 12.8.5 0 2.7-.2 3-.2 4 0 7.4 2.6 8.6 6.1h.5c1.3-3.6 4.6-6.1 8.6-6.1.3 0 2.4.2 3 .2 7.1 0 12.8-5.7 12.8-12.8.1-2.8-.8-5.4-2.4-7.5z" fill="#FFFFFF"/><path d="M506.2 883.3H504l-.3-.8c-1.1-3.2-4.1-5.3-7.5-5.3-.1 0-.6 0-1 .1-.9.1-1.6.1-2 .1-7.8 0-14.1-6.3-14.1-14.1 0-3 .9-5.8 2.7-8.2.1-.1.1-.2.2-.2.2-.3.5-.6.8-1 .7-1.1 1.1-2.3 1.1-3.6 0-.7-.1-1.5-.4-2.2-.5-1.4-1.4-2.6-2.7-3.4l-1.1-.7 7.4-9.3.9.4c1.9.9 4 1.4 6.1 1.4 3.8 0 7.3-1.5 10-4.1l.9-.9.9.9c2.7 2.7 6.2 4.1 10 4.1 2.1 0 4.2-.5 6.1-1.4l.9-.4 7.4 9.3-1.1.7c-1.2.8-2.2 2-2.7 3.4-.3.7-.4 1.5-.4 2.2 0 1.3.4 2.5 1.1 3.6.5.6.7.8 1 1.2 0 0 .1.1.1.2 1.8 2.4 2.7 5.3 2.7 8.2 0 7.8-6.3 14.1-14.1 14.1-.3 0-1-.1-2-.1-.4 0-.9-.1-1-.1-3.3 0-6.3 2.1-7.4 5.3l-.3.6zm-10-8.6c3.7 0 7 1.9 8.9 5 1.9-3.1 5.2-5 8.9-5 .2 0 .4 0 1.2.1.6.1 1.5.1 1.8.1 6.4 0 11.6-5.2 11.6-11.6 0-2.5-.8-4.8-2.2-6.8 0-.1-.1-.1-.1-.2-.2-.2-.3-.4-.8-.9l-.1-.1-.1-.1c-1-1.5-1.5-3.3-1.5-5.1 0-1 .2-2 .5-3 .5-1.5 1.4-2.8 2.6-3.9l-4.6-5.7c-2 .8-4.1 1.2-6.3 1.2-4 0-7.8-1.4-10.8-4-3 2.6-6.8 4-10.8 4-2.2 0-4.3-.4-6.3-1.2l-4.6 5.7c1.2 1 2.1 2.4 2.6 3.9.3 1 .5 2 .5 3 0 1.8-.5 3.6-1.5 5.1l-.1.1-.1.1c-.4.4-.5.6-.8.9-.1.1-.1.2-.2.2-1.4 2-2.2 4.3-2.2 6.8 0 6.4 5.2 11.6 11.6 11.6.2 0 1.2-.1 1.7-.1.7-.1 1-.1 1.2-.1z" fill="#033762"/><path d="M506.5 883.8h-2.9l-.4-1.2c-1-3-3.9-5-7-5-.1 0-.6 0-1 .1-1 .1-1.7.1-2 .1-8 0-14.6-6.5-14.6-14.6 0-3.1 1-6 2.8-8.5l.2-.3c.2-.3.5-.6.9-1.1.6-.9.9-2.1.9-3.3 0-.7-.1-1.4-.4-2-.5-1.3-1.3-2.4-2.5-3.2l-1.6-1 8-10 1.2.6c1.9.9 3.8 1.3 5.9 1.3 3.6 0 7-1.4 9.6-4l1.2-1.2 1.2 1.2c2.6 2.6 6 4 9.6 4 2 0 4-.5 5.9-1.3l1.2-.6 8 10-1.6 1c-1.1.7-2 1.9-2.5 3.2-.2.7-.4 1.4-.4 2 0 1.2.3 2.4 1 3.4.5.5.7.8 1 1.1l.1.1c1.8 2.5 2.8 5.5 2.8 8.5 0 8-6.5 14.6-14.6 14.6-.3 0-1-.1-2-.1-.4 0-.9-.1-1-.1-3.1 0-5.9 2-7 5v1.3zm-2.2-1h1.5l.2-.5c1.2-3.4 4.4-5.6 7.9-5.6.1 0 .6 0 1 .1 1 .1 1.7.1 2 .1 7.5 0 13.6-6.1 13.6-13.6 0-2.9-.9-5.6-2.6-7.9l-.1-.2c-.2-.3-.4-.6-.9-1.1-.8-1.2-1.2-2.6-1.2-4 0-.8.1-1.6.4-2.4.5-1.5 1.5-2.8 2.9-3.7l.7-.4-6.8-8.5-.5.2c-2 1-4.1 1.4-6.3 1.4-3.9 0-7.6-1.5-10.3-4.3l-.5-.5-.5.5c-2.8 2.7-6.4 4.3-10.3 4.3-2.2 0-4.3-.5-6.3-1.4l-.5-.2-6.8 8.5.7.4c1.3.9 2.3 2.2 2.9 3.7.3.8.4 1.6.4 2.4 0 1.4-.4 2.8-1.2 3.9-.4.5-.7.8-.9 1l-.2.2c-1.7 2.4-2.6 5.1-2.6 8 0 7.5 6.1 13.6 13.6 13.6.3 0 1-.1 1.9-.1.4 0 .9-.1 1-.1 3.6 0 6.8 2.3 7.9 5.6l-.1.6zm.7-2.1l-.4-.7c-1.8-2.9-5-4.8-8.4-4.8-.2 0-.4 0-1.2.1-.9.1-1.6.1-1.8.1-6.7 0-12.1-5.4-12.1-12.1 0-2.6.8-5 2.3-7.1l.2-.2c.3-.4.5-.6.8-1l.1-.1c1-1.4 1.5-3.1 1.5-4.8 0-.9-.2-1.9-.5-2.8-.5-1.4-1.3-2.7-2.4-3.7l-.4-.3 5.1-6.4.3.1c1.9.8 4 1.2 6.1 1.2 3.9 0 7.6-1.4 10.5-3.9l.3-.3.3.3c2.9 2.5 6.6 3.9 10.5 3.9 2.1 0 4.1-.4 6.1-1.2l.3-.1 5.1 6.4-.4.3c-1.1 1-1.9 2.2-2.4 3.6-.3.9-.5 1.9-.5 2.8 0 1.7.5 3.4 1.5 4.8l.1.1c.5.5.6.7.8 1l.1.2c1.5 2.1 2.3 4.5 2.3 7.1 0 6.7-5.4 12.1-12.1 12.1-.3 0-1-.1-1.8-.1-.7-.1-1-.1-1.1-.1-3.4 0-6.7 1.8-8.4 4.8l-.4.8zm-8.8-6.5c3.5 0 6.8 1.7 8.9 4.6 2-2.9 5.4-4.6 8.9-4.6.2 0 .5 0 1.2.1.5 0 1.5.1 1.7.1 6.1 0 11.1-5 11.1-11.1 0-2.3-.7-4.6-2.1-6.5l-.2-.2c-.2-.2-.2-.4-.7-.8l-.2-.3c-1.1-1.6-1.6-3.4-1.6-5.4 0-1.1.2-2.1.5-3.2.5-1.4 1.3-2.7 2.4-3.7l-4.1-5.1c-2 .8-4 1.1-6.1 1.1-4 0-7.8-1.4-10.8-3.9-3 2.5-6.9 3.9-10.8 3.9-2.1 0-4.1-.4-6.1-1.1l-4.1 5.1c1.1 1 1.9 2.3 2.4 3.7.4 1 .5 2.1.5 3.2 0 1.9-.6 3.8-1.6 5.4l-.2.2c-.3.3-.5.6-.7.8l-.2.3c-1.4 1.9-2.1 4.1-2.1 6.5 0 6.1 5 11.1 11.1 11.1.2 0 1.1-.1 1.6-.1.8-.1 1.1-.1 1.3-.1z" fill="#033762"/><g fill="#033762"><path d="M500.9 855.9c2.7.2 4.6 1.8 4.6 4.4 0 3-2.3 5.2-5.9 5.2-2 0-4.1-.7-5.5-1.8l1.1-2.2c1.2 1.1 2.7 1.7 4.2 1.7 2.2 0 3.4-1.1 3.4-2.8 0-1.8-1.3-2.7-3.4-2.7h-2.3v-1.6l4.2-4.6h-6.5v-2.4h9.9v1.7l-4.7 5 .9.1zM510 865.4v-13.8h-3.2v-2.4h5.9v16.3H510"/></g><g><path d="M487.3 511.7c-.3 13 13.3 21.8 24.1 27 11.1-5.1 24.7-14 24.6-27.2-.1-3.2-.2-6.5-.4-9.7h-48l-.3 9.9z" fill="#033762"/><path d="M534.6 489.5c-8.8 3.7-15.5 4.6-22.6-1.2-7.1 5.8-14.5 5.3-23.4 1.5-.3 3-.6 5.9-.8 8.9h47.6c-.2-3.1-.4-6.1-.8-9.2z" fill="#00BBF4"/><path d="M487.8 498.7c-.1 1-.1 2.1-.2 3.1h48c-.1-1-.1-2.1-.2-3.1h-47.6z" fill="#FFFFFF"/><g fill="#F9F9F9"><path d="M510.3 509.7l-1.1 2.1c-1-.7-2.4-1-3.6-1-3.2 0-4.7 2.4-4.6 5.9.9-1.5 2.4-2.3 4.5-2.3 3.3 0 5.3 2 5.3 5.2 0 3.4-2.3 5.5-5.8 5.5-4.2 0-6.7-3-6.7-8 0-5.2 2.7-8.7 7.1-8.7 1.6.1 3.6.6 4.9 1.3zm-8.8 10c0 1.4 1 3 3.4 3 2 0 3.3-1.1 3.3-3.1 0-1.9-1.2-3-3.2-3-2.2 0-3.5 1.4-3.5 3.1zM513.1 523.9l1.1-2.1c1 .7 2.4 1 3.6 1 3.2 0 4.7-2.4 4.6-5.9-.9 1.5-2.4 2.3-4.5 2.3-3.3 0-5.3-2-5.3-5.2 0-3.4 2.3-5.5 5.8-5.5 4.1 0 6.7 3 6.7 8 0 5.2-2.7 8.7-7.1 8.7-1.6-.1-3.6-.6-4.9-1.3zm8.8-10c0-1.4-1-3-3.4-3-2 0-3.3 1.1-3.3 3.1 0 1.9 1.2 3 3.2 3 2.2 0 3.6-1.4 3.5-3.1z"/></g></g><g><path d="M635.8 111.2c-.3 13 13.3 21.8 24.1 27 11.1-5.1 24.7-14 24.6-27.2-.1-3.2-.2-6.5-.4-9.7h-48c-.1 3.3-.3 6.6-.3 9.9z" fill="#033762"/><path d="M683.1 89c-8.8 3.7-15.5 4.6-22.6-1.2-7.1 5.8-14.5 5.3-23.4 1.5-.3 3-.6 5.9-.8 8.9h47.6c-.2-3-.4-6.1-.8-9.2z" fill="#00BBF4"/><path d="M636.3 98.2c-.1 1-.1 2.1-.2 3.1h48c-.1-1-.1-2.1-.2-3.1h-47.6z" fill="#FFFFFF"/><g fill="#F9F9F9"><path d="M658.8 109.2l-1.1 2.1c-1-.7-2.4-1-3.6-1-3.2 0-4.7 2.4-4.6 5.9.9-1.5 2.4-2.3 4.5-2.3 3.3 0 5.3 2 5.3 5.2 0 3.4-2.3 5.5-5.8 5.5-4.2 0-6.7-3-6.7-8 0-5.2 2.7-8.7 7.1-8.7 1.6.1 3.6.6 4.9 1.3zm-8.8 10c0 1.4 1 3 3.4 3 2 0 3.3-1.1 3.3-3.1 0-1.9-1.2-3-3.2-3-2.2 0-3.5 1.4-3.5 3.1zM661.6 123.4l1.1-2.1c1 .7 2.4 1 3.6 1 3.2 0 4.7-2.4 4.6-5.9-.9 1.5-2.4 2.3-4.5 2.3-3.3 0-5.3-2-5.3-5.2 0-3.4 2.3-5.5 5.8-5.5 4.1 0 6.7 3 6.7 8 0 5.2-2.7 8.7-7.1 8.7-1.6-.1-3.6-.5-4.9-1.3zm8.8-10c0-1.4-1-3-3.4-3-2 0-3.3 1.1-3.3 3.1 0 1.9 1.2 3 3.2 3 2.2.1 3.6-1.4 3.5-3.1z"/></g></g><g><path fill="#FFFFFF" d="M230.9 328.5h269v57.9h-269z"/><path fill="#00BBF4" d="M289.1 376.2l-.1-24.7-9.1 20.9h-6.3l-9.1-20.9v24.7h-8.6v-38.1h10.6l10.3 22.6 10.3-22.6h10.5v38.1M313.9 369.2l-2.8 7h-9.9l16.4-38h9.9l16 38h-10.3l-2.7-7h-16.6zm8.4-21.4l-5.5 14.1h11l-5.5-14.1zM364.4 365.5h-7.6v10.7h-9.7v-38h17c10 0 15.8 4.8 15.8 13.3 0 5.8-2.4 10-6.9 12.2l8 12.5h-11l-5.6-10.7zm-.3-7.6c4.2 0 6.6-2.1 6.6-6.1 0-4-2.4-6-6.6-6h-7.3v12.1h7.3zM386.4 376.2v-38h9.7v38M442.3 357.2c0 11.1-8.8 19.5-20.6 19.5-11.7 0-20.5-8.4-20.5-19.5s8.8-19.3 20.5-19.3c11.8 0 20.6 8.3 20.6 19.3zm-31.2 0c0 6.4 4.9 11.3 10.8 11.3s10.5-4.9 10.5-11.3-4.7-11.2-10.5-11.2-10.8 4.8-10.8 11.2zM474 376.2l-17.5-23.4v23.4h-9.1v-38h8.5l17.5 23.5v-23.5h9v38"/><path d="M515.1 396.6l10.9-33.4-28.4-20.7h35.1l10.9-33.4 10.9 33.4h35.1l-28.4 20.7 10.9 33.4-28.4-20.7-28.6 20.7zm28.4-30.6l13.2 9.6-5-15.5 13.2-9.6h-16.3l-5-15.5-5 15.5h-16.3l13.2 9.6-5 15.5 13-9.6z" fill="#FFFFFF"/><path fill="#00BBF4" d="M543.5 322l8 24.5h25.7l-20.8 15.1 7.9 24.5-20.8-15.1-20.8 15.1 7.9-24.5-20.8-15.1h25.7"/></g></g></g></svg>