<svg version="1.1" x="0px" y="0px" viewBox="0 0 200 51.5">
<style type="text/css">
	.st0{fill:#231F20;}
</style>
<g>
	<g>
		<g>
			<path class="st0" d="M19.7,24V10.4L15,21.8h-4.4L6,10.5v13.6H0v-23h7.3l5.5,12.7l5.5-12.7h7.3V24C25.6,24,19.7,24,19.7,24z"/>
			<path class="st0" d="M35.7,20.5l-1.4,3.7h-7l9.8-22.9h7l9.4,22.9h-7.2L45,20.5H35.7z M40.4,8l-2.8,7.5h5.6L40.4,8z"/>
			<path class="st0" d="M65.7,18h-3.6v6.2h-6.8v-23H66c6.1,0,9.7,2.9,9.7,8.1c0,3.4-1.4,5.9-3.9,7.3l4.6,7.5h-7.7L65.7,18z M66,12.7
				c2,0,3.2-1.1,3.2-3.2c0-2-1.2-3.1-3.2-3.1h-3.9v6.3H66z"/>
			<path class="st0" d="M77.8,24V1.1h6.8V24H77.8z"/>
			<path class="st0" d="M111.5,12.7c0,6.7-5.3,11.8-12.5,11.8s-12.5-5-12.5-11.8C86.5,6,91.8,1.1,99,1.1C106.2,1,111.5,6,111.5,12.7
				z M93.5,12.7c0,3.5,2.6,6,5.6,6s5.4-2.6,5.4-6s-2.4-6-5.4-6C96.1,6.6,93.5,9.2,93.5,12.7z"/>
			<path class="st0" d="M129.4,24l-9.7-12.7V24h-6.2V1.1h5.8L129,14V1.1h6.2V24H129.4z"/>
		</g>
		<g>
			<path class="st0" d="M13.4,32.8L11,35.5c-0.9-1.1-2.2-1.9-3.3-1.9c-1.9,0-3.3,1.5-3.3,3.6s1.4,3.6,3.3,3.6c1.1,0,2.4-0.6,3.3-1.6
				l2.4,2.5c-1.5,1.6-3.8,2.7-5.9,2.7c-4.2,0-7.4-3.1-7.4-7.2s3.2-7.1,7.5-7.1C9.7,30.2,12,31.2,13.4,32.8z"/>
			<path class="st0" d="M14.7,44.3v-14h4.1v14H14.7z"/>
			<path class="st0" d="M28.4,33.7v10.7h-4.2V33.7h-4v-3.3h12.3v3.3H28.4z"/>
			<path class="st0" d="M42.1,44.3H38V40l-5.1-9.6H37l3,5.7l3-5.7h4.1l-5,9.5V44.3z"/>
			<path class="st0" d="M51.8,44.7c-2.4,0-4-1.9-3.6-4.3C48.6,38,50.5,36,53,36c2.3,0,4,1.9,3.6,4.3C56.3,42.8,54.3,44.7,51.8,44.7z
				 M52.9,37.2c-1,0-1.7,1.1-2.1,3.3c-0.4,2.3,0,3.3,1,3.3s1.7-1,2.1-3.3C54.4,38.2,54,37.2,52.9,37.2z"/>
			<path class="st0" d="M64.8,32.5c-0.4,0-0.7-0.4-0.8-0.7c-0.2-0.7-0.3-1-0.9-1c-0.8,0-1.1,0.8-1.5,3.2l-0.4,2.6H63l-0.1,0.8H61
				l-1.2,6.9c-0.9,4.8-2.7,6.2-4.7,6.2c-1.4,0-2.2-0.9-2.2-1.5s0.4-1,1-1c0.4,0,0.7,0.4,0.7,0.7c0.1,0.6,0.3,1,1,1s0.9-0.6,1.3-2.9
				l1.7-9.4h-1.4l0.1-0.8h1.5l0.4-2.2c0.4-2.5,1.9-4.4,4.2-4.4c1.6,0,2.4,1,2.4,1.6C65.8,32.2,65.3,32.5,64.8,32.5z"/>
			<path class="st0" d="M80.7,32.8l-2.4,2.8c-0.9-1.1-2.2-1.9-3.3-1.9c-1.9,0-3.3,1.5-3.3,3.6s1.4,3.6,3.3,3.6
				c1.1,0,2.4-0.6,3.3-1.6l2.4,2.5c-1.5,1.6-3.8,2.7-5.9,2.7c-4.2,0-7.4-3.1-7.4-7.2s3.2-7.1,7.5-7.1C77.1,30.2,79.3,31.2,80.7,32.8
				z"/>
			<path class="st0" d="M91.1,44.3v-5.2h-5v5.2H82v-14h4.1v5.6h5v-5.6h4.1v14H91.1z"/>
			<path class="st0" d="M101.5,42.1l-0.8,2.2h-4.3l6-14h4.3l5.8,14h-4.4l-0.8-2.2H101.5z M104.3,34.5l-1.7,4.6h3.4L104.3,34.5z"/>
			<path class="st0" d="M125.4,44.3V36l-2.8,6.9h-2.7l-2.8-6.9v8.3h-3.6v-14h4.4l3.4,7.7l3.4-7.7h4.4v14H125.4z"/>
			<path class="st0" d="M137.4,30.3c3.6,0,5.7,1.8,5.7,5c0,3.3-2.1,5.2-5.7,5.2h-2.2v3.8H131v-14H137.4z M135.2,37.3h2
				c1.2,0,2-0.7,2-1.9s-0.7-1.9-2-1.9h-2V37.3z"/>
			<path class="st0" d="M144.3,44.3v-14h4.1v14H144.3z"/>
			<path class="st0" d="M164.8,37.3c0,4.1-3.2,7.2-7.6,7.2c-4.4,0-7.6-3-7.6-7.2c0-4.1,3.2-7.1,7.6-7.1
				C161.6,30.2,164.8,33.2,164.8,37.3z M153.9,37.3c0,2.1,1.6,3.7,3.4,3.7c1.8,0,3.3-1.6,3.3-3.7c0-2.1-1.5-3.6-3.3-3.6
				C155.4,33.8,153.9,35.2,153.9,37.3z"/>
			<path class="st0" d="M175.8,44.3l-5.9-7.8v7.8h-3.8v-14h3.5l5.9,7.8v-7.8h3.8v14H175.8z"/>
			<path class="st0" d="M192.9,31.8l-1.5,3.2c-1.4-0.8-3.5-1.6-4.6-1.6c-0.7,0-1.2,0.2-1.2,0.8c0,2.1,7.3,0.8,7.3,5.9
				c0,3-2.6,4.4-5.8,4.4c-2.4,0-5-0.8-6.7-2.2l1.6-3.1c1.4,1.2,3.8,2.1,5.2,2.1c0.9,0,1.4-0.3,1.4-0.9c0-2.1-7.3-0.8-7.3-5.7
				c0-2.7,2.3-4.4,5.8-4.4C189.2,30.2,191.4,30.8,192.9,31.8z"/>
		</g>
	</g>
	<g>
		<g>
			<path class="st0" d="M195.7,30v2.4h-0.6V30h-0.8v-0.5h2.3V30H195.7z M199.5,32.2v-2l-0.8,1.7h-0.4l-0.8-1.7v2H197v-2.9h0.7
				l0.9,1.8l0.9-1.8h0.7v2.9H199.5z"/>
		</g>
	</g>
</g>
</svg>
