<svg version="1.1" x="0px" y="0px" viewBox="0 0 200 33.3">
<style type="text/css">
	.st0{fill:#096095;}
	.st1{fill:#00BBF4;}
	.st2{fill:#0091C4;}
	.st3{fill:#033762;}
	.st4{fill:#2AAFC2;}
</style>
<g>
	<g>
		<path class="st0" d="M7.5,16.7l7.5-7.5v0v0L7.7,1.7c-0.1-0.1-0.2-0.1-0.3,0L0,9.1L7.5,16.7z"/>
		<path class="st1" d="M22.6,16.7l7.5-7.5v0l-7.4-7.4c-0.1-0.1-0.2-0.1-0.3,0l-7.4,7.4L22.6,16.7z"/>

			<rect x="9.8" y="11.3" transform="matrix(0.7071 -0.7071 0.7071 0.7071 -7.3651 15.5523)" class="st2" width="10.7" height="10.7"/>
		<path class="st3" d="M7.5,31.7v-15L0,9.1v15.1l7.4,7.4C7.5,31.7,7.5,31.7,7.5,31.7z"/>
		<path class="st3" d="M22.6,31.7v-15l-7.5,7.5l7.4,7.4C22.5,31.7,22.6,31.7,22.6,31.7z"/>
		<path class="st4" d="M7.5,16.7v15c0,0,0.1,0,0.1-0.1l7.4-7.4v0v0L7.5,16.7z"/>
		<path class="st4" d="M22.6,31.7c0,0,0.1,0,0.1-0.1l7.4-7.4V9.1l-7.5,7.5V31.7z"/>
	</g>
	<g>
		<g>
			<g>
				<path class="st3" d="M51.3,12.5l-2.5,2.9c-0.9-1.2-2.2-1.9-3.4-1.9c-2,0-3.4,1.6-3.4,3.7c0,2.1,1.5,3.7,3.4,3.7
					c1.1,0,2.5-0.7,3.4-1.7l2.5,2.6c-1.6,1.7-3.9,2.8-6.1,2.8c-4.4,0-7.6-3.2-7.6-7.4c0-4.2,3.3-7.3,7.8-7.3
					C47.5,10,49.9,11,51.3,12.5z"/>
				<path class="st3" d="M52.7,24.5V10.1H57v14.4H52.7z"/>
				<path class="st3" d="M66.9,13.5v11h-4.3v-11h-4.2v-3.4h12.7v3.4H66.9z"/>
				<path class="st3" d="M81.1,24.5h-4.3v-4.5l-5.3-9.9h4.3l3.2,5.9l3.1-5.9h4.3L81.1,20V24.5z"/>
				<path class="st3" d="M121.1,24.5l0-8.5l-2.9,7.1h-2.8l-2.9-7.1v8.5h-3.8V10.1h4.6l3.5,8l3.5-8h4.6v14.4H121.1z"/>
				<path class="st3" d="M131.3,22.2l-0.9,2.3H126l6.2-14.4h4.4l6,14.4h-4.6l-0.8-2.3H131.3z M134.2,14.4l-1.8,4.7h3.5L134.2,14.4z"
					/>
				<path class="st3" d="M150.2,20.7h-2.3v3.9h-4.3V10.1h6.7c3.9,0,6.1,1.9,6.1,5.1c0,2.1-0.9,3.7-2.4,4.6l2.9,4.7h-4.9L150.2,20.7z
					 M150.3,17.4c1.3,0,2-0.7,2-2c0-1.3-0.7-2-2-2h-2.5v4H150.3z"/>
				<path class="st3" d="M157.8,24.5V10.1h4.3v14.4H157.8z"/>
				<path class="st3" d="M179,17.3c0,4.2-3.3,7.4-7.9,7.4s-7.9-3.1-7.9-7.4c0-4.2,3.3-7.3,7.9-7.3S179,13.1,179,17.3z M167.7,17.3
					c0,2.2,1.6,3.8,3.5,3.8c1.9,0,3.4-1.6,3.4-3.8s-1.5-3.8-3.4-3.8C169.3,13.6,167.7,15.2,167.7,17.3z"/>
				<path class="st3" d="M190.3,24.5l-6.1-8v8h-3.9V10.1h3.7l6.1,8.1v-8.1h3.9v14.4H190.3z"/>
			</g>
			<g>
				<path class="st0" d="M91.1,24.9c-2.5,0-4.1-2-3.7-4.4s2.4-4.4,4.9-4.4c2.4,0,4.1,2,3.7,4.4C95.7,23,93.7,24.9,91.1,24.9z
					 M92.2,17.1c-1.1,0-1.7,1.1-2.2,3.4c-0.4,2.3,0,3.4,1.1,3.4c1.1,0,1.8-1.1,2.2-3.4C93.7,18.2,93.4,17.1,92.2,17.1z"/>
				<path class="st0" d="M104.5,12.4c-0.5,0-0.7-0.4-0.8-0.7c-0.2-0.7-0.4-1.1-0.9-1.1c-0.8,0-1.1,0.8-1.5,3.3l-0.5,2.6h1.9
					l-0.1,0.9h-1.9l-1.3,7.1c-0.9,5-2.8,6.4-4.8,6.4c-1.5,0-2.3-0.9-2.3-1.6c0-0.6,0.4-1,1.1-1c0.5,0,0.7,0.4,0.7,0.7
					c0.1,0.6,0.4,1.1,1,1.1s0.9-0.6,1.3-3l1.7-9.7h-1.5l0.1-0.9h1.5l0.4-2.2c0.4-2.6,1.9-4.6,4.4-4.6c1.6,0,2.5,1,2.5,1.7
					C105.5,12,105.1,12.4,104.5,12.4z"/>
			</g>
		</g>
		<g>
			<g>
				<path class="st3" d="M196.6,24.4v1.8h-0.5v-1.8h-0.6V24h1.8v0.4H196.6z M199.6,26.3v-1.6l-0.6,1.4h-0.3l-0.6-1.4v1.6h-0.4V24
					h0.5l0.7,1.4l0.7-1.4h0.5v2.2H199.6z"/>
			</g>
		</g>
	</g>
</g>
</svg>
