<svg version="1.1" x="0px" y="0px" viewBox="0 0 200 100">
<style type="text/css">
	.st0{fill-rule:evenodd;clip-rule:evenodd;}
</style>
<g>
	<path class="st0" d="M33.7,52.7H28v0.3c1.5,0.4,1.7,1.5,1.6,2.8c-1.3,4.7-3,9.3-5,13.9C22.3,64,20.1,58,18,52.1l-0.5,1.1l-6,16.5
		l-0.2-0.1C9,65.1,7,60.3,5.3,55.5c-0.3-1.2,0.1-2.3,1.3-2.8H0c0.1,0.1,0.2,0.3,0.3,0.4c0.4,0.3,0.9,0.8,1.3,1.3
		c3.5,6.7,6.3,13.7,8.5,20.8l0.3-0.2c1.9-5.9,4-11.9,6.3-17.6c2.2,5.8,4.4,11.7,6.2,17.6l0.4,0.4c0.2-0.2,0.3-0.4,0.4-0.7
		c2.1-6.2,4.4-12.3,7.1-18.3c0.6-1.3,1.6-2.4,2.8-3.3L33.7,52.7z"/>
	<path class="st0" d="M56.3,69.9c-0.5,0.8-1.1,1.4-1.9,2c-3.7,1.9-8.1,2-12.2,1.7c-1-0.1-1.9-0.9-2.1-2v-8.2l8.3,0.1
		c1.6,0,3.3,1,3.9,2.4V60c-0.8,1.4-1.9,2.3-3.6,2.4h-8.5v-8.9h8c2.7,0.2,5.4,1.2,7.1,3.3h0.3l-1.1-4.1H35.7c0,0.1,0.1,0.3,0.1,0.4
		c0.3,0.2,0.6,0.4,0.9,0.6c0.1,0.4,0.3,0.8,0.3,1.2v15.4c0,1.6-0.7,3.4-2.2,4.2h20.6l1.5-4.7C56.8,69.8,56.5,69.9,56.3,69.9z"/>
	<path class="st0" d="M76.6,53.4c-1.6-0.6-3.2-1.1-4.9-1.3c-2.6-0.3-5.4-0.3-7.8,0.8c-2,0.9-3.5,2.7-4,4.9c-0.3,3,1.6,5,4.3,5.8
		c2.9,0.9,5.9,1.2,8.8,2.1c1.1,0.3,2.1,1,2.6,2c0.7,2.4-0.3,4.7-2.6,5.9c-4.5,2-12.3,0.7-13.6-4.7c-0.6,1.2-1.1,2.5-1.4,3.9
		c3.8,2.2,8.9,2.8,13.2,2.3c2.2-0.1,4.7-1.3,6.1-3c2.5-2.5,1.9-6.6-1-8.4c-4-1.5-8-1.2-11.6-3.1c-0.4-0.2-1.5-1.2-1.7-1.8
		c-1.2-3.4,2-5.7,5.2-5.9c3-0.1,8.3,0.9,8.7,4.7l0.3,0.1l1.2-3.4L76.6,53.4z"/>
	<path class="st0" d="M103,69.9c-0.3,0.3-0.7,0.7-1,1c-1.9,1.6-4.4,2.2-6.9,2.5h-5.8c-0.5,0-0.9-0.1-1.3-0.3c-1-0.6-1.2-1.8-1.2-2.8
		V55.1c0-1.1,1.1-1.8,2-2.1c0-0.1,0-0.2,0-0.3h-6.5c0.1,0.1,0.1,0.2,0.2,0.3c0,0,1.4,0.5,1.4,2v15.3c0,2-0.8,3.8-2.5,4.3h20.7
		l1.4-4.6H103z"/>
	<path class="st0" d="M125.8,69.9c-0.5,0.8-1.1,1.4-1.9,2c-3.7,1.9-8.1,2-12.2,1.7c-1-0.1-1.9-0.9-2.1-2v-8.2l8.3,0.1
		c1.6,0,3.3,1,3.9,2.4V60c-0.8,1.4-1.9,2.3-3.6,2.4h-8.5v-8.9h8c2.7,0.2,5.4,1.2,7.1,3.3h0.3l-1.1-4.1h-18.7c0,0.1,0.1,0.3,0.1,0.4
		c0.3,0.2,0.6,0.4,0.9,0.6c0.1,0.4,0.3,0.8,0.3,1.2v15.4c0,1.6-0.7,3.4-2.2,4.2H125l1.5-4.7C126.3,69.8,126,69.9,125.8,69.9z"/>
	<path class="st0" d="M151.5,52.8l-5.8-0.1v0.3c0.4,0.1,0.8,0.3,1.2,0.6c0.9,1.2-0.7,3.1-1.5,4l-5.1,5.9c-2.5-2.6-4.8-5.5-6.7-8.5
		c-0.4-1,0.1-2,1.2-2.2l-7-0.1l-0.1,0.3c0.5,0.3,0.9,0.7,1.3,1c3.2,3.5,6.1,7.3,8.7,11.4c0,2.1,0,6.5,0,6.5c0,1.2-0.8,2.1-2,2.3
		c0.1,0.1,0.1,0.3,0.1,0.3h6.9l0.1-0.1c-1-0.5-2-1-2-2.1v-7c0-0.4,0.3-0.8,0.5-1.2c2.4-3.2,5-6.2,7.9-9.1l2.4-2V52.8z"/>
	<path class="st0" d="M171.7,71.9c-3.8-6.5-7.2-13.2-10.4-19.9H161c-3.2,7.4-7.2,14.5-11.9,21.1l-0.9,0.6l-0.3,0.9h5.9
		c-0.1-0.1-0.1-0.3-0.2-0.4c-2-0.6-1.7-3-0.9-4.4l3.1-5.9h8.5l3.4,7.1c0.6,1.2,0.8,2.9-0.7,3.4l0.1,0.1h6.9l0.1-0.3
		C172.9,73.7,172.2,73,171.7,71.9z M163.7,63.2h-7.5l-0.1-0.3l3.9-7.1l3.8,7.1L163.7,63.2z"/>
	<path class="st0" d="M194,52.8v0.1c0.3,0.3,0.7,0.5,1.1,0.6c0.7,0.7,1.1,1.7,1.4,2.8v13l-0.2-0.1c-5.4-5.1-10.4-10.6-15.1-16.4
		h-5.4V53c1.2,0.4,1.8,1.3,2,2.7v14.7c0,1.8-1.1,3.5-2.8,4.1h6.3l0.1-0.2c-0.4-0.2-0.8-0.4-1.2-0.7c-1-1.2-1.3-2.7-1.4-4.2
		c-0.3-4.7-0.3-9.5,0.1-14.2l0.6,0.6c6.1,6.2,12,12.6,17.7,19.3l0.3-0.4c-0.4-6.1-0.4-12.3,0-18.4l0.6-1.3c0.3-0.9,0.9-1.6,1.8-1.8
		c0.1-0.1,0.1-0.3,0.1-0.3H194z"/>
	<path class="st0" d="M44.9,88.7v-5.2c0-0.4,0-0.7-0.2-1c-0.1-0.3-0.3-0.5-0.7-0.6c-0.1,0-0.1-0.1-0.1-0.1c0-0.1,0-0.1,0.2-0.1
		c0.1,0,0.3,0,0.5,0c0.2,0,0.4,0,0.6,0c0.2,0,0.4,0,0.6,0c0.2,0,0.4,0,0.5,0c0.6,0.8,1.2,1.5,1.9,2.1l5,5.4v-5.1
		c0-0.6-0.1-1.1-0.3-1.5c-0.2-0.3-0.4-0.6-0.6-0.7c-0.1,0-0.2-0.1-0.2-0.1c-0.1,0-0.1,0-0.1-0.1c0-0.1,0.1-0.1,0.3-0.1
		c0.1,0,0.4,0,0.7,0c0.2,0,0.5,0,0.6,0c0.2,0,0.3,0,0.5,0c0.2,0,0.4,0,0.5,0c0.2,0,0.3,0.1,0.3,0.1c0,0-0.1,0.1-0.2,0.2
		c-0.2,0.1-0.4,0.2-0.6,0.5c-0.2,0.3-0.3,0.9-0.3,1.7v6.2c0,0.4,0,0.8,0,1c0,0.3-0.1,0.4-0.1,0.4h0c-0.1,0-0.2-0.1-0.3-0.3
		c-0.2-0.2-0.5-0.6-0.9-1.1c-0.6-0.7-1.3-1.5-2.1-2.4c-0.8-0.9-1.6-1.7-2.4-2.6c-0.8-0.9-1.5-1.7-2.3-2.5V89c0,0.8,0.1,1.3,0.3,1.6
		c0.2,0.3,0.3,0.5,0.5,0.6c0.1,0.1,0.2,0.1,0.2,0.1c0.1,0,0.1,0,0.1,0.1c0,0-0.1,0.1-0.2,0.1c-0.1,0-0.2,0-0.4,0c-0.2,0-0.6,0-0.9,0
		c-0.1,0-0.3,0-0.4,0c-0.2,0-0.4,0-0.5,0c-0.2,0-0.3,0-0.4,0c-0.1,0-0.2,0-0.2-0.1c0,0,0.1-0.1,0.2-0.1c0.1,0,0.3-0.1,0.4-0.2
		c0.2-0.2,0.4-0.5,0.5-0.8C44.9,89.8,44.9,89.3,44.9,88.7z"/>
	<path class="st0" d="M27.3,88.2v-5c0-0.5-0.1-0.9-0.2-1c-0.1-0.2-0.2-0.2-0.3-0.3c-0.2-0.1-0.2-0.1-0.2-0.2c0-0.1,0-0.1,0.2-0.1
		c0.4,0,0.8,0,1.1,0.1c0.2,0,0.4,0,0.6,0c0.2,0,0.5,0,0.7,0c0.1,0,0.1,0,0.2,0c0,0,0.1,0,0.1,0.1c0,0-0.1,0.1-0.2,0.2
		c-0.3,0.1-0.5,0.4-0.5,0.8c-0.1,0.4-0.1,0.9-0.1,1.3v3.8c0,1,0.3,1.9,0.8,2.5c0.6,0.6,1.1,1,2.3,1c0.8,0,1.5-0.1,2.1-0.3
		c0.6-0.2,1-0.6,1.4-1.2c0.3-0.6,0.5-1.4,0.5-2.4v-3.3c0-0.7-0.1-1.2-0.2-1.5c-0.1-0.3-0.3-0.6-0.6-0.7c-0.2-0.1-0.3-0.2-0.3-0.2
		c0,0,0,0,0.1-0.1c0,0,0.1,0,0.1,0c0.1,0,0.2,0,0.3,0c0.2,0,0.8,0,1.2,0c0.2,0,0.4,0,0.6,0c0.2,0,0.4,0,0.4,0c0.1,0,0.2,0,0.2,0.1
		c0,0,0,0-0.1,0.1c-0.1,0-0.1,0.1-0.2,0.1c-0.2,0.1-0.3,0.2-0.5,0.4c-0.1,0.2-0.2,0.4-0.2,0.7c0,0.3-0.1,0.7-0.1,1.2v3.1
		c0,1.2-0.2,2.2-0.5,2.8c-0.4,0.7-0.9,1.1-1.6,1.3c-0.7,0.2-1.5,0.4-2.4,0.3c-1.2,0-2.1-0.1-2.8-0.4c-0.7-0.3-1.2-0.7-1.5-1.2
		C27.4,89.6,27.3,88.9,27.3,88.2z"/>
	<path class="st0" d="M31.1,44.2V29.4c0-1.1,0.2-2.5,1.4-2.8l-0.1-0.3h-5.7c0,0.1,0.1,0.3,0.1,0.4c0.7,0.3,1.3,1.8,1.3,2.5V44
		c0,1.6-0.6,3.5-2.2,4.1l0.1,0.2h6.7l0.1-0.2C31.7,47.8,31.1,45.8,31.1,44.2z"/>
	<path class="st0" d="M53.8,26.6v0.1c0.3,0.3,0.7,0.5,1.1,0.6c0.7,0.7,1.1,1.7,1.4,2.8v13l-0.2-0.1C50.7,37.8,45.7,32.3,41,26.5
		h-5.4v0.3c1.2,0.4,1.8,1.3,2,2.7v14.7c0,1.8-1.1,3.5-2.8,4.1h6.3l0.1-0.2c-0.4-0.2-0.8-0.4-1.2-0.7c-1-1.2-1.3-2.7-1.4-4.2
		c-0.3-4.7-0.3-9.5,0.1-14.2l0.6,0.6c6.1,6.2,12,12.6,17.7,19.3l0.3-0.4c-0.4-6.1-0.4-12.3,0-18.4l0.6-1.3c0.3-0.9,0.9-1.6,1.8-1.8
		c0.1-0.1,0.1-0.3,0.1-0.3H53.8z"/>
	<path class="st0" d="M76.2,26.6H62.2c0,0.1,0.1,0.3,0.1,0.4c0.2,0.1,0.4,0.3,0.6,0.3c0.7,0.5,1.1,1.7,1.1,2.5v15.1
		c0,0.9-0.3,1.5-1,2.2c-0.5,0.5-1.1,0.6-1.7,0.9c0.1,0.1,0.1,0.3,0.1,0.4h13.5c1.6,0,3-0.4,4.7-1.2c4.5-2.2,7-6.6,6.4-11.1
		C85.5,30.8,81.3,27.3,76.2,26.6z M74.3,47.6h-5c-1.3-0.3-2.6-0.9-2.6-2.2V27.3l8.5,0.1c1.6,0,3,0.8,4.2,1.7
		c3.6,2.8,3.9,8.4,2.6,12.5C81,45.3,78,47.3,74.3,47.6z"/>
	<path class="st0" d="M120.6,45.7c-3.8-6.5-7.2-13.2-10.4-19.9h-0.3c-3.2,7.4-7.2,14.5-11.9,21.1l-0.9,0.6l-0.3,0.9h5.9
		c-0.1-0.1-0.1-0.3-0.2-0.4c-2-0.6-1.7-3-0.9-4.4l3.1-5.9h8.5l3.4,7.1c0.6,1.2,0.8,2.9-0.7,3.4l0.1,0.1h6.9L123,48
		C121.8,47.5,121.1,46.8,120.6,45.7z M112.6,37h-7.5l-0.1-0.3l3.9-7.1l3.8,7.1L112.6,37z"/>
	<path class="st0" d="M142.9,26.6v0.1c0.3,0.3,0.7,0.5,1.1,0.6c0.7,0.7,1.1,1.7,1.4,2.8v13l-0.2-0.1c-5.4-5.1-10.4-10.6-15.1-16.4
		h-5.4v0.3c1.2,0.4,1.8,1.3,2,2.7v14.7c0,1.8-1.1,3.5-2.8,4.1h6.3l0.1-0.2c-0.4-0.2-0.8-0.4-1.2-0.7c-1-1.2-1.3-2.7-1.4-4.2
		c-0.3-4.7-0.3-9.5,0.1-14.2l0.6,0.6c6.1,6.2,12,12.6,17.7,19.3l0.3-0.4c-0.4-6.1-0.4-12.3,0-18.4l0.6-1.3c0.3-0.9,0.9-1.6,1.8-1.8
		c0.1-0.1,0.1-0.3,0.1-0.3H142.9z"/>
	<path class="st0" d="M172.9,45.7c-3.8-6.5-7.2-13.2-10.4-19.9h-0.3c-3.2,7.4-7.2,14.5-11.9,21.1l-0.9,0.6l-0.3,0.9h5.9
		c-0.1-0.1-0.1-0.3-0.2-0.4c-2-0.6-1.7-3-0.9-4.4l3.1-5.9h8.5l3.4,7.1c0.6,1.2,0.8,2.9-0.7,3.4l0.1,0.1h6.9l0.1-0.3
		C174.1,47.5,173.4,46.8,172.9,45.7z M164.9,37h-7.5l-0.1-0.3l3.9-7.1l3.8,7.1L164.9,37z"/>
	<path class="st0" d="M27.3,88.2v-5c0-0.5-0.1-0.9-0.2-1c-0.1-0.2-0.2-0.2-0.3-0.3c-0.2-0.1-0.2-0.1-0.2-0.2c0-0.1,0-0.1,0.2-0.1
		c0.4,0,0.8,0,1.1,0.1c0.2,0,0.4,0,0.6,0c0.2,0,0.5,0,0.7,0c0.1,0,0.1,0,0.2,0c0,0,0.1,0,0.1,0.1c0,0-0.1,0.1-0.2,0.2
		c-0.3,0.1-0.5,0.4-0.5,0.8c-0.1,0.4-0.1,0.9-0.1,1.3v3.8c0,1,0.3,1.9,0.8,2.5c0.6,0.6,1.4,1,2.6,1c0.8,0,1.5-0.1,2.1-0.3
		c0.6-0.2,1-0.6,1.4-1.2c0.3-0.6,0.5-1.4,0.5-2.4v-3.3c0-0.7-0.1-1.2-0.2-1.5c-0.1-0.3-0.3-0.6-0.6-0.7c-0.2-0.1-0.3-0.2-0.3-0.2
		c0,0,0,0,0.1-0.1c0,0,0.1,0,0.1,0c0.1,0,0.2,0,0.3,0c0.2,0,0.5,0,0.9,0c0.2,0,0.4,0,0.6,0c0.2,0,0.4,0,0.4,0c0.1,0,0.2,0,0.2,0.1
		c0,0,0,0-0.1,0.1c-0.1,0-0.1,0.1-0.2,0.1c-0.2,0.1-0.3,0.2-0.5,0.4c-0.1,0.2-0.2,0.4-0.2,0.7c0,0.3-0.1,0.7-0.1,1.2v3.1
		c0,1.2-0.2,2.2-0.5,2.8c-0.4,0.7-0.9,1.1-1.6,1.3c-0.7,0.2-1.5,0.4-2.4,0.3c-1.2,0-2.1-0.1-2.8-0.4c-0.7-0.3-1.2-0.7-1.5-1.2
		C27.4,89.6,27.3,88.9,27.3,88.2z"/>
	<path class="st0" d="M44.9,88.7v-5.2c0-0.4,0-0.7-0.2-1c-0.1-0.3-0.3-0.5-0.7-0.6c-0.1,0-0.1-0.1-0.1-0.1c0-0.1,0-0.1,0.2-0.1
		c0.1,0,0.3,0,0.5,0c0.2,0,0.4,0,0.6,0c0.2,0,0.4,0,0.6,0c0.2,0,0.4,0,0.5,0c0.6,0.8,1.2,1.5,1.9,2.1l5.1,5.4v-5.1
		c0-0.6-0.1-1.1-0.3-1.5c-0.2-0.3-0.4-0.6-0.6-0.7c-0.1,0-0.2-0.1-0.2-0.1c-0.1,0-0.1,0-0.1-0.1c0-0.1,0.1-0.1,0.3-0.1
		c0.1,0,0.3,0,0.6,0c0.2,0,0.5,0,0.6,0c0.2,0,0.3,0,0.5,0c0.2,0,0.4,0,0.5,0c0.2,0,0.3,0.1,0.3,0.1c0,0-0.1,0.1-0.2,0.2
		c-0.2,0.1-0.4,0.2-0.6,0.5c-0.2,0.3-0.3,0.9-0.3,1.7v6.2c0,0.4,0,0.8,0,1c0,0.3-0.1,0.4-0.1,0.4h0c-0.1,0-0.2-0.1-0.3-0.3
		c-0.2-0.2-0.5-0.6-0.9-1.1c-0.6-0.7-1.3-1.5-2.1-2.4c-0.8-0.9-1.6-1.7-2.4-2.6c-0.8-0.9-1.7-1.7-2.4-2.5V89c0,0.8,0.1,1.3,0.3,1.6
		c0.2,0.3,0.6,0.5,0.8,0.6c0.1,0.1,0.2,0.1,0.2,0.1c0.1,0,0.1,0,0.1,0.1c0,0,0,0.1-0.1,0.1c-0.1,0-0.3,0-0.5,0c-0.2,0-0.8,0-1,0
		c-0.1,0-0.3,0-0.4,0c-0.2,0-0.4,0-0.5,0c-0.2,0-0.3,0-0.4,0c-0.1,0-0.2,0-0.2-0.1c0,0,0.1-0.1,0.2-0.1c0.1,0,0.3-0.1,0.4-0.2
		c0.2-0.2,0.4-0.5,0.5-0.8C44.9,89.8,44.9,89.3,44.9,88.7z"/>
	<path class="st0" d="M62.3,88.5v-5.4c0-0.3,0-0.5-0.1-0.8c-0.1-0.3-0.2-0.4-0.5-0.6c-0.1,0-0.1-0.1-0.1-0.1c0-0.1,0.1-0.1,0.2-0.1
		c0.2,0,0.5,0,1.1,0.1c0.4,0,0.7,0,1.1-0.1c0,0,0.1,0,0.2,0c0.1,0,0.1,0,0.1,0.1c0,0.1,0,0.1-0.1,0.1c-0.3,0.1-0.4,0.3-0.5,0.5
		c-0.1,0.3-0.1,0.5-0.1,0.8v5.4c0,0.7,0,1.3,0.1,1.8c0.1,0.5,0.3,0.8,0.6,1c0.1,0,0.2,0.1,0.2,0.1c0,0-0.1,0-0.2,0
		c-0.1,0-0.6,0-1.3,0c-0.4,0-0.7,0-1,0c-0.2,0-0.4,0-0.4,0c-0.1,0-0.2,0-0.2-0.1c0,0,0.1-0.1,0.2-0.2c0.2-0.2,0.4-0.4,0.5-0.7
		c0.1-0.3,0.2-0.6,0.2-1C62.3,89.2,62.3,88.8,62.3,88.5z"/>
	<path class="st0" d="M81.1,83.3l-4.3,8.2c0,0.1-0.1,0.2-0.2,0.2h0c-0.1,0-0.1-0.1-0.2-0.2l-3.8-7.7c-0.2-0.5-0.5-0.8-0.7-1.2
		c-0.2-0.3-0.5-0.5-0.6-0.7c-0.1-0.1-0.2-0.1-0.2-0.1c-0.1,0-0.1-0.1-0.1-0.1c0-0.1,0.1-0.1,0.1-0.1c0.4,0,0.8,0,1.3,0.1
		c0.4,0,0.8,0,1.2-0.1c0.1,0,0.2,0,0.2,0c0.1,0,0.1,0,0.1,0.1c0,0,0,0.1-0.1,0.1c-0.1,0-0.1,0.1-0.2,0.1c-0.1,0-0.1,0.1-0.2,0.2
		c-0.1,0.1-0.1,0.2-0.1,0.4c0,0.2,0.2,0.6,0.5,1.4l3.3,6l2.8-5.5c0.2-0.4,0.3-0.7,0.4-1c0.1-0.3,0.1-0.5,0.1-0.6
		c0-0.4-0.2-0.6-0.4-0.7c-0.3-0.1-0.4-0.2-0.4-0.2c0-0.1,0.1-0.1,0.2-0.1c0.4,0,0.8,0,1.2,0.1c0.4,0,0.8,0,1.2-0.1
		c0.1,0,0.2,0,0.2,0.1c0,0,0,0.1-0.1,0.1c-0.1,0-0.2,0.1-0.3,0.2C81.6,82.4,81.3,82.8,81.1,83.3z"/>
	<path class="st0" d="M90.9,86.4v2c0,0.6,0,1.2,0.1,1.8c0,0.4,0.2,0.7,0.5,0.8c0.3,0.1,0.8,0.2,1.6,0.1c0.7,0,1.5,0,2.3-0.1
		c0.8-0.1,1.5-0.3,2.2-0.7c0.2-0.1,0.4-0.3,0.5-0.4c0.1-0.1,0.3-0.3,0.4-0.4c0,0,0.1-0.1,0.1-0.1c0,0,0.1,0,0.1,0.1c0,0,0,0.1,0,0.2
		L98,91.4h-9.3c-0.1,0-0.2,0-0.2,0c0-0.1,0.1-0.1,0.3-0.2c0.2-0.1,0.4-0.3,0.5-0.6c0.1-0.3,0.2-0.7,0.2-1.1c0-0.4,0-0.7,0-1v-5.3
		c0-0.3,0-0.6-0.1-0.8c-0.1-0.2-0.2-0.4-0.5-0.6c-0.1,0-0.1-0.1-0.1-0.1c0,0,0-0.1,0.1-0.1c0.1,0,0.1,0,0.2,0h8.1l0.3,0.9
		c0.1,0.2,0.1,0.4,0.2,0.6c0.1,0.2,0.1,0.4,0.1,0.4c0,0,0,0.1-0.1,0.1c-0.1,0-0.1-0.1-0.2-0.2c-0.4-0.6-0.9-0.9-1.6-1.2
		c-0.7-0.2-1.5-0.3-2.4-0.3h-2.8V86h1.5c1.1,0,1.9,0,2.4-0.1c0.5-0.1,0.9-0.2,1.1-0.3c0.1-0.1,0.2-0.2,0.3-0.3
		c0.1-0.1,0.1-0.2,0.2-0.3c0,0,0.1-0.1,0.1-0.1c0.1,0,0.1,0.1,0.1,0.2v2.2c0,0.1,0,0.1,0,0.2c0,0.1,0,0.1-0.1,0.1c0,0-0.1,0-0.1-0.1
		c0-0.1-0.1-0.2-0.2-0.3c-0.1-0.1-0.2-0.2-0.3-0.3c-0.3-0.2-0.6-0.3-1-0.3c-0.4-0.1-0.8-0.1-1.3-0.1c-0.4,0-0.8,0-1.1,0H90.9z"/>
	<path class="st0" d="M107.4,82v4.1h2.8c0.5,0,1,0,1.5-0.1c0.5-0.1,0.9-0.3,1.2-0.6c0.3-0.3,0.5-0.8,0.5-1.4c0-0.5-0.1-0.8-0.4-1.1
		c-0.3-0.3-0.6-0.5-1-0.6c-0.4-0.1-0.8-0.2-1.2-0.2H107.4z M107.4,86.5v2.2c0,0.6,0,1.2,0.1,1.7c0.1,0.5,0.3,0.8,0.6,0.9
		c0.1,0,0.1,0,0.2,0.1c0.1,0,0.1,0,0.1,0.1c0,0-0.1,0.1-0.3,0.1c-0.1,0-0.2,0-0.4,0c-0.2,0-0.5,0-1,0c-0.6,0-1,0-1.2,0
		c-0.2,0-0.4,0-0.4,0c-0.1,0-0.1,0-0.1-0.1c0,0,0,0,0.1-0.1c0.1,0,0.1-0.1,0.2-0.1c0.3-0.1,0.5-0.4,0.6-0.9c0.1-0.5,0.2-1.2,0.2-2.2
		v-5.1c0-0.3,0-0.5-0.1-0.8c-0.1-0.3-0.2-0.4-0.5-0.5c-0.2-0.1-0.2-0.1-0.2-0.2c0,0,0.1-0.1,0.3-0.1h4.5c1.3,0,2.4,0.1,3.1,0.3
		c0.7,0.2,1.3,0.5,1.5,0.9c0.3,0.4,0.4,0.8,0.4,1.2c0,0.5-0.2,0.9-0.4,1.2c-0.3,0.3-0.6,0.5-1,0.7c-0.4,0.2-0.8,0.3-1.2,0.4
		c-0.4,0.1-0.7,0.1-1,0.1v0c0.6,0.2,1.1,0.3,1.4,0.5c0.4,0.2,0.7,0.4,1,0.7c0.3,0.3,0.5,0.8,0.7,1.3c0.1,0.3,0.2,0.5,0.3,0.8
		c0.1,0.3,0.2,0.6,0.4,0.8c0.1,0.3,0.3,0.4,0.5,0.6c0.1,0.1,0.2,0.1,0.3,0.1c0.1,0,0.1,0,0.1,0.1c0,0,0,0-0.1,0h-1.7
		c-0.2,0-0.3,0-0.3-0.1c-0.1,0-0.1-0.2-0.2-0.3c-0.1-0.3-0.2-0.7-0.4-1c-0.1-0.4-0.3-0.7-0.4-1.1c-0.1-0.3-0.3-0.6-0.4-0.9
		c-0.2-0.4-0.4-0.8-0.7-1c-0.3-0.2-0.6-0.4-1.1-0.5c-0.5-0.1-1.1-0.1-1.9-0.1H107.4z"/>
	<path class="st0" d="M127.9,87.2l-1.9-0.4c-0.4-0.1-0.9-0.2-1.4-0.4c-0.5-0.2-0.9-0.4-1.2-0.7c-0.3-0.3-0.5-0.7-0.5-1.3
		c0-0.7,0.2-1.2,0.6-1.7c0.4-0.4,0.9-0.8,1.6-1c0.6-0.2,1.4-0.3,2.2-0.3c0.7,0,1.3,0.1,2.1,0.2c0.7,0.2,1.3,0.4,1.9,0.7l-0.4,1.2
		c0,0.1-0.1,0.2-0.1,0.2c0,0.1-0.1,0.1-0.1,0.1c0,0-0.1-0.1-0.1-0.3c-0.2-0.5-0.5-0.8-0.9-1.1c-0.4-0.3-0.9-0.5-1.4-0.6
		c-0.5-0.1-1-0.2-1.3-0.2c-0.4,0-0.8,0.1-1.2,0.2c-0.4,0.1-0.7,0.3-1,0.6c-0.3,0.3-0.4,0.7-0.4,1.2c0,0.5,0.2,0.8,0.5,1.1
		c0.3,0.3,0.7,0.4,1.2,0.6c0.5,0.1,0.9,0.2,1.2,0.3L129,86c0.5,0.1,0.9,0.2,1.3,0.4c0.4,0.2,0.7,0.5,0.9,0.8
		c0.2,0.3,0.4,0.8,0.4,1.3c0,0.6-0.2,1.1-0.5,1.5c-0.3,0.4-0.8,0.7-1.3,1c-0.5,0.3-1,0.4-1.6,0.5c-0.5,0.1-1,0.2-1.5,0.2
		c-0.7,0-1.5-0.1-2.3-0.3c-0.8-0.2-1.5-0.5-2.1-0.7c-0.1,0-0.2-0.1-0.2-0.1c0,0,0-0.1,0-0.1l0.5-1.5c0-0.1,0.1-0.1,0.1-0.1
		c0.1,0,0.1,0,0.1,0.1c0.1,0.6,0.3,1,0.8,1.4c0.4,0.4,1,0.6,1.6,0.8c0.6,0.2,1.1,0.2,1.6,0.2c0.5,0,1-0.1,1.5-0.2
		c0.5-0.1,1-0.4,1.3-0.7c0.4-0.3,0.5-0.8,0.6-1.3c0-0.6-0.2-1.1-0.7-1.4C129.1,87.5,128.6,87.3,127.9,87.2z"/>
	<path class="st0" d="M139.4,88.5v-5.4c0-0.3,0-0.5-0.1-0.8c-0.1-0.3-0.2-0.4-0.5-0.6c-0.1,0-0.1-0.1-0.1-0.1c0-0.1,0.1-0.1,0.2-0.1
		c0.2,0,0.5,0,1.1,0.1c0.4,0,0.7,0,1.1-0.1c0,0,0.1,0,0.2,0c0.1,0,0.1,0,0.1,0.1c0,0.1,0,0.1-0.1,0.1c-0.2,0.1-0.4,0.3-0.5,0.5
		c-0.1,0.3-0.1,0.5-0.1,0.8v5.4c0,0.7,0,1.3,0.1,1.8c0.1,0.5,0.3,0.8,0.6,1c0.1,0,0.2,0.1,0.2,0.1c0,0-0.1,0-0.2,0
		c-0.1,0-0.6,0-1.3,0c-0.4,0-0.7,0-1,0c-0.2,0-0.4,0-0.4,0c-0.1,0-0.2,0-0.2-0.1c0,0,0.1-0.1,0.2-0.2c0.2-0.2,0.4-0.4,0.5-0.7
		c0.1-0.3,0.2-0.6,0.2-1C139.4,89.2,139.4,88.8,139.4,88.5z"/>
	<path class="st0" d="M148.7,81.7h9.3l0.5,1.7c0,0.1,0,0.1,0,0.2c0,0,0,0.1,0,0.1c-0.1,0-0.1-0.1-0.2-0.2c-0.2-0.3-0.5-0.6-0.9-0.8
		c-0.4-0.2-0.8-0.3-1.2-0.4c-0.4-0.1-0.8-0.1-1.2-0.1c-0.3,0-0.5,0-0.7,0.1c-0.2,0.1-0.3,0.3-0.3,0.5v5.8c0,0.9,0.1,1.6,0.2,2
		c0.1,0.4,0.3,0.7,0.6,0.8c0.2,0.1,0.4,0.1,0.4,0.2c0,0-0.1,0.1-0.2,0.1c0,0-0.2,0-0.4,0c-0.2,0-0.6,0-1.1,0c-0.6,0-1,0-1.3,0
		c-0.3,0-0.4,0-0.5,0c-0.1,0-0.2,0-0.1-0.1c0-0.1,0.1-0.1,0.4-0.1c0.3-0.1,0.5-0.4,0.6-1c0.1-0.6,0.2-1.3,0.2-2.1v-5.5
		c0-0.3-0.1-0.5-0.3-0.5c-0.2-0.1-0.4-0.1-0.7-0.1c-0.4,0-0.8,0-1.2,0.1c-0.4,0.1-0.8,0.2-1.2,0.4c-0.4,0.2-0.7,0.5-0.9,0.8
		c-0.1,0.1-0.1,0.2-0.2,0.2c0,0,0,0,0-0.1c0,0,0-0.1,0-0.2L148.7,81.7z"/>
	<path class="st0" d="M170.4,87.1v2.1c0,0.6,0,1,0.1,1.3c0.1,0.3,0.2,0.5,0.3,0.6c0.1,0.1,0.3,0.2,0.4,0.2c0.1,0,0.2,0.1,0.2,0.1
		c0,0-0.1,0.1-0.2,0.1c-0.2,0-0.6,0-1.4,0c-0.8,0-1.3,0-1.5,0c-0.1,0-0.1,0-0.1-0.1c0,0,0.1-0.1,0.2-0.1c0.1,0,0.2-0.1,0.3-0.2
		c0.1-0.1,0.2-0.3,0.3-0.6c0.1-0.3,0.1-0.7,0.1-1.3v-1.9l-2.3-3c-0.2-0.2-0.3-0.4-0.6-0.7c-0.2-0.3-0.4-0.5-0.7-0.8
		c-0.2-0.3-0.4-0.5-0.6-0.6c-0.1-0.1-0.2-0.1-0.3-0.2c-0.1-0.1-0.2-0.1-0.2-0.2c0-0.1,0-0.1,0.1-0.1c0.1,0,0.3,0,0.6,0
		c0.3,0,0.5,0,0.7,0c0.3,0,0.6,0,0.9,0c0.3,0,0.6,0,0.8,0c0.1,0,0.1,0,0.1,0.1c0,0,0,0-0.1,0c0,0-0.1,0-0.2,0
		c-0.1,0-0.2,0.1-0.3,0.2c-0.1,0.1-0.1,0.2-0.1,0.3c0,0.4,0.3,0.9,0.9,1.6l2.1,2.6l1.7-2c0.1-0.2,0.3-0.4,0.5-0.6
		c0.2-0.3,0.4-0.5,0.6-0.8c0.2-0.3,0.3-0.5,0.3-0.7c0-0.2-0.1-0.3-0.2-0.4c-0.1-0.1-0.2-0.2-0.3-0.2c0,0-0.1,0-0.1,0
		c0,0,0,0-0.1-0.1c0-0.1,0-0.1,0.1-0.1h0c0.3,0,0.5,0,0.7,0c0.2,0,0.3,0,0.5,0c0.4,0,0.7,0,1.1,0h0.2c0.1,0,0.1,0.1,0.1,0.1
		c0,0,0,0.1-0.1,0.2c-0.5,0.4-1,0.8-1.5,1.4c-0.5,0.5-0.9,1-1.3,1.5L170.4,87.1z"/>
	<path d="M91.1,8.3l0.8,0.4V11l1.2,0.5v0.5l-1.2-0.5v4c0,0,0.5,0.5,0.8,0.8c0.3,0.3,0.7,0.9,0.7,1.5c0,0.6-0.1,1.6-0.1,1.6
		s-0.2-1.8-1.4-1.7c-1,0.1-0.9,0.8-0.9,1.2c0,0.3,0.2,1.3,0.9,1.7c1,0.6,1.4,0.9,1.4,0.9v23.5c0,0-0.1,1.1,0.2,1.8
		c0.5,1.1,1.6,1.2,1.6,1.2v0.6h-7v-0.6c0,0,1.4-0.1,1.7-1.2c0.2-0.8,0.2-1.8,0.2-1.8l0-30.9c0,0,0.2,0.3,0.5,0.6
		c0.3,0.3,0.4,0.3,0.4,0.3v-3.7l-1.3-0.5v-0.4l1.3,0.5V8.3z"/>
</g>
</svg>
