<?xml version="1.0" encoding="UTF-8"?>
<svg width="200px" height="84px" viewBox="0 0 200 84" version="1.1" xmlns="http://www.w3.org/2000/svg" xmlns:xlink="http://www.w3.org/1999/xlink">
    <!-- Generator: Sketch 43.2 (39069) - http://www.bohemiancoding.com/sketch -->
    <title>logo-iwu</title>
    <desc>Created with Sketch.</desc>
    <defs></defs>
    <g id="Page-1" stroke="none" stroke-width="1" fill="none" fill-rule="evenodd">
        <g id="logo-iwu" fill-rule="nonzero" fill="#000000">
            <path d="M33.7,44.7 L28,44.7 L28,45 C29.5,45.4 29.7,46.5 29.6,47.8 C28.3,52.5 26.6,57.1 24.6,61.7 C22.3,56 20.1,50 18,44.1 L17.5,45.2 L11.5,61.7 L11.3,61.6 C9,57.1 7,52.3 5.3,47.5 C5,46.3 5.4,45.2 6.6,44.7 L0,44.7 C0.1,44.8 0.2,45 0.3,45.1 C0.7,45.4 1.2,45.9 1.6,46.4 C5.1,53.1 7.9,60.1 10.1,67.2 L10.4,67 C12.3,61.1 14.4,55.1 16.7,49.4 C18.9,55.2 21.1,61.1 22.9,67 L23.3,67.4 C23.5,67.2 23.6,67 23.7,66.7 C25.8,60.5 28.1,54.4 30.8,48.4 C31.4,47.1 32.4,46 33.6,45.1 L33.7,44.7 Z" id="Shape"></path>
            <path d="M56.3,61.9 C55.8,62.7 55.2,63.3 54.4,63.9 C50.7,65.8 46.3,65.9 42.2,65.6 C41.2,65.5 40.3,64.7 40.1,63.6 L40.1,55.4 L48.4,55.5 C50,55.5 51.7,56.5 52.3,57.9 L52.3,52 C51.5,53.4 50.4,54.3 48.7,54.4 L40.2,54.4 L40.2,45.5 L48.2,45.5 C50.9,45.7 53.6,46.7 55.3,48.8 L55.6,48.8 L54.5,44.7 L35.7,44.7 C35.7,44.8 35.8,45 35.8,45.1 C36.1,45.3 36.4,45.5 36.7,45.7 C36.8,46.1 37,46.5 37,46.9 L37,62.3 C37,63.9 36.3,65.7 34.8,66.5 L55.4,66.5 L56.9,61.8 C56.8,61.8 56.5,61.9 56.3,61.9 Z" id="Shape"></path>
            <path d="M76.6,45.4 C75,44.8 73.4,44.3 71.7,44.1 C69.1,43.8 66.3,43.8 63.9,44.9 C61.9,45.8 60.4,47.6 59.9,49.8 C59.6,52.8 61.5,54.8 64.2,55.6 C67.1,56.5 70.1,56.8 73,57.7 C74.1,58 75.1,58.7 75.6,59.7 C76.3,62.1 75.3,64.4 73,65.6 C68.5,67.6 60.7,66.3 59.4,60.9 C58.8,62.1 58.3,63.4 58,64.8 C61.8,67 66.9,67.6 71.2,67.1 C73.4,67 75.9,65.8 77.3,64.1 C79.8,61.6 79.2,57.5 76.3,55.7 C72.3,54.2 68.3,54.5 64.7,52.6 C64.3,52.4 63.2,51.4 63,50.8 C61.8,47.4 65,45.1 68.2,44.9 C71.2,44.8 76.5,45.8 76.9,49.6 L77.2,49.7 L78.4,46.3 L76.6,45.4 Z" id="Shape"></path>
            <path d="M103,61.9 L102,62.9 C100.1,64.5 97.6,65.1 95.1,65.4 L89.3,65.4 C88.8,65.4 88.4,65.3 88,65.1 C87,64.5 86.8,63.3 86.8,62.3 L86.8,47.1 C86.8,46 87.9,45.3 88.8,45 L88.8,44.7 L82.3,44.7 C82.4,44.8 82.4,44.9 82.5,45 C82.5,45 83.9,45.5 83.9,47 L83.9,62.3 C83.9,64.3 83.1,66.1 81.4,66.6 L102.1,66.6 L103.5,62 L103,62 L103,61.9 Z" id="Shape"></path>
            <path d="M125.8,61.9 C125.3,62.7 124.7,63.3 123.9,63.9 C120.2,65.8 115.8,65.9 111.7,65.6 C110.7,65.5 109.8,64.7 109.6,63.6 L109.6,55.4 L117.9,55.5 C119.5,55.5 121.2,56.5 121.8,57.9 L121.8,52 C121,53.4 119.9,54.3 118.2,54.4 L109.7,54.4 L109.7,45.5 L117.7,45.5 C120.4,45.7 123.1,46.7 124.8,48.8 L125.1,48.8 L124,44.7 L105.3,44.7 C105.3,44.8 105.4,45 105.4,45.1 C105.7,45.3 106,45.5 106.3,45.7 C106.4,46.1 106.6,46.5 106.6,46.9 L106.6,62.3 C106.6,63.9 105.9,65.7 104.4,66.5 L125,66.5 L126.5,61.8 C126.3,61.8 126,61.9 125.8,61.9 Z" id="Shape"></path>
            <path d="M151.5,44.8 L145.7,44.7 L145.7,45 C146.1,45.1 146.5,45.3 146.9,45.6 C147.8,46.8 146.2,48.7 145.4,49.6 L140.3,55.5 C137.8,52.9 135.5,50 133.6,47 C133.2,46 133.7,45 134.8,44.8 L127.8,44.7 L127.7,45 C128.2,45.3 128.6,45.7 129,46 C132.2,49.5 135.1,53.3 137.7,57.4 L137.7,63.9 C137.7,65.1 136.9,66 135.7,66.2 C135.8,66.3 135.8,66.5 135.8,66.5 L142.7,66.5 L142.8,66.4 C141.8,65.9 140.8,65.4 140.8,64.3 L140.8,57.3 C140.8,56.9 141.1,56.5 141.3,56.1 C143.7,52.9 146.3,49.9 149.2,47 L151.6,45 L151.6,44.8 L151.5,44.8 Z" id="Shape"></path>
            <path d="M171.7,63.9 C167.9,57.4 164.5,50.7 161.3,44 L161,44 C157.8,51.4 153.8,58.5 149.1,65.1 L148.2,65.7 L147.9,66.6 L153.8,66.6 C153.7,66.5 153.7,66.3 153.6,66.2 C151.6,65.6 151.9,63.2 152.7,61.8 L155.8,55.9 L164.3,55.9 L167.7,63 C168.3,64.2 168.5,65.9 167,66.4 L167.1,66.5 L174,66.5 L174.1,66.2 C172.9,65.7 172.2,65 171.7,63.9 Z M163.7,55.2 L156.2,55.2 L156.1,54.9 L160,47.8 L163.8,54.9 L163.7,55.2 Z" id="Shape"></path>
            <path d="M194,44.8 L194,44.9 C194.3,45.2 194.7,45.4 195.1,45.5 C195.8,46.2 196.2,47.2 196.5,48.3 L196.5,61.3 L196.3,61.2 C190.9,56.1 185.9,50.6 181.2,44.8 L175.8,44.8 L175.8,45 C177,45.4 177.6,46.3 177.8,47.7 L177.8,62.4 C177.8,64.2 176.7,65.9 175,66.5 L181.3,66.5 L181.4,66.3 C181,66.1 180.6,65.9 180.2,65.6 C179.2,64.4 178.9,62.9 178.8,61.4 C178.5,56.7 178.5,51.9 178.9,47.2 L179.5,47.8 C185.6,54 191.5,60.4 197.2,67.1 L197.5,66.7 C197.1,60.6 197.1,54.4 197.5,48.3 L198.1,47 C198.4,46.1 199,45.4 199.9,45.2 C200,45.1 200,44.9 200,44.9 L194,44.9 L194,44.8 Z" id="Shape"></path>
            <path d="M44.9,80.7 L44.9,75.5 C44.9,75.1 44.9,74.8 44.7,74.5 C44.6,74.2 44.4,74 44,73.9 C43.9,73.9 43.9,73.8 43.9,73.8 C43.9,73.7 43.9,73.7 44.1,73.7 L44.6,73.7 L45.2,73.7 L45.8,73.7 L46.3,73.7 C46.9,74.5 47.5,75.2 48.2,75.8 L53.2,81.2 L53.2,76.1 C53.2,75.5 53.1,75 52.9,74.6 C52.7,74.3 52.5,74 52.3,73.9 C52.2,73.9 52.1,73.8 52.1,73.8 C52,73.8 52,73.8 52,73.7 C52,73.6 52.1,73.6 52.3,73.6 L53,73.6 L53.6,73.6 L54.1,73.6 L54.6,73.6 C54.8,73.6 54.9,73.7 54.9,73.7 C54.9,73.7 54.8,73.8 54.7,73.9 C54.5,74 54.3,74.1 54.1,74.4 C53.9,74.7 53.8,75.3 53.8,76.1 L53.8,82.3 L53.8,83.3 C53.8,83.6 53.7,83.7 53.7,83.7 L53.7,83.7 C53.6,83.7 53.5,83.6 53.4,83.4 C53.2,83.2 52.9,82.8 52.5,82.3 C51.9,81.6 51.2,80.8 50.4,79.9 C49.6,79 48.8,78.2 48,77.3 C47.2,76.4 46.5,75.6 45.7,74.8 L45.7,81 C45.7,81.8 45.8,82.3 46,82.6 C46.2,82.9 46.3,83.1 46.5,83.2 C46.6,83.3 46.7,83.3 46.7,83.3 C46.8,83.3 46.8,83.3 46.8,83.4 C46.8,83.4 46.7,83.5 46.6,83.5 L46.2,83.5 L45.3,83.5 L44.9,83.5 L44.4,83.5 L44,83.5 C43.9,83.5 43.8,83.5 43.8,83.4 C43.8,83.4 43.9,83.3 44,83.3 C44.1,83.3 44.3,83.2 44.4,83.1 C44.6,82.9 44.8,82.6 44.9,82.3 L44.9,80.7 Z" id="Shape"></path>
            <path d="M27.3,80.2 L27.3,75.2 C27.3,74.7 27.2,74.3 27.1,74.2 C27,74 26.9,74 26.8,73.9 C26.6,73.8 26.6,73.8 26.6,73.7 C26.6,73.6 26.6,73.6 26.8,73.6 C27.2,73.6 27.6,73.6 27.9,73.7 L28.5,73.7 L29.2,73.7 L29.4,73.7 C29.4,73.7 29.5,73.7 29.5,73.8 C29.5,73.8 29.4,73.9 29.3,74 C29,74.1 28.8,74.4 28.8,74.8 C28.7,75.2 28.7,75.7 28.7,76.1 L28.7,79.9 C28.7,80.9 29,81.8 29.5,82.4 C30.1,83 30.6,83.4 31.8,83.4 C32.6,83.4 33.3,83.3 33.9,83.1 C34.5,82.9 34.9,82.5 35.3,81.9 C35.6,81.3 35.8,80.5 35.8,79.5 L35.8,76.2 C35.8,75.5 35.7,75 35.6,74.7 C35.5,74.4 35.3,74.1 35,74 C34.8,73.9 34.7,73.8 34.7,73.8 C34.7,73.8 34.7,73.8 34.8,73.7 L34.9,73.7 L35.2,73.7 L36.4,73.7 L37,73.7 L37.4,73.7 C37.5,73.7 37.6,73.7 37.6,73.8 C37.6,73.8 37.6,73.8 37.5,73.9 C37.4,73.9 37.4,74 37.3,74 C37.1,74.1 37,74.2 36.8,74.4 C36.7,74.6 36.6,74.8 36.6,75.1 C36.6,75.4 36.5,75.8 36.5,76.3 L36.5,79.4 C36.5,80.6 36.3,81.6 36,82.2 C35.6,82.9 35.1,83.3 34.4,83.5 C33.7,83.7 32.9,83.9 32,83.8 C30.8,83.8 29.9,83.7 29.2,83.4 C28.5,83.1 28,82.7 27.7,82.2 C27.4,81.6 27.3,80.9 27.3,80.2 Z" id="Shape"></path>
            <path d="M31.1,36.2 L31.1,21.4 C31.1,20.3 31.3,18.9 32.5,18.6 L32.4,18.3 L26.7,18.3 C26.7,18.4 26.8,18.6 26.8,18.7 C27.5,19 28.1,20.5 28.1,21.2 L28.1,36 C28.1,37.6 27.5,39.5 25.9,40.1 L26,40.3 L32.7,40.3 L32.8,40.1 C31.7,39.8 31.1,37.8 31.1,36.2 Z" id="Shape"></path>
            <path d="M53.8,18.6 L53.8,18.7 C54.1,19 54.5,19.2 54.9,19.3 C55.6,20 56,21 56.3,22.1 L56.3,35.1 L56.1,35 C50.7,29.8 45.7,24.3 41,18.5 L35.6,18.5 L35.6,18.8 C36.8,19.2 37.4,20.1 37.6,21.5 L37.6,36.2 C37.6,38 36.5,39.7 34.8,40.3 L41.1,40.3 L41.2,40.1 C40.8,39.9 40.4,39.7 40,39.4 C39,38.2 38.7,36.7 38.6,35.2 C38.3,30.5 38.3,25.7 38.7,21 L39.3,21.6 C45.4,27.8 51.3,34.2 57,40.9 L57.3,40.5 C56.9,34.4 56.9,28.2 57.3,22.1 L57.9,20.8 C58.2,19.9 58.8,19.2 59.7,19 C59.8,18.9 59.8,18.7 59.8,18.7 L53.8,18.7 L53.8,18.6 Z" id="Shape"></path>
            <path d="M76.2,18.6 L62.2,18.6 C62.2,18.7 62.3,18.9 62.3,19 C62.5,19.1 62.7,19.3 62.9,19.3 C63.6,19.8 64,21 64,21.8 L64,36.9 C64,37.8 63.7,38.4 63,39.1 C62.5,39.6 61.9,39.7 61.3,40 C61.4,40.1 61.4,40.3 61.4,40.4 L74.9,40.4 C76.5,40.4 77.9,40 79.6,39.2 C84.1,37 86.6,32.6 86,28.1 C85.5,22.8 81.3,19.3 76.2,18.6 Z M74.3,39.6 L69.3,39.6 C68,39.3 66.7,38.7 66.7,37.4 L66.7,19.3 L75.2,19.4 C76.8,19.4 78.2,20.2 79.4,21.1 C83,23.9 83.3,29.5 82,33.6 C81,37.3 78,39.3 74.3,39.6 Z" id="Shape"></path>
            <path d="M120.6,37.7 C116.8,31.2 113.4,24.5 110.2,17.8 L109.9,17.8 C106.7,25.2 102.7,32.3 98,38.9 L97.1,39.5 L96.8,40.4 L102.7,40.4 C102.6,40.3 102.6,40.1 102.5,40 C100.5,39.4 100.8,37 101.6,35.6 L104.7,29.7 L113.2,29.7 L116.6,36.8 C117.2,38 117.4,39.7 115.9,40.2 L116,40.3 L122.9,40.3 L123,40 C121.8,39.5 121.1,38.8 120.6,37.7 Z M112.6,29 L105.1,29 L105,28.7 L108.9,21.6 L112.7,28.7 L112.6,29 Z" id="Shape"></path>
            <path d="M142.9,18.6 L142.9,18.7 C143.2,19 143.6,19.2 144,19.3 C144.7,20 145.1,21 145.4,22.1 L145.4,35.1 L145.2,35 C139.8,29.9 134.8,24.4 130.1,18.6 L124.7,18.6 L124.7,18.9 C125.9,19.3 126.5,20.2 126.7,21.6 L126.7,36.3 C126.7,38.1 125.6,39.8 123.9,40.4 L130.2,40.4 L130.3,40.2 C129.9,40 129.5,39.8 129.1,39.5 C128.1,38.3 127.8,36.8 127.7,35.3 C127.4,30.6 127.4,25.8 127.8,21.1 L128.4,21.7 C134.5,27.9 140.4,34.3 146.1,41 L146.4,40.6 C146,34.5 146,28.3 146.4,22.2 L147,20.9 C147.3,20 147.9,19.3 148.8,19.1 C148.9,19 148.9,18.8 148.9,18.8 L142.9,18.8 L142.9,18.6 Z" id="Shape"></path>
            <path d="M172.9,37.7 C169.1,31.2 165.7,24.5 162.5,17.8 L162.2,17.8 C159,25.2 155,32.3 150.3,38.9 L149.4,39.5 L149.1,40.4 L155,40.4 C154.9,40.3 154.9,40.1 154.8,40 C152.8,39.4 153.1,37 153.9,35.6 L157,29.7 L165.5,29.7 L168.9,36.8 C169.5,38 169.7,39.7 168.2,40.2 L168.3,40.3 L175.2,40.3 L175.3,40 C174.1,39.5 173.4,38.8 172.9,37.7 Z M164.9,29 L157.4,29 L157.3,28.7 L161.2,21.6 L165,28.7 L164.9,29 Z" id="Shape"></path>
            <path d="M27.3,80.2 L27.3,75.2 C27.3,74.7 27.2,74.3 27.1,74.2 C27,74 26.9,74 26.8,73.9 C26.6,73.8 26.6,73.8 26.6,73.7 C26.6,73.6 26.6,73.6 26.8,73.6 C27.2,73.6 27.6,73.6 27.9,73.7 L28.5,73.7 L29.2,73.7 L29.4,73.7 C29.4,73.7 29.5,73.7 29.5,73.8 C29.5,73.8 29.4,73.9 29.3,74 C29,74.1 28.8,74.4 28.8,74.8 C28.7,75.2 28.7,75.7 28.7,76.1 L28.7,79.9 C28.7,80.9 29,81.8 29.5,82.4 C30.1,83 30.9,83.4 32.1,83.4 C32.9,83.4 33.6,83.3 34.2,83.1 C34.8,82.9 35.2,82.5 35.6,81.9 C35.9,81.3 36.1,80.5 36.1,79.5 L36.1,76.2 C36.1,75.5 36,75 35.9,74.7 C35.8,74.4 35.6,74.1 35.3,74 C35.1,73.9 35,73.8 35,73.8 C35,73.8 35,73.8 35.1,73.7 L35.2,73.7 L35.5,73.7 L36.4,73.7 L37,73.7 L37.4,73.7 C37.5,73.7 37.6,73.7 37.6,73.8 C37.6,73.8 37.6,73.8 37.5,73.9 C37.4,73.9 37.4,74 37.3,74 C37.1,74.1 37,74.2 36.8,74.4 C36.7,74.6 36.6,74.8 36.6,75.1 C36.6,75.4 36.5,75.8 36.5,76.3 L36.5,79.4 C36.5,80.6 36.3,81.6 36,82.2 C35.6,82.9 35.1,83.3 34.4,83.5 C33.7,83.7 32.9,83.9 32,83.8 C30.8,83.8 29.9,83.7 29.2,83.4 C28.5,83.1 28,82.7 27.7,82.2 C27.4,81.6 27.3,80.9 27.3,80.2 Z" id="Shape"></path>
            <path d="M44.9,80.7 L44.9,75.5 C44.9,75.1 44.9,74.8 44.7,74.5 C44.6,74.2 44.4,74 44,73.9 C43.9,73.9 43.9,73.8 43.9,73.8 C43.9,73.7 43.9,73.7 44.1,73.7 L44.6,73.7 L45.2,73.7 L45.8,73.7 L46.3,73.7 C46.9,74.5 47.5,75.2 48.2,75.8 L53.3,81.2 L53.3,76.1 C53.3,75.5 53.2,75 53,74.6 C52.8,74.3 52.6,74 52.4,73.9 C52.3,73.9 52.2,73.8 52.2,73.8 C52.1,73.8 52.1,73.8 52.1,73.7 C52.1,73.6 52.2,73.6 52.4,73.6 L53,73.6 L53.6,73.6 L54.1,73.6 L54.6,73.6 C54.8,73.6 54.9,73.7 54.9,73.7 C54.9,73.7 54.8,73.8 54.7,73.9 C54.5,74 54.3,74.1 54.1,74.4 C53.9,74.7 53.8,75.3 53.8,76.1 L53.8,82.3 L53.8,83.3 C53.8,83.6 53.7,83.7 53.7,83.7 L53.7,83.7 C53.6,83.7 53.5,83.6 53.4,83.4 C53.2,83.2 52.9,82.8 52.5,82.3 C51.9,81.6 51.2,80.8 50.4,79.9 C49.6,79 48.8,78.2 48,77.3 C47.2,76.4 46.3,75.6 45.6,74.8 L45.6,81 C45.6,81.8 45.7,82.3 45.9,82.6 C46.1,82.9 46.5,83.1 46.7,83.2 C46.8,83.3 46.9,83.3 46.9,83.3 C47,83.3 47,83.3 47,83.4 C47,83.4 47,83.5 46.9,83.5 L46.4,83.5 L45.4,83.5 L45,83.5 L44.5,83.5 L44.1,83.5 C44,83.5 43.9,83.5 43.9,83.4 C43.9,83.4 44,83.3 44.1,83.3 C44.2,83.3 44.4,83.2 44.5,83.1 C44.7,82.9 44.9,82.6 45,82.3 C44.9,81.8 44.9,81.3 44.9,80.7 Z" id="Shape"></path>
            <path d="M62.3,80.5 L62.3,75.1 C62.3,74.8 62.3,74.6 62.2,74.3 C62.1,74 62,73.9 61.7,73.7 C61.6,73.7 61.6,73.6 61.6,73.6 C61.6,73.5 61.7,73.5 61.8,73.5 C62,73.5 62.3,73.5 62.9,73.6 C63.3,73.6 63.6,73.6 64,73.5 L64.2,73.5 C64.3,73.5 64.3,73.5 64.3,73.6 C64.3,73.7 64.3,73.7 64.2,73.7 C63.9,73.8 63.8,74 63.7,74.2 C63.6,74.5 63.6,74.7 63.6,75 L63.6,80.4 C63.6,81.1 63.6,81.7 63.7,82.2 C63.8,82.7 64,83 64.3,83.2 C64.4,83.2 64.5,83.3 64.5,83.3 L64.3,83.3 L63,83.3 L62,83.3 L61.6,83.3 C61.5,83.3 61.4,83.3 61.4,83.2 C61.4,83.2 61.5,83.1 61.6,83 C61.8,82.8 62,82.6 62.1,82.3 C62.2,82 62.3,81.7 62.3,81.3 C62.3,81.2 62.3,80.8 62.3,80.5 Z" id="Shape"></path>
            <path d="M81.1,75.3 L76.8,83.5 C76.8,83.6 76.7,83.7 76.6,83.7 L76.6,83.7 C76.5,83.7 76.5,83.6 76.4,83.5 L72.6,75.8 C72.4,75.3 72.1,75 71.9,74.6 C71.7,74.3 71.4,74.1 71.3,73.9 C71.2,73.8 71.1,73.8 71.1,73.8 C71,73.8 71,73.7 71,73.7 C71,73.6 71.1,73.6 71.1,73.6 C71.5,73.6 71.9,73.6 72.4,73.7 C72.8,73.7 73.2,73.7 73.6,73.6 L73.8,73.6 C73.9,73.6 73.9,73.6 73.9,73.7 C73.9,73.7 73.9,73.8 73.8,73.8 C73.7,73.8 73.7,73.9 73.6,73.9 C73.5,73.9 73.5,74 73.4,74.1 C73.3,74.2 73.3,74.3 73.3,74.5 C73.3,74.7 73.5,75.1 73.8,75.9 L77.1,81.9 L79.9,76.4 C80.1,76 80.2,75.7 80.3,75.4 C80.4,75.1 80.4,74.9 80.4,74.8 C80.4,74.4 80.2,74.2 80,74.1 C79.7,74 79.6,73.9 79.6,73.9 C79.6,73.8 79.7,73.8 79.8,73.8 C80.2,73.8 80.6,73.8 81,73.9 C81.4,73.9 81.8,73.9 82.2,73.8 C82.3,73.8 82.4,73.8 82.4,73.9 C82.4,73.9 82.4,74 82.3,74 C82.2,74 82.1,74.1 82,74.2 C81.6,74.4 81.3,74.8 81.1,75.3 Z" id="Shape"></path>
            <path d="M90.9,78.4 L90.9,80.4 C90.9,81 90.9,81.6 91,82.2 C91,82.6 91.2,82.9 91.5,83 C91.8,83.1 92.3,83.2 93.1,83.1 C93.8,83.1 94.6,83.1 95.4,83 C96.2,82.9 96.9,82.7 97.6,82.3 C97.8,82.2 98,82 98.1,81.9 L98.5,81.5 L98.6,81.4 C98.6,81.4 98.7,81.4 98.7,81.5 L98.7,81.7 L98,83.4 L88.7,83.4 L88.5,83.4 C88.5,83.3 88.6,83.3 88.8,83.2 C89,83.1 89.2,82.9 89.3,82.6 C89.4,82.3 89.5,81.9 89.5,81.5 L89.5,80.5 L89.5,75.2 C89.5,74.9 89.5,74.6 89.4,74.4 C89.3,74.2 89.2,74 88.9,73.8 C88.8,73.8 88.8,73.7 88.8,73.7 C88.8,73.7 88.8,73.6 88.9,73.6 L89.1,73.6 L97.2,73.6 L97.5,74.5 C97.6,74.7 97.6,74.9 97.7,75.1 C97.8,75.3 97.8,75.5 97.8,75.5 C97.8,75.5 97.8,75.6 97.7,75.6 C97.6,75.6 97.6,75.5 97.5,75.4 C97.1,74.8 96.6,74.5 95.9,74.2 C95.2,74 94.4,73.9 93.5,73.9 L90.7,73.9 L90.7,78 L92.2,78 C93.3,78 94.1,78 94.6,77.9 C95.1,77.8 95.5,77.7 95.7,77.6 C95.8,77.5 95.9,77.4 96,77.3 C96.1,77.2 96.1,77.1 96.2,77 L96.3,76.9 C96.4,76.9 96.4,77 96.4,77.1 L96.4,79.3 L96.4,79.5 C96.4,79.6 96.4,79.6 96.3,79.6 C96.3,79.6 96.2,79.6 96.2,79.5 C96.2,79.4 96.1,79.3 96,79.2 C95.9,79.1 95.8,79 95.7,78.9 C95.4,78.7 95.1,78.6 94.7,78.6 C94.3,78.5 93.9,78.5 93.4,78.5 L92.3,78.5 L90.9,78.5 L90.9,78.4 Z" id="Shape"></path>
            <path d="M107.4,74 L107.4,78.1 L110.2,78.1 C110.7,78.1 111.2,78.1 111.7,78 C112.2,77.9 112.6,77.7 112.9,77.4 C113.2,77.1 113.4,76.6 113.4,76 C113.4,75.5 113.3,75.2 113,74.9 C112.7,74.6 112.4,74.4 112,74.3 C111.6,74.2 111.2,74.1 110.8,74.1 L107.4,74.1 L107.4,74 Z M107.4,78.5 L107.4,80.7 C107.4,81.3 107.4,81.9 107.5,82.4 C107.6,82.9 107.8,83.2 108.1,83.3 C108.2,83.3 108.2,83.3 108.3,83.4 C108.4,83.4 108.4,83.4 108.4,83.5 C108.4,83.5 108.3,83.6 108.1,83.6 L107.7,83.6 L106.7,83.6 L105.5,83.6 L105.1,83.6 C105,83.6 105,83.6 105,83.5 C105,83.5 105,83.5 105.1,83.4 C105.2,83.4 105.2,83.3 105.3,83.3 C105.6,83.2 105.8,82.9 105.9,82.4 C106,81.9 106.1,81.2 106.1,80.2 L106.1,75.1 C106.1,74.8 106.1,74.6 106,74.3 C105.9,74 105.8,73.9 105.5,73.8 C105.3,73.7 105.3,73.7 105.3,73.6 C105.3,73.6 105.4,73.5 105.6,73.5 L110.1,73.5 C111.4,73.5 112.5,73.6 113.2,73.8 C113.9,74 114.5,74.3 114.7,74.7 C115,75.1 115.1,75.5 115.1,75.9 C115.1,76.4 114.9,76.8 114.7,77.1 C114.4,77.4 114.1,77.6 113.7,77.8 C113.3,78 112.9,78.1 112.5,78.2 C112.1,78.3 111.8,78.3 111.5,78.3 L111.5,78.3 C112.1,78.5 112.6,78.6 112.9,78.8 C113.3,79 113.6,79.2 113.9,79.5 C114.2,79.8 114.4,80.3 114.6,80.8 C114.7,81.1 114.8,81.3 114.9,81.6 C115,81.9 115.1,82.2 115.3,82.4 C115.4,82.7 115.6,82.8 115.8,83 C115.9,83.1 116,83.1 116.1,83.1 C116.2,83.1 116.2,83.1 116.2,83.2 C116.2,83.2 116.2,83.2 116.1,83.2 L114.4,83.2 C114.2,83.2 114.1,83.2 114.1,83.1 C114,83.1 114,82.9 113.9,82.8 C113.8,82.5 113.7,82.1 113.5,81.8 C113.4,81.4 113.2,81.1 113.1,80.7 C113,80.4 112.8,80.1 112.7,79.8 C112.5,79.4 112.3,79 112,78.8 C111.7,78.6 111.4,78.4 110.9,78.3 C110.4,78.2 109.8,78.2 109,78.2 L107.4,78.2 L107.4,78.5 Z" id="Shape"></path>
            <path d="M127.9,79.2 L126,78.8 C125.6,78.7 125.1,78.6 124.6,78.4 C124.1,78.2 123.7,78 123.4,77.7 C123.1,77.4 122.9,77 122.9,76.4 C122.9,75.7 123.1,75.2 123.5,74.7 C123.9,74.3 124.4,73.9 125.1,73.7 C125.7,73.5 126.5,73.4 127.3,73.4 C128,73.4 128.6,73.5 129.4,73.6 C130.1,73.8 130.7,74 131.3,74.3 L130.9,75.5 C130.9,75.6 130.8,75.7 130.8,75.7 C130.8,75.8 130.7,75.8 130.7,75.8 C130.7,75.8 130.6,75.7 130.6,75.5 C130.4,75 130.1,74.7 129.7,74.4 C129.3,74.1 128.8,73.9 128.3,73.8 C127.8,73.7 127.3,73.6 127,73.6 C126.6,73.6 126.2,73.7 125.8,73.8 C125.4,73.9 125.1,74.1 124.8,74.4 C124.5,74.7 124.4,75.1 124.4,75.6 C124.4,76.1 124.6,76.4 124.9,76.7 C125.2,77 125.6,77.1 126.1,77.3 C126.6,77.4 127,77.5 127.3,77.6 L129,78 C129.5,78.1 129.9,78.2 130.3,78.4 C130.7,78.6 131,78.9 131.2,79.2 C131.4,79.5 131.6,80 131.6,80.5 C131.6,81.1 131.4,81.6 131.1,82 C130.8,82.4 130.3,82.7 129.8,83 C129.3,83.3 128.8,83.4 128.2,83.5 C127.7,83.6 127.2,83.7 126.7,83.7 C126,83.7 125.2,83.6 124.4,83.4 C123.6,83.2 122.9,82.9 122.3,82.7 C122.2,82.7 122.1,82.6 122.1,82.6 L122.1,82.5 L122.6,81 C122.6,80.9 122.7,80.9 122.7,80.9 C122.8,80.9 122.8,80.9 122.8,81 C122.9,81.6 123.1,82 123.6,82.4 C124,82.8 124.6,83 125.2,83.2 C125.8,83.4 126.3,83.4 126.8,83.4 C127.3,83.4 127.8,83.3 128.3,83.2 C128.8,83.1 129.3,82.8 129.6,82.5 C130,82.2 130.1,81.7 130.2,81.2 C130.2,80.6 130,80.1 129.5,79.8 C129.1,79.5 128.6,79.3 127.9,79.2 Z" id="Shape"></path>
            <path d="M139.4,80.5 L139.4,75.1 C139.4,74.8 139.4,74.6 139.3,74.3 C139.2,74 139.1,73.9 138.8,73.7 C138.7,73.7 138.7,73.6 138.7,73.6 C138.7,73.5 138.8,73.5 138.9,73.5 C139.1,73.5 139.4,73.5 140,73.6 C140.4,73.6 140.7,73.6 141.1,73.5 L141.3,73.5 C141.4,73.5 141.4,73.5 141.4,73.6 C141.4,73.7 141.4,73.7 141.3,73.7 C141.1,73.8 140.9,74 140.8,74.2 C140.7,74.5 140.7,74.7 140.7,75 L140.7,80.4 C140.7,81.1 140.7,81.7 140.8,82.2 C140.9,82.7 141.1,83 141.4,83.2 C141.5,83.2 141.6,83.3 141.6,83.3 L141.4,83.3 L140.1,83.3 L139.1,83.3 L138.7,83.3 C138.6,83.3 138.5,83.3 138.5,83.2 C138.5,83.2 138.6,83.1 138.7,83 C138.9,82.8 139.1,82.6 139.2,82.3 C139.3,82 139.4,81.7 139.4,81.3 C139.4,81.2 139.4,80.8 139.4,80.5 Z" id="Shape"></path>
            <path d="M148.7,73.7 L158,73.7 L158.5,75.4 L158.5,75.6 L158.5,75.7 C158.4,75.7 158.4,75.6 158.3,75.5 C158.1,75.2 157.8,74.9 157.4,74.7 C157,74.5 156.6,74.4 156.2,74.3 C155.8,74.2 155.4,74.2 155,74.2 C154.7,74.2 154.5,74.2 154.3,74.3 C154.1,74.4 154,74.6 154,74.8 L154,80.6 C154,81.5 154.1,82.2 154.2,82.6 C154.3,83 154.5,83.3 154.8,83.4 C155,83.5 155.2,83.5 155.2,83.6 C155.2,83.6 155.1,83.7 155,83.7 L154.6,83.7 L153.5,83.7 L152.2,83.7 L151.7,83.7 C151.6,83.7 151.5,83.7 151.6,83.6 C151.6,83.5 151.7,83.5 152,83.5 C152.3,83.4 152.5,83.1 152.6,82.5 C152.7,81.9 152.8,81.2 152.8,80.4 L152.8,74.9 C152.8,74.6 152.7,74.4 152.5,74.4 C152.3,74.3 152.1,74.3 151.8,74.3 C151.4,74.3 151,74.3 150.6,74.4 C150.2,74.5 149.8,74.6 149.4,74.8 C149,75 148.7,75.3 148.5,75.6 C148.4,75.7 148.4,75.8 148.3,75.8 C148.3,75.8 148.3,75.8 148.3,75.7 L148.3,75.5 L148.7,73.7 Z" id="Shape"></path>
            <path d="M170.4,79.1 L170.4,81.2 C170.4,81.8 170.4,82.2 170.5,82.5 C170.6,82.8 170.7,83 170.8,83.1 C170.9,83.2 171.1,83.3 171.2,83.3 C171.3,83.3 171.4,83.4 171.4,83.4 C171.4,83.4 171.3,83.5 171.2,83.5 L169.8,83.5 L168.3,83.5 C168.2,83.5 168.2,83.5 168.2,83.4 C168.2,83.4 168.3,83.3 168.4,83.3 C168.5,83.3 168.6,83.2 168.7,83.1 C168.8,83 168.9,82.8 169,82.5 C169.1,82.2 169.1,81.8 169.1,81.2 L169.1,79.3 L166.8,76.3 C166.6,76.1 166.5,75.9 166.2,75.6 C166,75.3 165.8,75.1 165.5,74.8 C165.3,74.5 165.1,74.3 164.9,74.2 C164.8,74.1 164.7,74.1 164.6,74 C164.5,73.9 164.4,73.9 164.4,73.8 C164.4,73.7 164.4,73.7 164.5,73.7 L165.1,73.7 L165.8,73.7 L166.7,73.7 L167.5,73.7 C167.6,73.7 167.6,73.7 167.6,73.8 C167.6,73.8 167.6,73.8 167.5,73.8 L167.3,73.8 C167.2,73.8 167.1,73.9 167,74 C166.9,74.1 166.9,74.2 166.9,74.3 C166.9,74.7 167.2,75.2 167.8,75.9 L169.9,78.5 L171.6,76.5 C171.7,76.3 171.9,76.1 172.1,75.9 C172.3,75.6 172.5,75.4 172.7,75.1 C172.9,74.8 173,74.6 173,74.4 C173,74.2 172.9,74.1 172.8,74 C172.7,73.9 172.6,73.8 172.5,73.8 L172.4,73.8 C172.4,73.8 172.4,73.8 172.3,73.7 C172.3,73.6 172.3,73.6 172.4,73.6 L172.4,73.6 L173.1,73.6 L173.6,73.6 L174.7,73.6 L174.9,73.6 C175,73.6 175,73.7 175,73.7 C175,73.7 175,73.8 174.9,73.9 C174.4,74.3 173.9,74.7 173.4,75.3 C172.9,75.8 172.5,76.3 172.1,76.8 L170.4,79.1 Z" id="Shape"></path>
            <path d="M91.1,0.3 L91.9,0.7 L91.9,3 L93.1,3.5 L93.1,4 L91.9,3.5 L91.9,7.5 C91.9,7.5 92.4,8 92.7,8.3 C93,8.6 93.4,9.2 93.4,9.8 C93.4,10.4 93.3,11.4 93.3,11.4 C93.3,11.4 93.1,9.6 91.9,9.7 C90.9,9.8 91,10.5 91,10.9 C91,11.2 91.2,12.2 91.9,12.6 C92.9,13.2 93.3,13.5 93.3,13.5 L93.3,37 C93.3,37 93.2,38.1 93.5,38.8 C94,39.9 95.1,40 95.1,40 L95.1,40.6 L88.1,40.6 L88.1,40 C88.1,40 89.5,39.9 89.8,38.8 C90,38 90,37 90,37 L90,6.1 C90,6.1 90.2,6.4 90.5,6.7 C90.8,7 90.9,7 90.9,7 L90.9,3.3 L89.6,2.8 L89.6,2.4 L90.9,2.9 L90.9,0.3 L91.1,0.3 Z" id="Shape"></path>
        </g>
    </g>
</svg>