<?xml version="1.0" encoding="UTF-8"?>
<svg width="200px" height="57px" viewBox="0 0 200 57" version="1.1" xmlns="http://www.w3.org/2000/svg" xmlns:xlink="http://www.w3.org/1999/xlink">
    <!-- Generator: Sketch 43.2 (39069) - http://www.bohemiancoding.com/sketch -->
    <title>logo-mdco</title>
    <desc>Created with Sketch.</desc>
    <defs></defs>
    <g id="Page-1" stroke="none" stroke-width="1" fill="none" fill-rule="evenodd">
        <g id="logo-mdco" fill-rule="nonzero" fill="#000000">
            <polygon id="Shape" points="73.7 13.7 64.7 3.5 62.5 3.5 62.5 25.8 67.9 25.8 67.9 14.4 73.7 20.9 79.6 14.4 79.6 25.8 84.9 25.8 84.9 3.5 82.7 3.5"></polygon>
            <path d="M98.7,3.5 L89.8,25.9 L95.5,25.9 L96.8,22.6 L105.7,22.6 L107,25.9 L112.7,25.9 L103.8,3.6 L98.7,3.6 L98.7,3.5 Z M103.6,17.2 L98.8,17.2 L101.2,11.1 L103.6,17.2 Z" id="Shape"></path>
            <path d="M134.9,10.1 C134.9,4.6 130.6,3.4 126.9,3.4 L117.1,3.4 L117.1,25.8 L122.4,25.8 L122.4,17 L125.4,17 L130.5,25.8 L136.6,25.8 L131.1,16.3 C133.6,15.3 134.9,13.2 134.9,10.1 Z M129.9,10.2 C129.9,11 129.6,12 127.8,12 L122.4,12 L122.4,8.6 L127.8,8.6 C129.6,8.6 129.9,9.5 129.9,10.2 Z" id="Shape"></path>
            <rect id="Rectangle-path" x="142.1" y="3.5" width="5.3" height="22.4"></rect>
            <path d="M164,3.5 C160.8,3.5 158.2,4.6 156,6.7 C153.9,8.8 152.8,11.5 152.8,14.7 C152.8,17.9 153.9,20.5 156,22.7 C158.1,24.8 160.8,25.9 164,25.9 C167.2,25.9 169.8,24.8 172,22.7 C174.2,20.6 175.2,17.9 175.2,14.7 C175.2,11.5 174.1,8.9 172,6.7 C169.8,4.6 167.2,3.5 164,3.5 Z M168.2,19 C167.1,20.2 165.7,20.7 164,20.7 C162.2,20.7 160.9,20.1 159.8,19 C158.7,17.8 158.2,16.4 158.2,14.6 C158.2,12.8 158.7,11.4 159.8,10.2 C160.9,9 162.3,8.5 164,8.5 C165.8,8.5 167.1,9.1 168.2,10.2 C169.3,11.4 169.8,12.8 169.8,14.6 C169.8,16.4 169.3,17.9 168.2,19 Z" id="Shape"></path>
            <polygon id="Shape" points="194.7 3.5 194.7 16 182.1 3.5 179.9 3.5 179.9 25.8 185.3 25.8 185.3 13.4 197.7 25.8 200 25.8 200 3.5"></polygon>
            <path d="M66.7,34 C69.4,34 71.6,36 71.6,38.8 C71.6,41.7 69.4,43.5 66.7,43.5 L62.6,43.5 L62.6,34 L66.7,34 Z M66.7,41.8 C68.3,41.8 69.6,40.7 69.6,38.8 C69.6,36.9 68.2,35.8 66.6,35.8 L64.4,35.8 L64.4,41.8 L66.7,41.8 Z" id="Shape"></path>
            <polygon id="Shape" points="82 41.8 82 43.6 75.2 43.6 75.2 34 82 34 82 35.8 77.1 35.8 77.1 37.8 80.9 37.8 80.9 39.5 77.1 39.5 77.1 41.8"></polygon>
            <path d="M90.6,36.9 C90.4,35.9 89.5,35.5 88.7,35.5 C87.8,35.5 87.3,35.9 87.3,36.5 C87.3,37.3 88.4,37.5 89.6,37.9 C91,38.4 92.6,39.1 92.6,40.8 C92.6,42.5 91.1,43.7 88.9,43.7 C86.9,43.7 85.5,42.6 85,40.8 L86.8,40.3 C87,41.2 87.8,42 89,42 C90,42 90.6,41.5 90.6,40.9 C90.6,39.9 89.3,39.7 88,39.2 C86.9,38.8 85.4,38.2 85.4,36.5 C85.4,35 86.9,33.7 88.9,33.7 C90.7,33.7 92.1,34.8 92.5,36.3 L90.6,36.9 Z" id="Shape"></path>
            <polygon id="Shape" points="96.1 43.6 96.1 34 98 34 98 43.5 96.1 43.5"></polygon>
            <path d="M109.4,42.6 C108.9,43.2 107.7,43.8 106.5,43.8 C103.8,43.8 101.5,41.7 101.5,38.8 C101.5,35.9 103.7,33.8 106.5,33.8 C108.4,33.8 110,34.8 110.8,36.3 L108.9,36.8 C108.4,36.1 107.4,35.6 106.5,35.6 C104.7,35.6 103.5,36.9 103.5,38.7 C103.5,40.6 104.8,41.8 106.6,41.8 C108.2,41.8 109.1,40.9 109.4,40.2 L109.4,39.8 L106.8,39.8 L106.8,38.3 L111.1,38.3 L111.1,43.6 L109.5,43.6 C109.4,42.8 109.4,42.6 109.4,42.6 L109.4,42.6 Z" id="Shape"></path>
            <path d="M123.4,34 L123.4,43.5 L121.6,43.5 L118.9,39.8 C118,38.6 117,37.1 117,37.1 L117,37.1 L117,40.4 L117,43.5 L115,43.5 L115,34 L116.8,34 L119.6,37.7 C120.3,38.6 121.5,40.3 121.5,40.3 L121.5,40.3 L121.5,37.1 L121.5,34 L123.4,34 Z" id="Shape"></path>
            <path d="M139.9,36.9 C139.4,36.2 138.4,35.7 137.5,35.7 C135.7,35.7 134.5,37 134.5,38.8 C134.5,40.7 135.8,41.9 137.5,41.9 C138.6,41.9 139.6,41.3 140.1,40.5 L142,41 C141.2,42.7 139.5,43.8 137.5,43.8 C134.8,43.8 132.5,41.7 132.5,38.8 C132.5,35.9 134.7,33.8 137.5,33.8 C139.4,33.8 141,34.8 141.8,36.3 L139.9,36.9 Z" id="Shape"></path>
            <path d="M149.8,33.8 C152.5,33.8 154.8,35.9 154.8,38.8 C154.8,41.7 152.6,43.8 149.8,43.8 C147,43.8 144.8,41.7 144.8,38.8 C144.8,35.9 147.1,33.8 149.8,33.8 Z M149.8,41.9 C151.6,41.9 152.8,40.6 152.8,38.8 C152.8,37 151.6,35.7 149.8,35.7 C148.1,35.7 146.8,37 146.8,38.8 C146.8,40.6 148,41.9 149.8,41.9 Z" id="Shape"></path>
            <path d="M0,0 L0,48 L34.1,48 L43.7,57.2 L43.7,48 L48,48 L48,7.10542736e-15 L0,7.10542736e-15 L0,0 Z M31.1,23.6 L24,31.5 L16.9,23.6 L16.9,37.6 L10.4,37.6 L10.4,10.4 L13.1,10.4 L24,22.8 L34.9,10.4 L37.6,10.4 L37.6,37.6 L31.1,37.6 L31.1,23.6 Z" id="icon"></path>
        </g>
    </g>
</svg>