<?xml version="1.0" encoding="UTF-8"?>
<svg width="2880px" height="2681px" viewBox="0 0 2880 2681" version="1.1" xmlns="http://www.w3.org/2000/svg" xmlns:xlink="http://www.w3.org/1999/xlink">
    <g id="404-shape" opacity="0.2">
        <path d="M1845.56,2444.25 C1848.06,2445.41 1851.01,2445.62 1853.8,2444.59 L2453.33,2225.39 L2840.08,1392.83 L2230.43,1615.73 L1845.56,2444.25" id="Fill-1" fill="#36A7B2"></path>
        <path d="M2567.81,2671.94 L1693.38,1093.49 L1339.64,2325.93 L2551.63,2673.78 C2557.27,2675.4 2563.04,2674.58 2567.81,2671.94" id="Fill-2" fill="#1C304D"></path>
        <path d="M1028.54,960.191 L1295.01,263.484 L1295.01,263.483 L1295.01,263.484 L609.871,1.441 C603.486,-1.003 596.324,2.196 593.882,8.579 L331.833,693.722 L1028.54,960.191" id="Fill-4" fill="#205783"></path>
        <path d="M2043.59,1451.46 L2880,930.664 L2880,930.661 L2367.85,108.146 C2363.08,100.479 2352.98,98.132 2345.32,102.903 L1522.79,615.056 L2043.59,1451.46" id="Fill-6" fill="#37B2DA"></path>
        <polyline id="Fill-7" fill="#1A87B2" points="555.689 1498.84 1693.44 2028.03 2222.63 890.286 1084.88 361.091 555.689 1498.84"></polyline>
        <path d="M192.348,2597.52 L967.084,1447.49 L778.522,480.406 L0,1636.05 L185.437,2587.08 C186.298,2591.51 188.877,2595.18 192.348,2597.52" id="Fill-8" fill="#1C304D"></path>
        <path d="M582.812,1465.08 L1249.37,2681 C1253.04,2678.99 1255.95,2675.57 1257.21,2671.24 L1528.65,1741.1 L582.812,1465.08" id="Fill-10" fill="#36A7B2"></path>
    </g>
</svg>