<svg width="2880px" height="400px" viewBox="0 0 2880 400" xmlns="http://www.w3.org/2000/svg"><path fill="#096095" d="M692 0L28 0 360 332"/><path fill="#00BBF4" d="M1412 0L748 0 1080 332"/><path fill="#0091C4" d="M747.89 0L692.08 0 360 332.08 427.92 400 1012.05 400 1079.97 332.08"/><path fill="#033762" d="M28 0L0 0 0 400 360 400 360 332M1012 400L1080 400 1080 332"/><path fill="#2AAFC2" d="M360 400L428 400 360 332M1412 0L1080 332 1080 400 1440 400 1440 0"/><path fill="#096095" d="M2132 0L1468 0 1800 332"/><path fill="#00BBF4" d="M2852 0L2188 0 2520 332"/><path fill="#0091C4" d="M2187.87 0L2132.08 0 1799.99 332.09 1867.9 400 2452.05 400 2519.96 332.09"/><path fill="#033762" d="M1468 0L1440 0 1440 400 1800 400 1800 332M2452 400L2520 400 2520 332"/><path fill="#2AAFC2" d="M1800 400L1868 400 1800 332M2520 332L2520 400 2880 400 2880 0 2852 0"/></svg>
