<svg xmlns="http://www.w3.org/2000/svg" xmlns:xlink="http://www.w3.org/1999/xlink" viewBox="0 0 3380 2704"><defs><style>.a{fill:none;}.b{clip-path:url(#a);}.c{opacity:0.15;}.d{opacity:0.8;}.e{opacity:0.25;}.f{opacity:0.46;}.g{opacity:0.34;}.h{fill:#fff;}</style><clipPath id="a"><rect class="a" width="3380" height="2704"/></clipPath></defs><title>Artboard 1</title><g class="b"><g class="c"><path class="d" d="M820.62,1352,1690,482.62h0L835.06-372.31a20.42,20.42,0,0,0-28.86,0L-48.75,482.62Z"/><path class="e" d="M2559.37,1352l869.38-869.37h0L2573.81-372.31a20.42,20.42,0,0,0-28.86,0L1690,482.62Z"/><rect class="f" x="1075.26" y="737.26" width="1229.48" height="1229.48" transform="translate(-461.02 1591) rotate(-45)"/><path d="M820.62,3082.29V1352L-48.75,482.62V2221.37l855,855A20.33,20.33,0,0,0,820.62,3082.29Z"/><path d="M2559.37,3082.29V1352L1690,2221.37l854.95,855A20.33,20.33,0,0,0,2559.37,3082.29Z"/><g class="g"><path d="M820.62,1352V3082.29a20.34,20.34,0,0,0,14.44-6L1690,2221.37h0Z"/><path d="M2559.37,3082.29a20.34,20.34,0,0,0,14.44-6l854.94-854.94V482.63L2559.37,1352Z"/></g></g></g><path class="h" d="M879.53,1384l-9.64,24.39H835.28l57.11-132.35H927l55.77,132.35H946.84L937.39,1384Zm29.12-74.49-19.29,49h38.19Z"/><path class="h" d="M1087.51,1408.42l-60.89-81.49v81.49H995.05V1276.07h29.68l61.07,81.68v-81.68h31.39v132.35Z"/><path class="h" d="M1236.12,1408.42l-60.89-81.49v81.49h-31.57V1276.07h29.68l61.07,81.68v-81.68h31.39v132.35Z"/><path class="h" d="M1426.7,1342.06c0,38.57-30.63,67.88-71.66,67.88-40.84,0-71.47-29.12-71.47-67.88,0-38.57,30.63-67.12,71.47-67.12C1396.07,1274.94,1426.7,1303.68,1426.7,1342.06Zm-108.72.19c0,22.31,17.21,39.52,37.44,39.52,20.42,0,36.68-17.21,36.68-39.52s-16.26-39.14-36.68-39.14S1318,1319.94,1318,1342.25Z"/><path class="h" d="M1563.59,1352.84c0,35-23.26,57.1-60.32,57.1-37.25,0-61.07-22.12-61.07-57.1v-76.77h33.65v76.77c0,18,11.54,28.93,27.61,28.93,15.88,0,26.66-11,26.66-28.93v-76.77h33.47Z"/><path class="h" d="M1680.24,1408.42l-60.88-81.49v81.49h-31.58V1276.07h29.69l61.07,81.68v-81.68h31.39v132.35Z"/><path class="h" d="M1851.73,1297.25l-19.48,23.06c-8.69-10.58-21.55-17.2-33.27-17.2-21,0-36.87,16.64-36.87,38.38,0,22.12,15.88,39,36.87,39,11.15,0,24-6,33.27-15.5l19.67,20.8c-14.18,14.55-35.17,24.2-54.65,24.2-39.89,0-69.58-29.31-69.58-68.07,0-38.19,30.45-66.93,70.72-66.93C1818.07,1274.94,1838.49,1283.63,1851.73,1297.25Z"/><path class="h" d="M1900.88,1302.54v26.28H1964v26.47h-63.15V1382h72v26.47H1867.23V1276.07h103.61v26.47Z"/><path class="h" d="M2110.37,1408.42l-.18-86-31.77,72.79h-21.93l-31.77-72.79v86h-30.06V1275.88h36.87l35.92,78.85,35.93-78.85h36.68v132.54Z"/><path class="h" d="M2200.37,1302.54v26.28h63.15v26.47h-63.15V1382h72v26.47h-105.7V1276.07h103.62v26.47Z"/><path class="h" d="M2386.6,1408.42l-60.88-81.49v81.49h-31.57V1276.07h29.68l61.07,81.68v-81.68h31.39v132.35Z"/><path class="h" d="M2504,1303.11v105.31h-33.66V1303.11h-39.52v-27.23h113.07v27.23Z"/></svg>