<svg xmlns="http://www.w3.org/2000/svg" xmlns:xlink="http://www.w3.org/1999/xlink" viewBox="0 0 3380 2704"><defs><style>.a{fill:none;}.b{clip-path:url(#a);}.c{opacity:0.2;}.d{opacity:0.8;}.e{opacity:0.25;}.f{opacity:0.46;}.g{opacity:0.34;}.h{fill:#fff;}</style><clipPath id="a"><rect class="a" width="3380" height="2704"/></clipPath></defs><title>Artboard 1 copy</title><g class="b"><g class="c"><path class="d" d="M820.62,1352,1690,482.62h0L835.06-372.31a20.42,20.42,0,0,0-28.86,0L-48.75,482.62Z"/><path class="e" d="M2559.37,1352l869.38-869.37h0L2573.81-372.31a20.42,20.42,0,0,0-28.86,0L1690,482.62Z"/><rect class="f" x="1075.26" y="737.26" width="1229.48" height="1229.48" transform="translate(-461.02 1591) rotate(-45)"/><path d="M820.62,3082.29V1352L-48.75,482.62V2221.37l855,855A20.33,20.33,0,0,0,820.62,3082.29Z"/><path d="M2559.37,3082.29V1352L1690,2221.37l854.95,855A20.33,20.33,0,0,0,2559.37,3082.29Z"/><g class="g"><path d="M820.62,1352V3082.29a20.34,20.34,0,0,0,14.44-6L1690,2221.37h0Z"/><path d="M2559.37,3082.29a20.34,20.34,0,0,0,14.44-6l854.94-854.94V482.63L2559.37,1352Z"/></g></g></g><path class="h" d="M1495.2,1402.46,1434.31,1321v81.49h-31.57V1270.11h29.68l61.08,81.68v-81.68h31.38v132.35Z"/><path class="h" d="M1585,1296.58v26.28h63.15v26.47H1585V1376h72v26.47H1551.35V1270.11H1655v26.47Z"/><path class="h" d="M1793,1402.46,1768.41,1311l-25,91.51h-34.79l-43.3-132.35h35.93l25.9,97.38,25.33-97.38h32.9l25.91,97.38,25.52-97.38h34.41l-43.67,132.35Z"/><path class="h" d="M1986.22,1283.35l-12.67,26.28c-14-8.13-31.57-13.8-42.35-13.8-8.7,0-14.56,3.21-14.56,9.64,0,22.88,70,9.83,70,57.67,0,26.47-23.45,40.46-52.94,40.46-22.12,0-44.81-8.32-60.51-21.18l13-25.9c13.61,11.91,34,19.85,47.83,19.85,10.59,0,17.21-4,17.21-11.53,0-23.45-70-9.46-70-56.35,0-24.39,21-39.89,52.75-39.89C1953.13,1268.6,1972.61,1274.46,1986.22,1283.35Z"/></svg>