<svg xmlns="http://www.w3.org/2000/svg" xmlns:xlink="http://www.w3.org/1999/xlink" viewBox="0 0 3380 2704"><defs><style>.a{fill:none;}.b{clip-path:url(#a);}.c{opacity:0.2;}.d{opacity:0.8;}.e{opacity:0.25;}.f{opacity:0.46;}.g{opacity:0.34;}.h{fill:#fff;}</style><clipPath id="a"><rect class="a" width="3380" height="2704"/></clipPath></defs><title>Artboard 1 copy 3</title><g class="b"><g class="c"><path class="d" d="M820.62,1352,1690,482.62h0L835.06-372.31a20.42,20.42,0,0,0-28.86,0L-48.75,482.62Z"/><path class="e" d="M2559.37,1352l869.38-869.37h0L2573.81-372.31a20.42,20.42,0,0,0-28.86,0L1690,482.62Z"/><rect class="f" x="1075.26" y="737.26" width="1229.48" height="1229.48" transform="translate(-461.02 1591) rotate(-45)"/><path d="M820.62,3082.29V1352L-48.75,482.62V2221.37l855,855A20.33,20.33,0,0,0,820.62,3082.29Z"/><path d="M2559.37,3082.29V1352L1690,2221.37l854.95,855A20.33,20.33,0,0,0,2559.37,3082.29Z"/><g class="g"><path d="M820.62,1352V3082.29a20.34,20.34,0,0,0,14.44-6L1690,2221.37h0Z"/><path d="M2559.37,3082.29a20.34,20.34,0,0,0,14.44-6l854.94-854.94V482.63L2559.37,1352Z"/></g></g></g><path class="h" d="M974.5,1276.18c33.84,0,53.32,16.64,53.32,46.14,0,31-19.48,49-53.32,49h-24v37.24H916.83V1276.18Zm-24,68.64H972.8c14.74,0,23.25-7.38,23.25-21.37,0-13.8-8.51-20.8-23.25-20.8H950.49Z"/><path class="h" d="M1105.52,1371.29h-26.47v37.24H1045.4V1276.18h59.18c35,0,55,16.64,55,46.14,0,20.23-8.51,34.79-24,42.54l27.79,43.67h-38.19Zm-.94-26.47c14.56,0,23.06-7.38,23.06-21.37,0-13.8-8.5-20.8-23.06-20.8h-25.53v42.17Z"/><path class="h" d="M1215.94,1302.65v26.28h63.15v26.47h-63.15v26.66h72v26.47h-105.7V1276.18H1285.9v26.47Z"/><path class="h" d="M1412.76,1289.42l-12.67,26.28c-14-8.13-31.57-13.8-42.35-13.8-8.7,0-14.56,3.21-14.56,9.64,0,22.88,70,9.83,70,57.67,0,26.47-23.45,40.46-52.94,40.46-22.12,0-44.81-8.32-60.51-21.18l13-25.9c13.61,11.91,34,19.85,47.84,19.85,10.58,0,17.2-4,17.2-11.53,0-23.45-70-9.46-70-56.35,0-24.39,21-39.89,52.76-39.89C1379.67,1274.67,1399.15,1280.53,1412.76,1289.42Z"/><path class="h" d="M1534.52,1289.42l-12.67,26.28c-14-8.13-31.57-13.8-42.35-13.8-8.7,0-14.56,3.21-14.56,9.64,0,22.88,70,9.83,70,57.67,0,26.47-23.45,40.46-52.94,40.46-22.12,0-44.81-8.32-60.51-21.18l13-25.9c13.61,11.91,34,19.85,47.84,19.85,10.58,0,17.2-4,17.2-11.53,0-23.45-70-9.46-70-56.35,0-24.39,21-39.89,52.76-39.89C1501.43,1274.67,1520.91,1280.53,1534.52,1289.42Z"/><path class="h" d="M1657.22,1371.29h-26.47v37.24H1597.1V1276.18h59.18c35,0,55,16.64,55,46.14,0,20.23-8.51,34.79-24,42.54l27.79,43.67h-38.19Zm-.94-26.47c14.56,0,23.07-7.38,23.07-21.37,0-13.8-8.51-20.8-23.07-20.8h-25.53v42.17Z"/><path class="h" d="M1767.64,1302.65v26.28h63.15v26.47h-63.15v26.66h72v26.47H1734V1276.18H1837.6v26.47Z"/><path class="h" d="M1951.23,1380.36v28.17h-89.81V1276.18h33.65v104.18Z"/><path class="h" d="M2001,1302.65v26.28h63.15v26.47H2001v26.66h72v26.47h-105.7V1276.18h103.62v26.47Z"/><path class="h" d="M2124.79,1384.14l-9.64,24.39h-34.6l57.1-132.35h34.6L2228,1408.53H2192.1l-9.45-24.39Zm29.12-74.49-19.29,49h38.19Z"/><path class="h" d="M2342.79,1289.42l-12.67,26.28c-14-8.13-31.58-13.8-42.35-13.8-8.7,0-14.56,3.21-14.56,9.64,0,22.88,70,9.83,70,57.67,0,26.47-23.45,40.46-52.94,40.46-22.13,0-44.82-8.32-60.51-21.18l13.05-25.9c13.61,11.91,34,19.85,47.83,19.85,10.59,0,17.21-4,17.21-11.53,0-23.45-70-9.46-70-56.35,0-24.39,21-39.89,52.75-39.89C2309.7,1274.67,2329.17,1280.53,2342.79,1289.42Z"/><path class="h" d="M2395.16,1302.65v26.28h63.15v26.47h-63.15v26.66h72v26.47H2361.5V1276.18h103.61v26.47Z"/></svg>