<svg xmlns="http://www.w3.org/2000/svg" xmlns:xlink="http://www.w3.org/1999/xlink" viewBox="0 0 3380 2704"><defs><style>.a{fill:none;}.b{clip-path:url(#a);}.c{opacity:0.2;}.d{opacity:0.8;}.e{opacity:0.25;}.f{opacity:0.46;}.g{opacity:0.34;}.h{fill:#fff;}</style><clipPath id="a"><rect class="a" width="3380" height="2704"/></clipPath></defs><title>Artboard 1 copy 2</title><g class="b"><g class="c"><path class="d" d="M820.62,1352,1690,482.62h0L835.06-372.31a20.42,20.42,0,0,0-28.86,0L-48.75,482.62Z"/><path class="e" d="M2559.37,1352l869.38-869.37h0L2573.81-372.31a20.42,20.42,0,0,0-28.86,0L1690,482.62Z"/><rect class="f" x="1075.26" y="737.26" width="1229.48" height="1229.48" transform="translate(-461.02 1591) rotate(-45)"/><path d="M820.62,3082.29V1352L-48.75,482.62V2221.37l855,855A20.33,20.33,0,0,0,820.62,3082.29Z"/><path d="M2559.37,3082.29V1352L1690,2221.37l854.95,855A20.33,20.33,0,0,0,2559.37,3082.29Z"/><g class="g"><path d="M820.62,1352V3082.29a20.34,20.34,0,0,0,14.44-6L1690,2221.37h0Z"/><path d="M2559.37,3082.29a20.34,20.34,0,0,0,14.44-6l854.94-854.94V482.63L2559.37,1352Z"/></g></g></g><path class="h" d="M1430.85,1402.52,1370,1321v81.49h-31.58V1270.17h29.69l61.07,81.68v-81.68h31.38v132.35Z"/><path class="h" d="M1621.44,1336.16c0,38.57-30.63,67.87-71.66,67.87-40.84,0-71.47-29.11-71.47-67.87,0-38.58,30.63-67.13,71.47-67.13C1590.81,1269,1621.44,1297.77,1621.44,1336.16Zm-108.72.18c0,22.32,17.2,39.52,37.44,39.52,20.42,0,36.68-17.2,36.68-39.52s-16.26-39.13-36.68-39.13S1512.72,1314,1512.72,1336.34Z"/><path class="h" d="M1696.12,1297.21v105.31h-33.66V1297.21H1623V1270H1736v27.23Z"/><path class="h" d="M1750.38,1402.52V1270.17H1784v132.35Z"/><path class="h" d="M1925.84,1291.34l-19.47,23.07c-8.7-10.59-21.56-17.2-33.28-17.2-21,0-36.87,16.63-36.87,38.38,0,22.12,15.89,39,36.87,39,11.16,0,24-6,33.28-15.51l19.66,20.8c-14.18,14.56-35.16,24.2-54.64,24.2-39.89,0-69.58-29.3-69.58-68.06,0-38.2,30.44-66.94,70.72-66.94C1892.19,1269,1912.61,1277.73,1925.84,1291.34Z"/><path class="h" d="M1975,1296.64v26.28h63.15v26.47H1975v26.66h72v26.47H1941.35V1270.17H2045v26.47Z"/></svg>