<?xml version="1.0" encoding="UTF-8"?>
<svg width="732px" height="1139px" viewBox="0 0 732 1139" version="1.1" xmlns="http://www.w3.org/2000/svg" xmlns:xlink="http://www.w3.org/1999/xlink">
    <!-- Generator: Sketch 43.2 (39069) - http://www.bohemiancoding.com/sketch -->
    <title>indiana_map</title>
    <desc>Created with Sketch.</desc>
    <defs>
        <path d="M136.174777,8 L718.174777,8 C720.074777,8 721.674777,9.6 721.674777,11.5 L721.674777,757.3 C721.674777,758.4 721.174777,759.4 720.274777,760.1 L703.174777,773.1 C701.774777,774.2 701.374777,776.2 702.374777,777.8 L713.474777,795.3 C714.174777,796.4 714.174777,797.8 713.474777,799 L707.374777,809.2 C706.374777,810.9 706.874777,813 708.574777,814 L722.274777,822.2 C724.074777,823.3 724.474777,825.6 723.274777,827.3 L714.674777,838.8 C713.974777,839.7 713.774777,840.9 714.174777,841.9 L715.774777,847.1 C716.574777,849.7 714.174777,852.2 711.474777,851.5 L691.174777,845.7 C690.274777,845.4 689.174777,845.6 688.374777,846.1 L660.674777,863 L641.174777,875.1 C640.274777,875.7 639.074777,875.8 638.074777,875.4 L630.574777,872.4 C629.974777,872.2 629.474777,871.8 629.174777,871.3 L622.874777,863.4 C622.174777,862.5 621.074777,862 619.974777,862.1 L589.374777,863.9 C588.374777,864 587.474777,864.4 586.874777,865.2 L580.874777,872.7 C580.174777,873.5 579.974777,874.6 580.174777,875.6 L589.174777,916 C589.574777,917.7 588.674777,919.4 586.974777,920 L577.974777,923.5 C577.174777,923.8 576.574777,924.3 576.174777,925 L568.674777,938.3 C568.074777,939.3 567.074777,939.9 565.974777,940.1 L550.874777,941.7 C549.574777,941.8 548.474777,942.7 547.974777,943.9 L536.874777,971.8 C536.874777,971.9 536.774777,972 536.674777,972.1 L529.574777,985.5 C529.074777,986.4 528.174777,987.1 527.174777,987.3 L513.174777,989.9 C512.974777,989.9 512.774777,990 512.574777,990 L502.374777,990 C500.874777,990 499.574777,991 499.074777,992.4 L495.074777,1004.5 C494.974777,1004.8 494.774777,1005.1 494.574777,1005.4 L483.474777,1021.1 C483.074777,1021.7 482.874777,1022.3 482.874777,1023 L481.974777,1052.8 C481.974777,1053.5 481.674777,1054.2 481.274777,1054.8 L473.474777,1065.3 C473.174777,1065.7 472.774777,1066.1 472.274777,1066.3 L453.774777,1075.6 C452.174777,1076.4 450.274777,1075.9 449.374777,1074.5 L441.074777,1062.4 C440.474777,1061.5 439.474777,1060.9 438.374777,1060.9 L422.274777,1060.1 C421.474777,1060.1 420.774777,1059.8 420.174777,1059.2 L404.874777,1046 C404.074777,1045.3 403.674777,1044.4 403.674777,1043.4 L403.674777,1023.8 C403.674777,1022.7 403.074777,1021.6 402.174777,1020.9 L391.974777,1013.8 C391.174777,1013.2 390.174777,1013 389.174777,1013.3 L381.274777,1015.1 C379.374777,1015.5 378.174777,1017.5 378.674777,1019.5 L378.974777,1020.4 C379.374777,1021.9 380.774777,1022.9 382.374777,1022.9 L387.274777,1022.9 C389.174777,1022.9 390.774777,1024.5 390.774777,1026.4 L390.774777,1028.4 C390.774777,1030.3 389.174777,1031.9 387.274777,1031.9 L367.474777,1031.9 C365.874777,1031.9 364.474777,1033 364.074777,1034.5 L362.874777,1038.9 C362.274777,1041 363.774777,1043.1 365.874777,1043.3 L365.874777,1043.3 C368.474777,1043.6 369.874777,1046.6 368.374777,1048.8 L363.774777,1055.4 C363.074777,1056.3 362.074777,1056.9 360.874777,1056.9 L351.674777,1056.9 C349.574777,1056.9 347.974777,1058.7 348.174777,1060.8 L351.274777,1087 C351.474777,1089.1 349.874777,1090.9 347.774777,1090.9 L337.174777,1090.9 C335.274777,1090.9 333.674777,1092.5 333.674777,1094.4 L333.674777,1103.5 C333.674777,1104.9 332.774777,1106.2 331.474777,1106.8 L325.974777,1108.9 C323.574777,1109.8 320.974777,1107.9 321.274777,1105.3 L322.174777,1095.9 C322.374777,1093.5 320.174777,1091.6 317.874777,1092.2 L305.174777,1095.4 C303.674777,1095.8 302.174777,1095.1 301.374777,1093.8 L286.974777,1069.9 C285.774777,1068 283.074777,1067.6 281.474777,1069.2 L267.174777,1083.5 C266.874777,1083.8 266.474777,1084.1 265.974777,1084.3 L238.374777,1095.3 C237.274777,1095.7 236.474777,1096.7 236.274777,1097.8 L232.874777,1113.2 C232.774777,1113.7 232.474777,1114.2 232.174777,1114.6 L222.974777,1125.9 C221.374777,1127.8 218.374777,1127.6 217.174777,1125.4 L209.074777,1110.8 C208.774777,1110.3 208.374777,1109.8 207.874777,1109.5 L159.374777,1080 C158.274777,1079.4 156.974777,1079.3 155.874777,1079.9 L138.174777,1089.5 C136.674777,1090.3 134.874777,1089.9 133.774777,1088.6 L122.974777,1075 C121.374777,1073 118.374777,1073.3 117.174777,1075.5 L111.674777,1085.9 C111.074777,1087.1 111.174777,1088.5 111.874777,1089.6 L119.074777,1099.7 C119.974777,1101 119.974777,1102.6 118.974777,1103.9 L112.174777,1112.7 C111.174777,1114 109.574777,1114.4 108.074777,1113.8 L101.274777,1111 C99.6747771,1110.3 98.8747771,1108.6 99.1747771,1107 L101.274777,1098.2 C101.874777,1095.7 99.6747771,1093.5 97.1747771,1094 L71.3747771,1099.5 C70.2747771,1099.7 69.0747771,1099.4 68.2747771,1098.6 L55.1747771,1086.3 C53.7747771,1085 51.4747771,1085.1 50.1747771,1086.5 L43.9747771,1093.3 C43.0747771,1094.3 42.7747771,1095.7 43.2747771,1096.9 L50.7747771,1116 C51.2747771,1117.2 51.0747771,1118.5 50.2747771,1119.4 L42.3747771,1129.5 C41.2747771,1130.9 39.3747771,1131.2 37.8747771,1130.4 L18.4747771,1119.5 C17.7747771,1119.1 17.2747771,1118.5 16.9747771,1117.8 L8.2747771,1097.3 C7.3747771,1095.1 8.7747771,1092.7 11.1747771,1092.5 L23.2747771,1091.3 C25.0747771,1091.1 26.3747771,1089.6 26.3747771,1087.8 L26.3747771,1060.8 C26.3747771,1060.2 26.2747771,1059.6 25.9747771,1059.1 L21.6747771,1051.3 C20.8747771,1049.9 21.1747771,1048.2 22.3747771,1047.1 L35.8747771,1034.5 C36.2747771,1034.2 36.4747771,1033.8 36.6747771,1033.3 L43.6747771,1016.6 C44.0747771,1015.6 44.0747771,1014.5 43.4747771,1013.5 L33.8747771,996.8 C32.9747771,995.2 33.4747771,993.2 34.8747771,992.2 L53.0747771,979.5 C54.3747771,978.6 56.0747771,978.7 57.2747771,979.7 L59.9747771,981.9 C62.3747771,983.8 65.8747771,982 65.6747771,979 L65.2747771,973.5 C65.1747771,972.6 65.5747771,971.6 66.1747771,970.9 L82.5747771,952.8 C83.5747771,951.7 83.7747771,950.1 83.0747771,948.8 L78.9747771,941.1 C78.0747771,939.4 78.7747771,937.2 80.4747771,936.3 L102.374777,925.3 C103.974777,924.5 104.674777,922.6 104.074777,920.9 L100.774777,912.2 C100.474777,911.3 100.474777,910.4 100.874777,909.5 L112.674777,883.1 C113.074777,882.3 113.674777,881.7 114.474777,881.3 L132.574777,873.5 C133.574777,873.1 134.374777,872.2 134.574777,871.1 L138.874777,852.9 C139.074777,852.2 138.974777,851.5 138.674777,850.8 L127.574777,823.1 C127.274777,822.3 127.274777,821.3 127.574777,820.5 L134.174777,804.1 C134.674777,802.7 134.374777,801.2 133.274777,800.2 L118.874777,787 C118.174777,786.3 117.674777,785.4 117.674777,784.4 L117.674777,775.1 C117.674777,774.4 117.474777,773.6 116.974777,773 L105.074777,756.8 C104.274777,755.7 104.174777,754.2 104.874777,752.9 L121.574777,724.8 C122.274777,723.7 122.174777,722.2 121.474777,721.1 L111.174777,705.3 C110.274777,703.9 110.474777,702.1 111.674777,700.9 L118.674777,693.9 C119.374777,693.2 120.174777,692.9 121.174777,692.9 L125.274777,692.9 C127.174777,692.9 128.774777,691.3 128.774777,689.4 L132.774777,11.3 C132.674777,9.6 134.274777,8 136.174777,8 Z" id="path-1"></path>
        <filter x="-3.1%" y="-2.0%" width="106.3%" height="104.0%" filterUnits="objectBoundingBox" id="filter-2">
            <feOffset dx="0" dy="0" in="SourceAlpha" result="shadowOffsetOuter1"></feOffset>
            <feGaussianBlur stdDeviation="7.5" in="shadowOffsetOuter1" result="shadowBlurOuter1"></feGaussianBlur>
            <feColorMatrix values="0 0 0 0 0   0 0 0 0 0   0 0 0 0 0  0 0 0 0.1 0" type="matrix" in="shadowBlurOuter1"></feColorMatrix>
        </filter>
        <path d="M136.174777,8 L718.174777,8 C720.074777,8 721.674777,9.6 721.674777,11.5 L721.674777,757.3 C721.674777,758.4 721.174777,759.4 720.274777,760.1 L703.174777,773.1 C701.774777,774.2 701.374777,776.2 702.374777,777.8 L713.474777,795.3 C714.174777,796.4 714.174777,797.8 713.474777,799 L707.374777,809.2 C706.374777,810.9 706.874777,813 708.574777,814 L722.274777,822.2 C724.074777,823.3 724.474777,825.6 723.274777,827.3 L714.674777,838.8 C713.974777,839.7 713.774777,840.9 714.174777,841.9 L715.774777,847.1 C716.574777,849.7 714.174777,852.2 711.474777,851.5 L691.174777,845.7 C690.274777,845.4 689.174777,845.6 688.374777,846.1 L660.674777,863 L641.174777,875.1 C640.274777,875.7 639.074777,875.8 638.074777,875.4 L630.574777,872.4 C629.974777,872.2 629.474777,871.8 629.174777,871.3 L622.874777,863.4 C622.174777,862.5 621.074777,862 619.974777,862.1 L589.374777,863.9 C588.374777,864 587.474777,864.4 586.874777,865.2 L580.874777,872.7 C580.174777,873.5 579.974777,874.6 580.174777,875.6 L589.174777,916 C589.574777,917.7 588.674777,919.4 586.974777,920 L577.974777,923.5 C577.174777,923.8 576.574777,924.3 576.174777,925 L568.674777,938.3 C568.074777,939.3 567.074777,939.9 565.974777,940.1 L550.874777,941.7 C549.574777,941.8 548.474777,942.7 547.974777,943.9 L536.874777,971.8 C536.874777,971.9 536.774777,972 536.674777,972.1 L529.574777,985.5 C529.074777,986.4 528.174777,987.1 527.174777,987.3 L513.174777,989.9 C512.974777,989.9 512.774777,990 512.574777,990 L502.374777,990 C500.874777,990 499.574777,991 499.074777,992.4 L495.074777,1004.5 C494.974777,1004.8 494.774777,1005.1 494.574777,1005.4 L483.474777,1021.1 C483.074777,1021.7 482.874777,1022.3 482.874777,1023 L481.974777,1052.8 C481.974777,1053.5 481.674777,1054.2 481.274777,1054.8 L473.474777,1065.3 C473.174777,1065.7 472.774777,1066.1 472.274777,1066.3 L453.774777,1075.6 C452.174777,1076.4 450.274777,1075.9 449.374777,1074.5 L441.074777,1062.4 C440.474777,1061.5 439.474777,1060.9 438.374777,1060.9 L422.274777,1060.1 C421.474777,1060.1 420.774777,1059.8 420.174777,1059.2 L404.874777,1046 C404.074777,1045.3 403.674777,1044.4 403.674777,1043.4 L403.674777,1023.8 C403.674777,1022.7 403.074777,1021.6 402.174777,1020.9 L391.974777,1013.8 C391.174777,1013.2 390.174777,1013 389.174777,1013.3 L381.274777,1015.1 C379.374777,1015.5 378.174777,1017.5 378.674777,1019.5 L378.974777,1020.4 C379.374777,1021.9 380.774777,1022.9 382.374777,1022.9 L387.274777,1022.9 C389.174777,1022.9 390.774777,1024.5 390.774777,1026.4 L390.774777,1028.4 C390.774777,1030.3 389.174777,1031.9 387.274777,1031.9 L367.474777,1031.9 C365.874777,1031.9 364.474777,1033 364.074777,1034.5 L362.874777,1038.9 C362.274777,1041 363.774777,1043.1 365.874777,1043.3 L365.874777,1043.3 C368.474777,1043.6 369.874777,1046.6 368.374777,1048.8 L363.774777,1055.4 C363.074777,1056.3 362.074777,1056.9 360.874777,1056.9 L351.674777,1056.9 C349.574777,1056.9 347.974777,1058.7 348.174777,1060.8 L351.274777,1087 C351.474777,1089.1 349.874777,1090.9 347.774777,1090.9 L337.174777,1090.9 C335.274777,1090.9 333.674777,1092.5 333.674777,1094.4 L333.674777,1103.5 C333.674777,1104.9 332.774777,1106.2 331.474777,1106.8 L325.974777,1108.9 C323.574777,1109.8 320.974777,1107.9 321.274777,1105.3 L322.174777,1095.9 C322.374777,1093.5 320.174777,1091.6 317.874777,1092.2 L305.174777,1095.4 C303.674777,1095.8 302.174777,1095.1 301.374777,1093.8 L286.974777,1069.9 C285.774777,1068 283.074777,1067.6 281.474777,1069.2 L267.174777,1083.5 C266.874777,1083.8 266.474777,1084.1 265.974777,1084.3 L238.374777,1095.3 C237.274777,1095.7 236.474777,1096.7 236.274777,1097.8 L232.874777,1113.2 C232.774777,1113.7 232.474777,1114.2 232.174777,1114.6 L222.974777,1125.9 C221.374777,1127.8 218.374777,1127.6 217.174777,1125.4 L209.074777,1110.8 C208.774777,1110.3 208.374777,1109.8 207.874777,1109.5 L159.374777,1080 C158.274777,1079.4 156.974777,1079.3 155.874777,1079.9 L138.174777,1089.5 C136.674777,1090.3 134.874777,1089.9 133.774777,1088.6 L122.974777,1075 C121.374777,1073 118.374777,1073.3 117.174777,1075.5 L111.674777,1085.9 C111.074777,1087.1 111.174777,1088.5 111.874777,1089.6 L119.074777,1099.7 C119.974777,1101 119.974777,1102.6 118.974777,1103.9 L112.174777,1112.7 C111.174777,1114 109.574777,1114.4 108.074777,1113.8 L101.274777,1111 C99.6747771,1110.3 98.8747771,1108.6 99.1747771,1107 L101.274777,1098.2 C101.874777,1095.7 99.6747771,1093.5 97.1747771,1094 L71.3747771,1099.5 C70.2747771,1099.7 69.0747771,1099.4 68.2747771,1098.6 L55.1747771,1086.3 C53.7747771,1085 51.4747771,1085.1 50.1747771,1086.5 L43.9747771,1093.3 C43.0747771,1094.3 42.7747771,1095.7 43.2747771,1096.9 L50.7747771,1116 C51.2747771,1117.2 51.0747771,1118.5 50.2747771,1119.4 L42.3747771,1129.5 C41.2747771,1130.9 39.3747771,1131.2 37.8747771,1130.4 L18.4747771,1119.5 C17.7747771,1119.1 17.2747771,1118.5 16.9747771,1117.8 L8.2747771,1097.3 C7.3747771,1095.1 8.7747771,1092.7 11.1747771,1092.5 L23.2747771,1091.3 C25.0747771,1091.1 26.3747771,1089.6 26.3747771,1087.8 L26.3747771,1060.8 C26.3747771,1060.2 26.2747771,1059.6 25.9747771,1059.1 L21.6747771,1051.3 C20.8747771,1049.9 21.1747771,1048.2 22.3747771,1047.1 L35.8747771,1034.5 C36.2747771,1034.2 36.4747771,1033.8 36.6747771,1033.3 L43.6747771,1016.6 C44.0747771,1015.6 44.0747771,1014.5 43.4747771,1013.5 L33.8747771,996.8 C32.9747771,995.2 33.4747771,993.2 34.8747771,992.2 L53.0747771,979.5 C54.3747771,978.6 56.0747771,978.7 57.2747771,979.7 L59.9747771,981.9 C62.3747771,983.8 65.8747771,982 65.6747771,979 L65.2747771,973.5 C65.1747771,972.6 65.5747771,971.6 66.1747771,970.9 L82.5747771,952.8 C83.5747771,951.7 83.7747771,950.1 83.0747771,948.8 L78.9747771,941.1 C78.0747771,939.4 78.7747771,937.2 80.4747771,936.3 L102.374777,925.3 C103.974777,924.5 104.674777,922.6 104.074777,920.9 L100.774777,912.2 C100.474777,911.3 100.474777,910.4 100.874777,909.5 L112.674777,883.1 C113.074777,882.3 113.674777,881.7 114.474777,881.3 L132.574777,873.5 C133.574777,873.1 134.374777,872.2 134.574777,871.1 L138.874777,852.9 C139.074777,852.2 138.974777,851.5 138.674777,850.8 L127.574777,823.1 C127.274777,822.3 127.274777,821.3 127.574777,820.5 L134.174777,804.1 C134.674777,802.7 134.374777,801.2 133.274777,800.2 L118.874777,787 C118.174777,786.3 117.674777,785.4 117.674777,784.4 L117.674777,775.1 C117.674777,774.4 117.474777,773.6 116.974777,773 L105.074777,756.8 C104.274777,755.7 104.174777,754.2 104.874777,752.9 L121.574777,724.8 C122.274777,723.7 122.174777,722.2 121.474777,721.1 L111.174777,705.3 C110.274777,703.9 110.474777,702.1 111.674777,700.9 L118.674777,693.9 C119.374777,693.2 120.174777,692.9 121.174777,692.9 L125.274777,692.9 C127.174777,692.9 128.774777,691.3 128.774777,689.4 L132.774777,11.3 C132.674777,9.6 134.274777,8 136.174777,8 Z" id="path-3"></path>
    </defs>
    <g id="Page-1" stroke="none" stroke-width="1" fill="none" fill-rule="evenodd">
        <g id="indiana_map">
            <g id="state_bg" fill-rule="nonzero">
                <use fill="black" fill-opacity="1" filter="url(#filter-2)" xlink:href="#path-1"></use>
                <use fill="#FFFFFF" fill-rule="evenodd" xlink:href="#path-1"></use>
            </g>
            <mask id="mask-4" fill="white">
                <use xlink:href="#path-3"></use>
            </mask>
            <use id="state_mask" fill="#FFFFFF" fill-rule="nonzero" xlink:href="#path-3"></use>
            <g id="state_content" mask="url(#mask-4)">
                <g transform="translate(15.000000, -24.000000)">
                    <g id="roads">
                        <path d="M402.8,628.5 C402.3,628.5 401.8,628.5 401.3,628.4 L392,626.6 C388.5,625.9 385.8,622.9 385.5,619.3 L383.1,586.9 L383.1,585.4 L386,561.9 C386.4,558.6 388.7,556 391.9,555.1 L405.1,551.7 C406.7,551.3 408.4,551.4 410,552 L423.8,557.4 L435,562 C438.4,563.4 440.4,566.9 439.9,570.5 L439.9,571.2 L443.6,590.3 C443.7,591.1 443.8,591.8 443.7,592.6 L442.5,605.6 C442.5,605.9 442.4,606.3 442.3,606.6 L440.2,616 C439.7,618.4 438.1,620.3 436,621.4 L433.4,622.7 C432.7,623 432,623.3 431.3,623.4 L404.2,628.4 C403.8,628.5 403.3,628.5 402.8,628.5 Z M407.2,557.5 C407,557.5 406.9,557.5 406.7,557.6 L393.5,561 C392.7,561.2 392.1,561.9 392,562.7 L389.1,586.2 L389.1,586.6 L391.5,619 C391.6,619.9 392.2,620.6 393.1,620.8 L402.4,622.6 L403.1,622.6 L430.2,617.6 C430.4,617.6 430.6,617.5 430.7,617.4 L433.3,616.1 C433.8,615.8 434.2,615.3 434.3,614.8 L436.4,605.4 L436.4,605.2 L437.6,592.2 L437.6,591.6 L433.9,572.5 L433.9,572.5 C433.7,571.6 433.7,570.7 433.8,569.9 C433.9,569 433.4,568.1 432.6,567.8 L421.5,563.3 L407.7,557.9 C407.7,557.6 407.4,557.5 407.2,557.5 Z" id="Shape" fill="#D1D1D1" fill-rule="nonzero"></path>
                        <path d="M436.3,568.6 L435.9,568.6 C434.3,568.4 433.1,566.8 433.4,565.2 L433.8,562.5 C434.4,558.4 436.2,554.6 439,551.6 L444.2,545.9 C448,541.7 453.4,539.3 459,539.1 L477.7,538.6 C478.5,538.6 479.4,538.6 480.2,538.7 L484.8,539.1 C489.2,539.5 493.5,538 496.6,534.8 L503.4,528 C506.9,524.5 511.5,522.4 516.3,522 L522.9,521.5 C528.5,521 533.3,517.5 535.4,512.3 L536.8,508.8 C537.5,507.1 537.8,505.4 537.9,503.6 L540.4,375.9 C540.5,372.6 541.4,369.2 543,366.3 L554.4,345.5 C555.3,343.9 556.3,342.4 557.6,341.1 L570,328.1 C570.7,327.3 571.4,326.5 571.9,325.6 L584.3,305.5 C585.7,303.2 586.5,300.5 586.5,297.8 L586.5,285.3 C586.5,280.8 587.9,276.6 590.5,273 L600.8,259 C602.4,256.8 603.4,254.2 603.6,251.5 L604.1,245.7 C604.4,242.2 605.6,238.9 607.5,236 L618,220.2 C619.2,218.3 620.8,216.7 622.5,215.3 L632.1,207.8 C635.3,205.3 637.4,201.5 637.7,197.4 L641.5,152.7 C641.7,150.5 642.2,148.3 643.1,146.2 L649.1,132.3 C649.9,130.4 650.3,128.4 650.3,126.3 L649.8,77.5 C649.7,71.5 652.3,65.8 656.8,61.8 C659.9,59 661.7,55 661.7,50.8 L661.7,3.6 C661.7,1.9 663,0.6 664.7,0.6 C666.4,0.6 667.7,1.9 667.7,3.6 L667.7,51 C667.7,56.9 665.2,62.6 660.7,66.5 C657.5,69.3 655.7,73.4 655.8,77.7 L656.3,126.5 C656.3,129.4 655.8,132.3 654.6,135 L648.6,148.9 C648,150.4 647.6,151.9 647.4,153.5 L643.6,198.2 C643.1,204 640.2,209.3 635.7,212.8 L626.1,220.3 C624.8,221.3 623.8,222.4 622.9,223.8 L612.4,239.6 C611,241.7 610.2,244 610,246.5 L609.5,252.3 C609.2,256.1 607.8,259.7 605.5,262.8 L595.2,276.8 C593.3,279.3 592.3,282.4 592.3,285.5 L592.3,298 C592.3,301.8 591.2,305.6 589.2,308.9 L577,328.9 C576.2,330.1 575.3,331.3 574.3,332.4 L561.9,345.4 C561,346.3 560.2,347.4 559.6,348.5 L548.2,369.3 C547.1,371.4 546.4,373.7 546.4,376.1 L543.9,503.8 C543.9,506.3 543.4,508.8 542.4,511.1 L541,514.6 C538.1,521.9 531.3,526.9 523.5,527.6 L516.9,528.1 C513.4,528.4 510.2,529.9 507.7,532.4 L500.9,539.2 C496.5,543.6 490.4,545.8 484.3,545.2 L479.7,544.8 C479.1,544.7 478.5,544.7 477.9,544.7 L459.2,545.2 C455.2,545.3 451.4,547 448.7,550 L443.5,555.7 C441.5,557.9 440.2,560.6 439.8,563.5 L439.4,566.2 C439,567.6 437.8,568.6 436.3,568.6 Z" id="Shape" fill="#D1D1D1" fill-rule="nonzero"></path>
                        <path d="M3.5,740.6 C2.4,740.6 1.4,740 0.9,739 C0.1,737.5 0.7,735.7 2.1,734.9 L68.7,699.4 C71.3,698 74.3,697.2 77.2,697.2 L104.5,696.7 C106,696.7 107.5,696.4 109,695.8 L117.6,692.4 C123.2,690.2 129.5,690.8 134.5,694 C136.6,695.3 138.9,696 141.3,696 L146.1,696 C146.8,696 147.5,695.9 148.1,695.8 L174.9,691.5 C175.9,691.3 176.9,691.3 177.9,691.3 L198.4,691.3 C200.3,691.3 202.2,690.9 203.9,690.1 L262.1,662.5 C264.6,661.3 267.4,660.7 270.2,660.7 L297.7,660.7 C299.3,660.7 300.8,660.4 302.3,659.9 L347.8,642.7 C348.4,642.5 349,642.2 349.6,641.8 L386,621.1 C386.6,620.7 387.2,620.3 387.8,619.9 L413.2,599.2 C414.9,597.8 416.9,596.7 419,596 L436.7,589.9 C439,589.1 441.5,588.8 443.9,588.9 L451,589.3 L452.8,589.3 L567,580.1 L683.1,571.3 C688.1,570.9 693.1,572.6 696.9,575.8 L701.8,580.1 C704.3,582.2 707.5,583.3 710.7,583.2 L777.2,580.9 C778.9,580.8 780.6,580.4 782.2,579.7 L786.3,577.8 C788.6,576.7 791.1,576.1 793.6,576 L879.7,572.8 C881.4,572.7 882.7,574 882.8,575.7 C882.9,577.4 881.6,578.7 879.9,578.8 L793.8,582 C792.1,582.1 790.4,582.5 788.8,583.2 L784.7,585.1 C782.4,586.2 779.9,586.8 777.4,586.9 L710.9,589.2 C706.1,589.4 701.5,587.7 697.9,584.6 L693,580.3 C690.4,578.1 687,576.9 683.6,577.2 L567.5,586 L453.3,595.2 C452.4,595.3 451.5,595.3 450.7,595.2 L443.6,594.8 C441.9,594.7 440.3,594.9 438.7,595.5 L421,601.6 C419.6,602.1 418.2,602.8 417,603.8 L391.6,624.5 C390.8,625.2 389.9,625.8 389,626.3 L352.6,647 C351.8,647.5 350.9,647.9 349.9,648.2 L304.4,665.4 C302.3,666.2 300,666.6 297.7,666.6 L270.2,666.6 C268.3,666.6 266.4,667 264.7,667.8 L206.5,695.4 C204,696.6 201.2,697.2 198.4,697.2 L177.9,697.2 C177.2,697.2 176.5,697.3 175.9,697.4 L149.1,701.7 C148.1,701.9 147.1,701.9 146.1,701.9 L141.3,701.9 C137.8,701.9 134.3,700.9 131.3,699 C127.8,696.8 123.5,696.4 119.7,697.9 L111.1,701.3 C109,702.1 106.8,702.6 104.6,702.6 L77.3,703.1 C75.3,703.1 73.3,703.7 71.5,704.6 L4.9,740.1 C4.4,740.5 4,740.6 3.5,740.6 Z" id="Shape" fill="#D1D1D1" fill-rule="nonzero"></path>
                        <path d="M407.3,557.5 C406,557.5 404.7,556.6 404.4,555.2 L403.7,552.6 C402.6,548.1 404.3,543.5 408,540.8 L410.1,539.3 C411.5,538.3 412.3,536.7 412.2,535 L410.3,452.4 L410.3,451.2 L412.1,430.6 C412.3,428.5 413,426.6 414.2,424.9 L420.5,416.3 C421.2,415.4 421.5,414.3 421.5,413.2 L421.5,407.2 C421.5,406.6 421.4,406.1 421.2,405.5 L418.8,398.3 C418.6,397.7 418.3,397.1 417.8,396.6 L413.5,391.5 C411.7,389.4 410.8,386.7 410.8,384 L412.7,300.2 C412.7,299.4 412.6,298.7 412.3,298 L405.5,282.1 C405.1,281.1 404.8,280.1 404.7,279 L401.2,250.5 C401.1,249.3 400.5,248.2 399.6,247.3 L392.7,240.8 C390.7,238.9 389.5,236.4 389.2,233.7 L382.2,160.1 C382.2,159.8 382.1,159.5 382,159.2 L375.4,134.5 C374.9,132.7 374.9,130.9 375.3,129.1 L377.7,118.6 C378.1,116.7 379.1,114.9 380.4,113.5 L384.1,109.5 C385,108.5 385.5,107.3 385.5,106 L385.5,93.4 C385.5,92.5 385.3,91.6 384.8,90.8 C383.4,88.4 383,85.5 383.6,82.8 L384.3,79.5 C384.8,77.4 383.9,75.1 382,74 L371.7,67.4 C368.7,65.4 366.7,62.1 366.6,58.5 L366.2,50 L366.2,48.4 L369.5,14.3 C369.7,12.7 371.1,11.4 372.8,11.6 C374.4,11.8 375.7,13.2 375.5,14.9 L372.2,49 L372.2,49.8 L372.6,58.3 C372.7,60 373.6,61.5 375,62.4 L385.3,69 C389.2,71.5 391.2,76.3 390.2,80.9 L389.5,84.2 C389.2,85.5 389.4,86.8 390.1,87.9 C391.1,89.6 391.6,91.5 391.6,93.5 L391.6,106 C391.6,108.8 390.6,111.5 388.6,113.6 L384.9,117.6 C384.3,118.3 383.9,119.1 383.7,120 L381.3,130.5 C381.1,131.3 381.1,132.2 381.3,133 L387.9,157.7 C388.1,158.3 388.2,158.9 388.2,159.6 L395.2,233.2 C395.3,234.5 395.9,235.6 396.8,236.5 L403.7,243 C405.6,244.8 406.8,247.2 407.2,249.8 L410.7,278.3 C410.8,278.8 410.9,279.3 411.1,279.7 L417.9,295.6 C418.5,297.1 418.8,298.7 418.8,300.3 L416.9,384.1 C416.9,385.4 417.3,386.6 418.1,387.6 L422.4,392.7 C423.3,393.8 424,395 424.5,396.4 L426.9,403.6 C427.3,404.7 427.5,405.9 427.5,407.2 L427.5,413.2 C427.5,415.6 426.7,417.9 425.3,419.9 L419,428.5 C418.4,429.3 418.1,430.2 418,431.2 L416.2,451.8 L416.2,452.4 L418.1,535 C418.2,538.7 416.5,542.2 413.5,544.3 L411.4,545.8 C409.7,547.1 408.9,549.2 409.4,551.3 L410.1,553.9 C410.5,555.5 409.5,557.1 407.9,557.5 L407.3,557.5 Z" id="Shape" fill="#D1D1D1" fill-rule="nonzero"></path>
                        <path d="M624.6,281.3 C624.2,281.3 623.8,281.3 623.4,281.2 L596,278.7 C594.4,278.5 593.1,277.1 593.3,275.4 C593.5,273.7 594.9,272.5 596.6,272.7 L624,275.2 C626,275.4 628,274.5 629.1,272.8 C630.4,270.8 632.3,269.3 634.6,268.4 L647.1,263.7 C648.1,263.3 648.9,262.7 649.5,261.9 L661.1,246.5 C662,245.4 662.3,243.9 662.1,242.5 L659.7,225.1 C659.4,223.1 658,221.4 656.1,220.7 L637.3,214.4 C635.7,213.9 634.9,212.2 635.4,210.6 C635.9,209 637.6,208.2 639.2,208.7 L658,215 C662.1,216.4 665.1,219.9 665.7,224.2 L668.1,241.6 C668.5,244.6 667.7,247.6 665.9,250 L654.3,265.5 C653,267.2 651.2,268.6 649.2,269.3 L636.7,274 C635.6,274.4 634.7,275.1 634.1,276.1 C631.9,279.4 628.3,281.3 624.6,281.3 Z" id="Shape" fill="#D1D1D1" fill-rule="nonzero"></path>
                        <path d="M500.7,1024.4 C500.5,1024.4 500.2,1024.4 500,1024.3 C498.4,1023.9 497.4,1022.3 497.8,1020.7 C497.8,1020.7 498.9,1016.1 500.1,1011.4 C500.8,1008.7 501.4,1006.6 501.8,1005 C502,1004.1 502.3,1003.3 502.5,1002.6 C502.4,1002.2 502.4,1001.8 502.3,1001.4 C502.1,1000 501.8,998 501.5,995.6 C500.9,990.8 500,984.5 499.2,978.1 C497.6,965.4 496,952.7 496,952.7 L496,952.5 L492.7,903 L488.2,892.8 C488.2,892.7 488.2,892.7 488.1,892.6 L481.4,874.6 C481.1,873.9 481.2,873.1 481.4,872.5 L487.1,857.9 L485.2,846 L481.2,818.6 L481.2,818.3 L479.9,779.6 L471.3,761.7 L462.2,756.8 C461.4,756.4 460.9,755.7 460.7,754.8 L455.4,731.5 L449.6,709.5 L434,690.4 C433.8,690.1 433.6,689.7 433.5,689.4 L415.5,626.7 C415,625.1 416,623.4 417.6,623 C419.2,622.5 420.9,623.5 421.3,625.1 L439.1,687.2 L454.7,706.7 C455,707 455.2,707.4 455.3,707.8 L461.3,730.5 L461.3,730.6 L466.3,752.6 L475.1,757.3 C475.7,757.6 476.1,758.1 476.4,758.6 L485.7,777.9 C485.9,778.3 486,778.7 486,779.1 L487.3,818.3 L491.3,845.5 L493.3,858.1 C493.4,858.6 493.3,859.2 493.1,859.7 L487.5,874 L493.7,890.8 L498.3,901.4 C498.4,901.7 498.5,902.1 498.5,902.4 L501.8,952.3 C504.1,970.6 507.6,998.1 508.3,1002.2 C508.4,1002.5 508.5,1002.9 508.5,1003.3 C508.5,1004 508.3,1004.6 507.9,1005.1 C507.2,1007.5 505.1,1015.3 503.4,1022.3 C503.2,1023.5 502,1024.4 500.7,1024.4 Z M502.7,1003.5 C502.7,1003.7 502.8,1004 502.9,1004.2 C502.8,1004 502.8,1003.8 502.7,1003.5 Z" id="Shape" fill="#D1D1D1" fill-rule="nonzero"></path>
                    </g>
                    <g id="fort-wayne" transform="translate(459.000000, 233.000000)">
                        <polygon id="fort-wayne_letter-f" fill="#033762" fill-rule="nonzero" points="4 7.2 4 10.4 10.3 10.4 10.3 13.2 4 13.2 4 18.4 0.4 18.4 0.4 4.4 10.8 4.4 10.8 7.2"></polygon>
                        <path d="M26.7,11.4 C26.7,15.5 23.5,18.6 19.1,18.6 C14.8,18.6 11.5,15.5 11.5,11.4 C11.5,7.3 14.7,4.3 19.1,4.3 C23.5,4.3 26.7,7.4 26.7,11.4 Z M15.2,11.4 C15.2,13.8 17,15.6 19.2,15.6 C21.4,15.6 23.1,13.8 23.1,11.4 C23.1,9 21.4,7.3 19.2,7.3 C17,7.3 15.2,9.1 15.2,11.4 Z" id="fort-wayne_letter-o" fill="#033762" fill-rule="nonzero"></path>
                        <path d="M35,14.5 L35,14.5 L32.2,14.5 L32.2,18.4 L28.6,18.4 L28.6,4.4 L34.9,4.4 C38.6,4.4 40.7,6.2 40.7,9.3 C40.7,11.4 39.8,13 38.2,13.8 L41.1,18.4 L37.1,18.4 L35,14.5 Z M34.9,11.7 C36.4,11.7 37.3,10.9 37.3,9.4 C37.3,7.9 36.4,7.2 34.9,7.2 L32.2,7.2 L32.2,11.7 L34.9,11.7 Z" id="fort-wayne_letter-r" fill="#033762" fill-rule="nonzero"></path>
                        <polygon id="fort-wayne_letter-t" fill="#033762" fill-rule="nonzero" points="49.5 7.3 49.5 18.4 46 18.4 46 7.3 41.8 7.3 41.8 4.4 53.8 4.4 53.8 7.3 49.5 7.3"></polygon>
                        <polygon id="fort-wayne_letter-w" fill="#033762" fill-rule="nonzero" points="72 18.4 69.4 8.7 66.8 18.4 63.1 18.4 58.5 4.4 62.3 4.4 65 14.7 67.7 4.4 71.2 4.4 73.9 14.7 76.6 4.4 80.2 4.4 75.6 18.4"></polygon>
                        <path d="M83.6,15.9 L82.6,18.5 L79,18.5 L85,4.5 L88.7,4.5 L94.6,18.5 L90.8,18.5 L89.8,15.9 L83.6,15.9 Z M86.7,8 L84.7,13.2 L88.7,13.2 L86.7,8 Z" id="fort-wayne_letter-a" fill="#033762" fill-rule="nonzero"></path>
                        <polygon id="fort-wayne_letter-y" fill="#033762" fill-rule="nonzero" points="102 18.4 98.5 18.4 98.5 14 93.3 4.4 96.9 4.4 100.3 10.5 103.6 4.4 107.2 4.4 102.1 13.9 102.1 18.4"></polygon>
                        <polygon id="fort-wayne_letter-n" fill="#033762" fill-rule="nonzero" points="118.2 18.4 111.8 9.8 111.8 18.4 108.5 18.4 108.5 4.4 111.6 4.4 118.1 13 118.1 4.4 121.4 4.4 121.4 18.4"></polygon>
                        <polygon id="fort-wayne_letter-e" fill="#033762" fill-rule="nonzero" points="127.7 7.2 127.7 10 134.4 10 134.4 12.8 127.7 12.8 127.7 15.6 135.3 15.6 135.3 18.4 124.1 18.4 124.1 4.4 135.1 4.4 135.1 7.2 127.7 7.2"></polygon>
                        <circle id="fort-wayne_dot-inner" fill="#033762" fill-rule="nonzero" cx="175.4" cy="12.5" r="12"></circle>
                    </g>
                    <g id="indianapolis" transform="translate(225.000000, 577.000000)">
                        <polygon id="indianapolis_letter-i" fill="#033762" fill-rule="nonzero" points="0.4 24.4 0.4 10.4 4 10.4 4 24.4"></polygon>
                        <polygon id="indianapolis_letter-n" fill="#033762" fill-rule="nonzero" points="16.6 24.4 10.2 15.8 10.2 24.4 6.9 24.4 6.9 10.4 10 10.4 16.5 19 16.5 10.4 19.8 10.4 19.8 24.4"></polygon>
                        <path d="M28.5,10.4 C32.9,10.4 35.9,13.2 35.9,17.4 C35.9,21.5 32.8,24.4 28.3,24.4 L22.4,24.4 L22.4,10.4 L28.5,10.4 Z M26.1,21.6 L28.6,21.6 C30.8,21.6 32.3,19.9 32.3,17.5 C32.3,15 30.7,13.3 28.4,13.3 L26,13.3 L26,21.6 L26.1,21.6 Z" id="indianapolis_letter-d" fill="#033762" fill-rule="nonzero"></path>
                        <polygon id="indianapolis_letter-i2" fill="#033762" fill-rule="nonzero" points="37.8 24.4 37.8 10.4 41.4 10.4 41.4 24.4"></polygon>
                        <path d="M47.4,21.9 L46.4,24.5 L42.7,24.5 L48.7,10.5 L52.4,10.5 L58.3,24.5 L54.5,24.5 L53.5,21.9 L47.4,21.9 Z M50.5,14 L48.5,19.2 L52.5,19.2 L50.5,14 Z" id="indianapolis_letter-a" fill="#033762" fill-rule="nonzero"></path>
                        <polygon id="indianapolis_letter-n2" fill="#033762" fill-rule="nonzero" points="69.4 24.4 63 15.8 63 24.4 59.7 24.4 59.7 10.4 62.8 10.4 69.3 19 69.3 10.4 72.6 10.4 72.6 24.4"></polygon>
                        <path d="M78.5,21.9 L77.5,24.5 L73.8,24.5 L79.8,10.5 L83.5,10.5 L89.4,24.5 L85.6,24.5 L84.6,21.9 L78.5,21.9 Z M81.6,14 L79.6,19.2 L83.6,19.2 L81.6,14 Z" id="indianapolis_letter-a2" fill="#033762" fill-rule="nonzero"></path>
                        <path d="M96.8,10.4 C100.4,10.4 102.4,12.2 102.4,15.3 C102.4,18.6 100.3,20.5 96.8,20.5 L94.3,20.5 L94.3,24.4 L90.7,24.4 L90.7,10.4 L96.8,10.4 Z M94.3,17.7 L96.7,17.7 C98.3,17.7 99.2,16.9 99.2,15.4 C99.2,13.9 98.3,13.2 96.7,13.2 L94.3,13.2 L94.3,17.7 Z" id="indianapolis_letter-p" fill="#033762" fill-rule="nonzero"></path>
                        <path d="M118.5,17.4 C118.5,21.5 115.3,24.6 110.9,24.6 C106.6,24.6 103.3,21.5 103.3,17.4 C103.3,13.3 106.5,10.3 110.9,10.3 C115.3,10.3 118.5,13.4 118.5,17.4 Z M107,17.4 C107,19.8 108.8,21.6 111,21.6 C113.2,21.6 114.9,19.8 114.9,17.4 C114.9,15 113.2,13.3 111,13.3 C108.8,13.3 107,15.1 107,17.4 Z" id="indianapolis_letter-o" fill="#033762" fill-rule="nonzero"></path>
                        <polygon id="indianapolis_letter-l" fill="#033762" fill-rule="nonzero" points="129.9 21.5 129.9 24.5 120.4 24.5 120.4 10.5 124 10.5 124 21.5"></polygon>
                        <polygon id="indianapolis_letter-i3" fill="#033762" fill-rule="nonzero" points="131.6 24.4 131.6 10.4 135.2 10.4 135.2 24.4"></polygon>
                        <path d="M148.9,11.8 L147.6,14.6 C146.1,13.7 144.3,13.1 143.1,13.1 C142.2,13.1 141.6,13.4 141.6,14.1 C141.6,16.5 149,15.1 149,20.2 C149,23 146.5,24.5 143.4,24.5 C141.1,24.5 138.7,23.6 137,22.3 L138.4,19.6 C139.8,20.9 142,21.7 143.5,21.7 C144.6,21.7 145.3,21.3 145.3,20.5 C145.3,18 137.9,19.5 137.9,14.5 C137.9,11.9 140.1,10.3 143.5,10.3 C145.4,10.3 147.4,10.9 148.9,11.8 Z" id="indianapolis_letter-s" fill="#033762" fill-rule="nonzero"></path>
                        <path d="M188.4,32.5 C179.6,32.5 172.4,25.3 172.4,16.5 C172.4,7.7 179.6,0.5 188.4,0.5 C197.2,0.5 204.4,7.7 204.4,16.5 C204.4,25.3 197.2,32.5 188.4,32.5 Z M188.4,8.5 C184,8.5 180.4,12.1 180.4,16.5 C180.4,20.9 184,24.5 188.4,24.5 C192.8,24.5 196.4,20.9 196.4,16.5 C196.4,12.1 192.8,8.5 188.4,8.5 Z" id="indianapolis_dot-outer" fill="#FFFFFF" fill-rule="nonzero"></path>
                        <circle id="indianapolis_dot-inner" fill="#033762" fill-rule="nonzero" cx="188.4" cy="16.5" r="12"></circle>
                    </g>
                    <g id="sign_route31-top" transform="translate(359.000000, 147.000000)">
                        <g id="shield" fill-rule="nonzero">
                            <path d="M49.4,26 C49.1,25.6 49.1,25.5 48.4,24.8 C47.6,23.5 47.1,22 47.1,20.4 C47.1,19.5 47.3,18.6 47.5,17.8 C48.1,16.1 49.2,14.7 50.6,13.7 L44.6,6.2 C42.6,7.2 40.4,7.7 38,7.7 C33.8,7.7 29.9,6 27.2,3.2 C24.4,6 20.6,7.7 16.4,7.7 C14,7.7 11.8,7.1 9.8,6.2 L3.8,13.7 C5.3,14.7 6.4,16.1 6.9,17.8 C7.2,18.6 7.3,19.5 7.3,20.4 C7.3,22 6.8,23.5 6,24.8 C5.5,25.3 5.3,25.6 5,26 C3.5,28.1 2.5,30.7 2.5,33.5 C2.5,40.6 8.2,46.3 15.3,46.3 C15.8,46.3 18,46.1 18.3,46.1 C22.3,46.1 25.7,48.7 26.9,52.2 L27.4,52.2 C28.7,48.6 32,46.1 36,46.1 C36.3,46.1 38.4,46.3 39,46.3 C46.1,46.3 51.8,40.6 51.8,33.5 C51.8,30.7 50.9,28.1 49.4,26 Z" id="Shape" fill="#FFFFFF"></path>
                            <path d="M28.3,53.4 L26.1,53.4 L25.8,52.6 C24.7,49.4 21.7,47.3 18.3,47.3 C18.2,47.3 17.7,47.3 17.3,47.4 C16.4,47.5 15.7,47.5 15.3,47.5 C7.5,47.5 1.2,41.2 1.2,33.4 C1.2,30.4 2.1,27.6 3.9,25.2 L3.9,25.2 C4,25.1 4,25 4.1,25 C4.3,24.7 4.6,24.4 4.9,24 C5.6,22.9 6,21.7 6,20.4 C6,19.7 5.9,18.9 5.6,18.2 C5.1,16.8 4.2,15.6 2.9,14.8 L1.8,14.1 L9.2,4.8 L10.1,5.2 C12,6.1 14.1,6.6 16.2,6.6 C20,6.6 23.5,5.1 26.2,2.5 L27.1,1.6 L28,2.5 C30.7,5.2 34.2,6.6 38,6.6 C40.1,6.6 42.2,6.1 44.1,5.2 L45,4.8 L52.4,14.1 L51.3,14.8 C50.1,15.6 49.1,16.8 48.6,18.2 C48.3,18.9 48.2,19.7 48.2,20.4 C48.2,21.7 48.6,22.9 49.3,24 C49.8,24.6 50,24.8 50.3,25.2 C50.3,25.2 50.4,25.3 50.4,25.4 C52.2,27.8 53.1,30.7 53.1,33.6 C53.1,41.4 46.8,47.7 39,47.7 C38.7,47.7 38,47.6 37,47.6 C36.6,47.6 36.1,47.5 36,47.5 C32.7,47.5 29.7,49.6 28.6,52.8 L28.3,53.4 Z M18.3,44.9 C22,44.9 25.3,46.8 27.2,49.9 C29.1,46.8 32.4,44.9 36.1,44.9 C36.3,44.9 36.5,44.9 37.3,45 C37.9,45.1 38.8,45.1 39.1,45.1 C45.5,45.1 50.7,39.9 50.7,33.5 C50.7,31 49.9,28.7 48.5,26.7 L48.5,26.7 C48.5,26.6 48.4,26.6 48.4,26.5 C48.2,26.3 48.1,26.1 47.6,25.6 L47.5,25.5 L47.4,25.4 C46.4,23.9 45.9,22.1 45.9,20.3 C45.9,19.3 46.1,18.3 46.4,17.3 C46.9,15.8 47.8,14.5 49,13.4 L44.4,7.7 C42.4,8.5 40.3,8.9 38.1,8.9 C34.1,8.9 30.3,7.5 27.3,4.9 C24.3,7.5 20.5,8.9 16.5,8.9 C14.3,8.9 12.2,8.5 10.2,7.7 L5.6,13.4 C6.8,14.4 7.7,15.8 8.2,17.3 C8.5,18.3 8.7,19.3 8.7,20.3 C8.7,22.1 8.2,23.9 7.2,25.4 L7.1,25.5 L7,25.6 C6.6,26 6.5,26.2 6.2,26.5 C6.1,26.6 6.1,26.7 6,26.7 C4.6,28.7 3.8,31 3.8,33.5 C3.8,39.9 9,45.1 15.4,45.1 C15.6,45.1 16.6,45 17.1,45 C17.9,44.9 18.2,44.9 18.3,44.9 Z" id="Shape" fill="#033762"></path>
                            <path d="M28.7,53.9 L25.8,53.9 L25.4,52.7 C24.4,49.7 21.5,47.7 18.4,47.7 C18.3,47.7 17.9,47.7 17.5,47.8 C16.5,47.9 15.8,47.9 15.4,47.9 C7.4,47.9 0.8,41.4 0.8,33.3 C0.8,30.2 1.8,27.3 3.6,24.8 L3.8,24.6 C4.1,24.3 4.3,23.9 4.7,23.5 C5.3,22.6 5.6,21.4 5.6,20.2 C5.6,19.5 5.5,18.8 5.2,18.2 C4.7,16.9 3.9,15.8 2.7,15 L1.1,14 L9.1,4 L10.3,4.6 C12.2,5.5 14.1,5.9 16.2,5.9 C19.8,5.9 23.2,4.5 25.8,1.9 L27,0.7 L28.2,1.9 C30.8,4.5 34.2,5.9 37.8,5.9 C39.8,5.9 41.8,5.4 43.7,4.6 L44.9,4 L52.9,14 L51.3,15 C50.2,15.7 49.3,16.9 48.8,18.2 C48.6,18.9 48.4,19.6 48.4,20.2 C48.4,21.4 48.7,22.5 49.4,23.5 C49.9,24.1 50.2,24.3 50.4,24.7 L50.5,24.8 C52.3,27.3 53.3,30.3 53.3,33.3 C53.3,41.3 46.8,47.9 38.7,47.9 C38.3,47.9 37.7,47.8 36.7,47.8 C36.3,47.8 35.8,47.7 35.7,47.7 C32.6,47.7 29.8,49.7 28.7,52.7 L28.7,53.9 Z M26.4,52.9 L27.9,52.9 L28.1,52.4 C29.3,49 32.5,46.8 36,46.8 C36.1,46.8 36.6,46.8 37,46.9 C37.9,47 38.6,47 38.9,47 C46.4,47 52.5,40.9 52.5,33.4 C52.5,30.5 51.6,27.8 49.9,25.5 L49.8,25.4 C49.6,25.1 49.4,24.8 48.9,24.3 L48.8,24.2 C48,23 47.7,21.7 47.7,20.3 C47.7,19.5 47.8,18.7 48.1,17.9 C48.6,16.4 49.6,15.1 51,14.2 L51.7,13.8 L44.9,5.3 L44.4,5.5 C42.4,6.5 40.3,6.9 38.1,6.9 C34.2,6.9 30.5,5.4 27.8,2.6 L27.3,2.1 L26.8,2.6 C24,5.3 20.4,6.9 16.5,6.9 C14.3,6.9 12.2,6.4 10.2,5.5 L9.7,5.3 L2.9,13.8 L3.6,14.2 C4.9,15.1 5.9,16.4 6.5,17.9 C6.8,18.7 6.9,19.5 6.9,20.3 C6.9,21.7 6.5,23 5.7,24.2 C5.3,24.7 5,25 4.8,25.2 L4.6,25.4 C2.9,27.8 2,30.5 2,33.4 C2,40.9 8.1,47 15.6,47 C15.9,47 16.6,46.9 17.5,46.9 C18,46.9 18.4,46.8 18.5,46.8 C22.1,46.8 25.3,49.1 26.4,52.4 L26.4,52.9 Z M27.2,50.9 L26.8,50.2 C25,47.3 21.8,45.4 18.4,45.4 C18.2,45.4 18,45.4 17.2,45.5 C16.4,45.6 15.7,45.6 15.4,45.6 C8.7,45.6 3.3,40.2 3.3,33.5 C3.3,30.9 4.1,28.5 5.6,26.4 L5.8,26.1 C6,25.8 6.2,25.5 6.6,25.2 L6.7,25.1 C7.7,23.7 8.2,22 8.2,20.3 C8.2,19.4 8,18.4 7.7,17.5 C7.2,16.1 6.4,14.8 5.3,13.9 L4.9,13.6 L10,7.2 L10.3,7.3 C12.2,8.1 14.3,8.5 16.4,8.5 C20.3,8.5 24,7.1 26.9,4.6 L27.2,4.3 L27.5,4.6 C30.4,7.1 34.1,8.5 38,8.5 C40.1,8.5 42.1,8.1 44.1,7.3 L44.4,7.2 L49.5,13.6 L49.1,13.9 C48,14.9 47.2,16.2 46.7,17.5 C46.4,18.4 46.2,19.4 46.2,20.3 C46.2,22 46.7,23.7 47.7,25.1 L47.8,25.2 C48.3,25.7 48.4,25.9 48.6,26.2 L48.7,26.4 C50.2,28.5 51,31 51,33.5 C51,40.2 45.6,45.6 38.9,45.6 C38.7,45.6 38,45.5 37.1,45.5 C36.3,45.4 36.1,45.4 35.9,45.4 C32.5,45.4 29.2,47.2 27.5,50.2 L27.2,50.9 Z M18.3,44.4 C21.8,44.4 25.1,46.1 27.2,49 C29.2,46.1 32.6,44.4 36.1,44.4 C36.3,44.4 36.6,44.4 37.3,44.5 C37.9,44.6 38.8,44.6 39,44.6 C45.1,44.6 50.1,39.6 50.1,33.5 C50.1,31.2 49.4,28.9 48,27 L47.9,26.8 C47.7,26.6 47.6,26.4 47.2,26 L47,25.7 C45.9,24.1 45.4,22.3 45.4,20.3 C45.4,19.2 45.6,18.2 45.9,17.1 C46.4,15.7 47.2,14.4 48.3,13.4 L44.2,8.3 C42.2,9.1 40.2,9.4 38.1,9.4 C34.1,9.4 30.3,8 27.3,5.5 C24.3,8 20.4,9.4 16.5,9.4 C14.4,9.4 12.4,9 10.4,8.3 L6.3,13.4 C7.4,14.4 8.2,15.7 8.7,17.1 C9.1,18.1 9.2,19.2 9.2,20.3 C9.2,22.2 8.6,24.1 7.6,25.7 L7.4,25.9 C7.1,26.3 6.9,26.5 6.7,26.8 L6.5,27 C5.1,28.9 4.4,31.1 4.4,33.5 C4.4,39.6 9.4,44.6 15.5,44.6 C15.7,44.6 16.7,44.5 17.2,44.5 C17.9,44.4 18.1,44.4 18.3,44.4 Z" id="Shape" fill="#033762"></path>
                        </g>
                        <g id="number_31" transform="translate(16.000000, 19.000000)" fill-rule="nonzero" fill="#033762">
                            <path d="M7.1,7.1 C9.8,7.3 11.7,8.9 11.7,11.5 C11.7,14.5 9.4,16.7 5.8,16.7 C3.8,16.7 1.7,16 0.3,14.9 L1.4,12.7 C2.6,13.8 4.1,14.4 5.6,14.4 C7.8,14.4 9,13.3 9,11.6 C9,9.8 7.7,8.9 5.6,8.9 L3.3,8.9 L3.3,7.3 L7.5,2.7 L1,2.7 L1,0.3 L10.9,0.3 L10.9,2 L6.2,7 L7.1,7.1 Z" id="number_3"></path>
                            <polygon id="number_1" points="16.2 16.5 16.2 2.7 13 2.7 13 0.3 18.9 0.3 18.9 16.6 16.2 16.6"></polygon>
                        </g>
                    </g>
                    <g id="sign_route31-bottom" transform="translate(463.000000, 854.000000)">
                        <g id="shield" fill-rule="nonzero">
                            <path d="M49.2,25.8 C48.9,25.4 48.9,25.3 48.2,24.6 C47.4,23.3 46.9,21.8 46.9,20.2 C46.9,19.3 47.1,18.4 47.3,17.6 C47.9,15.9 49,14.5 50.4,13.5 L44.4,6 C42.4,7 40.2,7.5 37.8,7.5 C33.6,7.5 29.7,5.8 27,3 C24.2,5.8 20.4,7.5 16.2,7.5 C13.8,7.5 11.6,6.9 9.6,6 L3.6,13.5 C5.1,14.5 6.2,15.9 6.7,17.6 C7,18.4 7.1,19.3 7.1,20.2 C7.1,21.8 6.6,23.3 5.8,24.6 C5.3,25.1 5.1,25.4 4.8,25.8 C3.3,27.9 2.3,30.5 2.3,33.3 C2.3,40.4 8,46.1 15.1,46.1 C15.6,46.1 17.8,45.9 18.1,45.9 C22.1,45.9 25.5,48.5 26.7,52 L27.2,52 C28.5,48.4 31.8,45.9 35.8,45.9 C36.1,45.9 38.2,46.1 38.8,46.1 C45.9,46.1 51.6,40.4 51.6,33.3 C51.7,30.5 50.8,27.9 49.2,25.8 Z" id="Shape" fill="#FFFFFF"></path>
                            <path d="M28.2,53.3 L26,53.3 L25.7,52.5 C24.6,49.3 21.6,47.2 18.2,47.2 C18.1,47.2 17.6,47.2 17.2,47.3 C16.3,47.4 15.6,47.4 15.2,47.4 C7.4,47.4 1.1,41.1 1.1,33.3 C1.1,30.3 2,27.5 3.8,25.1 L3.8,25.1 C3.9,25 3.9,24.9 4,24.9 C4.2,24.6 4.5,24.3 4.8,23.9 C5.5,22.8 5.9,21.6 5.9,20.3 C5.9,19.6 5.8,18.8 5.5,18.1 C5,16.7 4.1,15.5 2.8,14.7 L1.7,14 L9.1,4.7 L10,5.1 C11.9,6 14,6.5 16.1,6.5 C19.9,6.5 23.4,5 26.1,2.4 L27,1.5 L27.9,2.4 C30.6,5.1 34.1,6.5 37.9,6.5 C40,6.5 42.1,6 44,5.1 L44.9,4.7 L52.3,14 L51.2,14.7 C50,15.5 49,16.7 48.5,18.1 C48.2,18.8 48.1,19.6 48.1,20.3 C48.1,21.6 48.5,22.8 49.2,23.9 C49.7,24.5 49.9,24.7 50.2,25.1 C50.2,25.1 50.3,25.2 50.3,25.3 C52.1,27.7 53,30.6 53,33.5 C53,41.3 46.7,47.6 38.9,47.6 C38.6,47.6 37.9,47.5 36.9,47.5 C36.5,47.5 36,47.4 35.9,47.4 C32.6,47.4 29.6,49.5 28.5,52.7 L28.2,53.3 Z M18.2,44.7 C21.9,44.7 25.2,46.6 27.1,49.7 C29,46.6 32.3,44.7 36,44.7 C36.2,44.7 36.4,44.7 37.2,44.8 C37.8,44.9 38.7,44.9 39,44.9 C45.4,44.9 50.6,39.7 50.6,33.3 C50.6,30.8 49.8,28.5 48.4,26.5 L48.4,26.5 C48.4,26.4 48.3,26.4 48.3,26.3 C48.1,26.1 48,25.9 47.5,25.4 L47.4,25.3 L47.3,25.2 C46.3,23.7 45.8,21.9 45.8,20.1 C45.8,19.1 46,18.1 46.3,17.1 C46.8,15.6 47.7,14.3 48.9,13.2 L44.3,7.5 C42.3,8.3 40.2,8.7 38,8.7 C34,8.7 30.2,7.3 27.2,4.7 C24.2,7.3 20.4,8.7 16.4,8.7 C14.2,8.7 12.1,8.3 10.1,7.5 L5.5,13.2 C6.7,14.2 7.6,15.6 8.1,17.1 C8.4,18.1 8.6,19.1 8.6,20.1 C8.6,21.9 8.1,23.7 7.1,25.2 L7,25.3 L6.9,25.4 C6.5,25.8 6.4,26 6.1,26.3 C6,26.4 6,26.5 5.9,26.5 C4.5,28.5 3.7,30.8 3.7,33.3 C3.7,39.7 8.9,44.9 15.3,44.9 C15.5,44.9 16.5,44.8 17,44.8 C17.7,44.7 18,44.7 18.2,44.7 Z" id="Shape" fill="#033762"></path>
                            <path d="M28.5,53.8 L25.6,53.8 L25.2,52.6 C24.2,49.6 21.3,47.6 18.2,47.6 C18.1,47.6 17.6,47.6 17.2,47.7 C16.2,47.8 15.5,47.8 15.2,47.8 C7.2,47.8 0.6,41.3 0.6,33.2 C0.6,30.1 1.6,27.2 3.4,24.7 L3.6,24.4 C3.8,24.1 4.1,23.8 4.5,23.3 C5.1,22.4 5.4,21.2 5.4,20 C5.4,19.3 5.3,18.6 5,18 C4.5,16.7 3.7,15.6 2.5,14.8 L0.9,13.8 L8.9,3.8 L10.1,4.4 C12,5.3 13.9,5.7 16,5.7 C19.6,5.7 23,4.3 25.6,1.7 L26.8,0.5 L28,1.7 C30.6,4.3 34,5.7 37.6,5.7 C39.6,5.7 41.6,5.2 43.5,4.4 L44.7,3.8 L52.7,13.8 L51.1,14.8 C50,15.5 49.1,16.7 48.6,18 C48.4,18.7 48.2,19.4 48.2,20 C48.2,21.2 48.5,22.4 49.2,23.4 C49.7,23.9 49.9,24.2 50.2,24.5 L50.3,24.6 C52.1,27.1 53.1,30.1 53.1,33.1 C53.1,41.1 46.6,47.7 38.5,47.7 C38.2,47.7 37.5,47.6 36.5,47.6 C36.1,47.6 35.6,47.5 35.5,47.5 C32.4,47.5 29.6,49.5 28.5,52.5 L28.5,53.8 Z M26.3,52.8 L27.8,52.8 L28,52.3 C29.2,48.9 32.4,46.7 35.9,46.7 C36,46.7 36.5,46.7 36.9,46.8 C37.9,46.9 38.6,46.9 38.9,46.9 C46.4,46.9 52.5,40.8 52.5,33.3 C52.5,30.4 51.6,27.7 49.9,25.4 L49.8,25.2 C49.6,24.9 49.4,24.6 48.9,24.1 C48.1,22.9 47.7,21.5 47.7,20.1 C47.7,19.3 47.8,18.5 48.1,17.7 C48.6,16.2 49.6,14.9 51,14 L51.7,13.6 L44.9,5.1 L44.4,5.3 C42.4,6.3 40.3,6.7 38.1,6.7 C34.2,6.7 30.5,5.2 27.8,2.4 L27.3,1.9 L26.8,2.4 C24,5.1 20.4,6.7 16.5,6.7 C14.3,6.7 12.2,6.2 10.2,5.3 L9.7,5.1 L2.9,13.6 L3.6,14 C4.9,14.9 5.9,16.2 6.5,17.7 C6.8,18.5 6.9,19.3 6.9,20.1 C6.9,21.5 6.5,22.9 5.7,24 C5.3,24.5 5,24.8 4.8,25 L4.6,25.2 C2.9,27.6 2,30.3 2,33.2 C2,40.7 8.1,46.8 15.6,46.8 C15.9,46.8 16.6,46.7 17.5,46.7 C17.9,46.7 18.4,46.6 18.5,46.6 C22.1,46.6 25.3,48.9 26.4,52.2 L26.3,52.8 Z M27,50.7 L26.6,50 C24.8,47.1 21.6,45.2 18.2,45.2 C18,45.2 17.8,45.2 17,45.3 C16.1,45.4 15.4,45.4 15.2,45.4 C8.5,45.4 3.1,40 3.1,33.3 C3.1,30.7 3.9,28.3 5.4,26.2 L5.6,26 C5.9,25.6 6.1,25.4 6.4,25 L6.5,24.9 C7.5,23.5 8,21.8 8,20.1 C8,19.2 7.8,18.2 7.5,17.3 C7,15.9 6.2,14.6 5.1,13.6 L4.7,13.3 L9.8,6.9 L10.1,7 C12,7.8 14.1,8.2 16.2,8.2 C20.1,8.2 23.8,6.8 26.7,4.3 L27,4 L27.3,4.3 C30.2,6.8 33.9,8.2 37.8,8.2 C39.9,8.2 41.9,7.8 43.9,7 L44.2,6.9 L49.3,13.3 L48.9,13.6 C47.8,14.6 47,15.8 46.5,17.2 C46.2,18.1 46,19.1 46,20 C46,21.7 46.5,23.4 47.5,24.8 L47.6,24.9 C48.1,25.4 48.2,25.6 48.4,25.9 L48.5,26.1 C50,28.2 50.8,30.6 50.8,33.2 C50.8,39.9 45.4,45.3 38.7,45.3 C38.4,45.3 37.7,45.2 36.9,45.2 C36.2,45.1 35.9,45.1 35.8,45.1 C32.4,45.1 29.1,46.9 27.4,49.9 L27,50.7 Z M18.2,44.2 C21.7,44.2 25,45.9 27.1,48.8 C29.1,45.9 32.5,44.2 36,44.2 C36.2,44.2 36.5,44.2 37.2,44.3 C37.7,44.3 38.7,44.4 38.9,44.4 C45,44.4 50,39.4 50,33.3 C50,31 49.3,28.7 47.9,26.8 L47.7,26.6 C47.5,26.4 47.5,26.2 47,25.8 L46.8,25.5 C45.7,23.9 45.2,22.1 45.2,20.1 C45.2,19 45.4,18 45.7,16.9 C46.2,15.5 47,14.2 48.1,13.2 L44,8.1 C42,8.9 40,9.2 37.9,9.2 C33.9,9.2 30.1,7.8 27.1,5.3 C24.1,7.8 20.2,9.2 16.3,9.2 C14.2,9.2 12.2,8.8 10.2,8.1 L6.1,13.2 C7.2,14.2 8,15.5 8.5,16.9 C8.9,17.9 9,19 9,20.1 C9,22 8.4,23.9 7.4,25.5 L7.2,25.7 C6.9,26 6.7,26.3 6.5,26.5 L6.3,26.8 C4.9,28.7 4.2,30.9 4.2,33.3 C4.2,39.4 9.2,44.4 15.3,44.4 C15.5,44.4 16.4,44.3 16.9,44.3 C17.7,44.2 18,44.2 18.2,44.2 Z" id="Shape" fill="#033762"></path>
                        </g>
                        <g id="number_31" transform="translate(16.000000, 19.000000)" fill-rule="nonzero" fill="#033762">
                            <path d="M6.9,6.9 C9.6,7.1 11.5,8.7 11.5,11.3 C11.5,14.3 9.2,16.5 5.6,16.5 C3.6,16.5 1.5,15.8 0.1,14.7 L1.2,12.5 C2.4,13.6 3.9,14.2 5.4,14.2 C7.6,14.2 8.8,13.1 8.8,11.4 C8.8,9.6 7.5,8.7 5.4,8.7 L3.1,8.7 L3.1,7.1 L7.3,2.5 L0.8,2.5 L0.8,0.1 L10.7,0.1 L10.7,1.8 L6,6.8 L6.9,6.9 Z" id="number_3"></path>
                            <polygon id="number_1" points="16 16.4 16 2.6 12.8 2.6 12.8 0.2 18.7 0.2 18.7 16.5 16 16.5"></polygon>
                        </g>
                    </g>
                    <g id="sign_hwy69-bottom" transform="translate(472.000000, 512.000000)">
                        <g id="shield" fill-rule="nonzero">
                            <path d="M0.3,23.7 C1.66533454e-16,36.7 13.6,45.5 24.4,50.7 C35.5,45.6 49.1,36.7 49,23.5 C48.9,20.3 48.8,17 48.6,13.8 L0.6,13.8 C0.5,17.1 0.4,20.4 0.3,23.7 Z" id="Shape" fill="#033762"></path>
                            <path d="M47.6,1.5 C38.8,5.2 32.1,6.1 25,0.3 C17.9,6.1 10.5,5.6 1.6,1.8 C1.3,4.8 1,7.7 0.8,10.7 L48.4,10.7 C48.2,7.6 48,4.6 47.6,1.5 Z" id="Shape" fill="#00BBF4"></path>
                            <path d="M0.8,10.7 C0.7,11.7 0.7,12.8 0.6,13.8 L48.6,13.8 C48.5,12.8 48.5,11.7 48.4,10.7 L0.8,10.7 Z" id="Shape" fill="#FFFFFF"></path>
                        </g>
                        <g id="number_69" transform="translate(11.000000, 20.000000)" fill-rule="nonzero" fill="#F9F9F9">
                            <path d="M12.3,1.7 L11.2,3.8 C10.2,3.1 8.8,2.8 7.6,2.8 C4.4,2.8 2.9,5.2 3,8.7 C3.9,7.2 5.4,6.4 7.5,6.4 C10.8,6.4 12.8,8.4 12.8,11.6 C12.8,15 10.5,17.1 7,17.1 C2.8,17.1 0.3,14.1 0.3,9.1 C0.3,3.9 3,0.4 7.4,0.4 C9,0.5 11,1 12.3,1.7 Z M3.5,11.7 C3.5,13.1 4.5,14.7 6.9,14.7 C8.9,14.7 10.2,13.6 10.2,11.6 C10.2,9.7 9,8.6 7,8.6 C4.8,8.6 3.5,10 3.5,11.7 Z" id="number_6"></path>
                            <path d="M15.1,15.9 L16.2,13.8 C17.2,14.5 18.6,14.8 19.8,14.8 C23,14.8 24.5,12.4 24.4,8.9 C23.5,10.4 22,11.2 19.9,11.2 C16.6,11.2 14.6,9.2 14.6,6 C14.6,2.6 16.9,0.5 20.4,0.5 C24.5,0.5 27.1,3.5 27.1,8.5 C27.1,13.7 24.4,17.2 20,17.2 C18.4,17.1 16.4,16.6 15.1,15.9 Z M23.9,5.9 C23.9,4.5 22.9,2.9 20.5,2.9 C18.5,2.9 17.2,4 17.2,6 C17.2,7.9 18.4,9 20.4,9 C22.6,9 24,7.6 23.9,5.9 Z" id="number_9"></path>
                        </g>
                    </g>
                    <g id="sign_hwy69-top" transform="translate(620.000000, 111.000000)">
                        <g id="shield" fill-rule="nonzero">
                            <path d="M0.8,24.2 C0.5,37.2 14.1,46 24.9,51.2 C36,46.1 49.6,37.2 49.5,24 C49.4,20.8 49.3,17.5 49.1,14.3 L1.1,14.3 C1,17.6 0.8,20.9 0.8,24.2 Z" id="Shape" fill="#033762"></path>
                            <path d="M48.1,2 C39.3,5.7 32.6,6.6 25.5,0.8 C18.4,6.6 11,6.1 2.1,2.3 C1.8,5.3 1.5,8.2 1.3,11.2 L48.9,11.2 C48.7,8.2 48.5,5.1 48.1,2 Z" id="Shape" fill="#00BBF4"></path>
                            <path d="M1.3,11.2 C1.2,12.2 1.2,13.3 1.1,14.3 L49.1,14.3 C49,13.3 49,12.2 48.9,11.2 L1.3,11.2 L1.3,11.2 Z" id="Shape" fill="#FFFFFF"></path>
                        </g>
                        <g id="number_69" transform="translate(11.000000, 20.000000)" fill-rule="nonzero" fill="#F9F9F9">
                            <path d="M12.8,2.2 L11.7,4.3 C10.7,3.6 9.3,3.3 8.1,3.3 C4.9,3.3 3.4,5.7 3.5,9.2 C4.4,7.7 5.9,6.9 8,6.9 C11.3,6.9 13.3,8.9 13.3,12.1 C13.3,15.5 11,17.6 7.5,17.6 C3.3,17.6 0.8,14.6 0.8,9.6 C0.8,4.4 3.5,0.9 7.9,0.9 C9.5,1 11.5,1.5 12.8,2.2 Z M4,12.2 C4,13.6 5,15.2 7.4,15.2 C9.4,15.2 10.7,14.1 10.7,12.1 C10.7,10.2 9.5,9.1 7.5,9.1 C5.3,9.1 4,10.5 4,12.2 Z" id="number_6"></path>
                            <path d="M15.6,16.4 L16.7,14.3 C17.7,15 19.1,15.3 20.3,15.3 C23.5,15.3 25,12.9 24.9,9.4 C24,10.9 22.5,11.7 20.4,11.7 C17.1,11.7 15.1,9.7 15.1,6.5 C15.1,3.1 17.4,1 20.9,1 C25,1 27.6,4 27.6,9 C27.6,14.2 24.9,17.7 20.5,17.7 C18.9,17.6 16.9,17.2 15.6,16.4 Z M24.4,6.4 C24.4,5 23.4,3.4 21,3.4 C19,3.4 17.7,4.5 17.7,6.5 C17.7,8.4 18.9,9.5 20.9,9.5 C23.1,9.6 24.5,8.1 24.4,6.4 Z" id="number_9"></path>
                        </g>
                    </g>
                    <g id="marion" transform="translate(215.000000, 333.000000)">
                        <rect id="marion_bg" fill="#FFFFFF" fill-rule="nonzero" x="0.9" y="19.5" width="269" height="57.9"></rect>
                        <polygon id="marion_letter-m" fill="#00BBF4" fill-rule="nonzero" points="59.1 67.2 59 42.5 49.9 63.4 43.6 63.4 34.5 42.5 34.5 67.2 25.9 67.2 25.9 29.1 36.5 29.1 46.8 51.7 57.1 29.1 67.6 29.1 67.6 67.2"></polygon>
                        <path d="M83.9,60.2 L81.1,67.2 L71.2,67.2 L87.6,29.2 L97.5,29.2 L113.5,67.2 L103.2,67.2 L100.5,60.2 L83.9,60.2 Z M92.3,38.8 L86.8,52.9 L97.8,52.9 L92.3,38.8 Z" id="marion_letter-a" fill="#00BBF4" fill-rule="nonzero"></path>
                        <path d="M134.4,56.5 L134.1,56.5 L126.8,56.5 L126.8,67.2 L117.1,67.2 L117.1,29.2 L134.1,29.2 C144.1,29.2 149.9,34 149.9,42.5 C149.9,48.3 147.5,52.5 143,54.7 L151,67.2 L140,67.2 L134.4,56.5 Z M134.1,48.9 C138.3,48.9 140.7,46.8 140.7,42.8 C140.7,38.8 138.3,36.8 134.1,36.8 L126.8,36.8 L126.8,48.9 L134.1,48.9 Z" id="marion_letter-r" fill="#00BBF4" fill-rule="nonzero"></path>
                        <polygon id="marion_letter-i" fill="#00BBF4" fill-rule="nonzero" points="156.4 67.2 156.4 29.2 166.1 29.2 166.1 67.2"></polygon>
                        <path d="M212.3,48.2 C212.3,59.3 203.5,67.7 191.7,67.7 C180,67.7 171.2,59.3 171.2,48.2 C171.2,37.1 180,28.9 191.7,28.9 C203.5,28.9 212.3,37.2 212.3,48.2 Z M181.1,48.2 C181.1,54.6 186,59.5 191.9,59.5 C197.8,59.5 202.4,54.6 202.4,48.2 C202.4,41.8 197.7,37 191.9,37 C186.1,37 181.1,41.8 181.1,48.2 Z" id="marion_letter-o" fill="#00BBF4" fill-rule="nonzero"></path>
                        <polygon id="marion_letter-n" fill="#00BBF4" fill-rule="nonzero" points="244 67.2 226.5 43.8 226.5 67.2 217.4 67.2 217.4 29.2 225.9 29.2 243.4 52.7 243.4 29.2 252.4 29.2 252.4 67.2"></polygon>
                        <path d="M285.1,87.6 L296,54.2 L267.6,33.5 L302.7,33.5 L313.6,0.1 L324.5,33.5 L359.6,33.5 L331.2,54.2 L342.1,87.6 L313.7,66.9 L285.1,87.6 Z M313.5,57 L326.7,66.6 L321.7,51.1 L334.9,41.5 L318.6,41.5 L313.6,26 L308.6,41.5 L292.3,41.5 L305.5,51.1 L300.5,66.6 L313.5,57 Z" id="marion_star-outer" fill="#FFFFFF" fill-rule="nonzero"></path>
                        <polygon id="marion_star-inner" fill="#00BBF4" fill-rule="nonzero" points="313.5 13 321.5 37.5 347.2 37.5 326.4 52.6 334.3 77.1 313.5 62 292.7 77.1 300.6 52.6 279.8 37.5 305.5 37.5"></polygon>
                    </g>
                </g>
            </g>
        </g>
    </g>
</svg>