<?xml version="1.0" encoding="UTF-8"?>
<svg width="193px" height="21px" viewBox="0 0 193 21" version="1.1" xmlns="http://www.w3.org/2000/svg" xmlns:xlink="http://www.w3.org/1999/xlink">
    <!-- Generator: Sketch 43.2 (39069) - http://www.bohemiancoding.com/sketch -->
    <title>logo-com-champions-v2</title>
    <desc>Created with Sketch.</desc>
    <defs></defs>
    <g id="Page-1" stroke="none" stroke-width="1" fill="none" fill-rule="evenodd">
        <g id="logo-com-champions-v2" fill-rule="nonzero" fill="#231F20">
            <path d="M13.3,3.7 L10.9,6.4 C10,5.3 8.7,4.5 7.6,4.5 C5.7,4.5 4.3,6 4.3,8.1 C4.3,10.2 5.7,11.7 7.6,11.7 C8.7,11.7 10,11.1 10.9,10.1 L13.3,12.6 C11.8,14.2 9.5,15.3 7.4,15.3 C3.2,15.3 0,12.2 0,8.1 C0,4 3.2,1 7.5,1 C9.6,1.1 11.9,2.1 13.3,3.7 Z" id="line2_city_letter_c"></path>
            <polygon id="line2_city_letter_i" points="15 15 15 1 19.1 1 19.1 15"></polygon>
            <polygon id="line2_city_letter_t" points="28.2 4.3 28.2 15 24 15 24 4.3 20 4.3 20 1 32.3 1 32.3 4.3"></polygon>
            <polygon id="line2_city_letter_y" points="42.2 14.9 38.1 14.9 38.1 10.6 33 1 37.1 1 40.1 6.7 43.1 1 47.2 1 42.2 10.5"></polygon>
            <path d="M51.6612575,14.7 C49.2612575,14.7 47.6612575,12.8 48.0612575,10.4 C48.4612575,8 50.3612575,6 52.8612575,6 C55.1612575,6 56.8612575,7.9 56.4612575,10.3 C56.1612575,12.8 54.1612575,14.7 51.6612575,14.7 Z M52.7612575,7.2 C51.7612575,7.2 51.0612575,8.3 50.6612575,10.5 C50.2612575,12.8 50.6612575,13.8 51.6612575,13.8 C52.6612575,13.8 53.3612575,12.8 53.7612575,10.5 C54.2612575,8.2 53.8612575,7.2 52.7612575,7.2 Z" id="line2_of_letter_o"></path>
            <path d="M64.9,2.5 C64.5,2.5 64.2,2.1 64.1,1.8 C63.9,1.1 63.8,0.8 63.2,0.8 C62.4,0.8 62.1,1.6 61.7,4 L61.3,6.6 L63.1,6.6 L63,7.4 L61.1,7.4 L59.9,14.3 C59,19.1 57.2,20.5 55.2,20.5 C53.8,20.5 53,19.6 53,19 C53,18.4 53.4,18 54,18 C54.4,18 54.7,18.4 54.7,18.7 C54.8,19.3 55,19.7 55.7,19.7 C56.4,19.7 56.6,19.1 57,16.8 L58.7,7.4 L57.3,7.4 L57.4,6.6 L58.9,6.6 L59.3,4.4 C59.7,1.9 61.2,0 63.5,0 C65.1,0 65.9,1 65.9,1.6 C65.9,2.2 65.4,2.5 64.9,2.5 Z" id="line2_of_letter_f"></path>
            <path d="M80.3,3.6 L77.9,6.4 C77,5.3 75.7,4.5 74.6,4.5 C72.7,4.5 71.3,6 71.3,8.1 C71.3,10.2 72.7,11.7 74.6,11.7 C75.7,11.7 77,11.1 77.9,10.1 L80.3,12.6 C78.8,14.2 76.5,15.3 74.4,15.3 C70.2,15.3 67,12.2 67,8.1 C67,4 70.2,1 74.5,1 C76.7,1 78.9,2 80.3,3.6 Z" id="line2_champions_letter_c"></path>
            <polygon id="line2_champions_letter_h" points="91.1 15 91.1 9.8 86.1 9.8 86.1 15 82 15 82 1 86.1 1 86.1 6.6 91.1 6.6 91.1 1 95.2 1 95.2 15"></polygon>
            <path d="M101.1,12.8 L100.3,15 L96,15 L102,1 L106.3,1 L112.1,15 L107.7,15 L106.9,12.8 L101.1,12.8 Z M103.9,5.2 L102.2,9.8 L105.6,9.8 L103.9,5.2 Z" id="line2_champions_letter_a"></path>
            <polygon id="line2_champions_letter_m" points="125.9 15 125.9 6.7 123.1 13.6 120.4 13.6 117.6 6.7 117.6 15 114 15 114 1 118.4 1 121.8 8.7 125.2 1 129.6 1 129.6 15"></polygon>
            <path d="M137.4,1 C141,1 143.1,2.8 143.1,6 C143.1,9.3 141,11.2 137.4,11.2 L135.2,11.2 L135.2,15 L131,15 L131,1 L137.4,1 L137.4,1 Z M135.2,8 L137.2,8 C138.4,8 139.2,7.3 139.2,6.1 C139.2,4.9 138.5,4.2 137.2,4.2 L135.2,4.2 L135.2,8 Z" id="line2_champions_letter_p"></path>
            <polygon id="line2_champions_letter_i" points="144 15 144 1 148.1 1 148.1 15"></polygon>
            <path d="M165.2,8.1 C165.2,12.2 162,15.3 157.6,15.3 C153.2,15.3 150,12.3 150,8.1 C150,4 153.2,1 157.6,1 C162,1 165.2,4 165.2,8.1 Z M154.3,8.1 C154.3,10.2 155.9,11.8 157.7,11.8 C159.5,11.8 161,10.2 161,8.1 C161,6 159.5,4.5 157.7,4.5 C155.8,4.6 154.3,6 154.3,8.1 Z" id="line2_champions_letter_o"></path>
            <polygon id="line2_champions_letter_n" points="175.7 15 169.8 7.2 169.8 15 166 15 166 1 169.5 1 175.4 8.8 175.4 1 179.2 1 179.2 15"></polygon>
            <path d="M192.5,2.5108262 L191,5.7108262 C189.6,4.9108262 187.5,4.1108262 186.4,4.1108262 C185.7,4.1108262 185.2,4.3108262 185.2,4.9108262 C185.2,7.0108262 192.5,5.7108262 192.5,10.8108262 C192.5,13.8108262 189.9,15.2108262 186.7,15.2108262 C184.3,15.2108262 181.7,14.4108262 180,13.0108262 L181.6,9.9108262 C183,11.1108262 185.4,12.0108262 186.8,12.0108262 C187.7,12.0108262 188.2,11.7108262 188.2,11.1108262 C188.2,9.0108262 180.9,10.3108262 180.9,5.4108262 C180.9,2.7108262 183.2,1.0108262 186.7,1.0108262 C188.8,0.910826205 191,1.5108262 192.5,2.5108262 Z" id="line2_champions_letter_s"></path>
        </g>
    </g>
</svg>