<svg viewBox="0 0 200 84" xmlns="http://www.w3.org/2000/svg"><title>Indiana Wesleyan University</title><g fill-rule="nonzero" fill="#000000"><path d="M33.7 44.7H28v.3c1.5.4 1.7 1.5 1.6 2.8-1.3 4.7-3 9.3-5 13.9C22.3 56 20.1 50 18 44.1l-.5 1.1-6 16.5-.2-.1C9 57.1 7 52.3 5.3 47.5c-.3-1.2.1-2.3 1.3-2.8H0c.1.1.2.3.3.4.4.3.9.8 1.3 1.3 3.5 6.7 6.3 13.7 8.5 20.8l.3-.2c1.9-5.9 4-11.9 6.3-17.6 2.2 5.8 4.4 11.7 6.2 17.6l.4.4c.2-.2.3-.4.4-.7 2.1-6.2 4.4-12.3 7.1-18.3.6-1.3 1.6-2.4 2.8-3.3l.1-.4zM56.3 61.9c-.5.8-1.1 1.4-1.9 2-3.7 1.9-8.1 2-12.2 1.7-1-.1-1.9-.9-2.1-2v-8.2l8.3.1c1.6 0 3.3 1 3.9 2.4V52c-.8 1.4-1.9 2.3-3.6 2.4h-8.5v-8.9h8c2.7.2 5.4 1.2 7.1 3.3h.3l-1.1-4.1H35.7c0 .1.1.3.1.4l.9.6c.1.4.3.8.3 1.2v15.4c0 1.6-.7 3.4-2.2 4.2h20.6l1.5-4.7c-.1 0-.4.1-.6.1zM76.6 45.4c-1.6-.6-3.2-1.1-4.9-1.3-2.6-.3-5.4-.3-7.8.8-2 .9-3.5 2.7-4 4.9-.3 3 1.6 5 4.3 5.8 2.9.9 5.9 1.2 8.8 2.1 1.1.3 2.1 1 2.6 2 .7 2.4-.3 4.7-2.6 5.9-4.5 2-12.3.7-13.6-4.7-.6 1.2-1.1 2.5-1.4 3.9 3.8 2.2 8.9 2.8 13.2 2.3 2.2-.1 4.7-1.3 6.1-3 2.5-2.5 1.9-6.6-1-8.4-4-1.5-8-1.2-11.6-3.1-.4-.2-1.5-1.2-1.7-1.8-1.2-3.4 2-5.7 5.2-5.9 3-.1 8.3.9 8.7 4.7l.3.1 1.2-3.4-1.8-.9zM103 61.9l-1 1c-1.9 1.6-4.4 2.2-6.9 2.5h-5.8c-.5 0-.9-.1-1.3-.3-1-.6-1.2-1.8-1.2-2.8V47.1c0-1.1 1.1-1.8 2-2.1v-.3h-6.5c.1.1.1.2.2.3 0 0 1.4.5 1.4 2v15.3c0 2-.8 3.8-2.5 4.3h20.7l1.4-4.6h-.5v-.1zM125.8 61.9c-.5.8-1.1 1.4-1.9 2-3.7 1.9-8.1 2-12.2 1.7-1-.1-1.9-.9-2.1-2v-8.2l8.3.1c1.6 0 3.3 1 3.9 2.4V52c-.8 1.4-1.9 2.3-3.6 2.4h-8.5v-8.9h8c2.7.2 5.4 1.2 7.1 3.3h.3l-1.1-4.1h-18.7c0 .1.1.3.1.4l.9.6c.1.4.3.8.3 1.2v15.4c0 1.6-.7 3.4-2.2 4.2H125l1.5-4.7c-.2 0-.5.1-.7.1zM151.5 44.8l-5.8-.1v.3c.4.1.8.3 1.2.6.9 1.2-.7 3.1-1.5 4l-5.1 5.9c-2.5-2.6-4.8-5.5-6.7-8.5-.4-1 .1-2 1.2-2.2l-7-.1-.1.3c.5.3.9.7 1.3 1 3.2 3.5 6.1 7.3 8.7 11.4v6.5c0 1.2-.8 2.1-2 2.3.1.1.1.3.1.3h6.9l.1-.1c-1-.5-2-1-2-2.1v-7c0-.4.3-.8.5-1.2 2.4-3.2 5-6.2 7.9-9.1l2.4-2v-.2h-.1zM171.7 63.9c-3.8-6.5-7.2-13.2-10.4-19.9h-.3c-3.2 7.4-7.2 14.5-11.9 21.1l-.9.6-.3.9h5.9c-.1-.1-.1-.3-.2-.4-2-.6-1.7-3-.9-4.4l3.1-5.9h8.5l3.4 7.1c.6 1.2.8 2.9-.7 3.4l.1.1h6.9l.1-.3c-1.2-.5-1.9-1.2-2.4-2.3zm-8-8.7h-7.5l-.1-.3 3.9-7.1 3.8 7.1-.1.3zM194 44.8v.1c.3.3.7.5 1.1.6.7.7 1.1 1.7 1.4 2.8v13l-.2-.1c-5.4-5.1-10.4-10.6-15.1-16.4h-5.4v.2c1.2.4 1.8 1.3 2 2.7v14.7c0 1.8-1.1 3.5-2.8 4.1h6.3l.1-.2c-.4-.2-.8-.4-1.2-.7-1-1.2-1.3-2.7-1.4-4.2-.3-4.7-.3-9.5.1-14.2l.6.6c6.1 6.2 12 12.6 17.7 19.3l.3-.4c-.4-6.1-.4-12.3 0-18.4l.6-1.3c.3-.9.9-1.6 1.8-1.8.1-.1.1-.3.1-.3h-6v-.1zM44.9 80.7v-5.2c0-.4 0-.7-.2-1-.1-.3-.3-.5-.7-.6-.1 0-.1-.1-.1-.1 0-.1 0-.1.2-.1h2.2c.6.8 1.2 1.5 1.9 2.1l5 5.4v-5.1c0-.6-.1-1.1-.3-1.5-.2-.3-.4-.6-.6-.7-.1 0-.2-.1-.2-.1-.1 0-.1 0-.1-.1s.1-.1.3-.1h2.3c.2 0 .3.1.3.1l-.2.2c-.2.1-.4.2-.6.5-.2.3-.3.9-.3 1.7v7.2c0 .3-.1.4-.1.4-.1 0-.2-.1-.3-.3-.2-.2-.5-.6-.9-1.1-.6-.7-1.3-1.5-2.1-2.4-.8-.9-1.6-1.7-2.4-2.6-.8-.9-1.5-1.7-2.3-2.5V81c0 .8.1 1.3.3 1.6.2.3.3.5.5.6.1.1.2.1.2.1.1 0 .1 0 .1.1 0 0-.1.1-.2.1H44c-.1 0-.2 0-.2-.1 0 0 .1-.1.2-.1s.3-.1.4-.2c.2-.2.4-.5.5-.8v-1.6zM27.3 80.2v-5c0-.5-.1-.9-.2-1-.1-.2-.2-.2-.3-.3-.2-.1-.2-.1-.2-.2s0-.1.2-.1c.4 0 .8 0 1.1.1H29.4s.1 0 .1.1l-.2.2c-.3.1-.5.4-.5.8-.1.4-.1.9-.1 1.3v3.8c0 1 .3 1.9.8 2.5.6.6 1.1 1 2.3 1 .8 0 1.5-.1 2.1-.3.6-.2 1-.6 1.4-1.2.3-.6.5-1.4.5-2.4v-3.3c0-.7-.1-1.2-.2-1.5-.1-.3-.3-.6-.6-.7-.2-.1-.3-.2-.3-.2l.1-.1h2.6c.1 0 .2 0 .2.1l-.1.1c-.1 0-.1.1-.2.1-.2.1-.3.2-.5.4-.1.2-.2.4-.2.7 0 .3-.1.7-.1 1.2v3.1c0 1.2-.2 2.2-.5 2.8-.4.7-.9 1.1-1.6 1.3-.7.2-1.5.4-2.4.3-1.2 0-2.1-.1-2.8-.4-.7-.3-1.2-.7-1.5-1.2-.3-.6-.4-1.3-.4-2zM31.1 36.2V21.4c0-1.1.2-2.5 1.4-2.8l-.1-.3h-5.7c0 .1.1.3.1.4.7.3 1.3 1.8 1.3 2.5V36c0 1.6-.6 3.5-2.2 4.1l.1.2h6.7l.1-.2c-1.1-.3-1.7-2.3-1.7-3.9zM53.8 18.6v.1c.3.3.7.5 1.1.6.7.7 1.1 1.7 1.4 2.8v13l-.2-.1C50.7 29.8 45.7 24.3 41 18.5h-5.4v.3c1.2.4 1.8 1.3 2 2.7v14.7c0 1.8-1.1 3.5-2.8 4.1h6.3l.1-.2c-.4-.2-.8-.4-1.2-.7-1-1.2-1.3-2.7-1.4-4.2-.3-4.7-.3-9.5.1-14.2l.6.6c6.1 6.2 12 12.6 17.7 19.3l.3-.4c-.4-6.1-.4-12.3 0-18.4l.6-1.3c.3-.9.9-1.6 1.8-1.8.1-.1.1-.3.1-.3h-6v-.1zM76.2 18.6h-14c0 .1.1.3.1.4.2.1.4.3.6.3.7.5 1.1 1.7 1.1 2.5v15.1c0 .9-.3 1.5-1 2.2-.5.5-1.1.6-1.7.9.1.1.1.3.1.4h13.5c1.6 0 3-.4 4.7-1.2 4.5-2.2 7-6.6 6.4-11.1-.5-5.3-4.7-8.8-9.8-9.5zm-1.9 21h-5c-1.3-.3-2.6-.9-2.6-2.2V19.3l8.5.1c1.6 0 3 .8 4.2 1.7 3.6 2.8 3.9 8.4 2.6 12.5-1 3.7-4 5.7-7.7 6zM120.6 37.7c-3.8-6.5-7.2-13.2-10.4-19.9h-.3c-3.2 7.4-7.2 14.5-11.9 21.1l-.9.6-.3.9h5.9c-.1-.1-.1-.3-.2-.4-2-.6-1.7-3-.9-4.4l3.1-5.9h8.5l3.4 7.1c.6 1.2.8 2.9-.7 3.4l.1.1h6.9l.1-.3c-1.2-.5-1.9-1.2-2.4-2.3zm-8-8.7h-7.5l-.1-.3 3.9-7.1 3.8 7.1-.1.3zM142.9 18.6v.1c.3.3.7.5 1.1.6.7.7 1.1 1.7 1.4 2.8v13l-.2-.1c-5.4-5.1-10.4-10.6-15.1-16.4h-5.4v.3c1.2.4 1.8 1.3 2 2.7v14.7c0 1.8-1.1 3.5-2.8 4.1h6.3l.1-.2c-.4-.2-.8-.4-1.2-.7-1-1.2-1.3-2.7-1.4-4.2-.3-4.7-.3-9.5.1-14.2l.6.6c6.1 6.2 12 12.6 17.7 19.3l.3-.4c-.4-6.1-.4-12.3 0-18.4l.6-1.3c.3-.9.9-1.6 1.8-1.8.1-.1.1-.3.1-.3h-6v-.2zM172.9 37.7c-3.8-6.5-7.2-13.2-10.4-19.9h-.3c-3.2 7.4-7.2 14.5-11.9 21.1l-.9.6-.3.9h5.9c-.1-.1-.1-.3-.2-.4-2-.6-1.7-3-.9-4.4l3.1-5.9h8.5l3.4 7.1c.6 1.2.8 2.9-.7 3.4l.1.1h6.9l.1-.3c-1.2-.5-1.9-1.2-2.4-2.3zm-8-8.7h-7.5l-.1-.3 3.9-7.1 3.8 7.1-.1.3z"/><path d="M27.3 80.2v-5c0-.5-.1-.9-.2-1-.1-.2-.2-.2-.3-.3-.2-.1-.2-.1-.2-.2s0-.1.2-.1c.4 0 .8 0 1.1.1H29.4s.1 0 .1.1l-.2.2c-.3.1-.5.4-.5.8-.1.4-.1.9-.1 1.3v3.8c0 1 .3 1.9.8 2.5.6.6 1.4 1 2.6 1 .8 0 1.5-.1 2.1-.3.6-.2 1-.6 1.4-1.2.3-.6.5-1.4.5-2.4v-3.3c0-.7-.1-1.2-.2-1.5-.1-.3-.3-.6-.6-.7-.2-.1-.3-.2-.3-.2l.1-.1h2.3c.1 0 .2 0 .2.1l-.1.1c-.1 0-.1.1-.2.1-.2.1-.3.2-.5.4-.1.2-.2.4-.2.7 0 .3-.1.7-.1 1.2v3.1c0 1.2-.2 2.2-.5 2.8-.4.7-.9 1.1-1.6 1.3-.7.2-1.5.4-2.4.3-1.2 0-2.1-.1-2.8-.4-.7-.3-1.2-.7-1.5-1.2-.3-.6-.4-1.3-.4-2zM44.9 80.7v-5.2c0-.4 0-.7-.2-1-.1-.3-.3-.5-.7-.6-.1 0-.1-.1-.1-.1 0-.1 0-.1.2-.1h2.2c.6.8 1.2 1.5 1.9 2.1l5.1 5.4v-5.1c0-.6-.1-1.1-.3-1.5-.2-.3-.4-.6-.6-.7-.1 0-.2-.1-.2-.1-.1 0-.1 0-.1-.1s.1-.1.3-.1h2.2c.2 0 .3.1.3.1l-.2.2c-.2.1-.4.2-.6.5-.2.3-.3.9-.3 1.7v7.2c0 .3-.1.4-.1.4-.1 0-.2-.1-.3-.3-.2-.2-.5-.6-.9-1.1-.6-.7-1.3-1.5-2.1-2.4-.8-.9-1.6-1.7-2.4-2.6-.8-.9-1.7-1.7-2.4-2.5V81c0 .8.1 1.3.3 1.6.2.3.6.5.8.6.1.1.2.1.2.1.1 0 .1 0 .1.1 0 0 0 .1-.1.1h-2.8c-.1 0-.2 0-.2-.1 0 0 .1-.1.2-.1s.3-.1.4-.2c.2-.2.4-.5.5-.8-.1-.5-.1-1-.1-1.6zM62.3 80.5v-5.4c0-.3 0-.5-.1-.8-.1-.3-.2-.4-.5-.6-.1 0-.1-.1-.1-.1 0-.1.1-.1.2-.1.2 0 .5 0 1.1.1.4 0 .7 0 1.1-.1h.2c.1 0 .1 0 .1.1s0 .1-.1.1c-.3.1-.4.3-.5.5-.1.3-.1.5-.1.8v5.4c0 .7 0 1.3.1 1.8s.3.8.6 1c.1 0 .2.1.2.1h-2.9c-.1 0-.2 0-.2-.1l.2-.2c.2-.2.4-.4.5-.7.1-.3.2-.6.2-1v-.8zM81.1 75.3l-4.3 8.2c0 .1-.1.2-.2.2s-.1-.1-.2-.2l-3.8-7.7c-.2-.5-.5-.8-.7-1.2-.2-.3-.5-.5-.6-.7-.1-.1-.2-.1-.2-.1-.1 0-.1-.1-.1-.1 0-.1.1-.1.1-.1.4 0 .8 0 1.3.1.4 0 .8 0 1.2-.1h.2c.1 0 .1 0 .1.1 0 0 0 .1-.1.1s-.1.1-.2.1-.1.1-.2.2-.1.2-.1.4.2.6.5 1.4l3.3 6 2.8-5.5c.2-.4.3-.7.4-1 .1-.3.1-.5.1-.6 0-.4-.2-.6-.4-.7-.3-.1-.4-.2-.4-.2 0-.1.1-.1.2-.1.4 0 .8 0 1.2.1.4 0 .8 0 1.2-.1.1 0 .2 0 .2.1 0 0 0 .1-.1.1s-.2.1-.3.2c-.4.2-.7.6-.9 1.1zM90.9 78.4v2c0 .6 0 1.2.1 1.8 0 .4.2.7.5.8.3.1.8.2 1.6.1.7 0 1.5 0 2.3-.1.8-.1 1.5-.3 2.2-.7.2-.1.4-.3.5-.4l.4-.4.1-.1s.1 0 .1.1v.2l-.7 1.7h-9.5c0-.1.1-.1.3-.2.2-.1.4-.3.5-.6.1-.3.2-.7.2-1.1v-6.3c0-.3 0-.6-.1-.8-.1-.2-.2-.4-.5-.6-.1 0-.1-.1-.1-.1s0-.1.1-.1H97.2l.3.9c.1.2.1.4.2.6.1.2.1.4.1.4s0 .1-.1.1-.1-.1-.2-.2c-.4-.6-.9-.9-1.6-1.2-.7-.2-1.5-.3-2.4-.3h-2.8V78h1.5c1.1 0 1.9 0 2.4-.1s.9-.2 1.1-.3l.3-.3c.1-.1.1-.2.2-.3l.1-.1c.1 0 .1.1.1.2V79.5c0 .1 0 .1-.1.1 0 0-.1 0-.1-.1s-.1-.2-.2-.3l-.3-.3c-.3-.2-.6-.3-1-.3-.4-.1-.8-.1-1.3-.1h-2.5v-.1zM107.4 74v4.1h2.8c.5 0 1 0 1.5-.1s.9-.3 1.2-.6c.3-.3.5-.8.5-1.4 0-.5-.1-.8-.4-1.1-.3-.3-.6-.5-1-.6-.4-.1-.8-.2-1.2-.2h-3.4V74zm0 4.5v2.2c0 .6 0 1.2.1 1.7s.3.8.6.9c.1 0 .1 0 .2.1.1 0 .1 0 .1.1 0 0-.1.1-.3.1H105.1c-.1 0-.1 0-.1-.1l.1-.1c.1 0 .1-.1.2-.1.3-.1.5-.4.6-.9.1-.5.2-1.2.2-2.2v-5.1c0-.3 0-.5-.1-.8-.1-.3-.2-.4-.5-.5-.2-.1-.2-.1-.2-.2 0 0 .1-.1.3-.1h4.5c1.3 0 2.4.1 3.1.3.7.2 1.3.5 1.5.9.3.4.4.8.4 1.2 0 .5-.2.9-.4 1.2-.3.3-.6.5-1 .7-.4.2-.8.3-1.2.4-.4.1-.7.1-1 .1.6.2 1.1.3 1.4.5.4.2.7.4 1 .7.3.3.5.8.7 1.3.1.3.2.5.3.8.1.3.2.6.4.8.1.3.3.4.5.6.1.1.2.1.3.1.1 0 .1 0 .1.1h-1.8c-.2 0-.3 0-.3-.1-.1 0-.1-.2-.2-.3-.1-.3-.2-.7-.4-1-.1-.4-.3-.7-.4-1.1-.1-.3-.3-.6-.4-.9-.2-.4-.4-.8-.7-1-.3-.2-.6-.4-1.1-.5-.5-.1-1.1-.1-1.9-.1h-1.6v.3zM127.9 79.2l-1.9-.4c-.4-.1-.9-.2-1.4-.4-.5-.2-.9-.4-1.2-.7-.3-.3-.5-.7-.5-1.3 0-.7.2-1.2.6-1.7.4-.4.9-.8 1.6-1 .6-.2 1.4-.3 2.2-.3.7 0 1.3.1 2.1.2.7.2 1.3.4 1.9.7l-.4 1.2c0 .1-.1.2-.1.2 0 .1-.1.1-.1.1s-.1-.1-.1-.3c-.2-.5-.5-.8-.9-1.1-.4-.3-.9-.5-1.4-.6-.5-.1-1-.2-1.3-.2-.4 0-.8.1-1.2.2-.4.1-.7.3-1 .6-.3.3-.4.7-.4 1.2s.2.8.5 1.1c.3.3.7.4 1.2.6.5.1.9.2 1.2.3l1.7.4c.5.1.9.2 1.3.4s.7.5.9.8c.2.3.4.8.4 1.3 0 .6-.2 1.1-.5 1.5-.3.4-.8.7-1.3 1-.5.3-1 .4-1.6.5-.5.1-1 .2-1.5.2-.7 0-1.5-.1-2.3-.3-.8-.2-1.5-.5-2.1-.7-.1 0-.2-.1-.2-.1v-.1l.5-1.5c0-.1.1-.1.1-.1.1 0 .1 0 .1.1.1.6.3 1 .8 1.4.4.4 1 .6 1.6.8.6.2 1.1.2 1.6.2s1-.1 1.5-.2 1-.4 1.3-.7c.4-.3.5-.8.6-1.3 0-.6-.2-1.1-.7-1.4-.4-.3-.9-.5-1.6-.6zM139.4 80.5v-5.4c0-.3 0-.5-.1-.8-.1-.3-.2-.4-.5-.6-.1 0-.1-.1-.1-.1 0-.1.1-.1.2-.1.2 0 .5 0 1.1.1.4 0 .7 0 1.1-.1h.2c.1 0 .1 0 .1.1s0 .1-.1.1c-.2.1-.4.3-.5.5-.1.3-.1.5-.1.8v5.4c0 .7 0 1.3.1 1.8s.3.8.6 1c.1 0 .2.1.2.1h-2.9c-.1 0-.2 0-.2-.1l.2-.2c.2-.2.4-.4.5-.7.1-.3.2-.6.2-1v-.8zM148.7 73.7h9.3l.5 1.7V75.7c-.1 0-.1-.1-.2-.2-.2-.3-.5-.6-.9-.8-.4-.2-.8-.3-1.2-.4-.4-.1-.8-.1-1.2-.1-.3 0-.5 0-.7.1-.2.1-.3.3-.3.5v5.8c0 .9.1 1.6.2 2 .1.4.3.7.6.8.2.1.4.1.4.2 0 0-.1.1-.2.1h-3.3c-.1 0-.2 0-.1-.1 0-.1.1-.1.4-.1.3-.1.5-.4.6-1 .1-.6.2-1.3.2-2.1v-5.5c0-.3-.1-.5-.3-.5-.2-.1-.4-.1-.7-.1-.4 0-.8 0-1.2.1-.4.1-.8.2-1.2.4-.4.2-.7.5-.9.8-.1.1-.1.2-.2.2V75.5l.4-1.8zM170.4 79.1v2.1c0 .6 0 1 .1 1.3.1.3.2.5.3.6.1.1.3.2.4.2.1 0 .2.1.2.1s-.1.1-.2.1h-2.9c-.1 0-.1 0-.1-.1 0 0 .1-.1.2-.1s.2-.1.3-.2c.1-.1.2-.3.3-.6.1-.3.1-.7.1-1.3v-1.9l-2.3-3c-.2-.2-.3-.4-.6-.7-.2-.3-.4-.5-.7-.8-.2-.3-.4-.5-.6-.6-.1-.1-.2-.1-.3-.2-.1-.1-.2-.1-.2-.2s0-.1.1-.1h3c.1 0 .1 0 .1.1H167.3c-.1 0-.2.1-.3.2-.1.1-.1.2-.1.3 0 .4.3.9.9 1.6l2.1 2.6 1.7-2c.1-.2.3-.4.5-.6.2-.3.4-.5.6-.8.2-.3.3-.5.3-.7 0-.2-.1-.3-.2-.4-.1-.1-.2-.2-.3-.2h-.1l-.1-.1c0-.1 0-.1.1-.1h2.5c.1 0 .1.1.1.1s0 .1-.1.2c-.5.4-1 .8-1.5 1.4-.5.5-.9 1-1.3 1.5l-1.7 2.3zM91.1.3l.8.4V3l1.2.5V4l-1.2-.5v4l.8.8c.3.3.7.9.7 1.5s-.1 1.6-.1 1.6-.2-1.8-1.4-1.7c-1 .1-.9.8-.9 1.2 0 .3.2 1.3.9 1.7 1 .6 1.4.9 1.4.9V37s-.1 1.1.2 1.8c.5 1.1 1.6 1.2 1.6 1.2v.6h-7V40s1.4-.1 1.7-1.2c.2-.8.2-1.8.2-1.8V6.1s.2.3.5.6.4.3.4.3V3.3l-1.3-.5v-.4l1.3.5V.3h.2z"/></g></svg>