<svg width="200" height="21" viewBox="0 0 200 21" xmlns="http://www.w3.org/2000/svg"><title>logo-com-champions-v2</title><g fill-rule="nonzero" fill="#000000"><path d="M13.3 2.7l-2.4 2.7C10 4.3 8.7 3.5 7.6 3.5 5.7 3.5 4.3 5 4.3 7.1s1.4 3.6 3.3 3.6c1.1 0 2.4-.6 3.3-1.6l2.4 2.5c-1.5 1.6-3.8 2.7-5.9 2.7-4.2 0-7.4-3.1-7.4-7.2S3.2 0 7.5 0c2.1.1 4.4 1.1 5.8 2.7zM15 15V1h4.1v14M28.2 4.3V15H24V4.3h-4V1h12.3v3.3M42.2 14.9h-4.1v-4.3L33 1h4.1l3 5.7 3-5.7h4.1l-5 9.5M51.6613 14.7c-2.4 0-4-1.9-3.6-4.3.4-2.4 2.3-4.4 4.8-4.4 2.3 0 4 1.9 3.6 4.3-.3 2.5-2.3 4.4-4.8 4.4zm1.1-7.5c-1 0-1.7 1.1-2.1 3.3-.4 2.3 0 3.3 1 3.3s1.7-1 2.1-3.3c.5-2.3.1-3.3-1-3.3z"/><path d="M64.9 2.5c-.4 0-.7-.4-.8-.7-.2-.7-.3-1-.9-1-.8 0-1.1.8-1.5 3.2l-.4 2.6h1.8l-.1.8h-1.9l-1.2 6.9c-.9 4.8-2.7 6.2-4.7 6.2-1.4 0-2.2-.9-2.2-1.5s.4-1 1-1c.4 0 .7.4.7.7.1.6.3 1 1 1s.9-.6 1.3-2.9l1.7-9.4h-1.4l.1-.8h1.5l.4-2.2c.4-2.5 1.9-4.4 4.2-4.4 1.6 0 2.4 1 2.4 1.6 0 .6-.5.9-1 .9zM80.3 2.6l-2.4 2.8c-.9-1.1-2.2-1.9-3.3-1.9-1.9 0-3.3 1.5-3.3 3.6s1.4 3.6 3.3 3.6c1.1 0 2.4-.6 3.3-1.6l2.4 2.5c-1.5 1.6-3.8 2.7-5.9 2.7-4.2 0-7.4-3.1-7.4-7.2S70.2 0 74.5 0c2.2 0 4.4 1 5.8 2.6zM91.1 15V9.8h-5V15H82V1h4.1v5.6h5V1h4.1v14M101.1 12.8l-.8 2.2H96l6-14h4.3l5.8 14h-4.4l-.8-2.2h-5.8zm2.8-7.6l-1.7 4.6h3.4l-1.7-4.6zM125.9 15V6.7l-2.8 6.9h-2.7l-2.8-6.9V15H114V1h4.4l3.4 7.7 3.4-7.7h4.4v14M137.4 1c3.6 0 5.7 1.8 5.7 5 0 3.3-2.1 5.2-5.7 5.2h-2.2V15H131V1h6.4zm-2.2 7h2c1.2 0 2-.7 2-1.9s-.7-1.9-2-1.9h-2V8zM144 15V1h4.1v14M165.2 7.1c0 4.1-3.2 7.2-7.6 7.2-4.4 0-7.6-3-7.6-7.2 0-4.1 3.2-7.1 7.6-7.1 4.4 0 7.6 3 7.6 7.1zm-10.9 0c0 2.1 1.6 3.7 3.4 3.7 1.8 0 3.3-1.6 3.3-3.7s-1.5-3.6-3.3-3.6c-1.9.1-3.4 1.5-3.4 3.6zM175.7 15l-5.9-7.8V15H166V1h3.5l5.9 7.8V1h3.8v14M192.5 2.5108l-1.5 3.2c-1.4-.8-3.5-1.6-4.6-1.6-.7 0-1.2.2-1.2.8 0 2.1 7.3.8 7.3 5.9 0 3-2.6 4.4-5.8 4.4-2.4 0-5-.8-6.7-2.2l1.6-3.1c1.4 1.2 3.8 2.1 5.2 2.1.9 0 1.4-.3 1.4-.9 0-2.1-7.3-.8-7.3-5.7 0-2.7 2.3-4.4 5.8-4.4 2.1-.1 4.3.5 5.8 1.5zM195.4.5v2.4h-.6V.5h-.8V0h2.3v.5h-.9zm3.8 2.4v-2l-.8 1.7h-.4l-.8-1.7v2h-.5V0h.7l.9 1.8.9-1.8h.7v2.9h-.7z"/></g></svg>
