<?xml version="1.0" encoding="UTF-8"?>
<svg width="201px" height="30px" viewBox="0 0 201 30" version="1.1" xmlns="http://www.w3.org/2000/svg" xmlns:xlink="http://www.w3.org/1999/xlink">
    <!-- Generator: Sketch 43.2 (39069) - http://www.bohemiancoding.com/sketch -->
    <title>logo_word-mark</title>
    <desc>Created with Sketch.</desc>
    <defs></defs>
    <g id="Page-1" stroke="none" stroke-width="1" fill="none" fill-rule="evenodd">
        <g id="logo_word-mark" fill-rule="nonzero">
            <g id="word_city" transform="translate(37.000000, 8.000000)" fill="#033762">
                <path d="M14.3,2.79 L11.8,5.69 C11.0197584,4.56684434 9.76546417,3.86591518 8.4,3.79 C7.4487077,3.80128187 6.54429622,4.2048882 5.90058253,4.90540016 C5.25686883,5.60591212 4.93099403,6.54114675 5,7.49 C4.94837208,8.43456135 5.28019098,9.35997405 5.92025905,10.0565187 C6.56032711,10.7530634 7.45445025,11.1617641 8.4,11.19 C9.7109167,11.0857245 10.9300296,10.4761681 11.8,9.49 L14.3,12.09 C12.7230373,13.8016801 10.5260019,14.8101554 8.2,14.89 C6.19580116,14.969745 4.24688149,14.2224529 2.80979454,12.823184 C1.37270759,11.4239151 0.573719117,9.49561252 0.6,7.49 C0.6,3.29 3.9,0.19 8.4,0.19 C10.6167688,0.313013445 12.7134131,1.23695837 14.3,2.79 L14.3,2.79 Z" id="Shape"></path>
                <polygon id="Shape" points="15.7 14.79 15.7 0.39 20 0.39 20 14.79"></polygon>
                <polygon id="Shape" points="29.9 3.79 29.9 14.79 25.6 14.79 25.6 3.79 21.4 3.79 21.4 0.39 34.1 0.39 34.1 3.79"></polygon>
                <polygon id="Shape" points="44.1 14.79 39.8 14.79 39.8 10.29 34.5 0.39 38.8 0.39 42 6.29 45.1 0.39 49.4 0.39 44.1 10.29"></polygon>
            </g>
            <g id="word_marion" transform="translate(108.000000, 8.000000)" fill="#033762">
                <polygon id="Shape" points="13.1 14.79 13.1 6.29 10.2 13.39 7.4 13.39 4.5 6.29 4.5 14.79 0.7 14.79 0.7 0.39 5.3 0.39 8.8 8.39 12.3 0.39 16.9 0.39 16.9 14.79"></polygon>
                <path d="M23.3,12.49 L22.4,14.79 L18,14.79 L24.2,0.39 L28.6,0.39 L34.6,14.79 L30,14.79 L29.2,12.49 L23.3,12.49 Z M26.2,4.69 L24.4,9.39 L27.9,9.39 L26.2,4.69 Z" id="Shape"></path>
                <path d="M42.2,11 L39.9,11 L39.9,14.9 L35.6,14.9 L35.6,0.39 L42.3,0.39 C46.2,0.39 48.4,2.29 48.4,5.49 C48.4980078,7.34611325 47.5784658,9.10856863 46,10.09 L48.9,14.79 L44,14.79 L42.2,11 Z M42.3,7.7 C42.8478299,7.76516065 43.3952866,7.57549621 43.7853914,7.18539142 C44.1754962,6.79528663 44.3651607,6.24782989 44.3,5.7 C44.3651607,5.15217011 44.1754962,4.60471337 43.7853914,4.21460858 C43.3952866,3.82450379 42.8478299,3.63483935 42.3,3.7 L39.8,3.7 L39.8,7.7 L42.3,7.7 Z" id="Shape"></path>
                <polygon id="Shape" points="49.8 14.79 49.8 0.39 54.1 0.39 54.1 14.79"></polygon>
                <path d="M71,7.59 C71,11.79 67.7,14.99 63.1,14.99 C58.5,14.99 55.2,11.89 55.2,7.59 C55.2,3.29 58.5,0.29 63.1,0.29 C67.7,0.29 71,3.39 71,7.59 Z M59.7,7.59 C59.6511941,8.56037867 59.9945177,9.50964355 60.6527567,10.224303 C61.3109957,10.9389625 62.2288888,11.3590187 63.2,11.39 C64.1611671,11.3546079 65.0665569,10.9296381 65.7078926,10.2128512 C66.3492282,9.49606436 66.6712934,8.54917259 66.6,7.59 C66.6712934,6.63082741 66.3492282,5.68393564 65.7078926,4.96714876 C65.0665569,4.25036189 64.1611671,3.82539212 63.2,3.79 C61.2077219,3.92287219 59.6689513,5.59353734 59.7,7.59 L59.7,7.59 Z" id="Shape"></path>
                <polygon id="Shape" points="82.3 14.79 76.2 6.79 76.2 14.79 72.3 14.79 72.3 0.39 76 0.39 82.1 8.49 82.1 0.39 86 0.39 86 14.79"></polygon>
            </g>
            <g id="word_of" transform="translate(87.000000, 8.000000)" fill="#096095">
                <path d="M4.1,15.19 C2.97559594,15.237531 1.89273711,14.7608515 1.16842444,13.8995067 C0.444111771,13.0381619 0.160272869,11.8895793 0.4,10.79 C0.752104618,8.33015006 2.81657792,6.47633731 5.3,6.39 C6.41806189,6.36223785 7.48807459,6.84443235 8.20788095,7.70041829 C8.92768731,8.55640423 9.21916329,9.69327735 9,10.79 C8.74712436,13.3015279 6.62416308,15.2078604 4.1,15.19 Z M5.2,7.39 C4.1,7.39 3.5,8.49 3,10.79 C2.5,13.09 3,14.19 4.1,14.19 C5.2,14.19 5.9,13.09 6.3,10.79 C6.7,8.49 6.4,7.39 5.2,7.39 L5.2,7.39 Z" id="Shape"></path>
                <path d="M17.5,2.69 C17.1037873,2.66914258 16.7732674,2.37993767 16.7,1.99 C16.5,1.29 16.3,0.89 15.8,0.89 C15,0.89 14.7,1.69 14.3,4.19 L13.8,6.79 L15.7,6.79 L15.6,7.69 L13.7,7.69 L12.4,14.79 C11.5,19.79 9.6,21.19 7.6,21.19 C6.1,21.19 5.3,20.29 5.3,19.59 C5.29857862,19.3065122 5.41754803,19.035743 5.62731464,18.8450461 C5.83708124,18.6543492 6.11793003,18.5616473 6.4,18.59 C6.5873108,18.5844049 6.76862796,18.6563564 6.90113578,18.7888642 C7.0336436,18.921372 7.10559515,19.1026892 7.1,19.29 C7.2,19.89 7.5,20.39 8.1,20.39 C8.7,20.39 9,19.79 9.4,17.39 L11.1,7.69 L9.6,7.69 L9.7,6.79 L11.2,6.79 L11.6,4.59 C12,2 13.5,0 16,0 C17.6,0 18.5,1 18.5,1.7 C18.5148855,1.96862078 18.4139604,2.23074545 18.2227719,2.4200221 C18.0315833,2.60929875 17.7684576,2.70758444 17.5,2.69 L17.5,2.69 Z" id="Shape"></path>
            </g>
            <path d="M196.6,22.69 L196.6,24.49 L196.1,24.49 L196.1,22.69 L195.5,22.69 L195.5,22.29 L197.3,22.29 L197.3,22.69 L196.6,22.69 Z M199.6,24.59 L199.6,23 L199,24.4 L198.7,24.4 L198.1,23 L198.1,24.6 L197.7,24.6 L197.7,22.3 L198.2,22.3 L198.9,23.7 L199.6,22.3 L200.1,22.3 L200.1,24.5 L199.6,24.6 L199.6,24.59 Z" id="trademark" fill="#033762"></path>
            <g id="logo_mark">
                <path d="M7.5,14.94 L15,7.44 L15,7.44 L7.62,0.06 C7.55167184,-0.0011145618 7.44832816,-0.0011145618 7.38,0.06 L0,7.44 L7.5,14.94 Z" id="Shape" fill="#096095"></path>
                <path d="M22.51,14.94 L30,7.44 L30,7.44 L22.63,0.06 C22.5616718,-0.0011145618 22.4583282,-0.0011145618 22.39,0.06 L15,7.44 L22.51,14.94 Z" id="Shape" fill="#00BBF4"></path>
                <rect id="Rectangle-path" fill="#0091C4" transform="translate(14.983706, 14.941716) rotate(-45.000000) translate(-14.983706, -14.941716) " x="9.67870596" y="9.63671573" width="10.61" height="10.61"></rect>
                <path d="M7.5,29.89 L7.5,14.94 L0,7.44 L0,22.44 L7.38,29.82 C7.40725516,29.8603876 7.45142821,29.8861552 7.5,29.89 Z" id="Shape" fill="#033762"></path>
                <path d="M22.51,29.89 L22.51,14.94 L15,22.45 L22.38,29.83 C22.415846,29.8633219 22.4613867,29.8843407 22.51,29.89 Z" id="Shape" fill="#033762"></path>
                <path d="M7.5,14.94 L7.5,29.89 C7.54685851,29.8885462 7.59072189,29.8666146 7.62,29.83 L15,22.45 L15,22.45 L7.5,14.94 Z" id="Shape" fill="#2AAFC2"></path>
                <path d="M22.51,29.89 C22.5568585,29.8885462 22.6007219,29.8666146 22.63,29.83 L30,22.45 L30,7.45 L22.5,14.95 L22.51,29.89 Z" id="Shape" fill="#2AAFC2"></path>
            </g>
        </g>
    </g>
</svg>