<svg width="193" height="50" viewBox="0 0 193 50" xmlns="http://www.w3.org/2000/svg"><title>Marion: City of Champions</title><g id="logo-com-champions" fill="#231F20"><path d="M19.7 22.9V9.3L15 20.7h-4.4L6 9.4V23H0V0h7.3l5.5 12.7L18.3 0h7.3v22.9h-5.9z" id="line1_marion_m"/><path d="M35.4 20.2L34 23.9h-7L36.8 1h7l9.4 22.9H46l-1.3-3.7h-9.3zm4.7-12.5l-2.8 7.5h5.6l-2.8-7.5z" id="line1_marion_a"/><path d="M65.4 16.8h-3.6V23H55V0h10.7c6.1 0 9.7 2.9 9.7 8.1 0 3.4-1.4 5.9-3.9 7.3l4.6 7.5h-7.7l-3-6.1zm.3-5.3c2 0 3.2-1.1 3.2-3.2 0-2-1.2-3.1-3.2-3.1h-3.9v6.3h3.9z" id="line1_marion_r"/><path id="line1_marion_i" d="M78 22.9V0h6.8v22.9z"/><path d="M112 11.6015c0 6.7-5.3 11.8-12.5 11.8s-12.5-5-12.5-11.8c0-6.7 5.3-11.6 12.5-11.6 7.2-.1 12.5 4.9 12.5 11.6zm-18 0c0 3.5 2.6 6 5.6 6 3 0 5.4-2.6 5.4-6s-2.4-6-5.4-6c-3-.1-5.6 2.5-5.6 6z" id="line1_marion_o"/><path id="line1_marion_n" d="M129.9 22.9l-9.7-12.7v12.7H114V0h5.8l9.7 12.9V0h6.2v22.9z"/><path d="M13.3 31.7l-2.4 2.7c-.9-1.1-2.2-1.9-3.3-1.9-1.9 0-3.3 1.5-3.3 3.6s1.4 3.6 3.3 3.6c1.1 0 2.4-.6 3.3-1.6l2.4 2.5c-1.5 1.6-3.8 2.7-5.9 2.7-4.2 0-7.4-3.1-7.4-7.2S3.2 29 7.5 29c2.1.1 4.4 1.1 5.8 2.7z" id="line2_city_letter_c"/><path id="line2_city_letter_i" d="M15 44V30h4.1v14z"/><path id="line2_city_letter_t" d="M28.2 33.3V44H24V33.3h-4V30h12.3v3.3z"/><path id="line2_city_letter_y" d="M42.2 43.9h-4.1v-4.3L33 30h4.1l3 5.7 3-5.7h4.1l-5 9.5z"/><path d="M51.6613 43.7c-2.4 0-4-1.9-3.6-4.3.4-2.4 2.3-4.4 4.8-4.4 2.3 0 4 1.9 3.6 4.3-.3 2.5-2.3 4.4-4.8 4.4zm1.1-7.5c-1 0-1.7 1.1-2.1 3.3-.4 2.3 0 3.3 1 3.3s1.7-1 2.1-3.3c.5-2.3.1-3.3-1-3.3z" id="line2_of_letter_o"/><path d="M64.9 31.5c-.4 0-.7-.4-.8-.7-.2-.7-.3-1-.9-1-.8 0-1.1.8-1.5 3.2l-.4 2.6h1.8l-.1.8h-1.9l-1.2 6.9c-.9 4.8-2.7 6.2-4.7 6.2-1.4 0-2.2-.9-2.2-1.5s.4-1 1-1c.4 0 .7.4.7.7.1.6.3 1 1 1s.9-.6 1.3-2.9l1.7-9.4h-1.4l.1-.8h1.5l.4-2.2c.4-2.5 1.9-4.4 4.2-4.4 1.6 0 2.4 1 2.4 1.6 0 .6-.5.9-1 .9z" id="line2_of_letter_f"/><path d="M80.3 31.6l-2.4 2.8c-.9-1.1-2.2-1.9-3.3-1.9-1.9 0-3.3 1.5-3.3 3.6s1.4 3.6 3.3 3.6c1.1 0 2.4-.6 3.3-1.6l2.4 2.5c-1.5 1.6-3.8 2.7-5.9 2.7-4.2 0-7.4-3.1-7.4-7.2s3.2-7.1 7.5-7.1c2.2 0 4.4 1 5.8 2.6z" id="line2_champions_letter_c"/><path id="line2_champions_letter_h" d="M91.1 44v-5.2h-5V44H82V30h4.1v5.6h5V30h4.1v14z"/><path d="M101.1 41.8l-.8 2.2H96l6-14h4.3l5.8 14h-4.4l-.8-2.2h-5.8zm2.8-7.6l-1.7 4.6h3.4l-1.7-4.6z" id="line2_champions_letter_a"/><path id="line2_champions_letter_m" d="M125.9 44v-8.3l-2.8 6.9h-2.7l-2.8-6.9V44H114V30h4.4l3.4 7.7 3.4-7.7h4.4v14z"/><path d="M137.4 30c3.6 0 5.7 1.8 5.7 5 0 3.3-2.1 5.2-5.7 5.2h-2.2V44H131V30h6.4zm-2.2 7h2c1.2 0 2-.7 2-1.9s-.7-1.9-2-1.9h-2V37z" id="line2_champions_letter_p"/><path id="line2_champions_letter_i" d="M144 44V30h4.1v14z"/><path d="M165.2 36.1c0 4.1-3.2 7.2-7.6 7.2-4.4 0-7.6-3-7.6-7.2 0-4.1 3.2-7.1 7.6-7.1 4.4 0 7.6 3 7.6 7.1zm-10.9 0c0 2.1 1.6 3.7 3.4 3.7 1.8 0 3.3-1.6 3.3-3.7s-1.5-3.6-3.3-3.6c-1.9.1-3.4 1.5-3.4 3.6z" id="line2_champions_letter_o"/><path id="line2_champions_letter_n" d="M175.7 44l-5.9-7.8V44H166V30h3.5l5.9 7.8V30h3.8v14z"/><path d="M192.5 31.5108l-1.5 3.2c-1.4-.8-3.5-1.6-4.6-1.6-.7 0-1.2.2-1.2.8 0 2.1 7.3.8 7.3 5.9 0 3-2.6 4.4-5.8 4.4-2.4 0-5-.8-6.7-2.2l1.6-3.1c1.4 1.2 3.8 2.1 5.2 2.1.9 0 1.4-.3 1.4-.9 0-2.1-7.3-.8-7.3-5.7 0-2.7 2.3-4.4 5.8-4.4 2.1-.1 4.3.5 5.8 1.5z" id="line2_champions_letter_s"/></g></svg>
