<svg xmlns="http://www.w3.org/2000/svg" viewBox="0 0 30 44.85"><defs><style>.a{fill:#205783;}.b{fill:#37b2da;}.c{fill:#1a87b2;}.d{fill:#1c304d;}.e{fill:#36a7b2;}</style></defs><title>Artboard 1</title><path class="a" d="M-7.5,14.92,0,7.43-7.37.05a.18.18,0,0,0-.25,0L-15,7.43l7.5,7.49"/><path class="b" d="M7.5,14.92,15,7.43,7.63.05a.18.18,0,0,0-.25,0L0,7.43l7.5,7.49"/><polyline class="c" points="-7.5 14.92 0 22.42 7.5 14.92 0 7.42 -7.5 14.92"/><path class="d" d="M7.5,29.85V14.92L0,22.42,7.38,29.8a.18.18,0,0,0,.12.05"/><path class="e" d="M-7.5,14.92V29.85a.21.21,0,0,0,.13-.05L0,22.42l-7.5-7.5"/><path class="e" d="M7.5,29.85a.21.21,0,0,0,.13-.05L15,22.42v-15L7.5,14.92V29.85"/><path class="a" d="M22.5,14.92,30,7.43,22.63.05a.18.18,0,0,0-.25,0L15,7.43l7.5,7.49"/><polyline class="c" points="22.5 14.92 30 22.42 37.5 14.92 30 7.42 22.5 14.92"/><path class="d" d="M22.5,29.85V14.92L15,7.43v15l7.38,7.38a.18.18,0,0,0,.12.05"/><path class="e" d="M22.5,14.92V29.85a.21.21,0,0,0,.13-.05L30,22.42l-7.5-7.5"/><path class="a" d="M0,37.35l7.5-7.5L.13,22.47a.18.18,0,0,0-.25,0L-7.5,29.85,0,37.35"/><path class="b" d="M15,37.35l7.5-7.5-7.37-7.38a.18.18,0,0,0-.25,0L7.5,29.85l7.5,7.5"/><polyline class="c" points="0 37.35 7.5 44.85 15 37.35 7.5 29.85 0 37.35"/><path class="d" d="M0,52.27V37.35l-7.5-7.5v15l7.38,7.37a.18.18,0,0,0,.12.05"/><path class="d" d="M15,52.27V37.35l-7.5,7.5,7.38,7.37a.18.18,0,0,0,.12.05"/><path class="e" d="M0,37.35V52.27a.21.21,0,0,0,.13-.05L7.5,44.85,0,37.35"/><path class="e" d="M15,52.27a.21.21,0,0,0,.13-.05l7.37-7.37v-15L15,37.35V52.27"/><path class="d" d="M30,7.43V-7.5L22.5-15V0l7.38,7.37a.16.16,0,0,0,.12.06"/><path class="a" d="M30,37.35l7.5-7.5-7.37-7.38a.18.18,0,0,0-.25,0L22.5,29.85l7.5,7.5"/><path class="d" d="M30,52.27V37.35l-7.5-7.5v15l7.38,7.37a.18.18,0,0,0,.12.05"/><polyline class="c" points="0 -7.5 7.5 0 15 -7.5 7.5 -15 0 -7.5"/><path class="d" d="M0,7.43V-7.5L-7.5-15V0L-.12,7.37A.16.16,0,0,0,0,7.43"/><path class="d" d="M15,7.43V-7.5L7.5,0l7.38,7.37a.16.16,0,0,0,.12.06"/><path class="e" d="M0-7.5V7.43a.18.18,0,0,0,.13-.06L7.5,0,0-7.5"/><path class="e" d="M15,7.43a.18.18,0,0,0,.13-.06L22.5,0V-15L15-7.5V7.43"/></svg>