<?xml version="1.0" encoding="utf-8"?>
<!-- Generator: Adobe Illustrator 20.1.0, SVG Export Plug-In . SVG Version: 6.00 Build 0)  -->
<svg version="1.1" id="Layer_1" xmlns="http://www.w3.org/2000/svg" xmlns:xlink="http://www.w3.org/1999/xlink" x="0px" y="0px"
	 viewBox="0 0 800 1200" style="enable-background:new 0 0 800 1200;" xml:space="preserve">
<style type="text/css">
	.st0{fill:#FFFFFF;}
	.st1{clip-path:url(#SVGID_2_);}
	.st2{fill:#D1D1D1;}
	.st3{fill:#033762;}
	.st4{fill:#00BBF4;}
	.st5{fill:#F9F9F9;}
</style>
<g>
	<path class="st0" d="M125.3,55h582c1.9,0,3.5,1.6,3.5,3.5v745.8c0,1.1-0.5,2.1-1.4,2.8l-17.1,13c-1.4,1.1-1.8,3.1-0.8,4.7
		l11.1,17.5c0.7,1.1,0.7,2.5,0,3.7l-6.1,10.2c-1,1.7-0.5,3.8,1.2,4.8l13.7,8.2c1.8,1.1,2.2,3.4,1,5.1l-8.6,11.5
		c-0.7,0.9-0.9,2.1-0.5,3.1l1.6,5.2c0.8,2.6-1.6,5.1-4.3,4.4l-20.3-5.8c-0.9-0.3-2-0.1-2.8,0.4L649.8,910l-19.5,12.1
		c-0.9,0.6-2.1,0.7-3.1,0.3l-7.5-3c-0.6-0.2-1.1-0.6-1.4-1.1l-6.3-7.9c-0.7-0.9-1.8-1.4-2.9-1.3l-30.6,1.8c-1,0.1-1.9,0.5-2.5,1.3
		l-6,7.5c-0.7,0.8-0.9,1.9-0.7,2.9l9,40.4c0.4,1.7-0.5,3.4-2.2,4l-9,3.5c-0.8,0.3-1.4,0.8-1.8,1.5l-7.5,13.3c-0.6,1-1.6,1.6-2.7,1.8
		l-15.1,1.6c-1.3,0.1-2.4,1-2.9,2.2l-11.1,27.9c0,0.1-0.1,0.2-0.2,0.3l-7.1,13.4c-0.5,0.9-1.4,1.6-2.4,1.8l-14,2.6
		c-0.2,0-0.4,0.1-0.6,0.1h-10.2c-1.5,0-2.8,1-3.3,2.4l-4,12.1c-0.1,0.3-0.3,0.6-0.5,0.9l-11.1,15.7c-0.4,0.6-0.6,1.2-0.6,1.9
		l-0.9,29.8c0,0.7-0.3,1.4-0.7,2l-7.8,10.5c-0.3,0.4-0.7,0.8-1.2,1l-18.5,9.3c-1.6,0.8-3.5,0.3-4.4-1.1l-8.3-12.1
		c-0.6-0.9-1.6-1.5-2.7-1.5l-16.1-0.8c-0.8,0-1.5-0.3-2.1-0.9L394,1093c-0.8-0.7-1.2-1.6-1.2-2.6v-19.6c0-1.1-0.6-2.2-1.5-2.9
		l-10.2-7.1c-0.8-0.6-1.8-0.8-2.8-0.5l-7.9,1.8c-1.9,0.4-3.1,2.4-2.6,4.4l0.3,0.9c0.4,1.5,1.8,2.5,3.4,2.5h4.9
		c1.9,0,3.5,1.6,3.5,3.5v2c0,1.9-1.6,3.5-3.5,3.5h-19.8c-1.6,0-3,1.1-3.4,2.6l-1.2,4.4c-0.6,2.1,0.9,4.2,3,4.4h0
		c2.6,0.3,4,3.3,2.5,5.5l-4.6,6.6c-0.7,0.9-1.7,1.5-2.9,1.5h-9.2c-2.1,0-3.7,1.8-3.5,3.9l3.1,26.2c0.2,2.1-1.4,3.9-3.5,3.9h-10.6
		c-1.9,0-3.5,1.6-3.5,3.5v9.1c0,1.4-0.9,2.7-2.2,3.3l-5.5,2.1c-2.4,0.9-5-1-4.7-3.6l0.9-9.4c0.2-2.4-2-4.3-4.3-3.7l-12.7,3.2
		c-1.5,0.4-3-0.3-3.8-1.6l-14.4-23.9c-1.2-1.9-3.9-2.3-5.5-0.7l-14.3,14.3c-0.3,0.3-0.7,0.6-1.2,0.8l-27.6,11
		c-1.1,0.4-1.9,1.4-2.1,2.5l-3.4,15.4c-0.1,0.5-0.4,1-0.7,1.4l-9.2,11.3c-1.6,1.9-4.6,1.7-5.8-0.5l-8.1-14.6c-0.3-0.5-0.7-1-1.2-1.3
		l-48.5-29.5c-1.1-0.6-2.4-0.7-3.5-0.1l-17.7,9.6c-1.5,0.8-3.3,0.4-4.4-0.9l-10.8-13.6c-1.6-2-4.6-1.7-5.8,0.5l-5.5,10.4
		c-0.6,1.2-0.5,2.6,0.2,3.7l7.2,10.1c0.9,1.3,0.9,2.9-0.1,4.2l-6.8,8.8c-1,1.3-2.6,1.7-4.1,1.1l-6.8-2.8c-1.6-0.7-2.4-2.4-2.1-4
		l2.1-8.8c0.6-2.5-1.6-4.7-4.1-4.2l-25.8,5.5c-1.1,0.2-2.3-0.1-3.1-0.9l-13.1-12.3c-1.4-1.3-3.7-1.2-5,0.2l-6.2,6.8
		c-0.9,1-1.2,2.4-0.7,3.6l7.5,19.1c0.5,1.2,0.3,2.5-0.5,3.4l-7.9,10.1c-1.1,1.4-3,1.7-4.5,0.9l-19.4-10.9c-0.7-0.4-1.2-1-1.5-1.7
		l-8.7-20.5c-0.9-2.2,0.5-4.6,2.9-4.8l12.1-1.2c1.8-0.2,3.1-1.7,3.1-3.5v-27c0-0.6-0.1-1.2-0.4-1.7l-4.3-7.8
		c-0.8-1.4-0.5-3.1,0.7-4.2l13.5-12.6c0.4-0.3,0.6-0.7,0.8-1.2l7-16.7c0.4-1,0.4-2.1-0.2-3.1l-9.6-16.7c-0.9-1.6-0.4-3.6,1-4.6
		l18.2-12.7c1.3-0.9,3-0.8,4.2,0.2l2.7,2.2c2.4,1.9,5.9,0.1,5.7-2.9l-0.4-5.5c-0.1-0.9,0.3-1.9,0.9-2.6l16.4-18.1
		c1-1.1,1.2-2.7,0.5-4l-4.1-7.7c-0.9-1.7-0.2-3.9,1.5-4.8l21.9-11c1.6-0.8,2.3-2.7,1.7-4.4l-3.3-8.7c-0.3-0.9-0.3-1.8,0.1-2.7
		l11.8-26.4c0.4-0.8,1-1.4,1.8-1.8l18.1-7.8c1-0.4,1.8-1.3,2-2.4l4.3-18.2c0.2-0.7,0.1-1.4-0.2-2.1l-11.1-27.7
		c-0.3-0.8-0.3-1.8,0-2.6l6.6-16.4c0.5-1.4,0.2-2.9-0.9-3.9L108,834c-0.7-0.7-1.2-1.6-1.2-2.6v-9.3c0-0.7-0.2-1.5-0.7-2.1
		l-11.9-16.2c-0.8-1.1-0.9-2.6-0.2-3.9l16.7-28.1c0.7-1.1,0.6-2.6-0.1-3.7l-10.3-15.8c-0.9-1.4-0.7-3.2,0.5-4.4l7-7
		c0.7-0.7,1.5-1,2.5-1h4.1c1.9,0,3.5-1.6,3.5-3.5l4-678.1C121.8,56.6,123.4,55,125.3,55z"/>
</g>
<g>
	<g>
		<defs>
			<path id="SVGID_1_" d="M170,38.5h582c1.9,0,3.5,1.6,3.5,3.5v745.8c0,1.1-0.5,2.1-1.4,2.8l-17.1,13c-1.4,1.1-1.8,3.1-0.8,4.7
				l11.1,17.5c0.7,1.1,0.7,2.5,0,3.7l-6.1,10.2c-1,1.7-0.5,3.8,1.2,4.8l13.7,8.2c1.8,1.1,2.2,3.4,1,5.1l-8.6,11.5
				c-0.7,0.9-0.9,2.1-0.5,3.1l1.6,5.2c0.8,2.6-1.6,5.1-4.3,4.4l-20.3-5.8c-0.9-0.3-2-0.1-2.8,0.4l-27.7,17.2L675,905.6
				c-0.9,0.6-2.1,0.7-3.1,0.3l-7.5-3c-0.6-0.2-1.1-0.6-1.4-1.1l-6.3-7.9c-0.7-0.9-1.8-1.4-2.9-1.3l-30.6,1.8c-1,0.1-1.9,0.5-2.5,1.3
				l-6,7.5c-0.7,0.8-0.9,1.9-0.7,2.9l9,40.4c0.4,1.7-0.5,3.4-2.2,4l-9,3.5c-0.8,0.3-1.4,0.8-1.8,1.5l-7.5,13.3
				c-0.6,1-1.6,1.6-2.7,1.8l-15.1,1.6c-1.3,0.1-2.4,1-2.9,2.2l-11.1,27.9c0,0.1-0.1,0.2-0.2,0.3l-7.1,13.4c-0.5,0.9-1.4,1.6-2.4,1.8
				l-14,2.6c-0.2,0-0.4,0.1-0.6,0.1H536c-1.5,0-2.8,1-3.3,2.4l-4,12.1c-0.1,0.3-0.3,0.6-0.5,0.9l-11.1,15.7
				c-0.4,0.6-0.6,1.2-0.6,1.9l-0.9,29.8c0,0.7-0.3,1.4-0.7,2l-7.8,10.5c-0.3,0.4-0.7,0.8-1.2,1l-18.5,9.3c-1.6,0.8-3.5,0.3-4.4-1.1
				l-8.3-12.1c-0.6-0.9-1.6-1.5-2.7-1.5l-16.1-0.8c-0.8,0-1.5-0.3-2.1-0.9l-14.9-13.2c-0.8-0.7-1.2-1.6-1.2-2.6v-19.6
				c0-1.1-0.6-2.2-1.5-2.9l-10.2-7.1c-0.8-0.6-1.8-0.8-2.8-0.5l-7.9,1.8c-1.9,0.4-3.1,2.4-2.6,4.4l0.3,0.9c0.4,1.5,1.8,2.5,3.4,2.5
				h4.9c1.9,0,3.5,1.6,3.5,3.5v2c0,1.9-1.6,3.5-3.5,3.5h-19.8c-1.6,0-3,1.1-3.4,2.6l-1.2,4.4c-0.6,2.1,0.9,4.2,3,4.4h0
				c2.6,0.3,4,3.3,2.5,5.5l-4.6,6.6c-0.7,0.9-1.7,1.5-2.9,1.5h-9.2c-2.1,0-3.7,1.8-3.5,3.9l3.1,26.2c0.2,2.1-1.4,3.9-3.5,3.9H371
				c-1.9,0-3.5,1.6-3.5,3.5v9.1c0,1.4-0.9,2.7-2.2,3.3l-5.5,2.1c-2.4,0.9-5-1-4.7-3.6l0.9-9.4c0.2-2.4-2-4.3-4.3-3.7l-12.7,3.2
				c-1.5,0.4-3-0.3-3.8-1.6l-14.4-23.9c-1.2-1.9-3.9-2.3-5.5-0.7L301,1114c-0.3,0.3-0.7,0.6-1.2,0.8l-27.6,11
				c-1.1,0.4-1.9,1.4-2.1,2.5l-3.4,15.4c-0.1,0.5-0.4,1-0.7,1.4l-9.2,11.3c-1.6,1.9-4.6,1.7-5.8-0.5l-8.1-14.6
				c-0.3-0.5-0.7-1-1.2-1.3l-48.5-29.5c-1.1-0.6-2.4-0.7-3.5-0.1l-17.7,9.6c-1.5,0.8-3.3,0.4-4.4-0.9l-10.8-13.6
				c-1.6-2-4.6-1.7-5.8,0.5l-5.5,10.4c-0.6,1.2-0.5,2.6,0.2,3.7l7.2,10.1c0.9,1.3,0.9,2.9-0.1,4.2l-6.8,8.8c-1,1.3-2.6,1.7-4.1,1.1
				l-6.8-2.8c-1.6-0.7-2.4-2.4-2.1-4l2.1-8.8c0.6-2.5-1.6-4.7-4.1-4.2l-25.8,5.5c-1.1,0.2-2.3-0.1-3.1-0.9l-13.1-12.3
				c-1.4-1.3-3.7-1.2-5,0.2l-6.2,6.8c-0.9,1-1.2,2.4-0.7,3.6l7.5,19.1c0.5,1.2,0.3,2.5-0.5,3.4l-7.9,10.1c-1.1,1.4-3,1.7-4.5,0.9
				l-19.4-10.9c-0.7-0.4-1.2-1-1.5-1.7l-8.7-20.5c-0.9-2.2,0.5-4.6,2.9-4.8l12.1-1.2c1.8-0.2,3.1-1.7,3.1-3.5v-27
				c0-0.6-0.1-1.2-0.4-1.7l-4.3-7.8c-0.8-1.4-0.5-3.1,0.7-4.2L70,1065c0.4-0.3,0.6-0.7,0.8-1.2l7-16.7c0.4-1,0.4-2.1-0.2-3.1
				l-9.6-16.7c-0.9-1.6-0.4-3.6,1-4.6l18.2-12.7c1.3-0.9,3-0.8,4.2,0.2l2.7,2.2c2.4,1.9,5.9,0.1,5.7-2.9l-0.4-5.5
				c-0.1-0.9,0.3-1.9,0.9-2.6l16.4-18.1c1-1.1,1.2-2.7,0.5-4l-4.1-7.7c-0.9-1.7-0.2-3.9,1.5-4.8l21.9-11c1.6-0.8,2.3-2.7,1.7-4.4
				l-3.3-8.7c-0.3-0.9-0.3-1.8,0.1-2.7l11.8-26.4c0.4-0.8,1-1.4,1.8-1.8l18.1-7.8c1-0.4,1.8-1.3,2-2.4l4.3-18.2
				c0.2-0.7,0.1-1.4-0.2-2.1L162,853.8c-0.3-0.8-0.3-1.8,0-2.6l6.6-16.4c0.5-1.4,0.2-2.9-0.9-3.9l-15-13.3c-0.7-0.7-1.2-1.6-1.2-2.6
				v-9.3c0-0.7-0.2-1.5-0.7-2.1l-11.9-16.2c-0.8-1.1-0.9-2.6-0.2-3.9l16.7-28.1c0.7-1.1,0.6-2.6-0.1-3.7l-10.3-15.8
				c-0.9-1.4-0.7-3.2,0.5-4.4l7-7c0.7-0.7,1.5-1,2.5-1h4.1c1.9,0,3.5-1.6,3.5-3.5l4-678.1C166.5,40.1,168.1,38.5,170,38.5z"/>
		</defs>
		<clipPath id="SVGID_2_">
			<use xlink:href="#SVGID_1_"  style="overflow:visible;"/>
		</clipPath>
		<g class="st1">
			<g>
				<path class="st2" d="M451.8,633.5c-0.5,0-1,0-1.5-0.1l-9.3-1.8c-3.5-0.7-6.2-3.7-6.5-7.3l-2.4-32.4c0-0.5,0-1,0-1.5l2.9-23.5
					c0.4-3.3,2.7-5.9,5.9-6.8l13.2-3.4c1.6-0.4,3.3-0.3,4.9,0.3l13.8,5.4L484,567c3.4,1.4,5.4,4.9,4.9,8.5c0,0.2,0,0.4,0,0.7
					l3.7,19.1c0.1,0.8,0.2,1.5,0.1,2.3l-1.2,13c0,0.3-0.1,0.7-0.2,1l-2.1,9.4c-0.5,2.4-2.1,4.3-4.2,5.4l-2.6,1.3
					c-0.7,0.3-1.4,0.6-2.1,0.7l-27.1,5C452.8,633.5,452.3,633.5,451.8,633.5z M456.2,562.5c-0.2,0-0.3,0-0.5,0.1l-13.2,3.4
					c-0.8,0.2-1.4,0.9-1.5,1.7l-2.9,23.5c0,0.1,0,0.3,0,0.4l2.4,32.4c0.1,0.9,0.7,1.6,1.6,1.8l9.3,1.8c0.2,0,0.5,0,0.7,0l27.1-5
					c0.2,0,0.4-0.1,0.5-0.2l2.6-1.3c0.5-0.3,0.9-0.8,1-1.3l2.1-9.4c0-0.1,0-0.2,0-0.2l1.2-13c0-0.2,0-0.4,0-0.6l-3.7-19.1
					c0,0,0,0,0,0c-0.2-0.9-0.2-1.8-0.1-2.6c0.1-0.9-0.4-1.8-1.2-2.1l-11.1-4.5l-13.8-5.4C456.7,562.6,456.4,562.5,456.2,562.5z"/>
			</g>
			<g>
				<path class="st2" d="M485.3,573.6c-0.1,0-0.3,0-0.4,0c-1.6-0.2-2.8-1.8-2.5-3.4l0.4-2.7c0.6-4.1,2.4-7.9,5.2-10.9l5.2-5.7
					c3.8-4.2,9.2-6.6,14.8-6.8l18.7-0.5c0.8,0,1.7,0,2.5,0.1l4.6,0.4c4.4,0.4,8.7-1.1,11.8-4.3l6.8-6.8c3.5-3.5,8.1-5.6,12.9-6
					l6.6-0.5c5.6-0.5,10.4-4,12.5-9.2l1.4-3.5c0.7-1.7,1-3.4,1.1-5.2l2.5-127.7c0.1-3.3,1-6.7,2.6-9.6l11.4-20.8
					c0.9-1.6,1.9-3.1,3.2-4.4l12.4-13c0.7-0.8,1.4-1.6,1.9-2.5l12.4-20.1c1.4-2.3,2.2-5,2.2-7.7v-12.5c0-4.5,1.4-8.7,4-12.3l10.3-14
					c1.6-2.2,2.6-4.8,2.8-7.5l0.5-5.8c0.3-3.5,1.5-6.8,3.4-9.7l10.5-15.8c1.2-1.9,2.8-3.5,4.5-4.9l9.6-7.5c3.2-2.5,5.3-6.3,5.6-10.4
					l3.8-44.7c0.2-2.2,0.7-4.4,1.6-6.5l6-13.9c0.8-1.9,1.2-3.9,1.2-6l-0.5-48.8c-0.1-6,2.5-11.7,7-15.7c3.1-2.8,4.9-6.8,4.9-11V8.6
					c0-1.7,1.3-3,3-3s3,1.3,3,3V56c0,5.9-2.5,11.6-7,15.5c-3.2,2.8-5,6.9-4.9,11.2l0.5,48.8c0,2.9-0.5,5.8-1.7,8.5l-6,13.9
					c-0.6,1.5-1,3-1.2,4.6l-3.8,44.7c-0.5,5.8-3.4,11.1-7.9,14.6l-9.6,7.5c-1.3,1-2.3,2.1-3.2,3.5l-10.5,15.8
					c-1.4,2.1-2.2,4.4-2.4,6.9l-0.5,5.8c-0.3,3.8-1.7,7.4-4,10.5l-10.3,14c-1.9,2.5-2.9,5.6-2.9,8.7v12.5c0,3.8-1.1,7.6-3.1,10.9
					L626,333.9c-0.8,1.2-1.7,2.4-2.7,3.5l-12.4,13c-0.9,0.9-1.7,2-2.3,3.1l-11.4,20.8c-1.1,2.1-1.8,4.4-1.8,6.8l-2.5,127.7
					c0,2.5-0.5,5-1.5,7.3l-1.4,3.5c-2.9,7.3-9.7,12.3-17.5,13l-6.6,0.5c-3.5,0.3-6.7,1.8-9.2,4.3l-6.8,6.8c-4.4,4.4-10.5,6.6-16.6,6
					l-4.6-0.4c-0.6-0.1-1.2-0.1-1.8-0.1l-18.7,0.5c-4,0.1-7.8,1.8-10.5,4.8l-5.2,5.7c-2,2.2-3.3,4.9-3.7,7.8l-0.4,2.7
					C488,572.6,486.8,573.6,485.3,573.6z"/>
			</g>
			<g>
				<path class="st2" d="M52.5,745.6c-1.1,0-2.1-0.6-2.6-1.6c-0.8-1.5-0.2-3.3,1.2-4.1l66.6-35.5c2.6-1.4,5.6-2.2,8.5-2.2l27.3-0.5
					c1.5,0,3-0.3,4.5-0.9l8.6-3.4c5.6-2.2,11.9-1.6,16.9,1.6c2.1,1.3,4.4,2,6.8,2h4.8c0.7,0,1.4-0.1,2-0.2l26.8-4.3
					c1-0.2,2-0.2,3-0.2h20.5c1.9,0,3.8-0.4,5.5-1.2l58.2-27.6c2.5-1.2,5.3-1.8,8.1-1.8h27.5c1.6,0,3.1-0.3,4.6-0.8l45.5-17.2
					c0.6-0.2,1.2-0.5,1.8-0.9l36.4-20.7c0.6-0.4,1.2-0.8,1.8-1.2l25.4-20.7c1.7-1.4,3.7-2.5,5.8-3.2l17.7-6.1c2.3-0.8,4.8-1.1,7.2-1
					l7.1,0.4c0.6,0,1.2,0,1.8,0l114.2-9.2l116.1-8.8c5-0.4,10,1.3,13.8,4.5l4.9,4.3c2.5,2.1,5.7,3.2,8.9,3.1l66.5-2.3
					c1.7-0.1,3.4-0.5,5-1.2l4.1-1.9c2.3-1.1,4.8-1.7,7.3-1.8l86.1-3.2c1.7-0.1,3,1.2,3.1,2.9c0.1,1.7-1.2,3-2.9,3.1l-86.1,3.2
					c-1.7,0.1-3.4,0.5-5,1.2l-4.1,1.9c-2.3,1.1-4.8,1.7-7.3,1.8l-66.5,2.3c-4.8,0.2-9.4-1.5-13-4.6l-4.9-4.3c-2.6-2.2-6-3.4-9.4-3.1
					l-116.1,8.8l-114.2,9.2c-0.9,0.1-1.8,0.1-2.6,0l-7.1-0.4c-1.7-0.1-3.3,0.1-4.9,0.7l-17.7,6.1c-1.4,0.5-2.8,1.2-4,2.2l-25.4,20.7
					c-0.8,0.7-1.7,1.3-2.6,1.8l-36.4,20.7c-0.8,0.5-1.7,0.9-2.7,1.2l-45.5,17.2c-2.1,0.8-4.4,1.2-6.7,1.2h-27.5
					c-1.9,0-3.8,0.4-5.5,1.2l-58.2,27.6c-2.5,1.2-5.3,1.8-8.1,1.8h-20.5c-0.7,0-1.4,0.1-2,0.2l-26.8,4.3c-1,0.2-2,0.2-3,0.2h-4.8
					c-3.5,0-7-1-10-2.9c-3.5-2.2-7.8-2.6-11.6-1.1l-8.6,3.4c-2.1,0.8-4.3,1.3-6.5,1.3l-27.3,0.5c-2,0-4,0.6-5.8,1.5l-66.6,35.5
					C53.4,745.5,53,745.6,52.5,745.6z"/>
			</g>
			<g>
				<path class="st2" d="M456.3,562.5c-1.3,0-2.6-0.9-2.9-2.3l-0.7-2.6c-1.1-4.5,0.6-9.1,4.3-11.8l2.1-1.5c1.4-1,2.2-2.6,2.1-4.3
					l-1.9-82.6c0-0.4,0-0.8,0-1.2l1.8-20.6c0.2-2.1,0.9-4,2.1-5.7l6.3-8.6c0.7-0.9,1-2,1-3.1v-6c0-0.6-0.1-1.1-0.3-1.7l-2.4-7.2
					c-0.2-0.6-0.5-1.2-1-1.7l-4.3-5.1c-1.8-2.1-2.7-4.8-2.7-7.5l1.9-83.8c0-0.8-0.1-1.5-0.4-2.2l-6.8-15.9c-0.4-1-0.7-2-0.8-3.1
					l-3.5-28.5c-0.1-1.2-0.7-2.3-1.6-3.2l-6.9-6.5c-2-1.9-3.2-4.4-3.5-7.1l-7-73.6c0-0.3-0.1-0.6-0.2-0.9l-6.6-24.7
					c-0.5-1.8-0.5-3.6-0.1-5.4l2.4-10.5c0.4-1.9,1.4-3.7,2.7-5.1l3.7-4c0.9-1,1.4-2.2,1.4-3.5V98.4c0-0.9-0.2-1.8-0.7-2.6
					c-1.4-2.4-1.8-5.3-1.2-8l0.7-3.3c0.5-2.1-0.4-4.4-2.3-5.5l-10.3-6.6c-3-2-5-5.3-5.1-8.9l-0.4-8.5c0-0.5,0-1.1,0-1.6l3.3-34.1
					c0.2-1.6,1.6-2.9,3.3-2.7c1.6,0.2,2.9,1.6,2.7,3.3l-3.3,34.1c0,0.3,0,0.5,0,0.8l0.4,8.5c0.1,1.7,1,3.2,2.4,4.1l10.3,6.6
					c3.9,2.5,5.9,7.3,4.9,11.9l-0.7,3.3c-0.3,1.3-0.1,2.6,0.6,3.7c1,1.7,1.5,3.6,1.5,5.6V111c0,2.8-1,5.5-3,7.6l-3.7,4
					c-0.6,0.7-1,1.5-1.2,2.4l-2.4,10.5c-0.2,0.8-0.2,1.7,0,2.5l6.6,24.7c0.2,0.6,0.3,1.2,0.3,1.9l7,73.6c0.1,1.3,0.7,2.4,1.6,3.3
					l6.9,6.5c1.9,1.8,3.1,4.2,3.5,6.8l3.5,28.5c0.1,0.5,0.2,1,0.4,1.4l6.8,15.9c0.6,1.5,0.9,3.1,0.9,4.7l-1.9,83.8
					c0,1.3,0.4,2.5,1.2,3.5l4.3,5.1c0.9,1.1,1.6,2.3,2.1,3.7l2.4,7.2c0.4,1.1,0.6,2.3,0.6,3.6v6c0,2.4-0.8,4.7-2.2,6.7l-6.3,8.6
					c-0.6,0.8-0.9,1.7-1,2.7l-1.8,20.6c0,0.2,0,0.4,0,0.6l1.9,82.6c0.1,3.7-1.6,7.2-4.6,9.3l-2.1,1.5c-1.7,1.3-2.5,3.4-2,5.5
					l0.7,2.6c0.4,1.6-0.6,3.2-2.2,3.6C456.8,562.5,456.5,562.5,456.3,562.5z"/>
			</g>
			<g>
				<path class="st2" d="M673.6,286.3c-0.4,0-0.8,0-1.2-0.1l-27.4-2.5c-1.6-0.2-2.9-1.6-2.7-3.3c0.2-1.7,1.6-2.9,3.3-2.7l27.4,2.5
					c2,0.2,4-0.7,5.1-2.4c1.3-2,3.2-3.5,5.5-4.4l12.5-4.7c1-0.4,1.8-1,2.4-1.8l11.6-15.4c0.9-1.1,1.2-2.6,1-4l-2.4-17.4
					c-0.3-2-1.7-3.7-3.6-4.4l-18.8-6.3c-1.6-0.5-2.4-2.2-1.9-3.8c0.5-1.6,2.2-2.4,3.8-1.9l18.8,6.3c4.1,1.4,7.1,4.9,7.7,9.2
					l2.4,17.4c0.4,3-0.4,6-2.2,8.4l-11.6,15.5c-1.3,1.7-3.1,3.1-5.1,3.8l-12.5,4.7c-1.1,0.4-2,1.1-2.6,2.1
					C680.9,284.4,677.3,286.3,673.6,286.3z"/>
			</g>
		</g>
		<g class="st1">
			<path class="st2" d="M549.7,1029.4c-0.2,0-0.5,0-0.7-0.1c-1.6-0.4-2.6-2-2.2-3.6c0,0,1.1-4.6,2.3-9.3c0.7-2.7,1.3-4.8,1.7-6.4
				c0.2-0.9,0.5-1.7,0.7-2.4c-0.1-0.4-0.1-0.8-0.2-1.2c-0.2-1.4-0.5-3.4-0.8-5.8c-0.6-4.8-1.5-11.1-2.3-17.5
				c-1.6-12.7-3.2-25.4-3.2-25.4c0-0.1,0-0.1,0-0.2l-3.3-49.5l-4.5-10.2c0-0.1,0-0.1-0.1-0.2l-6.7-18c-0.3-0.7-0.2-1.5,0-2.1
				l5.7-14.6l-1.9-11.9l-4-27.4c0-0.1,0-0.2,0-0.3l-1.3-38.7l-8.6-17.9l-9.1-4.9c-0.8-0.4-1.3-1.1-1.5-2l-5.3-23.3l-5.8-22
				L483,695.4c-0.2-0.3-0.4-0.7-0.5-1l-18-62.7c-0.5-1.6,0.5-3.3,2.1-3.7c1.6-0.5,3.3,0.5,3.7,2.1l17.8,62.1l15.6,19.5
				c0.3,0.3,0.5,0.7,0.6,1.1l6,22.7c0,0,0,0.1,0,0.1l5,22l8.8,4.7c0.6,0.3,1,0.8,1.3,1.3l9.3,19.3c0.2,0.4,0.3,0.8,0.3,1.2l1.3,39.2
				l4,27.2l2,12.6c0.1,0.5,0,1.1-0.2,1.6l-5.6,14.3l6.2,16.8l4.6,10.6c0.1,0.3,0.2,0.7,0.2,1l3.3,49.9c2.3,18.3,5.8,45.8,6.5,49.9
				c0.1,0.3,0.2,0.7,0.2,1.1c0,0.7-0.2,1.3-0.6,1.8c-0.7,2.4-2.8,10.2-4.5,17.2C552.2,1028.5,551,1029.4,549.7,1029.4z
				 M551.7,1008.5c0,0.2,0.1,0.5,0.2,0.7C551.8,1009,551.8,1008.8,551.7,1008.5z"/>
		</g>
	</g>
	<g>
		<g>
			<path class="st0" d="M462.4,614.5c-8.8,0-16-7.2-16-16s7.2-16,16-16s16,7.2,16,16S471.2,614.5,462.4,614.5z M462.4,590.5
				c-4.4,0-8,3.6-8,8s3.6,8,8,8s8-3.6,8-8S466.8,590.5,462.4,590.5z"/>
		</g>
		<g>
			<circle class="st3" cx="462.4" cy="598.5" r="12"/>
		</g>
	</g>
	<g>
		<circle class="st3" cx="683.4" cy="250.5" r="12"/>
	</g>
	<g>
		<path class="st3" d="M512,245.2v3.2h6.3v2.8H512v5.2h-3.6v-14h10.4v2.8H512z"/>
		<path class="st3" d="M534.7,249.4c0,4.1-3.2,7.2-7.6,7.2c-4.3,0-7.6-3.1-7.6-7.2c0-4.1,3.2-7.1,7.6-7.1
			C531.5,242.3,534.7,245.4,534.7,249.4z M523.2,249.4c0,2.4,1.8,4.2,4,4.2c2.2,0,3.9-1.8,3.9-4.2c0-2.4-1.7-4.1-3.9-4.1
			S523.2,247.1,523.2,249.4z"/>
		<path class="st3" d="M543,252.5L543,252.5h-2.8v3.9h-3.6v-14h6.3c3.7,0,5.8,1.8,5.8,4.9c0,2.1-0.9,3.7-2.5,4.5l2.9,4.6h-4
			L543,252.5z M542.9,249.7c1.5,0,2.4-0.8,2.4-2.3c0-1.5-0.9-2.2-2.4-2.2h-2.7v4.5H542.9z"/>
		<path class="st3" d="M557.5,245.3v11.1H554v-11.1h-4.2v-2.9h12v2.9H557.5z"/>
		<path class="st3" d="M580,256.4l-2.6-9.7l-2.6,9.7h-3.7l-4.6-14h3.8l2.7,10.3l2.7-10.3h3.5l2.7,10.3l2.7-10.3h3.6l-4.6,14H580z"/>
		<path class="st3" d="M591.6,253.9l-1,2.6H587l6-14h3.7l5.9,14h-3.8l-1-2.6H591.6z M594.7,246l-2,5.2h4L594.7,246z"/>
		<path class="st3" d="M610,256.4h-3.5V252l-5.2-9.6h3.6l3.4,6.1l3.3-6.1h3.6l-5.1,9.5V256.4z"/>
		<path class="st3" d="M626.2,256.4l-6.4-8.6v8.6h-3.3v-14h3.1l6.5,8.6v-8.6h3.3v14H626.2z"/>
		<path class="st3" d="M635.7,245.2v2.8h6.7v2.8h-6.7v2.8h7.6v2.8h-11.2v-14h11v2.8H635.7z"/>
	</g>
	<g>
		<path class="st3" d="M274.4,606.4v-14h3.6v14H274.4z"/>
		<path class="st3" d="M290.6,606.4l-6.4-8.6v8.6h-3.3v-14h3.1l6.5,8.6v-8.6h3.3v14H290.6z"/>
		<path class="st3" d="M302.5,592.4c4.4,0,7.4,2.8,7.4,7c0,4.1-3.1,7-7.6,7h-5.9v-14H302.5z M300.1,603.6h2.5c2.2,0,3.7-1.7,3.7-4.1
			c0-2.5-1.6-4.2-3.9-4.2h-2.4V603.6z"/>
		<path class="st3" d="M311.8,606.4v-14h3.6v14H311.8z"/>
		<path class="st3" d="M321.4,603.9l-1,2.6h-3.7l6-14h3.7l5.9,14h-3.8l-1-2.6H321.4z M324.5,596l-2,5.2h4L324.5,596z"/>
		<path class="st3" d="M343.4,606.4l-6.4-8.6v8.6h-3.3v-14h3.1l6.5,8.6v-8.6h3.3v14H343.4z"/>
		<path class="st3" d="M352.5,603.9l-1,2.6h-3.7l6-14h3.7l5.9,14h-3.8l-1-2.6H352.5z M355.6,596l-2,5.2h4L355.6,596z"/>
		<path class="st3" d="M370.8,592.4c3.6,0,5.6,1.8,5.6,4.9c0,3.3-2.1,5.2-5.6,5.2h-2.5v3.9h-3.6v-14H370.8z M368.3,599.7h2.4
			c1.6,0,2.5-0.8,2.5-2.3c0-1.5-0.9-2.2-2.5-2.2h-2.4V599.7z"/>
		<path class="st3" d="M392.5,599.4c0,4.1-3.2,7.2-7.6,7.2c-4.3,0-7.6-3.1-7.6-7.2c0-4.1,3.2-7.1,7.6-7.1
			C389.3,592.3,392.5,595.4,392.5,599.4z M381,599.4c0,2.4,1.8,4.2,4,4.2c2.2,0,3.9-1.8,3.9-4.2c0-2.4-1.7-4.1-3.9-4.1
			C382.8,595.3,381,597.1,381,599.4z"/>
		<path class="st3" d="M403.9,603.5v3h-9.5v-14h3.6v11H403.9z"/>
		<path class="st3" d="M405.6,606.4v-14h3.6v14H405.6z"/>
		<path class="st3" d="M422.9,593.8l-1.3,2.8c-1.5-0.9-3.3-1.5-4.5-1.5c-0.9,0-1.5,0.3-1.5,1c0,2.4,7.4,1,7.4,6.1
			c0,2.8-2.5,4.3-5.6,4.3c-2.3,0-4.7-0.9-6.4-2.2l1.4-2.7c1.4,1.3,3.6,2.1,5.1,2.1c1.1,0,1.8-0.4,1.8-1.2c0-2.5-7.4-1-7.4-6
			c0-2.6,2.2-4.2,5.6-4.2C419.4,592.3,421.4,592.9,422.9,593.8z"/>
	</g>
	<g>
		<g>
			<g>
				<path class="st0" d="M457.4,178c-0.3-0.4-0.3-0.5-1-1.2c-0.8-1.3-1.3-2.8-1.3-4.4c0-0.9,0.2-1.8,0.4-2.6
					c0.6-1.7,1.7-3.1,3.1-4.1l-6-7.5c-2,1-4.2,1.5-6.6,1.5c-4.2,0-8.1-1.7-10.8-4.5c-2.8,2.8-6.6,4.5-10.8,4.5
					c-2.4,0-4.6-0.6-6.6-1.5l-6,7.5c1.5,1,2.6,2.4,3.1,4.1c0.3,0.8,0.4,1.7,0.4,2.6c0,1.6-0.5,3.1-1.3,4.4c-0.5,0.5-0.7,0.8-1,1.2
					c-1.5,2.1-2.5,4.7-2.5,7.5c0,7.1,5.7,12.8,12.8,12.8c0.5,0,2.7-0.2,3-0.2c4,0,7.4,2.6,8.6,6.1h0.5c1.3-3.6,4.6-6.1,8.6-6.1
					c0.3,0,2.4,0.2,3,0.2c7.1,0,12.8-5.7,12.8-12.8C459.8,182.7,458.9,180.1,457.4,178z"/>
			</g>
			<g>
				<path class="st3" d="M436.3,205.4h-2.2l-0.3-0.8c-1.1-3.2-4.1-5.3-7.5-5.3c-0.1,0-0.6,0-1,0.1c-0.9,0.1-1.6,0.1-2,0.1
					c-7.8,0-14.1-6.3-14.1-14.1c0-3,0.9-5.8,2.7-8.2l0,0c0.1-0.1,0.1-0.2,0.2-0.2c0.2-0.3,0.5-0.6,0.8-1c0.7-1.1,1.1-2.3,1.1-3.6
					c0-0.7-0.1-1.5-0.4-2.2c-0.5-1.4-1.4-2.6-2.7-3.4l-1.1-0.7l7.4-9.3l0.9,0.4c1.9,0.9,4,1.4,6.1,1.4c3.8,0,7.3-1.5,10-4.1l0.9-0.9
					l0.9,0.9c2.7,2.7,6.2,4.1,10,4.1c2.1,0,4.2-0.5,6.1-1.4l0.9-0.4l7.4,9.3l-1.1,0.7c-1.2,0.8-2.2,2-2.7,3.4
					c-0.3,0.7-0.4,1.5-0.4,2.2c0,1.3,0.4,2.5,1.1,3.6c0.5,0.6,0.7,0.8,1,1.2c0,0,0.1,0.1,0.1,0.2c1.8,2.4,2.7,5.3,2.7,8.2
					c0,7.8-6.3,14.1-14.1,14.1c-0.3,0-1-0.1-2-0.1c-0.4,0-0.9-0.1-1-0.1c-3.3,0-6.3,2.1-7.4,5.3L436.3,205.4z M426.3,196.9
					c3.7,0,7,1.9,8.9,5c1.9-3.1,5.2-5,8.9-5c0.2,0,0.4,0,1.2,0.1c0.6,0.1,1.5,0.1,1.8,0.1c6.4,0,11.6-5.2,11.6-11.6
					c0-2.5-0.8-4.8-2.2-6.8l0,0c0-0.1-0.1-0.1-0.1-0.2c-0.2-0.2-0.3-0.4-0.8-0.9l-0.1-0.1l-0.1-0.1c-1-1.5-1.5-3.3-1.5-5.1
					c0-1,0.2-2,0.5-3c0.5-1.5,1.4-2.8,2.6-3.9l-4.6-5.7c-2,0.8-4.1,1.2-6.3,1.2c-4,0-7.8-1.4-10.8-4c-3,2.6-6.8,4-10.8,4
					c-2.2,0-4.3-0.4-6.3-1.2l-4.6,5.7c1.2,1,2.1,2.4,2.6,3.9c0.3,1,0.5,2,0.5,3c0,1.8-0.5,3.6-1.5,5.1l-0.1,0.1l-0.1,0.1
					c-0.4,0.4-0.5,0.6-0.8,0.9c-0.1,0.1-0.1,0.2-0.2,0.2c-1.4,2-2.2,4.3-2.2,6.8c0,6.4,5.2,11.6,11.6,11.6c0.2,0,1.2-0.1,1.7-0.1
					C425.9,196.9,426.2,196.9,426.3,196.9z"/>
			</g>
			<g>
				<path class="st3" d="M436.7,205.9h-2.9l-0.4-1.2c-1-3-3.9-5-7-5c-0.1,0-0.5,0-0.9,0.1c-1,0.1-1.7,0.1-2.1,0.1
					c-8,0-14.6-6.5-14.6-14.6c0-3.1,1-6,2.8-8.5l0.2-0.2c0.3-0.3,0.5-0.7,0.9-1.1c0.6-0.9,0.9-2.1,0.9-3.3c0-0.7-0.1-1.4-0.4-2
					c-0.5-1.3-1.3-2.4-2.5-3.2l-1.6-1l8-10l1.2,0.6c1.9,0.9,3.8,1.3,5.9,1.3c3.6,0,7-1.4,9.6-4l1.2-1.2l1.2,1.2c2.6,2.6,6,4,9.6,4
					c2,0,4-0.5,5.9-1.3l1.2-0.6l8,10l-1.6,1c-1.1,0.7-2,1.9-2.5,3.2c-0.2,0.7-0.4,1.4-0.4,2c0,1.2,0.3,2.3,1,3.3
					c0.5,0.6,0.8,0.8,1,1.2l0.1,0.1c1.8,2.5,2.8,5.5,2.8,8.5c0,8-6.5,14.6-14.6,14.6c-0.4,0-1-0.1-2-0.1c-0.4,0-0.9-0.1-1-0.1
					c-3.1,0-5.9,2-7,5L436.7,205.9z M434.4,204.9h1.5l0.2-0.5c1.2-3.4,4.4-5.6,7.9-5.6c0.1,0,0.6,0,1,0.1c0.9,0.1,1.6,0.1,1.9,0.1
					c7.5,0,13.6-6.1,13.6-13.6c0-2.9-0.9-5.6-2.6-7.9l-0.1-0.1c-0.2-0.3-0.4-0.6-0.9-1.1l-0.1-0.1c-0.8-1.2-1.1-2.5-1.1-3.9
					c0-0.8,0.1-1.6,0.4-2.4c0.5-1.5,1.5-2.8,2.9-3.7l0.7-0.4l-6.8-8.5l-0.5,0.2c-2,1-4.1,1.4-6.3,1.4c-3.9,0-7.6-1.5-10.3-4.3
					l-0.5-0.5l-0.5,0.5c-2.8,2.7-6.4,4.3-10.3,4.3c-2.2,0-4.3-0.5-6.3-1.4l-0.5-0.2l-6.8,8.5l0.7,0.4c1.3,0.9,2.3,2.2,2.9,3.7
					c0.3,0.8,0.4,1.6,0.4,2.4c0,1.4-0.4,2.7-1.2,3.9c-0.4,0.5-0.7,0.8-0.9,1l-0.2,0.2c-1.7,2.4-2.6,5.1-2.6,8
					c0,7.5,6.1,13.6,13.6,13.6c0.3,0,1-0.1,1.9-0.1c0.5,0,0.9-0.1,1-0.1c3.6,0,6.8,2.3,7.9,5.6L434.4,204.9z M435.2,202.9l-0.4-0.7
					c-1.8-2.9-5-4.8-8.4-4.8c-0.2,0-0.4,0-1.2,0.1c-0.8,0.1-1.5,0.1-1.8,0.1c-6.7,0-12.1-5.4-12.1-12.1c0-2.6,0.8-5,2.3-7.1l0.2-0.3
					c0.2-0.3,0.4-0.6,0.8-0.9l0.1-0.1c1-1.4,1.5-3.1,1.5-4.8c0-0.9-0.2-1.9-0.5-2.8c-0.5-1.4-1.3-2.7-2.4-3.6l-0.4-0.3l5.1-6.4
					l0.3,0.1c1.9,0.8,4,1.2,6.1,1.2c3.9,0,7.6-1.4,10.5-3.9l0.3-0.3l0.3,0.3c2.9,2.5,6.6,3.9,10.5,3.9c2.1,0,4.1-0.4,6.1-1.2
					l0.3-0.1l5.1,6.4l-0.4,0.3c-1.1,1-1.9,2.3-2.4,3.6c-0.3,0.9-0.5,1.9-0.5,2.8c0,1.7,0.5,3.4,1.5,4.8l0.1,0.1
					c0.5,0.5,0.6,0.7,0.8,1l0.1,0.2c1.5,2.1,2.3,4.6,2.3,7.1c0,6.7-5.4,12.1-12.1,12.1c-0.2,0-0.9-0.1-1.8-0.1
					c-0.8-0.1-1-0.1-1.2-0.1c-3.4,0-6.7,1.8-8.4,4.8L435.2,202.9z M426.3,196.4c3.5,0,6.8,1.7,8.9,4.6c2-2.9,5.4-4.6,8.9-4.6
					c0.2,0,0.5,0,1.2,0.1c0.6,0.1,1.5,0.1,1.7,0.1c6.1,0,11.1-5,11.1-11.1c0-2.3-0.7-4.6-2.1-6.5l-0.1-0.2c-0.2-0.2-0.3-0.4-0.7-0.8
					l-0.2-0.3c-1.1-1.6-1.6-3.4-1.6-5.4c0-1.1,0.2-2.1,0.5-3.2c0.5-1.4,1.3-2.7,2.4-3.7l-4.1-5.1c-2,0.8-4,1.1-6.1,1.1
					c-4,0-7.8-1.4-10.8-3.9c-3,2.5-6.9,3.9-10.8,3.9c-2.1,0-4.1-0.4-6.1-1.1l-4.1,5.1c1.1,1,1.9,2.3,2.4,3.7c0.4,1,0.5,2.1,0.5,3.2
					c0,1.9-0.6,3.8-1.6,5.4l-0.2,0.2c-0.3,0.4-0.5,0.6-0.7,0.9l-0.2,0.2c-1.4,1.9-2.1,4.1-2.1,6.5c0,6.1,5,11.1,11.1,11.1
					c0.2,0,1.2-0.1,1.7-0.1C425.9,196.4,426.1,196.4,426.3,196.4z"/>
			</g>
		</g>
		<g>
			<g>
				<g>
					<path class="st3" d="M431.1,178.1c2.7,0.2,4.6,1.8,4.6,4.4c0,3-2.3,5.2-5.9,5.2c-2,0-4.1-0.7-5.5-1.8l1.1-2.2
						c1.2,1.1,2.7,1.7,4.2,1.7c2.2,0,3.4-1.1,3.4-2.8c0-1.8-1.3-2.7-3.4-2.7h-2.3v-1.6l4.2-4.6H425v-2.4h9.9v1.7l-4.7,5L431.1,178.1
						z"/>
				</g>
			</g>
			<g>
				<g>
					<path class="st3" d="M440.2,187.5v-13.8H437v-2.4h5.9v16.3H440.2z"/>
				</g>
			</g>
		</g>
	</g>
	<g>
		<g>
			<g>
				<path class="st0" d="M561.2,884.8c-0.3-0.4-0.3-0.5-1-1.2c-0.8-1.3-1.3-2.8-1.3-4.4c0-0.9,0.2-1.8,0.4-2.6
					c0.6-1.7,1.7-3.1,3.1-4.1l-6-7.5c-2,1-4.2,1.5-6.6,1.5c-4.2,0-8.1-1.7-10.8-4.5c-2.8,2.8-6.6,4.5-10.8,4.5
					c-2.4,0-4.6-0.6-6.6-1.5l-6,7.5c1.5,1,2.6,2.4,3.1,4.1c0.3,0.8,0.4,1.7,0.4,2.6c0,1.6-0.5,3.1-1.3,4.4c-0.5,0.5-0.7,0.8-1,1.2
					c-1.5,2.1-2.5,4.7-2.5,7.5c0,7.1,5.7,12.8,12.8,12.8c0.5,0,2.7-0.2,3-0.2c4,0,7.4,2.6,8.6,6.1h0.5c1.3-3.6,4.6-6.1,8.6-6.1
					c0.3,0,2.4,0.2,3,0.2c7.1,0,12.8-5.7,12.8-12.8C563.7,889.5,562.8,886.9,561.2,884.8z"/>
			</g>
			<g>
				<path class="st3" d="M540.2,912.3h-2.2l-0.3-0.8c-1.1-3.2-4.1-5.3-7.5-5.3c-0.1,0-0.6,0-1,0.1c-0.9,0.1-1.6,0.1-2,0.1
					c-7.8,0-14.1-6.3-14.1-14.1c0-3,0.9-5.8,2.7-8.2l0,0c0.1-0.1,0.1-0.2,0.2-0.2c0.2-0.3,0.5-0.6,0.8-1c0.7-1.1,1.1-2.3,1.1-3.6
					c0-0.7-0.1-1.5-0.4-2.2c-0.5-1.4-1.4-2.6-2.7-3.4l-1.1-0.7l7.4-9.3l0.9,0.4c1.9,0.9,4,1.4,6.1,1.4c3.8,0,7.3-1.5,10-4.1l0.9-0.9
					l0.9,0.9c2.7,2.7,6.2,4.1,10,4.1c2.1,0,4.2-0.5,6.1-1.4l0.9-0.4l7.4,9.3l-1.1,0.7c-1.2,0.8-2.2,2-2.7,3.4
					c-0.3,0.7-0.4,1.5-0.4,2.2c0,1.3,0.4,2.5,1.1,3.6c0.5,0.6,0.7,0.8,1,1.2c0,0,0.1,0.1,0.1,0.2c1.8,2.4,2.7,5.3,2.7,8.2
					c0,7.8-6.3,14.1-14.1,14.1c-0.3,0-1-0.1-2-0.1c-0.4,0-0.9-0.1-1-0.1c-3.3,0-6.3,2.1-7.4,5.3L540.2,912.3z M530.2,903.7
					c3.7,0,7,1.9,8.9,5c1.9-3.1,5.2-5,8.9-5c0.2,0,0.4,0,1.2,0.1c0.6,0.1,1.5,0.1,1.8,0.1c6.4,0,11.6-5.2,11.6-11.6
					c0-2.5-0.8-4.8-2.2-6.8l0,0c0-0.1-0.1-0.1-0.1-0.2c-0.2-0.2-0.3-0.4-0.8-0.9l-0.1-0.1l-0.1-0.1c-1-1.5-1.5-3.3-1.5-5.1
					c0-1,0.2-2,0.5-3c0.5-1.5,1.4-2.8,2.6-3.9l-4.6-5.7c-2,0.8-4.1,1.2-6.3,1.2c-4,0-7.8-1.4-10.8-4c-3,2.6-6.8,4-10.8,4
					c-2.2,0-4.3-0.4-6.3-1.2l-4.6,5.7c1.2,1,2.1,2.4,2.6,3.9c0.3,1,0.5,2,0.5,3c0,1.8-0.5,3.6-1.5,5.1l-0.1,0.1l-0.1,0.1
					c-0.4,0.4-0.5,0.6-0.8,0.9c-0.1,0.1-0.1,0.2-0.2,0.2c-1.4,2-2.2,4.3-2.2,6.8c0,6.4,5.2,11.6,11.6,11.6c0.2,0,1.2-0.1,1.7-0.1
					C529.7,903.7,530,903.7,530.2,903.7z"/>
			</g>
			<g>
				<path class="st3" d="M540.5,912.8h-2.9l-0.4-1.2c-1-3-3.9-5-7-5c-0.1,0-0.6,0-1,0.1c-1,0.1-1.7,0.1-2,0.1
					c-8,0-14.6-6.5-14.6-14.6c0-3.1,1-6,2.8-8.5l0.2-0.3c0.2-0.3,0.5-0.6,0.9-1.1c0.6-0.9,0.9-2.1,0.9-3.3c0-0.7-0.1-1.4-0.4-2
					c-0.5-1.3-1.3-2.4-2.5-3.2l-1.6-1l8-10l1.2,0.6c1.9,0.9,3.8,1.3,5.9,1.3c3.6,0,7-1.4,9.6-4l1.2-1.2l1.2,1.2c2.6,2.6,6,4,9.6,4
					c2,0,4-0.5,5.9-1.3l1.2-0.6l8,10l-1.6,1c-1.1,0.7-2,1.9-2.5,3.2c-0.2,0.7-0.4,1.4-0.4,2c0,1.2,0.3,2.4,1,3.4
					c0.5,0.5,0.7,0.8,1,1.1l0.1,0.1c1.8,2.5,2.8,5.5,2.8,8.5c0,8-6.5,14.6-14.6,14.6c-0.3,0-1-0.1-2-0.1c-0.4,0-0.9-0.1-1-0.1
					c-3.1,0-5.9,2-7,5L540.5,912.8z M538.3,911.8h1.5l0.2-0.5c1.2-3.4,4.4-5.6,7.9-5.6c0.1,0,0.6,0,1,0.1c1,0.1,1.7,0.1,2,0.1
					c7.5,0,13.6-6.1,13.6-13.6c0-2.9-0.9-5.6-2.6-7.9l-0.1-0.2c-0.2-0.3-0.4-0.6-0.9-1.1c-0.8-1.2-1.2-2.6-1.2-4
					c0-0.8,0.1-1.6,0.4-2.4c0.5-1.5,1.5-2.8,2.9-3.7l0.7-0.4l-6.8-8.5l-0.5,0.2c-2,1-4.1,1.4-6.3,1.4c-3.9,0-7.6-1.5-10.3-4.3
					l-0.5-0.5l-0.5,0.5c-2.8,2.7-6.4,4.3-10.3,4.3c-2.2,0-4.3-0.5-6.3-1.4l-0.5-0.2l-6.8,8.5l0.7,0.4c1.3,0.9,2.3,2.2,2.9,3.7
					c0.3,0.8,0.4,1.6,0.4,2.4c0,1.4-0.4,2.8-1.2,3.9c-0.4,0.5-0.7,0.8-0.9,1l-0.2,0.2c-1.7,2.4-2.6,5.1-2.6,8
					c0,7.5,6.1,13.6,13.6,13.6c0.3,0,1-0.1,1.9-0.1c0.4,0,0.9-0.1,1-0.1c3.6,0,6.8,2.3,7.9,5.6L538.3,911.8z M539,909.7l-0.4-0.7
					c-1.8-2.9-5-4.8-8.4-4.8c-0.2,0-0.4,0-1.2,0.1c-0.9,0.1-1.6,0.1-1.8,0.1c-6.7,0-12.1-5.4-12.1-12.1c0-2.6,0.8-5,2.3-7.1l0.2-0.2
					c0.3-0.4,0.5-0.6,0.8-1l0.1-0.1c1-1.4,1.5-3.1,1.5-4.8c0-0.9-0.2-1.9-0.5-2.8c-0.5-1.4-1.3-2.7-2.4-3.7l-0.4-0.3l5.1-6.4
					l0.3,0.1c1.9,0.8,4,1.2,6.1,1.2c3.9,0,7.6-1.4,10.5-3.9l0.3-0.3l0.3,0.3c2.9,2.5,6.6,3.9,10.5,3.9c2.1,0,4.1-0.4,6.1-1.2
					l0.3-0.1l5.1,6.4l-0.4,0.3c-1.1,1-1.9,2.2-2.4,3.6c-0.3,0.9-0.5,1.9-0.5,2.8c0,1.7,0.5,3.4,1.5,4.8l0.1,0.1
					c0.5,0.5,0.6,0.7,0.8,1l0.1,0.2c1.5,2.1,2.3,4.5,2.3,7.1c0,6.7-5.4,12.1-12.1,12.1c-0.3,0-1-0.1-1.8-0.1c-0.7-0.1-1-0.1-1.1-0.1
					c-3.4,0-6.7,1.8-8.4,4.8L539,909.7z M530.2,903.2c3.5,0,6.8,1.7,8.9,4.6c2-2.9,5.4-4.6,8.9-4.6c0.2,0,0.5,0,1.2,0.1
					c0.5,0,1.5,0.1,1.7,0.1c6.1,0,11.1-5,11.1-11.1c0-2.3-0.7-4.6-2.1-6.5l-0.2-0.2c-0.2-0.2-0.2-0.4-0.7-0.8l-0.2-0.3
					c-1.1-1.6-1.6-3.4-1.6-5.4c0-1.1,0.2-2.1,0.5-3.2c0.5-1.4,1.3-2.7,2.4-3.7l-4.1-5.1c-2,0.8-4,1.1-6.1,1.1c-4,0-7.8-1.4-10.8-3.9
					c-3,2.5-6.9,3.9-10.8,3.9c-2.1,0-4.1-0.4-6.1-1.1l-4.1,5.1c1.1,1,1.9,2.3,2.4,3.7c0.4,1,0.5,2.1,0.5,3.2c0,1.9-0.6,3.8-1.6,5.4
					l-0.2,0.2c-0.3,0.3-0.5,0.6-0.7,0.8l-0.2,0.3c-1.4,1.9-2.1,4.1-2.1,6.5c0,6.1,5,11.1,11.1,11.1c0.2,0,1.1-0.1,1.6-0.1
					C529.7,903.2,530,903.2,530.2,903.2z"/>
			</g>
		</g>
		<g>
			<g>
				<g>
					<path class="st3" d="M534.9,884.9c2.7,0.2,4.6,1.8,4.6,4.4c0,3-2.3,5.2-5.9,5.2c-2,0-4.1-0.7-5.5-1.8l1.1-2.2
						c1.2,1.1,2.7,1.7,4.2,1.7c2.2,0,3.4-1.1,3.4-2.8c0-1.8-1.3-2.7-3.4-2.7h-2.3v-1.6l4.2-4.6h-6.5v-2.4h9.9v1.7l-4.7,5
						L534.9,884.9z"/>
				</g>
			</g>
			<g>
				<g>
					<path class="st3" d="M544,894.4v-13.8h-3.2v-2.4h5.9v16.3H544z"/>
				</g>
			</g>
		</g>
	</g>
	<g>
		<g>
			<path class="st3" d="M521.3,540.7c-0.3,13,13.3,21.8,24.1,27c11.1-5.1,24.7-14,24.6-27.2c-0.1-3.2-0.2-6.5-0.4-9.7h-48
				C521.5,534.1,521.4,537.4,521.3,540.7z"/>
		</g>
		<g>
			<path class="st4" d="M568.6,518.5c-8.8,3.7-15.5,4.6-22.6-1.2c-7.1,5.8-14.5,5.3-23.4,1.5c-0.3,3-0.6,5.9-0.8,8.9h47.6
				C569.2,524.6,569,521.6,568.6,518.5z"/>
		</g>
		<g>
			<path class="st0" d="M521.8,527.7c-0.1,1-0.1,2.1-0.2,3.1h48c-0.1-1-0.1-2.1-0.2-3.1H521.8z"/>
		</g>
		<g>
			<g>
				<path class="st5" d="M544.3,538.7l-1.1,2.1c-1-0.7-2.4-1-3.6-1c-3.2,0-4.7,2.4-4.6,5.9c0.9-1.5,2.4-2.3,4.5-2.3
					c3.3,0,5.3,2,5.3,5.2c0,3.4-2.3,5.5-5.8,5.5c-4.2,0-6.7-3-6.7-8c0-5.2,2.7-8.7,7.1-8.7C541,537.5,543,538,544.3,538.7z
					 M535.5,548.7c0,1.4,1,3,3.4,3c2,0,3.3-1.1,3.3-3.1c0-1.9-1.2-3-3.2-3C536.8,545.6,535.5,547,535.5,548.7z"/>
			</g>
			<g>
				<path class="st5" d="M547.1,552.9l1.1-2.1c1,0.7,2.4,1,3.6,1c3.2,0,4.7-2.4,4.6-5.9c-0.9,1.5-2.4,2.3-4.5,2.3
					c-3.3,0-5.3-2-5.3-5.2c0-3.4,2.3-5.5,5.8-5.5c4.1,0,6.7,3,6.7,8c0,5.2-2.7,8.7-7.1,8.7C550.4,554.1,548.4,553.6,547.1,552.9z
					 M555.9,542.9c0-1.4-1-3-3.4-3c-2,0-3.3,1.1-3.3,3.1c0,1.9,1.2,3,3.2,3C554.6,546,556,544.6,555.9,542.9z"/>
			</g>
		</g>
	</g>
	<g>
		<g>
			<path class="st3" d="M669.8,140.2c-0.3,13,13.3,21.8,24.1,27c11.1-5.1,24.7-14,24.6-27.2c-0.1-3.2-0.2-6.5-0.4-9.7h-48
				C670,133.6,669.8,136.9,669.8,140.2z"/>
		</g>
		<g>
			<path class="st4" d="M717.1,118c-8.8,3.7-15.5,4.6-22.6-1.2c-7.1,5.8-14.5,5.3-23.4,1.5c-0.3,3-0.6,5.9-0.8,8.9h47.6
				C717.7,124.2,717.5,121.1,717.1,118z"/>
		</g>
		<g>
			<path class="st0" d="M670.3,127.2c-0.1,1-0.1,2.1-0.2,3.1h48c-0.1-1-0.1-2.1-0.2-3.1H670.3z"/>
		</g>
		<g>
			<g>
				<path class="st5" d="M692.8,138.2l-1.1,2.1c-1-0.7-2.4-1-3.6-1c-3.2,0-4.7,2.4-4.6,5.9c0.9-1.5,2.4-2.3,4.5-2.3
					c3.3,0,5.3,2,5.3,5.2c0,3.4-2.3,5.5-5.8,5.5c-4.2,0-6.7-3-6.7-8c0-5.2,2.7-8.7,7.1-8.7C689.5,137,691.5,137.5,692.8,138.2z
					 M684,148.2c0,1.4,1,3,3.4,3c2,0,3.3-1.1,3.3-3.1c0-1.9-1.2-3-3.2-3C685.3,145.1,684,146.5,684,148.2z"/>
			</g>
			<g>
				<path class="st5" d="M695.6,152.4l1.1-2.1c1,0.7,2.4,1,3.6,1c3.2,0,4.7-2.4,4.6-5.9c-0.9,1.5-2.4,2.3-4.5,2.3
					c-3.3,0-5.3-2-5.3-5.2c0-3.4,2.3-5.5,5.8-5.5c4.1,0,6.7,3,6.7,8c0,5.2-2.7,8.7-7.1,8.7C698.9,153.6,696.9,153.2,695.6,152.4z
					 M704.4,142.4c0-1.4-1-3-3.4-3c-2,0-3.3,1.1-3.3,3.1c0,1.9,1.2,3,3.2,3C703.1,145.6,704.5,144.1,704.4,142.4z"/>
			</g>
		</g>
	</g>
	<g>
		<g>
			<g>
				<path class="st0" d="M549.1,425.6l10.9-33.4l-28.4-20.7h35.1l10.9-33.4l10.9,33.4h35.1l-28.4,20.7l10.9,33.4l-28.4-20.7
					L549.1,425.6z M577.5,395l13.2,9.6l-5-15.5l13.2-9.6h-16.3l-5-15.5l-5,15.5h-16.3l13.2,9.6l-5,15.5L577.5,395z"/>
			</g>
		</g>
		<g>
			<g>
				<polygon class="st4" points="577.5,351 585.5,375.5 611.2,375.5 590.4,390.6 598.3,415.1 577.5,400 556.7,415.1 564.6,390.6 
					543.8,375.5 569.5,375.5 				"/>
			</g>
		</g>
	</g>
	<g>
		<g>
			<rect x="264.9" y="357.5" class="st0" width="269" height="57.9"/>
		</g>
		<g>
			<path class="st4" d="M323.1,405.2l-0.1-24.7l-9.1,20.9h-6.3l-9.1-20.9v24.7h-8.6v-38.1h10.6l10.3,22.6l10.3-22.6h10.5v38.1H323.1
				z"/>
			<path class="st4" d="M347.9,398.2l-2.8,7h-9.9l16.4-38h9.9l16,38h-10.3l-2.7-7H347.9z M356.3,376.8l-5.5,14.1h11L356.3,376.8z"/>
			<path class="st4" d="M398.4,394.5h-0.3h-7.3v10.7h-9.7v-38h17c10,0,15.8,4.8,15.8,13.3c0,5.8-2.4,10-6.9,12.2l8,12.5h-11
				L398.4,394.5z M398.1,386.9c4.2,0,6.6-2.1,6.6-6.1c0-4-2.4-6-6.6-6h-7.3v12.1H398.1z"/>
			<path class="st4" d="M420.4,405.2v-38h9.7v38H420.4z"/>
			<path class="st4" d="M476.3,386.2c0,11.1-8.8,19.5-20.6,19.5c-11.7,0-20.5-8.4-20.5-19.5c0-11.1,8.8-19.3,20.5-19.3
				C467.5,366.9,476.3,375.2,476.3,386.2z M445.1,386.2c0,6.4,4.9,11.3,10.8,11.3c5.9,0,10.5-4.9,10.5-11.3s-4.7-11.2-10.5-11.2
				S445.1,379.8,445.1,386.2z"/>
			<path class="st4" d="M508,405.2l-17.5-23.4v23.4h-9.1v-38h8.5l17.5,23.5v-23.5h9v38H508z"/>
		</g>
	</g>
</g>
</svg>
