<?xml version="1.0" encoding="UTF-8"?>
<svg width="200px" height="31px" viewBox="0 0 200 31" version="1.1" xmlns="http://www.w3.org/2000/svg" xmlns:xlink="http://www.w3.org/1999/xlink">
    <title>City of Marion logo</title>
    <g id="word_city" transform="translate(38.000000, 8.000000)" fill="#1C304D">
        <path d="M14.92,3.264 L12.372,6.279 C11.439,5.09 10.059,4.305 8.828,4.305 C6.811,4.305 5.283,5.939 5.283,8.126 C5.283,10.312 6.811,11.967 8.828,11.967 C9.974,11.967 11.354,11.288 12.372,10.248 L14.92,12.965 C13.306,14.706 10.865,15.831 8.616,15.831 C4.094,15.831 0.762,12.562 0.762,8.168 C0.762,3.838 4.158,0.633 8.764,0.633 C11.014,0.633 13.413,1.651 14.92,3.264" id="Fill-10"></path>
        <polygon id="Fill-11" points="16.319 15.64 20.734 15.64 20.734 0.76 16.319 0.76"></polygon>
        <polyline id="Fill-12" points="30.921 4.284 30.921 15.64 26.485 15.64 26.485 4.284 22.176 4.284 22.176 0.76 35.252 0.76 35.252 4.284 30.921 4.284"></polyline>
        <polyline id="Fill-13" points="45.566 15.64 41.151 15.64 41.151 11.012 35.696 0.76 40.111 0.76 43.358 6.831 46.521 0.76 50.915 0.76 45.566 10.927 45.566 15.64"></polyline>
    </g>
    <g id="word_marion" transform="translate(112.000000, 8.000000)" fill="#1C304D">
        <polyline id="Fill-14" points="12.888 15.64 12.868 6.831 9.874 14.175 6.988 14.175 3.995 6.831 3.995 15.64 0.11 15.64 0.11 0.76 4.844 0.76 8.431 8.996 12.018 0.76 16.752 0.76 16.752 15.64 12.888 15.64"></polyline>
        <path d="M26.386,5.175 L24.561,10.036 L28.169,10.036 L26.386,5.175 Z M23.329,13.262 L22.438,15.64 L17.895,15.64 L24.242,0.76 L28.785,0.76 L34.919,15.64 L30.207,15.64 L29.337,13.262 L23.329,13.262 L23.329,13.262 Z" id="Fill-15"></path>
        <path d="M43.004,8.231 C44.321,8.231 45.085,7.51 45.085,6.172 C45.085,4.878 44.321,4.156 43.004,4.156 L40.478,4.156 L40.478,8.231 L43.004,8.231 Z M42.813,11.628 L40.478,11.628 L40.478,15.64 L36.063,15.64 L36.063,0.76 L43.004,0.76 C46.995,0.76 49.287,2.67 49.287,6.045 C49.287,8.253 48.396,9.866 46.783,10.779 L49.797,15.64 L44.788,15.64 L42.813,11.628 L42.813,11.628 Z" id="Fill-16"></path>
        <polygon id="Fill-17" points="50.665 15.64 55.08 15.64 55.08 0.76 50.665 0.76"></polygon>
        <path d="M60.896,8.21 C60.896,10.46 62.594,12.137 64.547,12.137 C66.5,12.137 68.071,10.46 68.071,8.21 C68.071,5.961 66.5,4.326 64.547,4.326 C62.573,4.326 60.896,5.961 60.896,8.21 Z M72.592,8.189 C72.592,12.562 69.153,15.831 64.483,15.831 C59.813,15.831 56.375,12.583 56.375,8.189 C56.375,3.816 59.813,0.633 64.483,0.633 C69.153,0.633 72.592,3.838 72.592,8.189 L72.592,8.189 Z" id="Fill-18"></path>
        <polyline id="Fill-19" points="84.243 15.64 77.939 7.361 77.939 15.64 73.884 15.64 73.884 0.76 77.662 0.76 83.967 9.081 83.967 0.76 88 0.76 88 15.64 84.243 15.64"></polyline>
    </g>
    <g id="word_of" transform="translate(89.000000, 8.000000)" fill="#205783">
        <path d="M6.083,7.982 C4.968,7.982 4.299,9.122 3.853,11.501 C3.407,13.905 3.828,15.02 4.968,15.02 C6.058,15.02 6.777,13.905 7.198,11.501 C7.619,9.097 7.248,7.982 6.083,7.982 Z M4.918,16.036 C2.391,16.036 0.656,14.004 1.053,11.501 C1.449,8.998 3.481,6.966 6.132,6.966 C8.635,6.966 10.37,8.998 9.998,11.501 C9.627,14.004 7.57,16.036 4.918,16.036 L4.918,16.036 Z" id="Fill-20"></path>
        <path d="M18.696,3.15 C18.225,3.15 17.953,2.704 17.878,2.382 C17.705,1.663 17.507,1.292 16.962,1.292 C16.119,1.292 15.822,2.159 15.4,4.662 L14.929,7.388 L16.887,7.388 L16.763,8.28 L14.756,8.28 L13.443,15.64 C12.526,20.769 10.543,22.231 8.486,22.231 C6.95,22.231 6.107,21.265 6.107,20.596 C6.107,19.951 6.554,19.53 7.198,19.53 C7.669,19.53 7.892,19.951 7.966,20.274 C8.09,20.893 8.338,21.364 9.007,21.364 C9.676,21.364 9.973,20.769 10.395,18.316 L12.154,8.28 L10.618,8.28 L10.766,7.388 L12.327,7.388 L12.724,5.083 C13.17,2.431 14.731,0.35 17.209,0.35 C18.894,0.35 19.762,1.415 19.762,2.085 C19.762,2.704 19.316,3.15 18.696,3.15" id="Fill-21"></path>
    </g>
    <g id="logo_mark">
        <path d="M7.779,15.518 L15.558,7.739 L7.908,0.089 C7.837,0.017 7.721,0.017 7.65,0.089 L0,7.739 L7.779,15.518" id="Fill-1" fill="#205783"></path>
        <path d="M23.337,15.518 L31.116,7.739 L23.466,0.089 C23.395,0.017 23.279,0.017 23.208,0.089 L15.558,7.739 L23.337,15.518" id="Fill-3" fill="#37B2DA"></path>
        <polyline id="Fill-4" fill="#1A87B2" points="7.779 15.518 15.558 23.297 23.337 15.518 15.558 7.739 7.779 15.518"></polyline>
        <path d="M7.779,31 L7.779,15.518 L0,7.739 L0,23.297 L7.65,30.946 C7.686,30.982 7.732,31 7.779,31" id="Fill-5" fill="#1C304D"></path>
        <path d="M23.337,31 L23.337,15.518 L15.558,23.297 L23.208,30.946 C23.244,30.982 23.29,31 23.337,31" id="Fill-6" fill="#1C304D"></path>
        <path d="M7.779,15.518 L7.779,31 C7.826,31 7.873,30.982 7.908,30.946 L15.558,23.297 L7.779,15.518" id="Fill-7" fill="#36A7B2"></path>
        <path d="M23.337,31 C23.384,31 23.43,30.982 23.466,30.946 L31.116,23.297 L31.116,7.739 L23.337,15.518 L23.337,31" id="Fill-8" fill="#36A7B2"></path>
    </g>
</svg>