<?xml version="1.0" encoding="UTF-8"?>
<svg width="201px" height="31px" viewBox="0 0 201 31" version="1.1" xmlns="http://www.w3.org/2000/svg" xmlns:xlink="http://www.w3.org/1999/xlink">
    <title>logo-com-color</title>
    <defs></defs>
    <g id="Page-1" stroke="none" stroke-width="1" fill="none" fill-rule="evenodd">
        <g id="logo-com-color" fill-rule="nonzero">
            <path d="M7.5,15.7 L15,8.2 L15,8.2 L15,8.2 L7.7,0.7 C7.6,0.6 7.5,0.6 7.4,0.7 L0,8.1 L7.5,15.7 Z" id="Shape" fill="#096095"></path>
            <path d="M22.6,15.7 L30.1,8.2 L30.1,8.2 L22.7,0.8 C22.6,0.7 22.5,0.7 22.4,0.8 L15,8.2 L22.6,15.7 Z" id="Shape" fill="#00BBF4"></path>
            <rect id="Rectangle-path" fill="#0091C4" transform="translate(15.120680, 15.612950) rotate(-45.000000) translate(-15.120680, -15.612950) " x="9.77073131" y="10.2630013" width="10.6998974" height="10.6998974"></rect>
            <path d="M7.5,30.7 L7.5,15.7 L0,8.1 L0,23.2 L7.4,30.6 L7.5,30.7 Z" id="Shape" fill="#033762"></path>
            <path d="M22.6,30.7 L22.6,15.7 L15.1,23.2 L22.5,30.6 C22.5,30.7 22.6,30.7 22.6,30.7 Z" id="Shape" fill="#033762"></path>
            <path d="M7.5,15.7 L7.5,30.7 C7.5,30.7 7.6,30.7 7.6,30.6 L15,23.2 L15,23.2 L15,23.2 L7.5,15.7 Z" id="Shape" fill="#2AAFC2"></path>
            <path d="M22.6,30.7 C22.6,30.7 22.7,30.7 22.7,30.6 L30.1,23.2 L30.1,8.1 L22.6,15.6 L22.6,30.7 Z" id="Shape" fill="#2AAFC2"></path>
            <path d="M51.3,11.5 L48.8,14.4 C47.9,13.2 46.6,12.5 45.4,12.5 C43.4,12.5 42,14.1 42,16.2 C42,18.3 43.5,19.9 45.4,19.9 C46.5,19.9 47.9,19.2 48.8,18.2 L51.3,20.8 C49.7,22.5 47.4,23.6 45.2,23.6 C40.8,23.6 37.6,20.4 37.6,16.2 C37.6,12 40.9,8.9 45.4,8.9 C47.5,9 49.9,10 51.3,11.5 Z" id="Shape" fill="#033762"></path>
            <polygon id="Shape" fill="#033762" points="52.7 23.5 52.7 9.1 57 9.1 57 23.5"></polygon>
            <polygon id="Shape" fill="#033762" points="66.9 12.5 66.9 23.5 62.6 23.5 62.6 12.5 58.4 12.5 58.4 9.1 71.1 9.1 71.1 12.5"></polygon>
            <polygon id="Shape" fill="#033762" points="81.1 23.5 76.8 23.5 76.8 19 71.5 9.1 75.8 9.1 79 15 82.1 9.1 86.4 9.1 81.1 19"></polygon>
            <polygon id="Shape" fill="#033762" points="121.1 23.5 121.1 15 118.2 22.1 115.4 22.1 112.5 15 112.5 23.5 108.7 23.5 108.7 9.1 113.3 9.1 116.8 17.1 120.3 9.1 124.9 9.1 124.9 23.5"></polygon>
            <path d="M131.3,21.2 L130.4,23.5 L126,23.5 L132.2,9.1 L136.6,9.1 L142.6,23.5 L138,23.5 L137.2,21.2 L131.3,21.2 Z M134.2,13.4 L132.4,18.1 L135.9,18.1 L134.2,13.4 Z" id="Shape" fill="#033762"></path>
            <path d="M150.2,19.7 L147.9,19.7 L147.9,23.6 L143.6,23.6 L143.6,9.1 L150.3,9.1 C154.2,9.1 156.4,11 156.4,14.2 C156.4,16.3 155.5,17.9 154,18.8 L156.9,23.5 L152,23.5 L150.2,19.7 Z M150.3,16.4 C151.6,16.4 152.3,15.7 152.3,14.4 C152.3,13.1 151.6,12.4 150.3,12.4 L147.8,12.4 L147.8,16.4 L150.3,16.4 Z" id="Shape" fill="#033762"></path>
            <polygon id="Shape" fill="#033762" points="157.8 23.5 157.8 9.1 162.1 9.1 162.1 23.5"></polygon>
            <path d="M179,16.3 C179,20.5 175.7,23.7 171.1,23.7 C166.5,23.7 163.2,20.6 163.2,16.3 C163.2,12.1 166.5,9 171.1,9 C175.7,9 179,12.1 179,16.3 Z M167.7,16.3 C167.7,18.5 169.3,20.1 171.2,20.1 C173.1,20.1 174.6,18.5 174.6,16.3 C174.6,14.1 173.1,12.5 171.2,12.5 C169.3,12.6 167.7,14.2 167.7,16.3 Z" id="Shape" fill="#033762"></path>
            <polygon id="Shape" fill="#033762" points="190.3 23.5 184.2 15.5 184.2 23.5 180.3 23.5 180.3 9.1 184 9.1 190.1 17.2 190.1 9.1 194 9.1 194 23.5"></polygon>
            <path d="M91.1,23.9 C88.6,23.9 87,21.9 87.4,19.5 C87.8,17.1 89.8,15.1 92.3,15.1 C94.7,15.1 96.4,17.1 96,19.5 C95.7,22 93.7,23.9 91.1,23.9 Z M92.2,16.1 C91.1,16.1 90.5,17.2 90,19.5 C89.6,21.8 90,22.9 91.1,22.9 C92.2,22.9 92.9,21.8 93.3,19.5 C93.7,17.2 93.4,16.1 92.2,16.1 Z" id="Shape" fill="#096095"></path>
            <path d="M104.5,11.4 C104,11.4 103.8,11 103.7,10.7 C103.5,10 103.3,9.6 102.8,9.6 C102,9.6 101.7,10.4 101.3,12.9 L100.8,15.5 L102.7,15.5 L102.6,16.4 L100.7,16.4 L99.4,23.5 C98.5,28.5 96.6,29.9 94.6,29.9 C93.1,29.9 92.3,29 92.3,28.3 C92.3,27.7 92.7,27.3 93.4,27.3 C93.9,27.3 94.1,27.7 94.1,28 C94.2,28.6 94.5,29.1 95.1,29.1 C95.7,29.1 96,28.5 96.4,26.1 L98.1,16.4 L96.6,16.4 L96.7,15.5 L98.2,15.5 L98.6,13.3 C99,10.7 100.5,8.7 103,8.7 C104.6,8.7 105.5,9.7 105.5,10.4 C105.5,11 105.1,11.4 104.5,11.4 Z" id="Shape" fill="#096095"></path>
            <path d="M196.6,23.4 L196.6,25.2 L196.1,25.2 L196.1,23.4 L195.5,23.4 L195.5,23 L197.3,23 L197.3,23.4 L196.6,23.4 Z M199.6,25.3 L199.6,23.7 L199,25.1 L198.7,25.1 L198.1,23.7 L198.1,25.3 L197.7,25.3 L197.7,23 L198.2,23 L198.9,24.4 L199.6,23 L200.1,23 L200.1,25.2 L199.6,25.2 L199.6,25.3 Z" id="Shape" fill="#033762"></path>
        </g>
    </g>
</svg>