<?xml version="1.0" encoding="utf-8"?>
<!-- Generator: Adobe Illustrator 20.1.0, SVG Export Plug-In . SVG Version: 6.00 Build 0)  -->
<svg version="1.1" id="Layer_1" xmlns="http://www.w3.org/2000/svg" xmlns:xlink="http://www.w3.org/1999/xlink" x="0px" y="0px"
	 viewBox="0 0 100 100" style="enable-background:new 0 0 100 100;" xml:space="preserve">
<style type="text/css">
	.st0{opacity:0.8;}
	.st1{opacity:0.25;}
	.st2{opacity:0.46;}
	.st3{opacity:0.34;}
</style>
<g>
	<path class="st0" d="M24.9,50L50,24.9v0v0L25.3,0.2c-0.2-0.2-0.6-0.2-0.8,0L-0.2,24.9L24.9,50z"/>
	<path class="st1" d="M75.1,50l25.1-25.1v0L75.5,0.2c-0.2-0.2-0.6-0.2-0.8,0L50,24.9L75.1,50z"/>
	<rect x="32.2" y="32.2" transform="matrix(0.7071 -0.7071 0.7071 0.7071 -20.7106 50)" class="st2" width="35.5" height="35.5"/>
	<g>
		<path d="M24.9,100V50L-0.2,24.9v50.2l24.7,24.7C24.6,99.9,24.7,100,24.9,100z"/>
		<path d="M75.1,100V50L50,75.1l24.7,24.7C74.8,99.9,75,100,75.1,100z"/>
	</g>
	<g class="st3">
		<path d="M24.9,50v50c0.2,0,0.3-0.1,0.4-0.2L50,75.1v0v0L24.9,50z"/>
		<path d="M75.1,100c0.2,0,0.3-0.1,0.4-0.2l24.7-24.7V24.9L75.1,50V100z"/>
	</g>
</g>
</svg>
