<?xml version="1.0" encoding="utf-8"?>
<svg version="1.1" id="Layer_1" xmlns="http://www.w3.org/2000/svg" xmlns:xlink="http://www.w3.org/1999/xlink" x="0px" y="0px"
	 viewBox="0 0 193 33.3" style="enable-background:new 0 0 193 33.3;" xml:space="preserve">
<g>
	<g>
		<path d="M13.3,9.4l-2.4,2.8c-0.9-1.1-2.2-1.9-3.3-1.9c-1.9,0-3.3,1.5-3.3,3.6s1.4,3.6,3.3,3.6c1.1,0,2.4-0.6,3.3-1.6l2.4,2.6
			c-1.5,1.6-3.8,2.7-5.9,2.7C3.1,21.2,0,18.1,0,14c0-4.1,3.2-7.1,7.5-7.1C9.6,6.9,11.9,7.9,13.3,9.4z"/>
		<path d="M14.6,21V7h4.1v14H14.6z"/>
		<path d="M28.3,10.4V21h-4.2V10.4h-4V7h12.3v3.3H28.3z"/>
		<path d="M42.1,21h-4.1v-4.3L32.8,7h4.1l3,5.7L43,7h4.1l-5,9.5V21z"/>
		<path d="M51.8,21.4c-2.4,0-4-1.9-3.6-4.3c0.4-2.3,2.3-4.3,4.8-4.3c2.3,0,4,1.9,3.6,4.3C56.2,19.5,54.2,21.4,51.8,21.4z
				M52.9,13.8c-1,0-1.7,1.1-2.1,3.3c-0.4,2.3,0,3.3,1,3.3c1,0,1.7-1,2.1-3.3C54.3,14.9,53.9,13.8,52.9,13.8z"/>
		<path d="M64.7,9.3c-0.4,0-0.7-0.4-0.8-0.7c-0.2-0.7-0.3-1-0.9-1c-0.8,0-1.1,0.8-1.5,3.2l-0.4,2.6H63l-0.1,0.8H61L59.8,21
			c-0.9,4.8-2.7,6.2-4.7,6.2c-1.4,0-2.2-0.9-2.2-1.5c0-0.6,0.4-1,1-1c0.4,0,0.7,0.4,0.7,0.7c0.1,0.6,0.3,1,1,1
			c0.6,0,0.9-0.6,1.3-2.9l1.7-9.4h-1.4l0.1-0.8h1.5l0.4-2.2c0.4-2.5,1.9-4.4,4.2-4.4c1.6,0,2.4,1,2.4,1.6
			C65.7,8.9,65.3,9.3,64.7,9.3z"/>
		<path d="M80.7,9.4l-2.4,2.8c-0.9-1.1-2.2-1.9-3.3-1.9c-1.9,0-3.3,1.5-3.3,3.6s1.4,3.6,3.3,3.6c1.1,0,2.4-0.6,3.3-1.6l2.4,2.6
			c-1.5,1.6-3.8,2.7-5.9,2.7c-4.2,0-7.4-3.1-7.4-7.2c0-4.1,3.2-7.1,7.5-7.1C77,6.9,79.2,7.9,80.7,9.4z"/>
		<path d="M91.1,21v-5.2h-5V21H82V7h4.1v5.6h5V7h4.1v14H91.1z"/>
		<path d="M101.4,18.8l-0.8,2.2h-4.3l6-14h4.3l5.8,14h-4.4l-0.8-2.2H101.4z M104.3,11.2l-1.7,4.6h3.4L104.3,11.2z"/>
		<path d="M125.3,21l0-8.3l-2.8,6.9h-2.7l-2.8-6.9V21h-3.6V7h4.4l3.4,7.7l3.4-7.7h4.4v14H125.3z"/>
		<path d="M137.3,7c3.6,0,5.7,1.8,5.7,5c0,3.3-2.1,5.2-5.7,5.2h-2.2V21H131V7H137.3z M135.1,14.1h2c1.2,0,2-0.7,2-1.9
			c0-1.2-0.7-1.9-2-1.9h-2V14.1z"/>
		<path d="M144.2,21V7h4.1v14H144.2z"/>
		<path d="M164.8,14c0,4.1-3.2,7.2-7.6,7.2c-4.4,0-7.6-3-7.6-7.2c0-4.1,3.2-7.1,7.6-7.1C161.6,6.9,164.8,9.9,164.8,14z M153.9,14
			c0,2.1,1.6,3.7,3.4,3.7c1.8,0,3.3-1.6,3.3-3.7c0-2.1-1.5-3.6-3.3-3.6C155.4,10.4,153.9,11.9,153.9,14z"/>
		<path d="M175.8,21l-5.9-7.8V21H166V7h3.5l5.9,7.8V7h3.8v14H175.8z"/>
		<path d="M192.9,8.5l-1.5,3.2c-1.4-0.8-3.5-1.6-4.6-1.6c-0.7,0-1.2,0.2-1.2,0.8c0,2.1,7.3,0.8,7.3,5.9c0,3-2.6,4.4-5.8,4.4
			c-2.4,0-5-0.8-6.7-2.2l1.6-3.1c1.4,1.2,3.8,2.1,5.2,2.1c0.9,0,1.4-0.3,1.4-0.9c0-2.1-7.3-0.8-7.3-5.7c0-2.7,2.3-4.4,5.8-4.4
			C189.2,6.9,191.4,7.5,192.9,8.5z"/>
	</g>
</g>
</svg>
