<svg viewBox="0 0 200 57" xmlns="http://www.w3.org/2000/svg"><title>Marion Design Co</title><g fill-rule="nonzero" fill="#000000"><path d="M73.7 13.7l-9-10.2h-2.2v22.3h5.4V14.4l5.8 6.5 5.9-6.5v11.4h5.3V3.5h-2.2M98.7 3.5l-8.9 22.4h5.7l1.3-3.3h8.9l1.3 3.3h5.7l-8.9-22.3h-5.1v-.1zm4.9 13.7h-4.8l2.4-6.1 2.4 6.1zM134.9 10.1c0-5.5-4.3-6.7-8-6.7h-9.8v22.4h5.3V17h3l5.1 8.8h6.1l-5.5-9.5c2.5-1 3.8-3.1 3.8-6.2zm-5 .1c0 .8-.3 1.8-2.1 1.8h-5.4V8.6h5.4c1.8 0 2.1.9 2.1 1.6zM142.1 3.5h5.3v22.4h-5.3zM164 3.5c-3.2 0-5.8 1.1-8 3.2-2.1 2.1-3.2 4.8-3.2 8s1.1 5.8 3.2 8c2.1 2.1 4.8 3.2 8 3.2s5.8-1.1 8-3.2 3.2-4.8 3.2-8-1.1-5.8-3.2-8c-2.2-2.1-4.8-3.2-8-3.2zm4.2 15.5c-1.1 1.2-2.5 1.7-4.2 1.7-1.8 0-3.1-.6-4.2-1.7-1.1-1.2-1.6-2.6-1.6-4.4 0-1.8.5-3.2 1.6-4.4 1.1-1.2 2.5-1.7 4.2-1.7 1.8 0 3.1.6 4.2 1.7 1.1 1.2 1.6 2.6 1.6 4.4 0 1.8-.5 3.3-1.6 4.4zM194.7 3.5V16L182.1 3.5h-2.2v22.3h5.4V13.4l12.4 12.4h2.3V3.5M66.7 34c2.7 0 4.9 2 4.9 4.8 0 2.9-2.2 4.7-4.9 4.7h-4.1V34h4.1zm0 7.8c1.6 0 2.9-1.1 2.9-3s-1.4-3-3-3h-2.2v6h2.3zM82 41.8v1.8h-6.8V34H82v1.8h-4.9v2h3.8v1.7h-3.8v2.3M90.6 36.9c-.2-1-1.1-1.4-1.9-1.4-.9 0-1.4.4-1.4 1 0 .8 1.1 1 2.3 1.4 1.4.5 3 1.2 3 2.9s-1.5 2.9-3.7 2.9c-2 0-3.4-1.1-3.9-2.9l1.8-.5c.2.9 1 1.7 2.2 1.7 1 0 1.6-.5 1.6-1.1 0-1-1.3-1.2-2.6-1.7-1.1-.4-2.6-1-2.6-2.7 0-1.5 1.5-2.8 3.5-2.8 1.8 0 3.2 1.1 3.6 2.6l-1.9.6zM96.1 43.6V34H98v9.5h-1.9M109.4 42.6c-.5.6-1.7 1.2-2.9 1.2-2.7 0-5-2.1-5-5s2.2-5 5-5c1.9 0 3.5 1 4.3 2.5l-1.9.5c-.5-.7-1.5-1.2-2.4-1.2-1.8 0-3 1.3-3 3.1 0 1.9 1.3 3.1 3.1 3.1 1.6 0 2.5-.9 2.8-1.6v-.4h-2.6v-1.5h4.3v5.3h-1.6c-.1-.8-.1-1-.1-1zM123.4 34v9.5h-1.8l-2.7-3.7c-.9-1.2-1.9-2.7-1.9-2.7v6.4h-2V34h1.8l2.8 3.7c.7.9 1.9 2.6 1.9 2.6V34h1.9zM139.9 36.9c-.5-.7-1.5-1.2-2.4-1.2-1.8 0-3 1.3-3 3.1 0 1.9 1.3 3.1 3 3.1 1.1 0 2.1-.6 2.6-1.4l1.9.5c-.8 1.7-2.5 2.8-4.5 2.8-2.7 0-5-2.1-5-5s2.2-5 5-5c1.9 0 3.5 1 4.3 2.5l-1.9.6zM149.8 33.8c2.7 0 5 2.1 5 5s-2.2 5-5 5-5-2.1-5-5 2.3-5 5-5zm0 8.1c1.8 0 3-1.3 3-3.1s-1.2-3.1-3-3.1c-1.7 0-3 1.3-3 3.1s1.2 3.1 3 3.1zM0 0v48h34.1l9.6 9.2V48H48V0H0zm31.1 23.6L24 31.5l-7.1-7.9v14h-6.5V10.4h2.7L24 22.8l10.9-12.4h2.7v27.2h-6.5v-14z"/></g></svg>