<?xml version="1.0" encoding="utf-8"?>
<svg version="1.1" id="Layer_1" xmlns="http://www.w3.org/2000/svg" xmlns:xlink="http://www.w3.org/1999/xlink" x="0px" y="0px"
	 viewBox="0 0 100 100" style="enable-background:new 0 0 100 100;" xml:space="preserve">
<path d="M50,0C22.4,0,0,22.4,0,50c0,27.6,22.4,50,50,50c27.6,0,50-22.4,50-50C100,22.4,77.6,0,50,0z M50,93.6
	C25.9,93.6,6.4,74.1,6.4,50C6.4,25.9,25.9,6.4,50,6.4c24.1,0,43.6,19.6,43.6,43.6C93.6,74.1,74.1,93.6,50,93.6z"/>
<polygon points="36.8,29.5 36.8,50.1 36.8,70.7 54.6,60.4 72.4,50.1 54.6,39.8 	"/>
</svg>
