<svg width="70px" height="70px" version="1.1" xmlns="http://www.w3.org/2000/svg" xmlns:xlink="http://www.w3.org/1999/xlink">
    <title>RSS</title>
    <path d="M0.0112966997,37.2011252 C8.75211813,37.2011252 16.9690551,40.6019691 23.1441136,46.7876231 C29.3304688,52.9732771 32.7364238,61.2123769 32.7364238,69.9831224 L46.2063262,69.9831224 C46.2063262,44.5077356 25.4825305,23.7834037 0.0112966997,23.7834037 L0.0112966997,37.2011252 Z M0.0324780118,13.416315 C31.1845397,13.416315 56.5300976,38.7988748 56.5300976,70 L70,70 C70,31.3994374 38.6107077,0 0.0324780118,0 L0.0324780118,13.416315 Z M18.6593238,60.6272855 C18.6593238,65.7580872 14.480957,69.9198312 9.32966191,69.9198312 C4.17836682,69.9198312 0,65.7594937 0,60.6272855 C0,55.4936709 4.17695473,51.3347398 9.32824982,51.3347398 C14.4795449,51.3347398 18.6593238,55.4936709 18.6593238,60.6272855 Z" fill="#000000" id="rss"></path>
</svg>
