<svg version="1.1" x="0px" y="0px" viewBox="0 0 70 70">
    <path d="M60.1737814,51.7054876 L70,61.5317062 L70,61.5328467 L61.5328467,70 L51.7056466,60.1734778 C46.3857598,63.8468185 39.9393634,66 32.9994274,66 C14.802561,66 0,51.1965506 0,33.0011452 C0,14.8045945 14.802561,0 32.9994274,0 C51.1962938,0 66,14.8045945 66,33.0011452 C66,39.9402292 63.8469641,46.3859906 60.1737814,51.7054876 Z M32.9994274,11.7962661 C21.3071678,11.7962661 11.7953256,21.3090884 11.7953256,33.0011452 C11.7953256,44.6932019 21.3071678,54.2037339 32.9994274,54.2037339 C44.6916871,54.2037339 54.2046744,44.6932019 54.2046744,33.0011452 C54.2046744,21.3090884 44.6916871,11.7962661 32.9994274,11.7962661 Z" id="search" fill="#000000"></path>
</svg>
