<?xml version="1.0" encoding="utf-8"?>
<!-- Generator: Adobe Illustrator 20.1.0, SVG Export Plug-In . SVG Version: 6.00 Build 0)  -->
<svg version="1.1" id="Layer_1" xmlns="http://www.w3.org/2000/svg" xmlns:xlink="http://www.w3.org/1999/xlink" x="0px" y="0px"
	 viewBox="0 0 100 100" style="enable-background:new 0 0 100 100;" xml:space="preserve">
<g>
	<path d="M50,9c13.4,0,14.9,0.1,20.2,0.3c4.9,0.2,7.5,1,9.3,1.7c2.3,0.9,4,2,5.7,3.7c1.7,1.7,2.8,3.4,3.7,5.7
		c0.7,1.8,1.5,4.4,1.7,9.3C90.9,35.1,91,36.6,91,50s-0.1,14.9-0.3,20.2c-0.2,4.9-1,7.5-1.7,9.3c-0.9,2.3-2,4-3.7,5.7
		c-1.7,1.7-3.4,2.8-5.7,3.7c-1.8,0.7-4.4,1.5-9.3,1.7C64.9,90.9,63.4,91,50,91c-13.4,0-14.9-0.1-20.2-0.3c-4.9-0.2-7.5-1-9.3-1.7
		c-2.3-0.9-4-2-5.7-3.7c-1.7-1.7-2.8-3.4-3.7-5.7c-0.7-1.8-1.5-4.4-1.7-9.3C9.1,64.9,9,63.4,9,50s0.1-14.9,0.3-20.2
		c0.2-4.9,1-7.5,1.7-9.3c0.9-2.3,2-4,3.7-5.7c1.7-1.7,3.4-2.8,5.7-3.7c1.8-0.7,4.4-1.5,9.3-1.7C35.1,9.1,36.6,9,50,9 M50,0
		C36.4,0,34.7,0.1,29.4,0.3c-5.3,0.2-9,1.1-12.1,2.3c-3.3,1.3-6.1,3-8.9,5.8S3.9,14,2.6,17.2c-1.2,3.2-2.1,6.8-2.3,12.1
		C0.1,34.7,0,36.4,0,50c0,13.6,0.1,15.3,0.3,20.6c0.2,5.3,1.1,9,2.3,12.1c1.3,3.3,3,6.1,5.8,8.9s5.6,4.5,8.9,5.8
		c3.2,1.2,6.8,2.1,12.1,2.3c5.3,0.2,7,0.3,20.6,0.3c13.6,0,15.3-0.1,20.6-0.3c5.3-0.2,9-1.1,12.1-2.3c3.3-1.3,6.1-3,8.9-5.8
		c2.8-2.8,4.5-5.6,5.8-8.9c1.2-3.2,2.1-6.8,2.3-12.1c0.2-5.3,0.3-7,0.3-20.6s-0.1-15.3-0.3-20.6c-0.2-5.3-1.1-9-2.3-12.1
		c-1.3-3.3-3-6.1-5.8-8.9c-2.8-2.8-5.6-4.5-8.9-5.8c-3.2-1.2-6.8-2.1-12.1-2.3C65.3,0.1,63.6,0,50,0L50,0z"/>
	<path d="M50,24.3c-14.2,0-25.7,11.5-25.7,25.7c0,14.2,11.5,25.7,25.7,25.7c14.2,0,25.7-11.5,25.7-25.7C75.7,35.8,64.2,24.3,50,24.3
		z M50,66.7c-9.2,0-16.7-7.5-16.7-16.7S40.8,33.3,50,33.3S66.7,40.8,66.7,50S59.2,66.7,50,66.7z"/>
	<circle cx="76.7" cy="23.3" r="6"/>
</g>
</svg>
