<?xml version="1.0" encoding="utf-8"?>
<svg version="1.1" id="Layer_1" xmlns="http://www.w3.org/2000/svg" xmlns:xlink="http://www.w3.org/1999/xlink" x="0px" y="0px"
	 viewBox="0 0 100 100" style="enable-background:new 0 0 100 100;" xml:space="preserve">
<path d="M99,30c0,0-1-6.9-4-9.9c-3.8-4-8.1-4-10-4.2c-14-1-35-1-35-1h0c0,0-21,0-35,1c-2,0.2-6.2,0.3-10,4.2c-3,3-4,9.9-4,9.9
			s-1,8.1-1,16.2v7.6C0,61.9,1,70,1,70s1,6.9,4,9.9c3.8,4,8.8,3.9,11,4.3c8,0.8,34,1,34,1s21,0,35-1c2-0.2,6.2-0.3,10-4.2
			c3-3,4-9.9,4-9.9s1-8.1,1-16.2v-7.6C100,38.1,99,30,99,30z M39.7,63l0-28.1l27,14.1L39.7,63z"/>
</svg>
