<svg width="100" height="64" xmlns="http://www.w3.org/2000/svg"><title>weather</title><path d="M61.5 14.3c-4.9 0-9.5 1.7-13.2 4.5-1.9-.5-3.9-.8-5.9-.8-9.1 0-17.1 5-21.1 13C9.4 32.2 0 42.3 0 54.6c0 2.2.3 4.5 1 6.7l.7 2.5h79.7l.4-3c.1-1 .2-1.8.2-2.6 0-3.5-1-6.9-2.6-9.7 2.4-3.5 3.9-7.7 3.9-12.3-.1-12.1-9.8-21.9-21.8-21.9zm0 7c8.1 0 14.7 6.6 14.7 14.7 0 2.4-.6 4.7-1.7 6.8-2.5-2-5.5-3.4-8.7-4C65 32 61.3 26.1 56 22.3c1.7-.6 3.6-1 5.5-1zM7.1 56.8C7 56 7 55.3 7 54.6 7 45.4 14.5 38 23.6 38H26l.9-2.2C29.4 29.2 35.5 25 42.4 25 51.6 25 59 32.5 59 41.6l-.1 3.9h3.6c6.4 0 11.7 4.9 12.4 11.2H7.1v.1zm79.5876-35.3092l8.5467-3.124 2.403 6.5743-8.5466 3.1243-2.403-6.5745zM44.7366 2.6266L51.311.2228 55.054 10.46l-6.5743 2.4038-3.743-10.2372zm42.4246 46.1l2.9463-6.3496 9.8874 4.5878-2.9465 6.3497-9.8873-4.5878zm-15.187-38.156L75.582.71l6.5738 2.405-3.6078 9.8607-6.5737-2.4052z" fill="#000000" fill-rule="nonzero"/></svg>