<?xml version="1.0" encoding="utf-8"?>
<!-- Generator: Adobe Illustrator 20.1.0, SVG Export Plug-In . SVG Version: 6.00 Build 0)  -->
<svg version="1.1" id="Layer_1" xmlns="http://www.w3.org/2000/svg" xmlns:xlink="http://www.w3.org/1999/xlink" x="0px" y="0px"
	 viewBox="0 0 100 100" style="enable-background:new 0 0 100 100;" xml:space="preserve">
<g>
	<path d="M61.5,32.3c-4.9,0-9.5,1.7-13.2,4.5c-1.9-0.5-3.9-0.8-5.9-0.8c-9.1,0-17.1,5-21.1,13C9.4,50.2,0,60.3,0,72.6
		c0,2.2,0.3,4.5,1,6.7l0.7,2.5h79.7l0.4-3c0.1-1,0.2-1.8,0.2-2.6c0-3.5-1-6.9-2.6-9.7c2.4-3.5,3.9-7.7,3.9-12.3
		C83.2,42.1,73.5,32.3,61.5,32.3z M61.5,39.3c8.1,0,14.7,6.6,14.7,14.7c0,2.4-0.6,4.7-1.7,6.8c-2.5-2-5.5-3.4-8.7-4
		c-0.8-6.8-4.5-12.7-9.8-16.5C57.7,39.7,59.6,39.3,61.5,39.3z M7.1,74.8C7,74,7,73.3,7,72.6c0-9.2,7.5-16.6,16.6-16.6l2.4,0l0.9-2.2
		C29.4,47.2,35.5,43,42.4,43C51.6,43,59,50.5,59,59.6l-0.1,3.9l3.6,0c6.4,0,11.7,4.9,12.4,11.2H7.1z"/>
	<rect x="87.6" y="37.7" transform="matrix(0.9392 -0.3433 0.3433 0.9392 -8.5287 34.156)" width="9.1" height="7"/>
	<rect x="46.4" y="19.1" transform="matrix(0.9392 -0.3434 0.3434 0.9392 -5.4012 18.6216)" width="7" height="10.9"/>
	<rect x="90.1" y="60.4" transform="matrix(0.4209 -0.9071 0.9071 0.4209 -5.5507 123.034)" width="7" height="10.9"/>
	<rect x="71.8" y="21.4" transform="matrix(0.3436 -0.9391 0.9391 0.3436 27.2071 88.6448)" width="10.5" height="7"/>
</g>
</svg>
