<?xml version="1.0" standalone="no"?>
<!DOCTYPE svg PUBLIC "-//W3C//DTD SVG 20010904//EN"
 "http://www.w3.org/TR/2001/REC-SVG-20010904/DTD/svg10.dtd">
<svg version="1.0" xmlns="http://www.w3.org/2000/svg"
 width="700.000000pt" height="700.000000pt" viewBox="0 0 700.000000 700.000000"
 preserveAspectRatio="xMidYMid meet">
<g transform="translate(0.000000,700.000000) scale(0.100000,-0.100000)"
fill="#000000" stroke="none">
<path d="M864 6135 l-864 -864 0 -1771 0 -1772 860 -860 c473 -473 868 -861
878 -863 11 -2 302 281 895 874 482 482 877 871 877 865 0 -10 1702 -1717
1730 -1734 8 -5 19 -10 23 -10 4 0 397 389 873 864 l864 865 0 1771 0 1772
-864 864 c-476 475 -870 864 -878 864 -7 0 -405 -392 -885 -872 l-873 -872
-868 869 c-478 477 -877 870 -887 871 -12 2 -302 -282 -881 -861z m4386 -2639
c0 -2 -8 -10 -17 -17 -16 -13 -17 -12 -4 4 13 16 21 21 21 13z"/>
</g>
</svg>
